<svg id="Layer_1" data-name="Layer 1" xmlns="http://www.w3.org/2000/svg" xmlns:xlink="http://www.w3.org/1999/xlink" viewBox="0 0 1080 1080"><defs><style>.cls-1{fill:url(#linear-gradient);}.cls-2{fill:#fff;}</style><linearGradient id="linear-gradient" y1="540" x2="1080" y2="540" gradientUnits="userSpaceOnUse"><stop offset="0" stop-color="#23baf5"/><stop offset="1" stop-color="#1c62d1"/></linearGradient></defs><title>chat_ICON</title><rect class="cls-1" width="1080" height="1080"/><path class="cls-2" d="M282.59,651.1c-30.89-2.87-53.87-16.25-69.12-42a76.32,76.32,0,0,1-11-39.44c-.05-87.66-.44-175.33.12-263,.3-46.9,37.13-81.88,84.83-81.91q210.25-.17,420.5,0a86.09,86.09,0,0,1,14,1c40.41,6.63,68.36,37.32,71.19,78,.1,1.39.26,2.79.44,4.75,4.12.4,8.27.57,12.34,1.24,41.92,6.91,71.12,39.55,71.4,82.18q.86,130.08,0,260.17c-.29,43.66-30.83,76.48-74.37,82.3-1.61.21-3.21.59-5.58,1V855.25c-3.47-2.28-5.76-3.71-8-5.25q-79.9-55.59-159.87-111.07a21.56,21.56,0,0,0-11.54-3.6c-80.86-.21-161.73,0-242.59-.32-9.49,0-18.94-2.56-28.45-3.34-3.35-.28-7.48.24-10.17,2-16,10.64-31.64,21.77-47.42,32.73-1.86,1.28-3.76,2.49-6.73,4.44ZM322,695.22c3.37-2.2,5.51-3.53,7.58-5C365.34,665.39,401,640.4,437,615.78a25.26,25.26,0,0,1,13.45-4.17q127.26-.36,254.52-.18c30.89,0,48.79-18,48.8-49q0-124.8,0-249.6c0-30.53-18-48.58-48.45-48.59H290.45c-30.69,0-48.55,17.77-48.55,48.32q0,125.15,0,250.3c0,2.11,0,4.22.1,6.33.66,14.26,6.9,25.6,18.33,34,8.45,6.21,18.23,8.22,28.53,8.23,10.91,0,21.83,0,33.14,0Zm71.58-1,.67,1.38h7.69q113.9,0,227.81.18a24.08,24.08,0,0,1,12.8,4c36.11,24.79,72,49.92,108,74.93,2,1.38,4.08,2.57,7.39,4.63V695.61c5.06,0,9.25.12,13.43,0,11-.38,22.22.45,32.9-1.6,20.91-4,33.65-22.45,33.66-46.48q.09-125.5,0-251a89.57,89.57,0,0,0-.92-11.9c-2.76-20.34-22.66-36.75-43.7-35.49v8.2q0,103-.09,206a100.91,100.91,0,0,1-2.11,22.3c-9,39.4-41.86,65.2-83,65.26q-121.65.2-243.28-.06c-6.35,0-11.58,1.32-16.84,5.14-16.1,11.71-32.61,22.86-48.94,34.24C397.11,691.49,395.36,692.89,393.57,694.23Z" transform="translate(0 0)"/><path class="cls-2" d="M399.53,410.78h38.34v38.77H399.53Z" transform="translate(0 0)"/><path class="cls-2" d="M478.56,410.74h38.38v38.7H478.56Z" transform="translate(0 0)"/><path class="cls-2" d="M595.93,450.8H557.67V412.08h38.26Z" transform="translate(0 0)"/></svg>