<svg id="Layer_1" data-name="Layer 1" xmlns="http://www.w3.org/2000/svg" xmlns:xlink="http://www.w3.org/1999/xlink" viewBox="0 0 749.98 551.84"><defs><style>.cls-1,.cls-8{fill:#1d2328;}.cls-1{opacity:0.17;}.cls-2{opacity:0.18;}.cls-3{fill:url(#linear-gradient);}.cls-19,.cls-20,.cls-27,.cls-28,.cls-35,.cls-4,.cls-5{fill:none;stroke-miterlimit:10;}.cls-19,.cls-20,.cls-27,.cls-4,.cls-5{stroke-width:2px;}.cls-4{stroke:url(#linear-gradient-2);}.cls-5{stroke:url(#linear-gradient-3);}.cls-6{fill:url(#linear-gradient-4);}.cls-7{fill:#fff;}.cls-9{fill:url(#linear-gradient-5);}.cls-10{fill:url(#linear-gradient-6);}.cls-11{fill:#e06a58;}.cls-12{fill:url(#linear-gradient-7);}.cls-13{fill:#f9a07b;}.cls-14{fill:url(#linear-gradient-8);}.cls-15{fill:url(#linear-gradient-9);}.cls-16{fill:url(#linear-gradient-10);}.cls-17{fill:#414b51;}.cls-18{fill:#56c4f9;}.cls-19{stroke:#0b2d50;}.cls-19,.cls-20,.cls-27,.cls-28{stroke-linecap:round;}.cls-20,.cls-28{stroke:#cc454e;}.cls-21{fill:#262d40;}.cls-22{fill:#cc454e;}.cls-23{fill:#e8729b;}.cls-24{fill:#3d86e0;}.cls-25{fill:url(#linear-gradient-11);}.cls-26{fill:#3a92c9;}.cls-27{stroke:#3a92c9;}.cls-29{fill:url(#linear-gradient-12);}.cls-30{fill:url(#linear-gradient-13);}.cls-31{opacity:0.35;}.cls-32{fill:url(#linear-gradient-14);}.cls-33{fill:url(#linear-gradient-15);}.cls-34{fill:url(#linear-gradient-16);}.cls-35{stroke:#1d2328;}.cls-36{fill:url(#linear-gradient-17);}</style><linearGradient id="linear-gradient" x1="711.92" y1="528.14" x2="881.45" y2="528.14" gradientUnits="userSpaceOnUse"><stop offset="0" stop-color="#23baf5"/><stop offset="1" stop-color="#1c62d1"/></linearGradient><linearGradient id="linear-gradient-2" x1="676.78" y1="646.69" x2="770.51" y2="646.69" xlink:href="#linear-gradient"/><linearGradient id="linear-gradient-3" x1="645.98" y1="579.84" x2="710.15" y2="579.84" xlink:href="#linear-gradient"/><linearGradient id="linear-gradient-4" x1="587.15" y1="357.25" x2="704.53" y2="357.25" xlink:href="#linear-gradient"/><linearGradient id="linear-gradient-5" x1="228.44" y1="437.07" x2="358.55" y2="437.07" xlink:href="#linear-gradient"/><linearGradient id="linear-gradient-6" x1="360.68" y1="319.57" x2="471.67" y2="319.57" gradientTransform="translate(544.25 -189.27) rotate(66.61)" xlink:href="#linear-gradient"/><linearGradient id="linear-gradient-7" x1="459.77" y1="660.14" x2="524.2" y2="660.14" xlink:href="#linear-gradient"/><linearGradient id="linear-gradient-8" x1="322.8" y1="690.45" x2="499.76" y2="690.45" xlink:href="#linear-gradient"/><linearGradient id="linear-gradient-9" x1="322.8" y1="740.56" x2="499.51" y2="740.56" xlink:href="#linear-gradient"/><linearGradient id="linear-gradient-10" x1="375.47" y1="598.25" x2="460.58" y2="598.25" xlink:href="#linear-gradient"/><linearGradient id="linear-gradient-11" x1="369.95" y1="520.07" x2="397.34" y2="520.07" gradientTransform="translate(81.54 -51.24) rotate(8.55)" xlink:href="#linear-gradient"/><linearGradient id="linear-gradient-12" x1="314.06" y1="656.91" x2="389.15" y2="656.91" xlink:href="#linear-gradient"/><linearGradient id="linear-gradient-13" x1="377.09" y1="670.46" x2="388" y2="670.46" xlink:href="#linear-gradient"/><linearGradient id="linear-gradient-14" x1="726.77" y1="730.71" x2="722.83" y2="737.53" gradientTransform="translate(-63.14 66.51) rotate(-5.18)" gradientUnits="userSpaceOnUse"><stop offset="0" stop-color="#1fbcf7"/><stop offset="1" stop-color="#1b62d3"/></linearGradient><linearGradient id="linear-gradient-15" x1="722.43" y1="737.15" x2="722.39" y2="737.21" gradientTransform="translate(-233.56 -197.57) rotate(-5.18)" xlink:href="#linear-gradient-14"/><linearGradient id="linear-gradient-16" x1="729.31" y1="732.08" x2="726.01" y2="737.79" xlink:href="#linear-gradient-14"/><linearGradient id="linear-gradient-17" x1="674.98" y1="728.91" x2="714.92" y2="728.91" xlink:href="#linear-gradient-14"/></defs><title>contact_us _vector_img</title><path class="cls-1" d="M847.76,806.43c81-61.56,117-232.26-14.44-316-87-55.41-141.15-23.8-239.06-60.46C474.74,385.28,456.93,250.13,311.55,316.63c-77,35.22-130.42,134.49-139.81,247.31-9.21,110.49,29.95,186.3,110,238.17C469.63,810.11,657.92,808.66,847.76,806.43Z" transform="translate(-170.42 -264.08)"/><g class="cls-2"><path class="cls-3" d="M881.45,546.71V509.57H867.37a72,72,0,0,0-7.57-18.26l10-10-26.27-26.27-10,10a72.12,72.12,0,0,0-18.25-7.57V443.37H778.11v14.09A72.12,72.12,0,0,0,759.86,465l-10-10-26.26,26.27,10,10A72.42,72.42,0,0,0,726,509.57H711.92v37.14H726A72.42,72.42,0,0,0,733.58,565l-10,10,26.26,26.27,10-10a72.88,72.88,0,0,0,18.25,7.58v14.08h37.15V598.83a72.88,72.88,0,0,0,18.25-7.58l10,10,26.27-26.27-10-10a72,72,0,0,0,7.57-18.26ZM796.7,560.32a32.18,32.18,0,1,1,32.17-32.19A32.19,32.19,0,0,1,796.7,560.32Z" transform="translate(-170.42 -264.08)"/><path class="cls-4" d="M769.21,639.78l-7.06-18.42-7,2.68a38.22,38.22,0,0,0-7.23-7.62l3-6.84-18-8-3.05,6.84a38,38,0,0,0-10.5-.28l-2.68-7-18.42,7.07,2.68,7a38.46,38.46,0,0,0-7.61,7.23l-6.84-3-8,18,6.84,3.06a38.3,38.3,0,0,0-.29,10.49l-7,2.68L685.14,672l7-2.68a38.51,38.51,0,0,0,7.23,7.62l-3,6.84,18,8,3-6.84a38.77,38.77,0,0,0,10.5.28l2.68,7L749,685.2l-2.68-7a39,39,0,0,0,7.61-7.23l6.84,3,8-18L762,653a38.7,38.7,0,0,0,.28-10.49Zm-39.44,22.87a17.09,17.09,0,1,1,9.83-22.08A17.1,17.1,0,0,1,729.77,662.65Z" transform="translate(-170.42 -264.08)"/><path class="cls-5" d="M708.86,575.16l-4.77-12.44-4.72,1.81a26,26,0,0,0-4.89-5.15l2.06-4.62-12.18-5.42L682.3,554a25.47,25.47,0,0,0-7.09-.19l-1.82-4.72L661,553.82l1.81,4.72a25.73,25.73,0,0,0-5.15,4.89L653,561.37l-5.42,12.18,4.62,2.06a25.47,25.47,0,0,0-.19,7.09l-4.72,1.81L652.05,597l4.72-1.81a25.69,25.69,0,0,0,4.89,5.14l-2.06,4.63,12.18,5.42,2.06-4.62a26.25,26.25,0,0,0,7.09.19l1.81,4.72,12.45-4.77-1.81-4.72a26,26,0,0,0,5.14-4.89l4.63,2.06,5.42-12.18L704,584.07a25.85,25.85,0,0,0,.19-7.09Zm-26.65,15.46a11.55,11.55,0,1,1,6.64-14.92A11.55,11.55,0,0,1,682.21,590.62Z" transform="translate(-170.42 -264.08)"/></g><path class="cls-6" d="M704.53,357.25a58.69,58.69,0,1,1-58.69-58.69A58.64,58.64,0,0,1,704.53,357.25Z" transform="translate(-170.42 -264.08)"/><circle class="cls-7" cx="645.84" cy="337.93" r="19.21" transform="translate(-206.95 -182.41) rotate(-7.04)"/><path class="cls-7" d="M682.23,395.9a58.74,58.74,0,0,1-72.78,0c3.75-16.52,7.21-30.77,10.8-34.39,5.08-5.07,18.56-8,25.57-8s21.13,3.59,23.74,6.2C674.88,365,679.47,379.63,682.23,395.9Z" transform="translate(-170.42 -264.08)"/><path class="cls-8" d="M561.5,501.92v-29a14.32,14.32,0,0,1,14.32-14.32h91.3a14.32,14.32,0,0,1,14.32,14.32v29a14.32,14.32,0,0,1-14.32,14.32H575.83A14.31,14.31,0,0,1,561.5,501.92Z" transform="translate(-170.42 -264.08)"/><polyline class="cls-8" points="429.64 236.32 385.45 279.37 457.07 243.18"/><path class="cls-7" d="M572.58,472.22v-.15a2.13,2.13,0,0,1,2.13-2.13h45.14a2.13,2.13,0,0,1,2.13,2.13v.15a2.13,2.13,0,0,1-2.13,2.14H574.71A2.13,2.13,0,0,1,572.58,472.22Z" transform="translate(-170.42 -264.08)"/><path class="cls-7" d="M624,472.22v-.15a2.13,2.13,0,0,1,2.13-2.13h39.4a2.13,2.13,0,0,1,2.13,2.13v.15a2.13,2.13,0,0,1-2.13,2.14h-39.4A2.14,2.14,0,0,1,624,472.22Z" transform="translate(-170.42 -264.08)"/><path class="cls-7" d="M606.81,481.92v-.15a2.13,2.13,0,0,1,2.13-2.13h56.6a2.13,2.13,0,0,1,2.13,2.13v.15a2.13,2.13,0,0,1-2.13,2.14h-56.6A2.13,2.13,0,0,1,606.81,481.92Z" transform="translate(-170.42 -264.08)"/><path class="cls-7" d="M572.58,481.92v-.15a2.13,2.13,0,0,1,2.13-2.13H600a2.13,2.13,0,0,1,2.13,2.13v.15a2.13,2.13,0,0,1-2.13,2.14H574.71A2.13,2.13,0,0,1,572.58,481.92Z" transform="translate(-170.42 -264.08)"/><path class="cls-7" d="M614.67,491.62v-.15a2.13,2.13,0,0,1,2.13-2.13h48.74a2.13,2.13,0,0,1,2.13,2.13v.15a2.13,2.13,0,0,1-2.13,2.14H616.8A2.13,2.13,0,0,1,614.67,491.62Z" transform="translate(-170.42 -264.08)"/><path class="cls-7" d="M572.58,491.62v-.15a2.13,2.13,0,0,1,2.13-2.13h33.67a2.13,2.13,0,0,1,2.13,2.13v.15a2.14,2.14,0,0,1-2.13,2.14H574.71A2.13,2.13,0,0,1,572.58,491.62Z" transform="translate(-170.42 -264.08)"/><path class="cls-7" d="M572.58,501.32v-.15a2.13,2.13,0,0,1,2.13-2.13h12.5a2.13,2.13,0,0,1,2.13,2.13v.15a2.14,2.14,0,0,1-2.13,2.14h-12.5A2.13,2.13,0,0,1,572.58,501.32Z" transform="translate(-170.42 -264.08)"/><path class="cls-7" d="M593.75,501.32v-.15a2.13,2.13,0,0,1,2.13-2.13h69.66a2.13,2.13,0,0,1,2.13,2.13v.15a2.13,2.13,0,0,1-2.13,2.14H595.88A2.14,2.14,0,0,1,593.75,501.32Z" transform="translate(-170.42 -264.08)"/><path class="cls-9" d="M358.55,468s-15.63-.72-25.85-.84a56.45,56.45,0,1,1,7-16.45Z" transform="translate(-170.42 -264.08)"/><path class="cls-7" d="M308,399.84,307.59,410l-8.31,7.26-7.85-3.76.47-11,7.62-6.65a13.66,13.66,0,0,0-12,22.14L280,432.26c-.57,1.09-1.11,2.2-1.6,3.34l-6.73,15.52a13.68,13.68,0,1,0,10.66,5.13l7.85-14.6q1-1.95,1.92-4L298.26,423A13.66,13.66,0,0,0,308,399.84Zm-35.75,73.63-7.85-3.77-.66-8.68,7.19-4.91,7.84,3.77.66,8.68Z" transform="translate(-170.42 -264.08)"/><circle class="cls-10" cx="416.17" cy="319.57" r="55.49" transform="translate(-212.78 310.58) rotate(-66.61)"/><rect class="cls-7" x="243.9" y="8.2" width="3.71" height="46.6"/><rect class="cls-7" x="393.84" y="310.23" width="3.71" height="47.24" transform="translate(175.97 585.14) rotate(-124.69)"/><path class="cls-7" d="M421.28,319.57a5.11,5.11,0,1,1-5.11-5.1A5.11,5.11,0,0,1,421.28,319.57Z" transform="translate(-170.42 -264.08)"/><path class="cls-11" d="M516.85,703.15s3.73,34.22,7.91,37c7.47,4.93,93.9,16.31,93.9,16.31l-2.83,22.49s-118.38,10.64-123.41,4.72c-8.73-10.26-24.07-59.77-24.07-59.77Z" transform="translate(-170.42 -264.08)"/><path class="cls-12" d="M459.77,615.07l9.57-23s25.94,12.19,34.5,27.25C513,635.44,524.2,721,524.2,721s-45.81,10.55-54.23,6.07S459.77,615.07,459.77,615.07Z" transform="translate(-170.42 -264.08)"/><path class="cls-8" d="M386.93,508.48c-6.7-2.45-13.79-4.6-21-4.05s-14.51,4.34-16.94,10.65c-1.74,4.47-.94,9.74-3.69,13.76-2.62,3.85-7.84,5.45-12.71,5.78s-9.82-.31-14.68.32c-15,2-25.71,18.29-20.78,31.64,2,5.32,6,10.4,5.06,15.94-1,5.93-7.19,9.84-9.75,15.35-3.39,7.33.66,16.21,7.36,21.2s15.42,6.87,23.87,8.13c11.64,1.74,23.66,2.56,35.17.11s22.5-8.53,28.45-18c2.64-4.19,4.25-8.93,7.32-12.87,6.34-8.13,17.57-11.28,26.42-17,9.67-6.33,16.76-18.64,11.06-28.27-5.49-9.26-19.77-11.32-25.5-20.44-2.37-3.77-2.93-8.25-4.47-12.36S396.83,512.12,386.93,508.48Z" transform="translate(-170.42 -264.08)"/><path class="cls-13" d="M426,622c1.69,1.94,3.68,4.07,6.44,4.26,2.92.21,5.36-1.86,7.23-3.85a73.43,73.43,0,0,0,18.67-35.8c-2.41-1.37-4.72-2.68-6.82-3.91a10.37,10.37,0,0,1-4.25-4.67,9,9,0,0,1-.63-4.4c1.37-12.82,2.58-20,7.08-33-21.38-4.82-41.55-10.55-53.14-20.23-1.41,6-3.08,17.64-6.65,29.22-3.8,12.26-9.73,24.38-19.79,29.59A212.05,212.05,0,0,1,426,622Z" transform="translate(-170.42 -264.08)"/><path class="cls-11" d="M446.61,573.69a9,9,0,0,0,.63,4.4c-12.64,15.34-40.93-4.71-53.34-28.38,3.57-11.58,5.24-23.26,6.65-29.22,11.58,9.68,31.76,15.42,53.14,20.23C449.19,553.73,448,560.85,446.61,573.69Z" transform="translate(-170.42 -264.08)"/><path class="cls-14" d="M481.83,759.17C479,777.68,499,797.61,499.51,807.5c-42.43,0-131.32,2.59-176.58-3.56-2.06-11.43,20.29-37.12,20.29-62.48,0-3.36-.14-7-.41-11-.71-11.32-2.39-24.79-4.24-38.59-5.05-37-11.77-76.67-6.81-84.88,9.72-16,32.45-26.89,43.71-31.56,3.87-1.6,6.4-2.47,6.58-2.57,14.14,24.1,42.9,44.66,53.76,43.74,3-.24,12-3.36,17.88-33.14,2.3,1.31,4.6,2.52,6.89,3.7,11.23,5.85,21.77,10.67,24.8,18.19,8,19.79,15.87,69.69,14.13,87.44-1.75,17.9-8.95,31.57-14,49.54-1.18,4.21-2.25,8.67-3.12,13.48C482.18,756.89,482,758,481.83,759.17Z" transform="translate(-170.42 -264.08)"/><path class="cls-15" d="M499.51,807.5c-42.43,0-131.32,2.59-176.58-3.56-2.06-11.43,20.29-37.12,20.29-62.48,0-3.36-.14-7-.41-11-.71-11.32-2.39-24.79-4.24-38.59,8,8.47,19.74-27.33,24.92-16.85,28,56.6,50.15,71.48,88.58,71.48a147.64,147.64,0,0,0,33.45-4.17c-1.18,4.21-2.25,8.67-3.12,13.48-.21,1.09-.4,2.22-.57,3.38C479,777.67,499,797.59,499.51,807.5Z" transform="translate(-170.42 -264.08)"/><path class="cls-16" d="M460.58,587.16c-1.83,13.25-7.23,31.09-22.95,35.8-21.24,6.36-52-33.33-62.16-47.53,3.87-1.6,6.4-2.47,6.58-2.57,14.14,24.1,42.9,44.66,53.76,43.74,3-.24,12-3.36,17.88-33.14C456,584.76,458.29,586,460.58,587.16Z" transform="translate(-170.42 -264.08)"/><polygon class="cls-17" points="298.89 523.49 298.73 538.27 562.97 539.84 563.52 523.08 298.89 523.49"/><polygon class="cls-17" points="677.5 391.63 671.62 385.66 479.15 384.4 382.59 524.04 387.64 528.09 677.5 391.63"/><polygon class="cls-8" points="482.86 389.57 387.64 528.09 569.53 529 677.5 391.63 482.86 389.57"/><ellipse class="cls-18" cx="492.43" cy="520.48" rx="29.65" ry="19.55" transform="translate(-279.86 645.15) rotate(-79.44)"/><path class="cls-8" d="M511.68,473.54c-2,14-8.23,29.46-17.35,46.52-3.2-14-5.25-31-8.08-48S479.7,437.89,473.34,424a82.59,82.59,0,0,0-4.67-8.77,31.2,31.2,0,0,1,11.22,1,37.55,37.55,0,0,1,15.34,8.37c7.23,6.43,12.07,15.19,14.95,24.43A54.76,54.76,0,0,1,511.68,473.54Z" transform="translate(-170.42 -264.08)"/><path class="cls-13" d="M501,488c-.1,2.76-.29,5.57-.55,8.37-3.88,45.34-22.93,76.46-52.06,76.46-41.14,0-67.8-46.13-67.8-91.33,0-44.58,27.31-76.85,59.28-73.11,18.42,2.11,31.89,8.23,41.46,17.2a56.48,56.48,0,0,1,14,21.37c3.56,9.19,5.28,19.59,5.64,30.79,0,0,0,.07,0,.1C501.13,481.19,501.1,484.57,501,488Z" transform="translate(-170.42 -264.08)"/><path class="cls-11" d="M501,488a45.72,45.72,0,0,0-5.54-12.5,129.39,129.39,0,0,1-80.59,12.94l-15.44,12.91c.1-20.63.39-34.59,8.44-44.58,7.55-9.38,20.15-12.91,32.08-14.44a148.39,148.39,0,0,1,40.49.25c5.13.72,10.45,1.83,14.92,4.42,3.56,9.19,5.28,19.59,5.64,30.79,0,0,0,.06,0,.1C501.13,481.19,501.1,484.57,501,488Z" transform="translate(-170.42 -264.08)"/><path class="cls-8" d="M506.91,460.1A76,76,0,0,1,486.25,472c-22.61,9.12-52,12.13-74.87,11-11.25,24.72-15.81,33.58-18.69,55.15-11-10.32-19.94-29.21-22.6-44.06s-2.37-30.32,1.75-44.86c6.5-22.93,22.88-35.21,34.23-41.17a62.05,62.05,0,0,1,7.37-3.41c14.51-5.61,30.86-5.1,45.74-.55a54.42,54.42,0,0,1,20.69,12c11.61,10.48,18.79,24.68,23.43,35.32C504.76,454.78,505.94,457.73,506.91,460.1Z" transform="translate(-170.42 -264.08)"/><path class="cls-8" d="M511.68,473.54a68.9,68.9,0,0,0-4.31-14.41,49.9,49.9,0,0,0-4.06-7.62c-5.16-8.11-12.68-14.8-21.77-17.74a79,79,0,0,0-8.18-9.81,63.18,63.18,0,0,0-35.24-18.58,66.91,66.91,0,0,0-32,2.73,64.44,64.44,0,0,1,7.36-3.41c14.51-5.61,30.86-5.1,45.74-.55a54.6,54.6,0,0,1,20.7,12,37.68,37.68,0,0,1,15.34,8.37c7.23,6.43,12.07,15.19,14.95,24.43A55,55,0,0,1,511.68,473.54Z" transform="translate(-170.42 -264.08)"/><path class="cls-19" d="M424.49,501.34c7.6-4.35,15.49-6.31,26.56-2.27" transform="translate(-170.42 -264.08)"/><path class="cls-19" d="M476.55,501c6.51-4.85,16.16-5.35,21.19,0" transform="translate(-170.42 -264.08)"/><path class="cls-20" d="M468.69,525.82c.67,3.45.31,11.07-1.33,14.49" transform="translate(-170.42 -264.08)"/><ellipse class="cls-21" cx="272.58" cy="259.12" rx="3.14" ry="4.94"/><ellipse class="cls-21" cx="313.58" cy="256.82" rx="3.14" ry="4.94"/><path class="cls-22" d="M464.8,547.05a23.66,23.66,0,0,1-1.79,2.81c-1.84,2.47-5,5.88-9.25,7.21h0a12.11,12.11,0,0,1-5.95.39c-6.41-1.14-8.1-7.06-8.4-11.61-.07-.88-.07-1.7-.06-2.45a24.45,24.45,0,0,1,.24-3.07C449.78,546,464.8,547.05,464.8,547.05Z" transform="translate(-170.42 -264.08)"/><path class="cls-7" d="M464.8,547.05a23.66,23.66,0,0,1-1.79,2.81c-5.21-.07-15.88-2.75-23.68-6.46a24.45,24.45,0,0,1,.24-3.07C449.78,546,464.8,547.05,464.8,547.05Z" transform="translate(-170.42 -264.08)"/><path class="cls-23" d="M453.74,557.05a12.11,12.11,0,0,1-5.95.4c-6.41-1.15-8.1-7.06-8.4-11.61a17.46,17.46,0,0,1,14.35,11.21Z" transform="translate(-170.42 -264.08)"/><path class="cls-24" d="M392.79,493.52s-.35-21.26,8.49-42.38c11.1-26.51,33.72-37.85,55.66-38.62,26.45-.93,43,16.81,43,16.81s-8.61-15.19-25.59-19.55c-11.15-2.86-28-3.33-41.48,2.16-13.91,5.65-31.24,21.31-37.52,37.87S386,492.14,386,492.14Z" transform="translate(-170.42 -264.08)"/><ellipse class="cls-18" cx="389.13" cy="517.8" rx="20.61" ry="31.23" transform="translate(-221.88 -221.06) rotate(-5.94)"/><ellipse class="cls-25" cx="383.65" cy="520.07" rx="13.38" ry="23.54" transform="translate(-243.44 -201.3) rotate(-8.55)"/><ellipse class="cls-26" cx="286.7" cy="302.57" rx="10.98" ry="6.84"/><path class="cls-27" d="M402,543.79s16.12,20.73,44.17,22.86" transform="translate(-170.42 -264.08)"/><path class="cls-13" d="M469.15,748.11l-1.06,27.25s-98.58,29.55-114.86,20.21c-8-4.57-15.36-29.7-20.9-54.23-5.8-25.78-9.52-50.87-9.52-50.87l57.8-11.32s0,35.24,2,55.61c.7,7.58,1.7,13.11,3,14C390.75,752.13,469.15,748.11,469.15,748.11Z" transform="translate(-170.42 -264.08)"/><path class="cls-11" d="M382.6,734.72c-10.5,3.41-30.77,8.68-50.27,6.6-5.8-25.78-9.52-50.87-9.52-50.87l57.8-11.32S380.64,714.35,382.6,734.72Z" transform="translate(-170.42 -264.08)"/><path class="cls-13" d="M466.34,748.38c14.66-3.14,39.48-10.67,49.78-13.26,7.31-1.85,26.35,8,31.38,17.3,2.2,4.06,4.28,27-3.34,24.67-3.82-1.2-3.19-11.05-4.38-15.07-1-3.28-4.08-6.45-8.8-9.18,3.16,7.86,3,14.72,2.7,23.21a12,12,0,0,1-1.1,5.45c-.92,1.62-2.89,2.78-4.6,2.06s-2.33-2.88-2.73-4.77A155.46,155.46,0,0,1,522,758.3c.13,7.28,0,14.58-.48,21.84-.34,5.56-3.1,8.61-6.49,7.64-1.52-.43-2.14-1.83-2.78-3.67-1,3.56-3.58,7.5-6.89,6-2-.9-3.26-8.16-2.9-15.63-6.34,3.94-13.5,5.61-21.75,6-7.4.34-15-1-19.42-6.07C461.74,766.53,464.33,754.91,466.34,748.38Z" transform="translate(-170.42 -264.08)"/><path class="cls-28" d="M512.4,783a52.22,52.22,0,0,0-1.52-17.57" transform="translate(-170.42 -264.08)"/><path class="cls-29" d="M374.11,622c-4.19-11.81-19.55-36-19.55-36s-23.44,9.75-31.76,26.31c-14.08,28-6.92,108.49-6.92,108.49,19,7.94,57.05,8.06,73.27,5.78C389.15,726.56,382.51,645.58,374.11,622Z" transform="translate(-170.42 -264.08)"/><path class="cls-30" d="M377.09,626.91A520.38,520.38,0,0,1,388,714" transform="translate(-170.42 -264.08)"/><rect class="cls-8" x="36.23" y="534.98" width="672.15" height="16.86"/><g class="cls-31"><path class="cls-7" d="M715.3,735.91l.86-7.32,2,.08c-.45,2.71-.69,3.91-1,5.07h0c.77-1.57,1.74-3.38,2.58-5l1.6.07c-.16,1.4-.35,3.36-.6,4.9h0c.6-1.48,1.71-3.79,2.17-4.83l1.67.07-3.61,7h-1.9c.2-1.52.36-3.23.56-4.62h0c-.64,1.34-1.63,3.19-2.36,4.62Z" transform="translate(-170.42 -264.08)"/><path class="cls-32" d="M724.28,735.63l-.18.28c-.07.11-.2.17-.28.12l-.5-.28-.1-.06-.73-.42-.11-.06,4-6.15,1.2,0-3.47,5.43.1.05C724.5,734.75,724.54,735.22,724.28,735.63Z" transform="translate(-170.42 -264.08)"/><polygon class="cls-33" points="552.8 471.61 552.07 471.2 552.07 471.19 552.8 471.61"/><path class="cls-34" d="M728.79,735v-.27a.49.49,0,0,0-.68-.5l-.13,0-.06-5.1-1.14,1.78,0,5,.13,0,.92-.34.14,0,.61-.23A.31.31,0,0,0,728.79,735Z" transform="translate(-170.42 -264.08)"/><path class="cls-7" d="M730.69,729.2l1.59.07L731,734.46l2.58,0-.52,1.47H729Z" transform="translate(-170.42 -264.08)"/><path class="cls-7" d="M735.37,729.4l1.49.06-.57,2.59c.46-.58,1.47-1.72,2.14-2.52l1.71.07-2.37,2.51L738.9,736h-1.77l-.66-2.66-.6.59-.46,2.06h-1.56Z" transform="translate(-170.42 -264.08)"/><path class="cls-8" d="M709.94,740.26l-.08.22-.52,0-.67,1.92h-.26l.69-1.93h-.53l.09-.22Z" transform="translate(-170.42 -264.08)"/><path class="cls-8" d="M711.74,740.44l-.24.71.68,0-.08.23-.67,0-.25.73.76,0-.08.23-1,0,.73-2.13,1,0-.08.23Z" transform="translate(-170.42 -264.08)"/><path class="cls-8" d="M714.1,740.66a1.47,1.47,0,0,1,.45-.38,1,1,0,0,1,.5-.15.64.64,0,0,1,.45.15.62.62,0,0,1,.17.46h-.28a.43.43,0,0,0-.12-.28.4.4,0,0,0-.3-.09.86.86,0,0,0-.37.1,1.15,1.15,0,0,0-.33.3,1.41,1.41,0,0,0-.23.44,1,1,0,0,0,0,.43.4.4,0,0,0,.14.29.49.49,0,0,0,.3.09.73.73,0,0,0,.38-.11,1.07,1.07,0,0,0,.3-.3h.28a1.59,1.59,0,0,1-.46.47,1.27,1.27,0,0,1-.57.18.7.7,0,0,1-.42-.12.61.61,0,0,1-.2-.38,1.1,1.1,0,0,1,.06-.55A2,2,0,0,1,714.1,740.66Z" transform="translate(-170.42 -264.08)"/><path class="cls-8" d="M718.79,740.08l-.62,2h-.23l.28-.93-.88,0-.29.94h-.23l.64-2h.23l-.28.9.88,0,.28-.89Z" transform="translate(-170.42 -264.08)"/><path class="cls-8" d="M721.12,742h-.22l-.42-1.59-.47,1.61h-.22l.6-2h.22l.41,1.58.46-1.6h.22Z" transform="translate(-170.42 -264.08)"/><path class="cls-8" d="M723,741.86a.57.57,0,0,1-.19-.36,1.06,1.06,0,0,1,0-.52,1.57,1.57,0,0,1,.25-.52,1.39,1.39,0,0,1,.4-.37A1,1,0,0,1,724,740a.57.57,0,0,1,.37.12.61.61,0,0,1,.2.35,1.19,1.19,0,0,1,0,.52,1.57,1.57,0,0,1-.25.52,1.24,1.24,0,0,1-.39.37,1,1,0,0,1-.46.15A.62.62,0,0,1,723,741.86Zm.78-.22a.86.86,0,0,0,.29-.28,1.36,1.36,0,0,0,.2-.42,1,1,0,0,0,0-.41.39.39,0,0,0-.14-.26.32.32,0,0,0-.27-.09.61.61,0,0,0-.34.1,1,1,0,0,0-.29.28,1.36,1.36,0,0,0-.2.42,1,1,0,0,0,0,.41.39.39,0,0,0,.14.27.41.41,0,0,0,.28.09A.62.62,0,0,0,723.82,741.64Z" transform="translate(-170.42 -264.08)"/><path class="cls-8" d="M726,741.67l.55,0,0,.21-.77,0,.52-2h.21Z" transform="translate(-170.42 -264.08)"/><path class="cls-8" d="M728.13,741.7a.55.55,0,0,1-.19-.34,1.13,1.13,0,0,1,0-.51,1.31,1.31,0,0,1,.23-.51,1.22,1.22,0,0,1,.37-.35.87.87,0,0,1,.42-.14.56.56,0,0,1,.36.12.59.59,0,0,1,.18.34,1.08,1.08,0,0,1,0,.5,1.48,1.48,0,0,1-.23.51,1.23,1.23,0,0,1-.36.36.88.88,0,0,1-.43.14A.56.56,0,0,1,728.13,741.7Zm.73-.2a1,1,0,0,0,.27-.28,1.32,1.32,0,0,0,.18-.4,1.13,1.13,0,0,0,0-.4.4.4,0,0,0-.13-.26.4.4,0,0,0-.27-.09.52.52,0,0,0-.31.1.87.87,0,0,0-.27.27,1.19,1.19,0,0,0-.18.41.94.94,0,0,0,0,.4.44.44,0,0,0,.14.26.4.4,0,0,0,.27.09A.6.6,0,0,0,728.86,741.5Z" transform="translate(-170.42 -264.08)"/><path class="cls-8" d="M732.08,740.35a.45.45,0,0,0-.12-.25.36.36,0,0,0-.25-.08.53.53,0,0,0-.3.09.84.84,0,0,0-.26.27,1.15,1.15,0,0,0-.17.39.88.88,0,0,0,0,.39.4.4,0,0,0,.13.26.34.34,0,0,0,.26.08.58.58,0,0,0,.4-.17,1.1,1.1,0,0,0,.27-.46l-.59,0,.05-.2.8,0,0,.19a1.72,1.72,0,0,1-.21.43,1.37,1.37,0,0,1-.33.31.86.86,0,0,1-.39.13.53.53,0,0,1-.35-.12.55.55,0,0,1-.19-.33,1.22,1.22,0,0,1,0-.5,1.62,1.62,0,0,1,.22-.5,1.17,1.17,0,0,1,.35-.35.73.73,0,0,1,.41-.13.46.46,0,0,1,.38.14.62.62,0,0,1,.17.41Z" transform="translate(-170.42 -264.08)"/><path class="cls-8" d="M734,739.77l-.42,1.87h-.19l.42-1.87Z" transform="translate(-170.42 -264.08)"/><path class="cls-8" d="M735.44,739.94l-.13.61h.52l-.05.2h-.51l-.14.64h.58l-.05.19-.76,0,.4-1.86h.76l0,.2Z" transform="translate(-170.42 -264.08)"/><path class="cls-8" d="M737.16,741.48a.31.31,0,0,1-.13-.17.49.49,0,0,1,0-.27h.19a.29.29,0,0,0,0,.21.2.2,0,0,0,.19.09.37.37,0,0,0,.22-.1.4.4,0,0,0,.12-.22.31.31,0,0,0,0-.17.2.2,0,0,0-.09-.09.84.84,0,0,0-.16-.07,1,1,0,0,1-.2-.09.26.26,0,0,1-.11-.14.48.48,0,0,1,0-.27.83.83,0,0,1,.12-.27.49.49,0,0,1,.2-.18.66.66,0,0,1,.25-.07.36.36,0,0,1,.29.12.52.52,0,0,1,.07.34h-.2a.23.23,0,0,0,0-.18.18.18,0,0,0-.17-.07.3.3,0,0,0-.2.08.37.37,0,0,0-.12.21.31.31,0,0,0,0,.17.2.2,0,0,0,.09.09l.16.07.2.09a.37.37,0,0,1,.11.15.48.48,0,0,1,0,.27.77.77,0,0,1-.1.25.64.64,0,0,1-.2.2.5.5,0,0,1-.27.08A.41.41,0,0,1,737.16,741.48Z" transform="translate(-170.42 -264.08)"/><line class="cls-35" x1="536.01" y1="474.24" x2="568.13" y2="473.92"/><polygon class="cls-8" points="568.09 473.97 539.18 474.27 539.22 474.14 568.11 473.87 568.09 473.97"/><path class="cls-36" d="M714.93,731.62a2.33,2.33,0,0,0-2.69-1.72l-.82.05.47-.82c1.27-2.22.75-4.47-1.15-5.08a3.87,3.87,0,0,0-2.09,0l-.63.15,0-.58a4,4,0,0,0-2.76-4.31c-2.48-.84-5.95.22-8.46,2.68l-.73.72-.4-.6a3.08,3.08,0,0,0-2.2-1.27,7.72,7.72,0,0,0-6,2.32,6.46,6.46,0,0,0-1.75,2.85l-.21.79,0,.07-.36,0a13.28,13.28,0,0,0-9,6.29l-.15.29c-1.59,2.91-.32,5.33,2.8,5.29l22.61-.23,2.22-2.72,0-7.53,2.47.1-.18,4.77,3.42-4.63,2.26.09-7.68,9.9,5.38-.06a6,6,0,0,0,5.7-6.75ZM691,734.46a6.35,6.35,0,0,1-1.91,1.18,6.43,6.43,0,0,1-2.36.44,4.43,4.43,0,0,1-2-.4,1.79,1.79,0,0,1-1-1.16,2.71,2.71,0,0,1,.29-1.84l2.9.05a1,1,0,0,0,0,.91.88.88,0,0,0,.79.33,2.08,2.08,0,0,0,1.06-.26,1.53,1.53,0,0,0,.68-.72.67.67,0,0,0,0-.65,1.13,1.13,0,0,0-.46-.43,7.22,7.22,0,0,0-.93-.4,7.38,7.38,0,0,1-1.42-.66,1.65,1.65,0,0,1-.7-1,2.28,2.28,0,0,1,.31-1.59,4.8,4.8,0,0,1,2.2-2.16,6.26,6.26,0,0,1,3.14-.65,3.08,3.08,0,0,1,2.35.91,2.08,2.08,0,0,1,.09,2.21l-2.71-.11a.77.77,0,0,0,0-.77.88.88,0,0,0-.74-.32,1.61,1.61,0,0,0-.86.21,1.44,1.44,0,0,0-.62.67.58.58,0,0,0,.11.78,4.8,4.8,0,0,0,1.22.65,8.34,8.34,0,0,1,1.35.68,1.68,1.68,0,0,1,.68.92,2.16,2.16,0,0,1-.24,1.52A5,5,0,0,1,691,734.46Zm6.36,1.53-1-3.44L694.88,736h-2.54l4.78-10.58,2.35.12L697,731.16l3.7-3.08,2.81.12L698.75,732l1.59,4Z" transform="translate(-170.42 -264.08)"/></g></svg>