<svg xmlns="http://www.w3.org/2000/svg" viewBox="0 0 1069.31 982"><defs><style>.cls-1{isolation:isolate;}.cls-2{fill:#e1e1e1;}.cls-3{fill:#f5f5f5;}.cls-4{fill:#fff;}.cls-23,.cls-5{fill:none;stroke-miterlimit:10;}.cls-5{stroke:#fbfbfb;stroke-width:0.25px;}.cls-6{fill:#ececec;}.cls-7{fill:#1a2e35;}.cls-8{fill:#a26752;}.cls-9{fill:#8a503f;}.cls-10{fill:#1fbcf7;}.cls-11{opacity:0.6;}.cls-12{opacity:0.3;}.cls-13{fill:#002145;}.cls-14{fill:#375a64;}.cls-15{fill:#fafafa;}.cls-16{fill:#ff9a6c;}.cls-17{fill:#971e46;}.cls-18{fill:#eb7446;}.cls-19{fill:#ffbf9d;}.cls-20{mix-blend-mode:multiply;}.cls-21{opacity:0.2;}.cls-22{fill:#c78976;}.cls-23{stroke:#fff;stroke-width:0.05px;}</style></defs><title>img4</title><g class="cls-1"><g id="Layer_1" data-name="Layer 1"><rect class="cls-2" x="756.18" y="25.55" width="163.09" height="236.39"/><rect class="cls-3" x="748.01" y="25.55" width="163.09" height="236.39"/><rect class="cls-4" x="768.27" y="51.15" width="122.56" height="185.18"/><path class="cls-2" d="M896.18,285.34s0-.32,0-.91,0-1.48,0-2.62c0-2.33,0-5.74,0-10.16,0-8.88-.06-21.81-.11-38.15-.05-32.65-.12-78.89-.2-133.34l.41.4-122.55,0h0l.45-.44C774,170,774,234.42,774,285.34l-.36-.36,89.21.19,24.65.09,6.47,0c1.47,0,2.24,0,2.24,0l-2.16,0-6.41,0-24.57.09-89.43.18h-.35v-.35c0-50.92,0-115.33-.09-185.18v-.45h.46l122.55,0h.4v.41c-.08,54.56-.15,100.89-.2,133.61,0,16.3-.08,29.2-.11,38,0,4.39,0,7.77,0,10.08q0,1.68,0,2.58C896.19,285.06,896.18,285.34,896.18,285.34Z" transform="translate(-5.34 -49)"/><path class="cls-5" d="M890.5,101.39" transform="translate(-5.34 -49)"/><path class="cls-2" d="M916.9,74.55A28.29,28.29,0,0,1,914,78.78c-1.89,2.53-4.58,6-7.65,9.7s-5.94,7-8.06,9.37a29.64,29.64,0,0,1-3.59,3.67,30,30,0,0,1,3.11-4.08l7.85-9.52,7.85-9.53A31.53,31.53,0,0,1,916.9,74.55Z" transform="translate(-5.34 -49)"/><path class="cls-4" d="M896.8,284.74a152.2,152.2,0,0,0,21.38,26.74" transform="translate(-5.34 -49)"/><path class="cls-2" d="M918.18,311.48a24.27,24.27,0,0,1-3.73-3.39,118.8,118.8,0,0,1-8.06-9.1,114.94,114.94,0,0,1-7.1-9.87,24.42,24.42,0,0,1-2.49-4.38,34,34,0,0,1,3,4c1.8,2.52,4.32,6,7.27,9.67s5.76,6.91,7.83,9.22A34,34,0,0,1,918.18,311.48Z" transform="translate(-5.34 -49)"/><path class="cls-4" d="M753.33,310.75l21.36-26.35" transform="translate(-5.34 -49)"/><path class="cls-2" d="M774.69,284.4c.19.15-4.44,6.18-10.33,13.45s-10.84,13.06-11,12.9,4.44-6.17,10.34-13.45S774.5,284.24,774.69,284.4Z" transform="translate(-5.34 -49)"/><path class="cls-2" d="M753.35,74.55c.19-.15,4.84,5.4,10.37,12.4s9.87,12.79,9.67,12.94S768.56,94.5,763,87.5,753.16,74.7,753.35,74.55Z" transform="translate(-5.34 -49)"/><rect class="cls-2" x="811.61" y="88.75" width="41.04" height="116.52"/><polygon class="cls-2" points="501.12 0 501.12 153.59 280.53 153.59 272.58 1.07 501.12 0"/><rect class="cls-4" x="312.13" y="15.87" width="152.19" height="220.59" transform="translate(256.71 465.39) rotate(-90)"/><path class="cls-2" d="M499.56,203.31H276.88V49H499.56ZM279,201.21h218.5V51.12H279Z" transform="translate(-5.34 -49)"/><rect class="cls-4" x="296.47" y="19.98" width="172.81" height="114.37"/><path class="cls-2" d="M474.62,69l-.85,0-2.45,0-9.5.06-35.61.14-124.39.24.5-.5c0,35,0,73.66,0,114.36h0l-.54-.54,172.8.11-.43.43c.1-34.8.17-63.34.23-83.21.05-9.93.08-17.69.11-23q0-3.94.05-6c0-1.37,0-2.1,0-2.1s0,.67.05,2,0,3.37.05,6c0,5.3.06,13,.11,22.92.05,19.94.13,48.57.23,83.48v.44h-.44l-172.8.11h-.55v-.55h0c0-40.7,0-79.41.05-114.36v-.5h.5l124.72.25,35.5.13,9.39.06,2.4,0C474.37,69,474.62,69,474.62,69Z" transform="translate(-5.34 -49)"/><path class="cls-2" d="M277.93,49.65c.09-.12,1.53.82,3.79,2.45s5.33,3.94,8.65,6.6,6.23,5.17,8.29,7,3.25,3.12,3.16,3.23-5.51-4.14-12.13-9.43S277.73,49.9,277.93,49.65Z" transform="translate(-5.34 -49)"/><path class="cls-2" d="M498.52,50.07c.18.24-5,4.66-11.61,9.89s-12.1,9.26-12.29,9,5-4.66,11.61-9.88S498.33,49.84,498.52,50.07Z" transform="translate(-5.34 -49)"/><path class="cls-4" d="M498.34,202.28l-24.59-19.93" transform="translate(-5.34 -49)"/><path class="cls-2" d="M473.75,182.35c.19-.23,5.85,4,12.64,9.54s12.14,10.16,11.95,10.39-5.85-4-12.64-9.54S473.56,182.58,473.75,182.35Z" transform="translate(-5.34 -49)"/><path class="cls-2" d="M277.93,202.26c-.19-.23,4.95-4.61,11.48-9.78s12-9.16,12.16-8.92-4.95,4.61-11.48,9.78S278.11,202.5,277.93,202.26Z" transform="translate(-5.34 -49)"/><rect class="cls-2" x="372.12" y="69.4" width="38.3" height="108.73" transform="translate(262.16 466.03) rotate(-90)"/><path class="cls-3" d="M96.06,945.78c2.17-8.6-3.51-17.18-9.86-23.38S72.28,910.67,69,902.46c-5.39-13.32,1.66-30.63-7.48-41.71-5.38-6.52-15-8.66-19.74-15.63-2.51-3.65-3.34-8.16-4.34-12.48A126.93,126.93,0,0,0,5.47,773.72a110.24,110.24,0,0,0,12.72,56.89c3.71,7,8.27,13.78,9.53,21.58,2.05,12.67-5,25.78-1.77,38.22,3.64,14.22,19.7,23.66,20.54,38.32.71,12.39-10,23.34-9.15,35.72.37,5.27,2.84,10.15,5.59,14.67,9.68,15.88,23.82,26.77,45.16,26.29l26.15.77Z" transform="translate(-5.34 -49)"/><path class="cls-2" d="M119.53,1006.84a21,21,0,0,0,7.2-.2,42.85,42.85,0,0,0,8.48-2.19,36,36,0,0,0,10.46-5.8,14.65,14.65,0,0,0,4.28-5.78,26.87,26.87,0,0,0,1.19-7.81,74.92,74.92,0,0,1,.56-8.46,23.38,23.38,0,0,1,3.15-8.43c3.05-5.43,8.14-10.58,9.75-17.94s.42-15.06-.84-22.91-2.48-16.38.47-24.56c2.76-8.19,8.45-15.61,11.26-24.84s1.41-19.33,2-29.21a38.74,38.74,0,0,1,3.33-14.53c2.08-4.64,5-9,7.26-13.9,4.58-9.88,5.34-21,6.54-32q.88-8.26,1.78-16.71c.59-5.66,1.06-11.29,2.81-16.73a147.08,147.08,0,0,1,6.16-16.22,53.19,53.19,0,0,0,3-8.46,86.83,86.83,0,0,0,.79-9,105.52,105.52,0,0,0-.8-18.09c-.74-6-1.86-12-2.55-18,0-.36-.08-.72-.12-1l-.14-1.2-1.07.54a40.39,40.39,0,0,0-14,12,64,64,0,0,0-8.56,16c-4.3,11.26-5.81,23-7.94,34.28s-4.86,22.31-10.57,31.67c-2.83,4.67-6.28,8.94-9.28,13.5s-5.64,9.5-6.4,14.94c-1.49,11.06,4.66,20.74,3.45,30.54a34,34,0,0,1-4.69,13.59c-2.36,4.19-5.12,8.08-7.75,12a77,77,0,0,0-6.95,12.1A38.24,38.24,0,0,0,128.61,887c-.59,8.82.71,17.18.11,25.08s-3.22,15.09-6.33,21.52-6.61,12.28-9.53,17.94c-1.46,2.82-2.81,5.58-3.91,8.35a41,41,0,0,0-2.25,8.28,52.3,52.3,0,0,0-.11,14.92c1.19,8.95,4.57,15.37,7.59,19a17.84,17.84,0,0,0,2.13,2.28,10.1,10.1,0,0,0,1.72,1.45c1,.71,1.5,1,1.5,1a33.7,33.7,0,0,1-5.09-5c-2.9-3.63-6.13-10-7.2-18.86a51.83,51.83,0,0,1,.25-14.7,40.25,40.25,0,0,1,2.27-8.09A90.09,90.09,0,0,1,113.7,952c2.93-5.61,6.46-11.42,9.65-17.91s6-13.78,6.55-21.9-.62-16.45,0-25.06A36.66,36.66,0,0,1,133,874.42a74.18,74.18,0,0,1,6.87-11.86c2.62-3.88,5.42-7.79,7.84-12.06a35.22,35.22,0,0,0,4.9-14.15c1.2-10.44-4.9-20.18-3.38-30.47.72-5.09,3.22-9.84,6.18-14.29s6.42-8.74,9.34-13.53c5.89-9.64,8.7-20.92,10.81-32.21s3.67-23,7.89-34a62.73,62.73,0,0,1,8.33-15.56,38.75,38.75,0,0,1,13.42-11.46l-1.21-.66c0,.33.08.69.12,1.05.7,6.11,1.82,12.1,2.56,18.06a104.34,104.34,0,0,1,.79,17.81,84.61,84.61,0,0,1-.75,8.73A53,53,0,0,1,203.8,738a150.22,150.22,0,0,0-6.21,16.39c-1.78,5.58-2.27,11.43-2.84,17s-1.18,11.21-1.76,16.73c-1.19,11-2,22-6.36,31.51-2.18,4.75-5.09,9.14-7.23,13.93A40.21,40.21,0,0,0,176,848.63c-.51,10.09.85,19.94-1.82,28.9s-8.32,16.36-11.16,24.81c-3,8.54-1.71,17.36-.41,25.17s2.61,15.51,1,22.47c-1.47,7-6.41,12.14-9.53,17.73a24.14,24.14,0,0,0-3.19,8.75,75.77,75.77,0,0,0-.5,8.57,26.58,26.58,0,0,1-1.07,7.6,14,14,0,0,1-4,5.52A35.72,35.72,0,0,1,135,1004a45.37,45.37,0,0,1-8.36,2.32,33.71,33.71,0,0,1-5.32.54C120.16,1006.81,119.53,1006.84,119.53,1006.84Z" transform="translate(-5.34 -49)"/><path class="cls-2" d="M200.38,698.42a3,3,0,0,0-.25.79l-.56,2.36c-.5,2.06-1.1,5.17-2.07,9.06s-3.35,8.27-5.34,13.68-4.18,11.59-6.11,18.58-3.68,14.73-5.48,23-3.71,17.17-8.22,25.57c-2.12,4.26-4.51,8.57-6.4,13.28a62,62,0,0,0-3.68,15,301.06,301.06,0,0,1-5.45,31.65c-5.12,21.45-10,41.88-14.44,60.49s-8.65,35.25-12.11,49.33-6.09,25.3-8,33.29l-2.1,9.08c-.2,1-.37,1.74-.5,2.37a3.31,3.31,0,0,0-.12.82,3,3,0,0,0,.29-.78c.17-.62.39-1.39.66-2.33q.88-3.29,2.41-9l8.54-33.16c3.55-14.06,7.77-30.74,12.45-49.25,4.49-18.61,9.41-39,14.58-60.5A297.51,297.51,0,0,0,163.9,820a60.48,60.48,0,0,1,3.54-14.65c1.82-4.6,4.17-8.89,6.29-13.19,4.55-8.56,6.42-17.72,8.2-26s3.39-16.05,5.26-23S191.05,730,193,724.64s4.17-9.84,5.11-13.84,1.36-7.07,1.76-9.17c.16-1,.29-1.75.4-2.39A3,3,0,0,0,200.38,698.42Z" transform="translate(-5.34 -49)"/><path class="cls-2" d="M124.15,1006.89c17-10.24,21.74-41.08,14.51-59.58s-19.79-35.37-21.82-55.13c-1.57-15.19,3.32-30.81-.3-45.65-4.89-20-24.55-35.43-24.44-56,.06-11.56,6.57-22.47,6-34-.72-14.16-11.66-25.34-18.46-37.78-10.42-19.05-11.23-41.63-14.87-63s-11.94-44.29-31-54.71c-2.7,18.2-7.42,30.68-5.78,55.31.59,8.84,11,25.72,12.48,45.1.9,11.59,1.54,23.19,2.32,34.79.75,11.28,1.55,22.76,5.65,33.3,3.15,8.07,8.17,15.4,10.52,23.74,4.42,15.69-1.17,32.74,2.41,48.64,3,13.48,12.44,25,14.43,38.7,2.79,19.2-9.54,39.24-3.07,57.54,3.22,9.08,10.74,16.34,12.92,25.72,1.69,7.28-.07,15,1.47,22.32,2.47,11.78,25,20.81,37,20" transform="translate(-5.34 -49)"/><path class="cls-6" d="M38.57,619a5.58,5.58,0,0,0,.08,1c.11.77.24,1.75.41,3,.4,2.62.87,6.48,1.78,11.46s3.6,10.64,5.7,17.43,4.43,14.59,6.4,23.35,3.68,18.43,5.45,28.86,3.7,21.78,8.94,32.62c2.43,5.44,5.14,10.89,7.19,16.7a75.17,75.17,0,0,1,3.71,18.43,372.78,372.78,0,0,0,5.23,39.74C88.84,838.5,94,864.13,98.64,887.47c4.91,23.24,9.33,44.17,13.06,61.8s6.81,31.69,8.94,41.63c1.08,4.83,1.92,8.61,2.52,11.31.29,1.21.52,2.18.69,2.93a4.24,4.24,0,0,0,.3,1,4.91,4.91,0,0,0-.13-1c-.13-.75-.31-1.73-.53-3-.53-2.71-1.27-6.52-2.21-11.37L112.86,949c-3.63-17.65-7.93-38.61-12.71-61.88-4.62-23.33-9.7-48.95-15-75.86a374.61,374.61,0,0,1-5.25-39.62A76.4,76.4,0,0,0,76,752.88c-2.11-5.94-4.86-11.41-7.29-16.8-5.21-10.68-7.08-21.85-9-32.23S56.18,683.73,54.09,675s-4.35-16.6-6.66-23.37-4.9-12.4-6-17.28-1.58-8.79-2.09-11.37c-.23-1.23-.42-2.21-.57-3A3.94,3.94,0,0,0,38.57,619Z" transform="translate(-5.34 -49)"/><path class="cls-3" d="M924.82,977.21c-42.4-25.19-55.41-76.81-57.29-123.93-.31-7.87-1.78-16.07,1.44-23.23s11.59-12.51,18.86-9.72c6,2.31,9.06,8.9,12.74,14.26a45.92,45.92,0,0,0,19.7,16.22c5.18,2.22,11.48,3.35,16.21.27,6.5-4.23,6.6-13.64,6-21.44Q940.71,807.83,939,786c-.63-7.8-1.24-15.76.64-23.35s6.73-14.86,14-17.49,16.77,1,18.9,8.5c.89,3.13.49,6.48.94,9.7s2.23,6.7,5.37,7.37,6.15-1.75,8.31-4.21c7.47-8.47,12.19-19,16.55-29.5s8.56-21.17,15.23-30.3,16.28-16.69,27.41-18.15,23.55,4.56,27.18,15.32-2,22.43-8.27,31.85A174.81,174.81,0,0,1,1031.51,773c-2.33,1.93-4.86,4-5.59,7-1.31,5.33,4,10.13,9.27,11.46,6,1.51,12.22.44,18.36.71s12.93,2.46,15.66,8c3.78,7.74-2.27,16.6-8.43,22.56a149.87,149.87,0,0,1-42.28,28.75c-5.59,2.52-11.49,4.81-15.82,9.19s-6.61,11.59-3.41,16.88,10.51,6.53,16.45,5,11.07-5.22,16.64-7.81c10.42-4.84,24.32-5.12,31.88,3.64,5,5.76,6,14.21,4.24,21.64s-5.92,14-10.41,20.16c-15.7,21.44-36.5,39.3-60.74,49.76s-47.12,14.5-72.51,7.28" transform="translate(-5.34 -49)"/><path class="cls-2" d="M932.49,979.42c.33-18.74-2.93-8.35,2.29-32.57s13-50.33,22.2-77.33q3.46-10.12,6.86-20c2.26-6.55,4.51-13,7.1-19.27a351.09,351.09,0,0,1,16.93-34.87c5.93-10.83,11.94-20.9,17.64-30.26s11.2-18,16.54-25.63a279,279,0,0,1,27.86-34.17c3.6-3.77,6.48-6.59,8.46-8.48l2.26-2.14a5.88,5.88,0,0,1,.81-.69,5.34,5.34,0,0,1-.7.8c-.54.55-1.26,1.29-2.17,2.24-1.91,1.95-4.73,4.84-8.25,8.66a293,293,0,0,0-27.43,34.37c-5.28,7.66-10.7,16.3-16.37,25.67S994.91,785.24,989,796.06a353.2,353.2,0,0,0-16.79,34.77c-2.57,6.19-4.79,12.63-7,19.2s-4.54,13.22-6.85,20c-9.16,27-17.05,53-22.27,77.15s-2.1,13.63-2.56,32.31" transform="translate(-5.34 -49)"/><path class="cls-2" d="M971.35,830.2a15.73,15.73,0,0,1-1-3.28c-.57-2.12-1.29-5.22-2.13-9.07-1.67-7.69-3.63-18.39-5.74-30.19s-4.21-22.44-6-30.08c-.88-3.83-1.63-6.91-2.17-9a16.44,16.44,0,0,1-.69-3.36,15.09,15.09,0,0,1,1.23,3.2c.71,2.09,1.61,5.14,2.62,9,2,7.6,4.32,18.25,6.43,30.07,2.05,11.65,3.9,22.19,5.32,30.25.66,3.63,1.22,6.69,1.68,9.15A16,16,0,0,1,971.35,830.2Z" transform="translate(-5.34 -49)"/><path class="cls-2" d="M1070.29,804a21.36,21.36,0,0,1-4,.77c-2.56.42-6.27,1-10.82,1.88-9.11,1.67-21.63,4.42-35.3,8.06s-25.89,7.5-34.66,10.53c-4.39,1.49-7.92,2.78-10.36,3.67a22.19,22.19,0,0,1-3.84,1.25,21,21,0,0,1,3.64-1.78c2.38-1,5.86-2.5,10.22-4.11,8.7-3.29,20.93-7.3,34.64-11a354.51,354.51,0,0,1,35.49-7.65c4.59-.75,8.33-1.18,10.92-1.43A21.39,21.39,0,0,1,1070.29,804Z" transform="translate(-5.34 -49)"/><path class="cls-2" d="M935.87,944.91a5,5,0,0,1-.77-1.17l-2-3.5c-1.71-3-4.06-7.53-6.91-13.1-5.68-11.14-13.06-26.77-21-44.12s-15.13-33-20.58-44.28l-6.49-13.3c-.7-1.45-1.28-2.64-1.75-3.63a5.39,5.39,0,0,1-.52-1.31,5.46,5.46,0,0,1,.78,1.18c.54.94,1.19,2.1,2,3.5,1.71,3.05,4.07,7.52,6.91,13.09,5.69,11.14,13.06,26.77,21,44.14s15.13,33,20.57,44.27l6.5,13.29c.69,1.45,1.27,2.65,1.74,3.63A4.75,4.75,0,0,1,935.87,944.91Z" transform="translate(-5.34 -49)"/><path class="cls-2" d="M1066,892.1a4.88,4.88,0,0,1-1.28.64l-3.77,1.59L1047,900c-11.77,4.8-27.94,11.61-45.8,19.17s-34.12,14.23-46,18.78c-5.93,2.29-10.75,4.08-14.11,5.25l-3.87,1.33a5.07,5.07,0,0,1-1.39.37,5.35,5.35,0,0,1,1.29-.64l3.77-1.58L954.87,937c11.76-4.8,27.94-11.62,45.81-19.18s34.11-14.22,46-18.78c5.93-2.28,10.75-4.08,14.11-5.25l3.87-1.33A5.06,5.06,0,0,1,1066,892.1Z" transform="translate(-5.34 -49)"/><path class="cls-7" d="M1042.52,1000.83c0,.34-227.8.61-508.74.61S25,1001.17,25,1000.83s227.75-.6,508.79-.6S1042.52,1000.5,1042.52,1000.83Z" transform="translate(-5.34 -49)"/><path class="cls-7" d="M849.45,172.47c-16.64-7.14-36,3.06-43.45,14.39s-10.66,24.91-12.82,38.32a314.74,314.74,0,0,0-2,83.45c.89,8.19,2.48,17.1,8.74,22.44,6,5.08,14.62,5.52,22.32,4.18,7-1.2,14-3.86,18.54-9.28,6.95-8.33,6-20.43,5.3-31.25a324.7,324.7,0,0,1,11.62-110.9" transform="translate(-5.34 -49)"/><path class="cls-7" d="M813.19,187.59c7.64-15.17,30.75-23.36,49.57-18.28,15.83,4.27,32.73,20.52,33.88,37.21,1.66,24.21-11.42,48.94-3.68,71.94,9,26.77,42.23,39.75,50.74,66.68A42.34,42.34,0,0,1,940,378.62c-3,5.18-7.56,10-13.46,10.92-7.36,1.19-14.16-3.76-20-8.43C890.92,368.5,875,355.58,864,338.67c-12.89-19.93-17.84-44.15-18.06-67.88s4-47.24,8.27-70.59" transform="translate(-5.34 -49)"/><path class="cls-8" d="M879.37,217a35.75,35.75,0,0,0-32.12-40c-19.06-1.81-36,12.38-38.85,31.31-2.51,16.59-4.66,33.34-4.58,39.43.23,18.34,11,25.48,15.32,27.63a24,24,0,0,0,4.82,1.2h0a.11.11,0,0,1,.1.14L820,297.72c-1.85,13.8,5.86,26.11,19.63,28.11s24.63-8.58,26.74-22.39Z" transform="translate(-5.34 -49)"/><path class="cls-7" d="M812.64,217.36a2.92,2.92,0,0,0,2.36,3.32,2.78,2.78,0,0,0,3.35-2.17,2.92,2.92,0,0,0-2.35-3.32A2.81,2.81,0,0,0,812.64,217.36Z" transform="translate(-5.34 -49)"/><path class="cls-7" d="M812.63,213.23c.3.43,2.72-.87,5.83-.41s5.15,2.35,5.54,2c.19-.14-.07-.88-1-1.74a7.89,7.89,0,0,0-4.37-2.08,7.71,7.71,0,0,0-4.71.79C812.9,212.41,812.48,213,812.63,213.23Z" transform="translate(-5.34 -49)"/><path class="cls-7" d="M842,222.14a2.91,2.91,0,0,0,2.36,3.31,2.79,2.79,0,0,0,3.36-2.16,2.92,2.92,0,0,0-2.36-3.32A2.79,2.79,0,0,0,842,222.14Z" transform="translate(-5.34 -49)"/><path class="cls-7" d="M843.07,218.26c.3.43,2.73-.87,5.83-.41s5.15,2.35,5.54,2c.19-.15-.07-.88-1-1.74a7.89,7.89,0,0,0-4.37-2.08,7.71,7.71,0,0,0-4.71.79C843.34,217.44,842.92,218.07,843.07,218.26Z" transform="translate(-5.34 -49)"/><path class="cls-7" d="M828.44,239.65c0-.17-1.84-.79-4.91-1.64-.78-.2-1.51-.47-1.56-1a4,4,0,0,1,.87-2.27l3.22-5.7c4.51-8.12,7.9-14.85,7.57-15s-4.25,6.26-8.76,14.39l-3.13,5.74a4.62,4.62,0,0,0-.86,3.06,2,2,0,0,0,1.13,1.35,5.87,5.87,0,0,0,1.32.38C826.45,239.53,828.4,239.83,828.44,239.65Z" transform="translate(-5.34 -49)"/><path class="cls-9" d="M824.09,276.54s11.85,2.73,28.16-4.1c0,0-7,15.16-29.26,9.77Z" transform="translate(-5.34 -49)"/><path class="cls-9" d="M828.66,247.33A5.65,5.65,0,0,1,834,246a5.12,5.12,0,0,1,3.25,2.41,3.25,3.25,0,0,1-.29,3.73,3.78,3.78,0,0,1-4.22.44,11.91,11.91,0,0,1-3.62-2.95,3.52,3.52,0,0,1-.76-1.05,1,1,0,0,1,.18-1.15" transform="translate(-5.34 -49)"/><path class="cls-7" d="M837.27,243.13c-.5-.1-1,3.27-4.24,5.24s-6.76,1.08-6.86,1.55c-.08.2.71.77,2.22,1a8.45,8.45,0,0,0,5.7-1.1,7.42,7.42,0,0,0,3.33-4.42C837.76,244,837.5,243.15,837.27,243.13Z" transform="translate(-5.34 -49)"/><path class="cls-7" d="M842.46,212.62c.19.89,3.35.94,6.93,1.91s6.38,2.4,7,1.71c.27-.33-.13-1.2-1.2-2.19a11.82,11.82,0,0,0-5-2.6,12,12,0,0,0-5.61-.16C843.16,211.64,842.39,212.2,842.46,212.62Z" transform="translate(-5.34 -49)"/><path class="cls-7" d="M814.69,207.06c.45.78,2.69.36,5.27.7s4.68,1.17,5.29.5c.27-.32,0-1.08-.82-1.89a7.74,7.74,0,0,0-8.51-1C814.91,206,814.5,206.68,814.69,207.06Z" transform="translate(-5.34 -49)"/><path class="cls-7" d="M822.65,179.15a37.89,37.89,0,0,0,26.2,30.34l-1.05-5.21a53.22,53.22,0,0,0,29,25.72c8.57-14.52,5.35-34.93-7.28-46.11S836.2,172,822.82,182.25" transform="translate(-5.34 -49)"/><path class="cls-7" d="M941.37,359.2a29.89,29.89,0,0,0,3.57-5.58A28.67,28.67,0,0,0,946.78,336a36.82,36.82,0,0,0-4.49-11.53,61.56,61.56,0,0,0-8.76-11.29c-7-7.36-16.16-13.84-24.53-22.2a48.1,48.1,0,0,1-10.1-14,53.78,53.78,0,0,1-4.33-15.48c-1.3-10.2-.61-19.43-.11-27.1s1.19-13.88,1.59-18.16c.19-2,.35-3.69.47-4.94a9.72,9.72,0,0,1,.24-1.71,9.5,9.5,0,0,1,0,1.73q-.09,1.88-.24,4.95c-.3,4.43-.71,10.61-1.21,18.19s-1,16.86.36,26.89A53.57,53.57,0,0,0,900,276.5a47.19,47.19,0,0,0,9.89,13.63c8.26,8.25,17.46,14.79,24.48,22.29A61.74,61.74,0,0,1,943.16,324a37.45,37.45,0,0,1,4.46,11.87,28.56,28.56,0,0,1-2.26,18A20.37,20.37,0,0,1,942.6,358,9.22,9.22,0,0,1,941.37,359.2Z" transform="translate(-5.34 -49)"/><path class="cls-10" d="M959.26,928.68l11,53.89,21,40.12a5.63,5.63,0,0,1-2.72,7.77h0a5.58,5.58,0,0,1-5.15-.31c-10-6-46.55-28.18-47.14-32.17-.67-4.62-15.37-56.08-15.37-56.08Z" transform="translate(-5.34 -49)"/><g class="cls-11"><path class="cls-4" d="M988.52,1030.46l-53.11-36.1.52,2.27a8.38,8.38,0,0,0,3.18,4.92c4.32,3.23,16.43,11.87,44.09,28.64a5.64,5.64,0,0,0,5.32.27Z" transform="translate(-5.34 -49)"/></g><g class="cls-11"><path class="cls-4" d="M942.47,974.55a3.42,3.42,0,0,1,1.9,4.14,3.28,3.28,0,0,1-4.08,1.92c-1.57-.6-2.72-2.88-2-4.39s3.09-2.48,4.47-1.53" transform="translate(-5.34 -49)"/></g><path class="cls-7" d="M970.92,1009.83c.33.08.9-3,3.75-5.25s5.91-2.24,5.9-2.58c0-.15-.75-.41-2.05-.3a9,9,0,0,0-7.47,6.06C970.68,1009,970.77,1009.81,970.92,1009.83Z" transform="translate(-5.34 -49)"/><path class="cls-7" d="M976.37,1016.14c.31.17,1.64-2,4.23-3.39s5.07-1.52,5.08-1.87-2.75-.86-5.68.82S976.06,1016.06,976.37,1016.14Z" transform="translate(-5.34 -49)"/><path class="cls-7" d="M961.71,1002.24c.31.2,2.33-3.09,6.17-5.67s7.6-3.3,7.53-3.66-4.13-.15-8.21,2.67S961.42,1002.15,961.71,1002.24Z" transform="translate(-5.34 -49)"/><path class="cls-7" d="M957,986.14c.21.29,2.89-1.62,6.72-2.64s7.09-.79,7.13-1.15-3.35-1.16-7.45,0S956.77,985.93,957,986.14Z" transform="translate(-5.34 -49)"/><path class="cls-7" d="M953.37,970.4c.24.27,2.81-2.19,6.92-2.94s7.4.51,7.52.17c.06-.13-.68-.67-2.08-1.1a12.25,12.25,0,0,0-10.84,2.08C953.75,969.53,953.26,970.3,953.37,970.4Z" transform="translate(-5.34 -49)"/><path class="cls-7" d="M959.51,964.49a4.67,4.67,0,0,0-.38-2,14.46,14.46,0,0,0-2.83-5,6.37,6.37,0,0,0-3.36-2.37,2.24,2.24,0,0,0-2.37,1.06,3.62,3.62,0,0,0-.3,2.61,8,8,0,0,0,8.44,5.64,9.26,9.26,0,0,0,7.78-6.73,3.19,3.19,0,0,0-.45-2.64,2.22,2.22,0,0,0-2.52-.63,7.91,7.91,0,0,0-3.12,2.64,16.08,16.08,0,0,0-2.71,5,5,5,0,0,0-.4,2c.22.09.75-3,3.77-6.5a7.33,7.33,0,0,1,2.77-2.24,1.18,1.18,0,0,1,1.38.34,2.23,2.23,0,0,1,.19,1.75,8.24,8.24,0,0,1-6.81,5.75,6.91,6.91,0,0,1-7.24-4.68,2.73,2.73,0,0,1,.13-1.83,1.22,1.22,0,0,1,1.31-.6,5.81,5.81,0,0,1,2.88,2C958.83,961.5,959.29,964.6,959.51,964.49Z" transform="translate(-5.34 -49)"/><path class="cls-10" d="M813.71,934.32l2.55,43.78s-43.64,17.3-44,25.43l85.07-1.89-1.18-68.38Z" transform="translate(-5.34 -49)"/><g class="cls-11"><path class="cls-4" d="M842.48,973.83a3.46,3.46,0,0,1,2.49,3.91,3.33,3.33,0,0,1-3.85,2.5c-1.66-.38-3.15-2.53-2.62-4.15s2.78-2.93,4.3-2.16" transform="translate(-5.34 -49)"/></g><g class="cls-11"><path class="cls-4" d="M857.37,1001.64l-.39-6.89-81.41,4.39s-3.75,1.74-3.27,4.39Z" transform="translate(-5.34 -49)"/></g><path class="cls-7" d="M814.87,977.7c0,.41,2.11.56,4.18,1.85s3.2,3,3.58,2.83-.29-2.55-2.83-4.07S814.78,977.32,814.87,977.7Z" transform="translate(-5.34 -49)"/><path class="cls-7" d="M806,981.59c-.08.4,1.73,1.07,3.18,2.79s1.9,3.58,2.32,3.55.62-2.38-1.22-4.49S806,981.19,806,981.59Z" transform="translate(-5.34 -49)"/><path class="cls-7" d="M801.21,992.38c.38.08.91-2-.21-4.26s-3.08-3.11-3.25-2.76,1.06,1.54,2,3.4S800.79,992.35,801.21,992.38Z" transform="translate(-5.34 -49)"/><path class="cls-7" d="M815.4,967.66c.18.37,2.08-.24,4.43-.14s4.19.81,4.4.45-1.58-1.8-4.35-1.89S815.19,967.34,815.4,967.66Z" transform="translate(-5.34 -49)"/><g class="cls-12"><polygon points="808.88 893.99 809.33 901.79 851.13 900.48 851.02 893.44 808.88 893.99"/></g><path class="cls-7" d="M815.05,958.82c0,.17,1.64.39,4.26-.12a19.34,19.34,0,0,0,4.42-1.47,21,21,0,0,0,2.42-1.35,5.32,5.32,0,0,0,1.27-1,1.83,1.83,0,0,0,.14-2.22,2.29,2.29,0,0,0-1.84-.91,6,6,0,0,0-1.6.26,15.71,15.71,0,0,0-2.63,1,15.32,15.32,0,0,0-3.87,2.66c-1.93,1.88-2.57,3.44-2.42,3.52s1.12-1.19,3.09-2.74a17,17,0,0,1,3.75-2.23,16.1,16.1,0,0,1,2.43-.81c.9-.25,1.67-.28,1.91.12.08.15.1.21-.09.48a4.56,4.56,0,0,1-.93.75,23,23,0,0,1-2.22,1.34,23.79,23.79,0,0,1-4.08,1.67C816.64,958.44,815,958.59,815.05,958.82Z" transform="translate(-5.34 -49)"/><path class="cls-7" d="M815.6,959.4c.15.06.94-1.45,1-4.14a13.63,13.63,0,0,0-.68-4.65,14,14,0,0,0-1.14-2.56A3.51,3.51,0,0,0,812,946a2,2,0,0,0-1.75,1.22,5.47,5.47,0,0,0-.4,1.58,9.08,9.08,0,0,0,.06,2.86,9.7,9.7,0,0,0,1.91,4.36c1.72,2.17,3.46,2.63,3.49,2.49s-1.33-1-2.65-3.07a9.86,9.86,0,0,1-1.44-4,8.84,8.84,0,0,1,0-2.46c.11-.91.43-1.64.77-1.56s1.16.65,1.52,1.36a14.13,14.13,0,0,1,1.11,2.29,15.27,15.27,0,0,1,.92,4.23C815.78,957.78,815.37,959.34,815.6,959.4Z" transform="translate(-5.34 -49)"/><path class="cls-13" d="M879.83,465.9s25,54.3,28.78,70.14,73.6,434.44,73.6,434.44l-64.14,3.88L831,564.89,866,971.4l-63.11,5.27S755.16,547.1,757.18,535c3.05-18.3,18.48-71,18.48-71Z" transform="translate(-5.34 -49)"/><path class="cls-14" d="M830.41,562.25s0,.36-.51.71a2.25,2.25,0,0,1-2.47-.24c-.94-.75-1.29-2.17-1.51-3.62s-.53-3.18-.84-5c-1.21-7.4-2.81-17.63-4.5-28.94s-3.16-21.57-4.16-29c-.45-3.55-.83-6.5-1.12-8.81a17,17,0,0,1-.25-3.25,17,17,0,0,1,.71,3.18c.39,2.29.9,5.23,1.5,8.75,1.22,7.4,2.81,17.63,4.51,28.95s3.15,21.56,4.15,29l.66,5c.16,1.47.43,2.71,1.16,3.36a2,2,0,0,0,2,.38C830.26,562.52,830.37,562.22,830.41,562.25Z" transform="translate(-5.34 -49)"/><path class="cls-14" d="M823.85,492.32c-.05-.05.1-.37.62-.7a3.34,3.34,0,0,1,2.53-.38,3.4,3.4,0,0,1,2.69,2.76,4.06,4.06,0,0,1-2.07,4.26,4.22,4.22,0,0,1-4.66-.78,3.89,3.89,0,0,1-1.1-3.69c.56-2.24,2.13-2.74,2.12-2.59s-1.05.87-1.28,2.73a3.07,3.07,0,0,0,1,2.73,3.2,3.2,0,0,0,3.39.53,3.06,3.06,0,0,0,1.51-3,2.55,2.55,0,0,0-1.82-2.12A4.44,4.44,0,0,0,823.85,492.32Z" transform="translate(-5.34 -49)"/><path class="cls-8" d="M713.41,226.06l-39.33-60.67h0l-12-20s-3.56-20-5.26-25.68c-3.51-11.6-4.55-11.3-5.83-10.66-3.44,1.72,5.4,20.64,1.14,17.68s-8.13-24.41-11.65-22.46c-4.59,2.53,5,22.17,5.72,23.89s-1.77,2.78-2.31,1.19c-.78-2.28-9.54-26.06-14.07-23.62-2.52,1.36.34,5.64.34,5.64S640,133,637.86,134.12s-8.41-11.42-10.21-15.78-4.54-5.23-5.8-2.86c-.86,1.62,4.32,15.12,6.19,19.4s7.22,15.92-.08,12.33-14.28-3.61-16.17-2.3-.75,4.41,1.78,4.48c2,.05,5.42,1.2,7.92,2.16a19.32,19.32,0,0,1,5.66,3.36c2,1.67,3.55,3.17,4.87,4.48l9.75,20.29h0l43.13,84.63,90.31,74.79L798,298.05Z" transform="translate(-5.34 -49)"/><path class="cls-8" d="M946.62,565.14c.56,1.77,1.17,3.87,1.76,6.38a19.35,19.35,0,0,1,.39,6.57c-.29,2.67-.82,6.19-1.71,8-1.1,2.28,1.14,4.71,3.17,3.63s5.21-7.28,5.36-15.42,8,1.95,11,5.57,12.58,14.41,14.41,14.39c2.69,0,3.15-2.92.12-6.47s-11.34-14.84-9.36-16.3,16.7,17.21,16.7,17.21,2.51,4.5,4.86,2.89c4.25-2.91-12.88-21.59-14.55-23.33-1.17-1.21.94-2.87,2.12-1.51s14.27,19,18.62,16c3.34-2.24-14-15.5-14.63-20.64s12.08,11.38,15.19,9.11c1.15-.85,1.9-1.64-6.81-10.07-4.22-4.09-20.42-16.44-20.42-16.44L938.55,432l-42.59.7Z" transform="translate(-5.34 -49)"/><path class="cls-10" d="M814.9,297.89h0s-13.89-5.4-20.33-9.06L727,237.65l-30.16,40.26s77.07,69.52,78.36,69.21S814.9,297.89,814.9,297.89Z" transform="translate(-5.34 -49)"/><path class="cls-10" d="M820,297.72l-5.09.17A35.31,35.31,0,0,0,782.57,322c-5.14,15.5-4.84,20.57-8.41,32.13-8.54,27.66,6.8,61.22,6.8,61.22L775.66,464l104.17,1.88,5.25-58.63,19.46-87.8s-4.33-18.83-20.85-20.35C875.07,298.33,820,297.72,820,297.72Z" transform="translate(-5.34 -49)"/><path class="cls-10" d="M886.72,300.64s24.69-.11,32.2,28.34S941.4,432.29,941.4,432.29l-46.77,14.07L869.52,343.62a50.39,50.39,0,0,1-2-18C868.27,315.38,872.13,302,886.72,300.64Z" transform="translate(-5.34 -49)"/><polygon class="cls-10" points="807.25 250.12 815.49 234.37 829.39 242.25 829.39 249.09 833.8 242.25 866.63 234.37 866.63 253.83 828.31 258 807.25 250.12"/><path class="cls-7" d="M786.88,323.09a21.84,21.84,0,0,1-1.73,3.34c-.61,1-1.33,2.33-2,3.88s-1.67,3.26-2.45,5.27-1.76,4.14-2.53,6.55-1.58,5-2.35,7.72a108,108,0,0,0-2.91,18.22,106.57,106.57,0,0,0,.55,18.45c.42,2.81.75,5.49,1.34,8s1.09,4.76,1.67,6.83,1.23,3.91,1.76,5.53a43.19,43.19,0,0,0,1.53,4.11,22.39,22.39,0,0,1,1.29,3.53,22.75,22.75,0,0,1-1.72-3.34,37.73,37.73,0,0,1-1.73-4.06c-.6-1.62-1.37-3.43-1.94-5.53a67.41,67.41,0,0,1-1.84-6.86c-.64-2.48-1-5.18-1.47-8a94.3,94.3,0,0,1,2.39-37.09c.82-2.76,1.53-5.4,2.48-7.77s1.8-4.6,2.7-6.57,1.84-3.7,2.64-5.23a37.34,37.34,0,0,1,2.23-3.81A23.78,23.78,0,0,1,786.88,323.09Z" transform="translate(-5.34 -49)"/><path class="cls-7" d="M832.28,290c.16.06-.32,1.87-1.22,4.77s-2.23,6.86-3.77,11.21c-.24.69-.48,1.36-.71,2l-.25.69-.62-.38a44.83,44.83,0,0,1-8.32-6.38c-1.88-1.85-2.84-3.14-2.73-3.24s4.6,4.46,11.66,8.59l-.87.32c.22-.65.46-1.32.7-2,1.54-4.36,3-8.28,4.1-11.1S832.13,290,832.28,290Z" transform="translate(-5.34 -49)"/><path class="cls-7" d="M859.23,304.58c0,.16-1.84,1-5,2.13s-7.44,2.71-12.28,4.36l-.69.23-.1-.72c0-.18-.06-.38-.09-.59-.76-5.19-1.38-9.9-1.77-13.32s-.55-5.54-.38-5.56.62,2.06,1.23,5.44,1.36,8.08,2.12,13.27c0,.2.06.4.08.59l-.79-.48c4.84-1.64,9.22-3.06,12.4-4S859.17,304.43,859.23,304.58Z" transform="translate(-5.34 -49)"/><path class="cls-7" d="M876.47,445.12c.18-.24,3.42,3.21,4.31,8.75s-1,9.85-1.26,9.68,1-4.3.07-9.48S876.15,445.32,876.47,445.12Z" transform="translate(-5.34 -49)"/><path class="cls-15" d="M937.47,415.82c0,.15-2.51,1-6.68,2s-10,2.41-16.45,3.62-12.37,2.08-16.65,2.58-7,.67-7,.51,2.6-.64,6.85-1.36,10.1-1.71,16.55-2.91,12.26-2.41,16.48-3.27S937.43,415.65,937.47,415.82Z" transform="translate(-5.34 -49)"/><path class="cls-15" d="M932.14,387.35c.05.15-2.55,1.18-6.87,2.54s-10.34,3-17,4.62-12.73,3.13-17.09,4.28-7,1.88-7.11,1.71,2.56-1.18,6.87-2.53,10.35-3,17-4.63,12.73-3.12,17.09-4.27S932.09,387.18,932.14,387.35Z" transform="translate(-5.34 -49)"/><path class="cls-7" d="M894.63,446.36a12.94,12.94,0,0,1-.85-2.71c-.5-2-1.13-4.52-1.88-7.49-1.54-6.33-3.59-15.1-5.77-24.8s-4.11-18.5-5.43-24.88c-.6-3-1.11-5.54-1.51-7.58a12.49,12.49,0,0,1-.4-2.81,12.68,12.68,0,0,1,.85,2.7c.51,2,1.14,4.52,1.89,7.49,1.54,6.33,3.58,15.1,5.77,24.81s4.1,18.5,5.43,24.88c.6,3,1.11,5.54,1.51,7.58A12,12,0,0,1,894.63,446.36Z" transform="translate(-5.34 -49)"/><path class="cls-15" d="M929.66,365.49c0,.34-35-.33-78.06-1.49s-78-2.38-78-2.71,35,.34,78.06,1.5S929.66,365.16,929.66,365.49Z" transform="translate(-5.34 -49)"/><path class="cls-15" d="M917.69,325.76a5.69,5.69,0,0,1-1.34.2l-3.89.34c-3.37.28-8.26.61-14.3,1-12.08.73-28.78,1.51-47.24,2s-35.19.61-47.29.54c-6.06,0-11-.11-14.34-.2l-3.89-.13a5.05,5.05,0,0,1-1.36-.13,5.82,5.82,0,0,1,1.36-.11l3.9-.1,14.32-.19c12.1-.14,28.81-.4,47.27-.89s35.14-1.15,47.23-1.66l14.32-.59,3.89-.11A6.18,6.18,0,0,1,917.69,325.76Z" transform="translate(-5.34 -49)"/><path class="cls-15" d="M750.66,327.54c-.26-.22,7.72-9.82,17.8-21.45s18.46-20.88,18.71-20.66-7.72,9.82-17.8,21.45S750.91,327.76,750.66,327.54Z" transform="translate(-5.34 -49)"/><path class="cls-15" d="M881.48,409c0,.33-23.85-1.77-53.19-4.7s-53.11-5.56-53.08-5.9,23.84,1.78,53.2,4.7S881.51,408.64,881.48,409Z" transform="translate(-5.34 -49)"/><path class="cls-15" d="M882.66,441.07c0,.33-23.13.08-51.63-.56s-51.61-1.44-51.6-1.77,23.12-.08,51.63.56S882.66,440.74,882.66,441.07Z" transform="translate(-5.34 -49)"/><path class="cls-7" d="M812.59,463.7a8.08,8.08,0,0,1-.08-1.71c0-1.12,0-2.77,0-4.91.09-4.26.31-10.42.82-18,.26-3.8.6-8,1.06-12.42s1.14-9.21,1.76-14.2c1.24-10,2.32-21,3.47-32.55,2.21-23.14,5-44.07,8.47-58.94,1.7-7.43,3.42-13.37,4.72-17.42.67-1.93,1.2-3.47,1.6-4.65a9.33,9.33,0,0,1,.64-1.59,8.67,8.67,0,0,1-.41,1.67c-.35,1.19-.8,2.75-1.38,4.7-1.16,4.09-2.75,10-4.33,17.48-3.28,14.86-5.9,35.73-8.11,58.87-1.14,11.56-2.26,22.58-3.56,32.57-.66,5-1.37,9.73-1.87,14.17s-.89,8.59-1.21,12.38c-.62,7.58-1,13.73-1.2,18-.11,2-.2,3.66-.27,4.9A9.67,9.67,0,0,1,812.59,463.7Z" transform="translate(-5.34 -49)"/><rect class="cls-15" x="844.9" y="312.27" width="25.23" height="6.56"/><g class="cls-12"><path d="M879.5,381.25c-11.34,17.09-10.6,41.31,1.77,57.66L886,406.33" transform="translate(-5.34 -49)"/></g><path class="cls-7" d="M864.81,219.21c3,6.1,1.52,13.4-.62,19.85s-4.93,13-4.37,19.74c.51,6.29,3.88,12.07,4.5,18.35,1,10.58-5.74,20.18-8.51,30.45A41.91,41.91,0,0,0,865,345.84c.94,1,2.1,2.11,3.49,2.08,1.61,0,2.85-1.58,3.18-3.15a16.19,16.19,0,0,0-.11-4.81c-1.28-15.18,13.31-27.33,15.44-42.41,1.38-9.8-2.67-19.51-3.28-29.38-.77-12.43,3.93-24.5,5.45-36.86.52-4.23.65-8.61-.71-12.64s-4.44-7.69-8.55-8.78-9.11,1.05-10.37,5.12" transform="translate(-5.34 -49)"/><path class="cls-16" d="M584,312.14l-49.09,31.08L569.81,248l9.4-18.77c1.25-1.58,2.77-3.4,4.66-5.46a21.24,21.24,0,0,1,5.67-4.34c2.57-1.35,6.06-3,8.25-3.34,2.72-.39,3.54-3.88,1.34-5.05s-9.7-.26-17.11,4.55-3.14-8.42-1.67-13.27,5.31-20,4.18-21.68c-1.66-2.39-4.53-1.06-5.88,3.82s-6.45,19.2-9,18.3S575,177.31,575,177.31s2.52-5-.36-6.12c-5.19-2.05-11.58,24.68-12.12,27.24-.38,1.78-3.15.9-2.65-1s8.37-24.32,3.1-26.46c-4-1.64-5.46,21.94-9.66,25.68s2.89-17.77-1-19.18c-1.46-.53-2.62-.72-4.91,12.23C546.25,196,545,218,545,218l-11.43,22.55.27.24L487,339.68c-9,23.7,5.68,42.87,20.37,51.53h0a41.38,41.38,0,0,0,44-1.24l56.71-37.87Z" transform="translate(-5.34 -49)"/><path class="cls-17" d="M614.59,935l2.51,43s-42.83,17-43.14,25l83.5-.43-1.18-68.53Z" transform="translate(-5.34 -49)"/><g class="cls-11"><path class="cls-4" d="M642.83,973.73a3.4,3.4,0,0,1,2.44,3.83,3.27,3.27,0,0,1-3.78,2.46c-1.63-.38-3.09-2.48-2.57-4.08s2.73-2.87,4.22-2.12" transform="translate(-5.34 -49)"/></g><g class="cls-11"><path class="cls-4" d="M657.46,1002.45l-.08-6.86-80.22,3s-3.68,1.7-3.2,4.31Z" transform="translate(-5.34 -49)"/></g><path class="cls-7" d="M615.73,977.53c0,.4,2.07.54,4.1,1.81s3.15,2.95,3.52,2.78-.29-2.51-2.78-4S615.64,977.15,615.73,977.53Z" transform="translate(-5.34 -49)"/><path class="cls-7" d="M607.06,981.34c-.08.4,1.7,1,3.12,2.75s1.86,3.5,2.27,3.48.61-2.34-1.2-4.41S607.06,981,607.06,981.34Z" transform="translate(-5.34 -49)"/><path class="cls-7" d="M602.32,991.93c.37.08.9-2-.2-4.18s-3-3-3.19-2.71,1,1.51,1.92,3.34S601.92,991.9,602.32,991.93Z" transform="translate(-5.34 -49)"/><path class="cls-7" d="M616.25,967.67c.18.37,2-.23,4.34-.13s4.12.79,4.33.44-1.56-1.77-4.28-1.86S616,967.36,616.25,967.67Z" transform="translate(-5.34 -49)"/><path class="cls-7" d="M615.91,959c0,.17,1.61.39,4.18-.11a18.78,18.78,0,0,0,4.34-1.44,19.57,19.57,0,0,0,2.37-1.33,5.1,5.1,0,0,0,1.24-1,1.77,1.77,0,0,0,.14-2.17,2.24,2.24,0,0,0-1.81-.9,5.4,5.4,0,0,0-1.56.26,14.32,14.32,0,0,0-2.58,1,14.77,14.77,0,0,0-3.8,2.61c-1.89,1.84-2.52,3.38-2.38,3.45s1.1-1.16,3-2.69a16.4,16.4,0,0,1,3.68-2.18,15.23,15.23,0,0,1,2.39-.8c.87-.25,1.63-.27,1.86.12.09.15.1.2-.08.47a4.65,4.65,0,0,1-.91.74,24.2,24.2,0,0,1-2.18,1.31,23.44,23.44,0,0,1-4,1.64C617.46,958.63,615.89,958.77,615.91,959Z" transform="translate(-5.34 -49)"/><path class="cls-7" d="M616.45,959.57c.14.06.92-1.42,1-4.07a13.61,13.61,0,0,0-.67-4.56,13.81,13.81,0,0,0-1.12-2.51,3.47,3.47,0,0,0-2.72-2.06,2,2,0,0,0-1.72,1.21,5.9,5.9,0,0,0-.39,1.54,9.45,9.45,0,0,0,.06,2.82,9.61,9.61,0,0,0,1.88,4.28c1.68,2.12,3.39,2.57,3.42,2.43s-1.3-1-2.6-3a9.67,9.67,0,0,1-1.41-3.9,8.93,8.93,0,0,1,0-2.42c.12-.89.43-1.61.77-1.53s1.13.64,1.49,1.34a14.11,14.11,0,0,1,2,6.4C616.63,958,616.23,959.51,616.45,959.57Z" transform="translate(-5.34 -49)"/><path class="cls-17" d="M759.07,934.34l3.28,42.91S719.83,995,719.66,1003l83.43-3.37-6.72-66.88Z" transform="translate(-5.34 -49)"/><g class="cls-11"><path class="cls-4" d="M788,972.59a3.42,3.42,0,0,1,2.51,3.8,3.28,3.28,0,0,1-3.74,2.52c-1.64-.35-3.13-2.43-2.64-4s2.67-2.93,4.18-2.2" transform="translate(-5.34 -49)"/></g><g class="cls-11"><path class="cls-4" d="M803.09,999.61l-.5-6.75-79.8,5.75s-3.65,1.77-3.13,4.37Z" transform="translate(-5.34 -49)"/></g><path class="cls-7" d="M761,976.88c0,.4,2.07.51,4.13,1.74s3.19,2.89,3.56,2.72-.33-2.51-2.85-4S760.87,976.51,761,976.88Z" transform="translate(-5.34 -49)"/><path class="cls-7" d="M752.37,980.85c-.08.4,1.72,1,3.17,2.69s1.93,3.47,2.33,3.44.57-2.35-1.27-4.39S752.37,980.46,752.37,980.85Z" transform="translate(-5.34 -49)"/><path class="cls-7" d="M747.82,991.52c.38.07.86-2-.27-4.17s-3.08-3-3.24-2.66,1.07,1.49,2,3.31S747.42,991.5,747.82,991.52Z" transform="translate(-5.34 -49)"/><path class="cls-7" d="M761.32,967c.18.37,2-.27,4.34-.2s4.13.71,4.33.35-1.59-1.74-4.31-1.77S761.1,966.7,761.32,967Z" transform="translate(-5.34 -49)"/><path class="cls-7" d="M760.81,958.35c0,.16,1.63.35,4.18-.19a19.58,19.58,0,0,0,4.32-1.52,20.41,20.41,0,0,0,2.35-1.37,5.24,5.24,0,0,0,1.22-1,1.77,1.77,0,0,0,.1-2.17,2.22,2.22,0,0,0-1.82-.86,5.31,5.31,0,0,0-1.56.28,14.65,14.65,0,0,0-2.56,1,14.43,14.43,0,0,0-3.75,2.69c-1.87,1.87-2.47,3.42-2.33,3.49s1.09-1.19,3-2.74a16.26,16.26,0,0,1,3.64-2.25,14.68,14.68,0,0,1,2.37-.84c.87-.27,1.62-.31,1.86.08.09.15.11.2-.07.47a4.29,4.29,0,0,1-.9.76,24.46,24.46,0,0,1-2.15,1.35,23.21,23.21,0,0,1-4,1.71C762.37,958,760.8,958.12,760.81,958.35Z" transform="translate(-5.34 -49)"/><path class="cls-7" d="M761.37,958.91c.15.05.89-1.44.94-4.08a13.82,13.82,0,0,0-.76-4.55,14,14,0,0,0-1.16-2.5,3.49,3.49,0,0,0-2.75-2,1.94,1.94,0,0,0-1.7,1.24,5.78,5.78,0,0,0-.37,1.55,9.34,9.34,0,0,0,.11,2.81,9.66,9.66,0,0,0,2,4.24c1.72,2.1,3.44,2.52,3.47,2.38s-1.33-.94-2.66-3a9.55,9.55,0,0,1-1.48-3.87,8.89,8.89,0,0,1,0-2.42c.09-.89.4-1.62.73-1.54s1.15.61,1.52,1.31a14.08,14.08,0,0,1,1.13,2.22,14.87,14.87,0,0,1,1,4.14C761.52,957.31,761.14,958.85,761.37,958.91Z" transform="translate(-5.34 -49)"/><path class="cls-16" d="M690.35,207.36l-8.19,95-47.57-3.8c-.29-5.55.1-27,.1-27s-19.79-3.08-20-22.87c-.12-9.61,1.25-29.47,2.7-47.36A36.61,36.61,0,0,1,656,167.66h0A36.62,36.62,0,0,1,690.35,207.36Z" transform="translate(-5.34 -49)"/><path class="cls-18" d="M634.66,271.21s12.51,1,25.8-7.33c0,0-6.1,14.24-25.85,12.46Z" transform="translate(-5.34 -49)"/><path class="cls-7" d="M622.05,217.6c.33.38,2.54-1.09,5.58-.93s5.19,1.78,5.54,1.43c.17-.16-.16-.84-1.09-1.59a7.73,7.73,0,0,0-4.41-1.61,7.46,7.46,0,0,0-4.47,1.21C622.23,216.78,621.88,217.43,622.05,217.6Z" transform="translate(-5.34 -49)"/><path class="cls-7" d="M649.89,218c.36.36,2.45-1.29,5.49-1.37s5.31,1.38,5.63,1c.16-.16-.21-.82-1.21-1.5a7.84,7.84,0,0,0-4.52-1.25,7.47,7.47,0,0,0-4.36,1.55C650,217.19,649.71,217.86,649.89,218Z" transform="translate(-5.34 -49)"/><path class="cls-7" d="M640.43,236.41c0-.18-1.87-.5-4.94-.89-.77-.08-1.51-.24-1.64-.77a3.94,3.94,0,0,1,.52-2.3c.73-1.88,1.49-3.85,2.3-5.91,3.18-8.42,5.49-15.34,5.15-15.47s-3.2,6.6-6.39,15c-.76,2.07-1.5,4-2.2,5.94a4.51,4.51,0,0,0-.4,3.05,2,2,0,0,0,1.28,1.14,5.13,5.13,0,0,0,1.32.18C638.51,236.57,640.42,236.58,640.43,236.41Z" transform="translate(-5.34 -49)"/><path class="cls-7" d="M649.38,238.51c-.49,0-.5,3.27-3.33,5.62s-6.33,2-6.36,2.44c-.05.2.78.64,2.27.68a8.22,8.22,0,0,0,5.31-1.85,7.14,7.14,0,0,0,2.58-4.71C650,239.31,649.61,238.49,649.38,238.51Z" transform="translate(-5.34 -49)"/><path class="cls-7" d="M650.69,204c.3.83,3.34.44,6.91.87s6.45,1.4,6.92.66c.22-.35-.29-1.13-1.45-1.93a12.06,12.06,0,0,0-10.54-1.16C651.22,202.91,650.56,203.56,650.69,204Z" transform="translate(-5.34 -49)"/><path class="cls-7" d="M622.72,205.35c.61.79,3,0,5.91-.07s5.35.53,5.91-.3c.25-.4-.14-1.2-1.21-1.95a8.54,8.54,0,0,0-9.52.3C622.78,204.14,622.45,205,622.72,205.35Z" transform="translate(-5.34 -49)"/><path class="cls-7" d="M668.87,185.67l.1.08a15.57,15.57,0,0,1,5.79,10.07c0,.14,0,.27,0,.4.78,5.64.64,11.38,1.47,17s2.78,11.37,7,15.25c1.71,1.6,4.74,2.7,6.15.83a4.83,4.83,0,0,0,.71-2.59c1-13.63,4.77-25.72,4.75-40a12,12,0,0,0-5-9.78c-3-2.14-6.62-4.35-9.94-2.78s-7.61,7.77-10.18,10.4" transform="translate(-5.34 -49)"/><path class="cls-16" d="M683.68,216.32c.34-.15,13.59-4,13.16,9.5s-13.92,10.31-13.93,9.92S683.68,216.32,683.68,216.32Z" transform="translate(-5.34 -49)"/><path class="cls-18" d="M687.2,230.75c.06-.05.23.17.63.36a2.35,2.35,0,0,0,1.76.1c1.44-.48,2.72-2.71,2.86-5.15a7.74,7.74,0,0,0-.55-3.39,2.71,2.71,0,0,0-1.72-1.87,1.2,1.2,0,0,0-1.41.6c-.19.37-.11.65-.19.67s-.28-.24-.15-.79a1.45,1.45,0,0,1,.56-.83,1.74,1.74,0,0,1,1.31-.31,3.35,3.35,0,0,1,2.4,2.18,8,8,0,0,1,.69,3.8c-.17,2.72-1.65,5.23-3.62,5.73a2.54,2.54,0,0,1-2.15-.43C687.22,231.07,687.15,230.77,687.2,230.75Z" transform="translate(-5.34 -49)"/><path class="cls-7" d="M680.37,176.29c3.33-5.41-5.8-13.18-12.47-15.29s-15.48,1.15-22.12,3.36c-4.19,1.39-8.37,3.33-12.79,3.14-3-.12-5.78-1.19-8.57-2.18s-5.7-1.91-8.66-1.71-6,1.77-7.12,4.51.49,6.5,3.42,6.91c-3.74-2.06-9.16.65-9.76,4.88s3.82,8.34,8,7.43c-1.92-1.46-4.87.95-4.63,3.35s2.41,4.15,4.62,5.13c5.64,2.47,12.22,1.68,18.06-.28s11.26-5,17-7.14,15.49-5.9,21.3-3.85c4.28,1.51,7.26,6.66,9.67,5.53a8.25,8.25,0,0,0,4.28-6.09,24,24,0,0,0-.26-7.7" transform="translate(-5.34 -49)"/><path class="cls-14" d="M610.43,174.66c.11-.07.7,1,2.15,2.58a18.75,18.75,0,0,0,7.52,4.84,17.17,17.17,0,0,0,12.9-.53c4.6-2.06,8.54-6.18,13.07-10.07s9.86-6.82,15.2-7.3,10.23,1.44,12.94,4.48a11.82,11.82,0,0,1,3.07,8.74,9.32,9.32,0,0,1-.58,2.49c-.25.53-.4.79-.44.78a23.11,23.11,0,0,0,.5-3.29,11.69,11.69,0,0,0-3.24-8.08c-2.57-2.71-7.16-4.43-12.12-3.9s-10,3.27-14.47,7.1-8.5,8-13.43,10.18a18.42,18.42,0,0,1-21.31-5.1,12.87,12.87,0,0,1-1.41-2.11C610.51,175,610.39,174.68,610.43,174.66Z" transform="translate(-5.34 -49)"/><path class="cls-14" d="M687.12,215.73s-.58-.38-1.09-1.45a9.1,9.1,0,0,1-.68-4.9c.3-4.36,4.16-9,4.65-15.06a13.57,13.57,0,0,0-1.5-8.08,10.32,10.32,0,0,0-5-4.34,8.67,8.67,0,0,0-4.51-.61c-1.09.17-1.67.42-1.73.31s.48-.47,1.62-.82a8.4,8.4,0,0,1,4.95.23,10.92,10.92,0,0,1,5.76,4.61,14.37,14.37,0,0,1,1.77,8.82,24.82,24.82,0,0,1-2.61,8.53,25.48,25.48,0,0,0-2.43,6.54A10.52,10.52,0,0,0,687.12,215.73Z" transform="translate(-5.34 -49)"/><polygon class="cls-13" points="722.6 465.03 800.33 917.39 739.02 924.85 651.99 521.34 659.24 919.03 600.54 919.03 577.32 461.08 722.6 465.03"/><path class="cls-17" d="M588.42,370.06,566.5,383.68,541.62,335.9c10.94-7.89,46-30.43,54.83-36.24a41.73,41.73,0,0,1,7-3.76c4.26-1.76,9.44-3.3,18.41-4.52,5.61-.76,9.88-1.13,12.66-1.48a81.46,81.46,0,0,0,49.1,0h0c1.92.08,3.79.23,5.59.44h0c16.35,2.37,32,13.7,41.68,24.28l38.68,34.8-38,45.38-11.72-13.9L722.7,445l11.19,79.7H582.33s-.33-18.81,1-44.92c1.94-36.73,3.87-93.86,3.87-93.86" transform="translate(-5.34 -49)"/><path class="cls-7" d="M586.93,410.34c.24,0,.54-4,1-10.53s1-15.49,1.84-25.4,1.7-18.88,2.34-25.37,1-10.52.76-10.55-1,3.94-2,10.4-2,15.44-2.84,25.38-1.22,19-1.35,25.49S586.7,410.34,586.93,410.34Z" transform="translate(-5.34 -49)"/><path class="cls-7" d="M717.2,347.12c-.23,0-.42,2.78-.39,7.26s.28,10.67.78,17.49,1.18,13,1.82,17.41,1.23,7.15,1.46,7.12.06-2.79-.27-7.25c-.39-5.12-.83-11-1.32-17.41s-.9-12.29-1.27-17.41C717.68,349.88,717.44,347.12,717.2,347.12Z" transform="translate(-5.34 -49)"/><rect class="cls-15" x="674.07" y="305.71" width="25.23" height="6.56"/><path class="cls-15" d="M728.42,312.81a22.08,22.08,0,0,0-6-.85c-3.92,0-9.6,1.61-15.41,5.63-3,2-6,4.39-9.36,6.86A65.77,65.77,0,0,1,686,331.16a64.47,64.47,0,0,1-30.11,5.09,64.33,64.33,0,0,1-15.66-2.93,68.92,68.92,0,0,1-7.1-2.68,62.79,62.79,0,0,1-6.41-3.43c-8.24-4.86-13.71-11.6-19.49-15.61-5.68-4.2-11.57-5.39-15.45-5a17.8,17.8,0,0,0-5.84,1.64s.1-.1.32-.24a6.74,6.74,0,0,1,1-.59,13.21,13.21,0,0,1,4.43-1.28c4-.52,10.1.59,16,4.81,6,4,11.48,10.67,19.56,15.35a65,65,0,0,0,6.32,3.33,68.8,68.8,0,0,0,7,2.6A63.55,63.55,0,0,0,656,335.05a69.52,69.52,0,0,0,15.62-.8,67.59,67.59,0,0,0,14-4.12,64.33,64.33,0,0,0,11.48-6.5c3.39-2.41,6.46-4.82,9.48-6.75,6-4,11.86-5.53,15.88-5.39a15.35,15.35,0,0,1,4.55.71,8.64,8.64,0,0,1,1.12.42A1.32,1.32,0,0,1,728.42,312.81Z" transform="translate(-5.34 -49)"/><path class="cls-15" d="M588.65,361.59c-.19.14-1.67-2-4.73-4.72a38.31,38.31,0,0,0-5.8-4.24,38.71,38.71,0,0,0-16.62-5.27,38,38,0,0,0-7.18.12c-4.07.48-6.51,1.35-6.58,1.13a5.51,5.51,0,0,1,1.66-.75,24.58,24.58,0,0,1,4.81-1.22,33.15,33.15,0,0,1,7.37-.39,36.33,36.33,0,0,1,17.12,5.43,33.31,33.31,0,0,1,5.8,4.57,22.14,22.14,0,0,1,1.93,2.08,12.87,12.87,0,0,1,1.3,1.69C588.39,361,588.72,361.54,588.65,361.59Z" transform="translate(-5.34 -49)"/><path class="cls-15" d="M716.68,383.93a5.87,5.87,0,0,1-1.16.7l-3.47,1.82-2.52,1.28c-.94.44-2,.85-3.09,1.33-2.24.9-4.74,2.08-7.65,3l-4.53,1.51c-1.58.52-3.27.89-5,1.36-3.44,1-7.22,1.63-11.17,2.39a129.27,129.27,0,0,1-52-2.09c-3.89-1.07-7.6-2-11-3.27-1.68-.61-3.34-1.11-4.87-1.75l-4.4-1.88c-2.83-1.12-5.23-2.49-7.38-3.57-1.07-.56-2.08-1.05-3-1.57l-2.41-1.48-3.31-2.09a6.56,6.56,0,0,1-1.11-.79,5.69,5.69,0,0,1,1.24.59l3.41,1.88,2.45,1.39c.91.48,1.94.94,3,1.47,2.18,1,4.58,2.33,7.42,3.39l4.39,1.79c1.53.61,3.18,1.09,4.86,1.67,3.34,1.22,7,2.11,10.89,3.14a133,133,0,0,0,51.57,2.07c3.93-.72,7.68-1.31,11.11-2.26,1.71-.45,3.4-.79,5-1.28l4.52-1.43c2.91-.83,5.42-1.94,7.67-2.79,1.11-.44,2.17-.82,3.11-1.22l2.56-1.19,3.55-1.6A5.68,5.68,0,0,1,716.68,383.93Z" transform="translate(-5.34 -49)"/><path class="cls-15" d="M758.12,344.89c-.06.23-2.69-.69-7.07-.58a34.8,34.8,0,0,0-16.12,4.86,77.28,77.28,0,0,0-13.53,10.48c-3.23,3-5.23,4.89-5.36,4.77s1.67-2.2,4.76-5.38a65.19,65.19,0,0,1,13.53-10.92,32.77,32.77,0,0,1,16.72-4.66,21.51,21.51,0,0,1,5.26.73A5.21,5.21,0,0,1,758.12,344.89Z" transform="translate(-5.34 -49)"/><path class="cls-15" d="M719.73,432.8a5.89,5.89,0,0,1-1.24.65l-3.66,1.63c-1.59.72-3.55,1.55-5.89,2.36s-5,1.89-8,2.73l-4.68,1.42c-1.63.49-3.37.86-5.14,1.31-3.55,1-7.41,1.62-11.46,2.4a167.18,167.18,0,0,1-53.45.44c-4.07-.7-7.94-1.31-11.5-2.2-1.78-.43-3.52-.77-5.16-1.22L604.89,441c-3-.8-5.65-1.81-8-2.6s-4.33-1.57-5.93-2.27l-3.69-1.57a5.71,5.71,0,0,1-1.25-.62,5.86,5.86,0,0,1,1.34.4l3.77,1.36c1.62.62,3.61,1.35,6,2.06s5,1.68,8,2.41l4.7,1.26c1.63.43,3.37.75,5.15,1.15,3.54.85,7.4,1.41,11.44,2.08a173.86,173.86,0,0,0,53.11-.44c4-.74,7.87-1.37,11.4-2.28,1.77-.43,3.5-.77,5.13-1.23l4.68-1.33c3-.79,5.63-1.78,8-2.55s4.33-1.52,5.95-2.17l3.74-1.42A6.34,6.34,0,0,1,719.73,432.8Z" transform="translate(-5.34 -49)"/><path class="cls-15" d="M728.46,493.68a6.5,6.5,0,0,1-1.47-.1l-4.19-.53c-3.63-.51-8.89-1.14-15.4-1.81s-14.28-1.28-22.92-1.71-18.15-.56-28.13-.36-19.48.84-28.1,1.6-16.35,1.75-22.82,2.72-11.7,1.83-15.3,2.49l-4.16.72a6.43,6.43,0,0,1-1.47.16,6.57,6.57,0,0,1,1.42-.4l4.12-.94c3.57-.81,8.79-1.8,15.26-2.87s14.22-2.11,22.85-3,18.16-1.45,28.17-1.7,19.55,0,28.22.46,16.44,1.17,23,2,11.77,1.54,15.38,2.19l4.16.76A6.59,6.59,0,0,1,728.46,493.68Z" transform="translate(-5.34 -49)"/><path class="cls-16" d="M778.73,435.76,781,414.47s-14.14-24.36-7.73-57.92l-5.58-5-31.25,37.52,42.29,46.7" transform="translate(-5.34 -49)"/><path class="cls-7" d="M195.5,176.53c-20.14-.57-39.49,15.24-42.94,35.1-1.79,10.3.15,21.49-4.6,30.8-6.3,12.35-22.77,18-26.47,31.37-3.1,11.16,4.22,23.26,1.09,34.41-2.27,8.06-9.49,13.74-13,21.34a24.22,24.22,0,0,0,1.6,23.18,22,22,0,0,0,20.93,9.56c5.08-.73,9.69-3.32,14.57-4.92,10.55-3.46,22-2.19,33-.65s22.3,3.3,33.11.76,21.18-10.56,22.78-21.55c1-7.13-1.64-14.21-3.83-21.08-14.41-45.34-7.76-94.8-18-141.26" transform="translate(-5.34 -49)"/><path class="cls-7" d="M155.25,218.3c-2.89-3.48-5.92-6.93-9.67-9.46s-8.36-4.07-12.83-3.35-8.64,4.07-9.48,8.52,2.44,9.5,7,9.8c-3.47-1.74-8.08,1.1-8.75,4.93s2,7.74,5.52,9.31,7.74,1.14,11.35-.31,6.76-3.81,9.86-6.15l10.53-8" transform="translate(-5.34 -49)"/><path class="cls-14" d="M118.88,350.1a5.82,5.82,0,0,1-1.82-.82,9.65,9.65,0,0,1-3.51-4.51,13.39,13.39,0,0,1-.21-9c1.09-3.44,3.52-6.82,6.53-10.07s6.63-6.54,9.23-10.95c2.75-4.37,3-10.09,1.75-15.72-1-5.67-3.37-11.53-3.32-18.12a17.52,17.52,0,0,1,2.84-9.48,25,25,0,0,1,7.45-6.91c5.8-3.69,12.18-5.69,17.32-9.31a21.28,21.28,0,0,0,6.31-6.48,23.78,23.78,0,0,0,2.9-8.22c1-5.69.73-11.27,1.07-16.49a58.58,58.58,0,0,1,2.47-14.33c2.63-8.61,7.88-14.23,12-16.92A21,21,0,0,1,185,190.2a11.67,11.67,0,0,1,1.43-.41,1.62,1.62,0,0,1,.5-.09,29.38,29.38,0,0,0-6.79,3.43,31.1,31.1,0,0,0-11.48,16.79,58.41,58.41,0,0,0-2.28,14.13c-.3,5.15,0,10.75-1,16.62a25.2,25.2,0,0,1-3,8.63,22.57,22.57,0,0,1-6.63,6.86c-5.32,3.74-11.73,5.77-17.34,9.35a23.77,23.77,0,0,0-7.1,6.56,16.32,16.32,0,0,0-2.66,8.84c-.07,6.24,2.18,12.1,3.23,17.88a30.12,30.12,0,0,1,.58,8.64,18.23,18.23,0,0,1-2.56,7.8c-2.75,4.57-6.49,7.81-9.47,11s-5.4,6.43-6.51,9.71a13,13,0,0,0,0,8.64,9.66,9.66,0,0,0,3.21,4.48C118.25,349.83,118.91,350,118.88,350.1Z" transform="translate(-5.34 -49)"/><path class="cls-14" d="M151.39,232.69c-.33-.17,1.87-3.87,2.05-9s-1.6-9-1.25-9.13,2.73,3.7,2.46,9.18S151.6,232.92,151.39,232.69Z" transform="translate(-5.34 -49)"/><path class="cls-14" d="M163.49,307.94a5.36,5.36,0,0,1-.86-.9,11.75,11.75,0,0,1-1.74-3.09c-1.2-2.87-1.53-7.62.17-12.91s5.73-10.68,9.83-16.53a41.49,41.49,0,0,0,5.29-9.8,37.8,37.8,0,0,0,1.92-11.77c.13-8.26-1.46-16.09-1.93-23.34s.06-14,2.21-19.1A23.73,23.73,0,0,1,186,200.05a17.2,17.2,0,0,1,3.05-1.81,5.4,5.4,0,0,1,1.17-.42,40.63,40.63,0,0,0-3.93,2.6,24.14,24.14,0,0,0-7.14,10.38c-2,5-2.51,11.58-1.9,18.72s2.15,15,2,23.45a38.37,38.37,0,0,1-2,12.13,42.06,42.06,0,0,1-5.5,10c-4.19,5.89-8.31,11-9.92,16.17s-1.57,9.66-.55,12.48A19.6,19.6,0,0,0,163.49,307.94Z" transform="translate(-5.34 -49)"/><path class="cls-7" d="M102.22,312.72a9,9,0,0,1,.68,1.07,7.21,7.21,0,0,0,2.64,2.37,9.81,9.81,0,0,0,5.44,1.1,9.44,9.44,0,0,0,6.44-3.22,15.31,15.31,0,0,0,3.61-8.13,26.65,26.65,0,0,0-.84-10.37c-.89-3.61-2.27-7.31-3.33-11.31s-1.83-8.35-1-12.78a24,24,0,0,1,6-11.37,55.9,55.9,0,0,1,9-7.82c3-2.23,6.08-4.14,8.76-6.1a59.87,59.87,0,0,0,7.06-5.93c4-4,6.33-8,7.15-11a40.42,40.42,0,0,0,.91-4.82,13.65,13.65,0,0,1-.46,4.94c-.7,3.15-3,7.41-7,11.53A59.63,59.63,0,0,1,140.2,247c-2.7,2-5.71,3.95-8.71,6.19a55.47,55.47,0,0,0-8.74,7.71,23,23,0,0,0-5.66,10.8c-.82,4.15-.1,8.36.91,12.26s2.39,7.65,3.27,11.35a27.34,27.34,0,0,1,.75,10.78,16.14,16.14,0,0,1-4,8.57,10.28,10.28,0,0,1-12.74,1.93,6.86,6.86,0,0,1-2.6-2.64,4.1,4.1,0,0,1-.4-.88C102.23,312.84,102.2,312.73,102.22,312.72Z" transform="translate(-5.34 -49)"/><path class="cls-7" d="M249.16,198.65c1.77,12,5,23.81,10.17,31.22,4.16,5.95,12.26,9.4,13.49,16.56,1,6-2.57,12-2,18.13.93,9.61,11.51,15.46,14.51,24.63,2.5,7.63-.94,16.27-6.76,21.8s-13.62,8.47-21.37,10.56c-11.07,3-24.49,3.89-32.43-4.38-5.44-5.66-6.66-14.07-7.35-21.89-1.85-20.94-1.78-42-1.7-63" transform="translate(-5.34 -49)"/><path class="cls-19" d="M176.81,218.8a36,36,0,0,1,32.38-40.36c19.21-1.83,36.28,12.48,39.16,31.55,2.52,16.73,4.69,33.61,4.61,39.74-.23,18.49-11.05,25.69-15.44,27.85a24.34,24.34,0,0,1-4.86,1.21h0a.13.13,0,0,0-.11.15l4.11,21.22c1.86,13.91-5.9,26.31-19.78,28.33s-24.82-8.65-26.95-22.56Z" transform="translate(-5.34 -49)"/><path class="cls-7" d="M244.65,218.08c-.31.43-2.75-.88-5.88-.42s-5.19,2.37-5.59,2c-.19-.14.08-.88,1-1.75a8.11,8.11,0,0,1,4.41-2.1,7.81,7.81,0,0,1,4.74.8C244.37,217.24,244.8,217.88,244.65,218.08Z" transform="translate(-5.34 -49)"/><path class="cls-7" d="M216.44,223.59c-.31.43-2.75-.87-5.88-.41s-5.19,2.36-5.59,2c-.19-.15.08-.88,1-1.76a8,8,0,0,1,4.41-2.09,7.66,7.66,0,0,1,4.74.8C216.16,222.76,216.59,223.4,216.44,223.59Z" transform="translate(-5.34 -49)"/><path class="cls-7" d="M228.14,241.63c0-.17,1.86-.79,5-1.65.79-.2,1.52-.47,1.58-1a4.2,4.2,0,0,0-.88-2.29l-3.25-5.74c-4.55-8.19-8-15-7.63-15.14s4.29,6.3,8.83,14.49q1.65,3,3.16,5.79a4.74,4.74,0,0,1,.87,3.08,2,2,0,0,1-1.15,1.36,5.8,5.8,0,0,1-1.32.39C230.15,241.51,228.18,241.81,228.14,241.63Z" transform="translate(-5.34 -49)"/><path class="cls-16" d="M232.53,278.81s-11.94,2.75-28.38-4.13c0,0,7.1,15.28,29.49,9.85Z" transform="translate(-5.34 -49)"/><path class="cls-16" d="M227.92,249.37a5.72,5.72,0,0,0-5.36-1.36,5.2,5.2,0,0,0-3.28,2.43,3.28,3.28,0,0,0,.3,3.76,3.79,3.79,0,0,0,4.25.44,11.82,11.82,0,0,0,3.65-3,3.36,3.36,0,0,0,.76-1,1.07,1.07,0,0,0-.17-1.17" transform="translate(-5.34 -49)"/><path class="cls-7" d="M219.25,245.14c.5-.1,1,3.29,4.26,5.28s6.83,1.09,6.92,1.56c.08.21-.71.78-2.23,1a8.54,8.54,0,0,1-5.75-1.11,7.44,7.44,0,0,1-3.36-4.46C218.76,246.05,219,245.16,219.25,245.14Z" transform="translate(-5.34 -49)"/><path class="cls-7" d="M214.82,214.65c-.18.9-3.37.95-7,1.93s-6.43,2.41-7,1.72c-.27-.33.13-1.21,1.2-2.21a12.17,12.17,0,0,1,5-2.62,12,12,0,0,1,5.65-.16C214.12,213.66,214.9,214.23,214.82,214.65Z" transform="translate(-5.34 -49)"/><path class="cls-7" d="M242,209.45c-.45.79-2.71.37-5.31.71s-4.72,1.18-5.33.51c-.28-.33,0-1.09.83-1.91a7.41,7.41,0,0,1,4.14-1.79,7.48,7.48,0,0,1,4.43.81C241.78,208.38,242.19,209.07,242,209.45Z" transform="translate(-5.34 -49)"/><path class="cls-7" d="M239.19,220.71a2.91,2.91,0,0,0,2.36,3.31,2.79,2.79,0,0,0,3.35-2.17,2.91,2.91,0,0,0-2.35-3.31A2.79,2.79,0,0,0,239.19,220.71Z" transform="translate(-5.34 -49)"/><path class="cls-7" d="M210.55,226.06a2.92,2.92,0,0,0,2.36,3.32,2.81,2.81,0,0,0,3.36-2.17,2.92,2.92,0,0,0-2.36-3.32A2.79,2.79,0,0,0,210.55,226.06Z" transform="translate(-5.34 -49)"/><path class="cls-19" d="M178.83,306.6,249.16,293l-2,39.2s-31.27,9.71-32.4,10.3-21.64,0-21.64,0Z" transform="translate(-5.34 -49)"/><path class="cls-19" d="M100.9,572.85c-.53,1.78-1.1,3.89-1.65,6.41a19.39,19.39,0,0,0-.29,6.58c.34,2.66.92,6.17,1.84,8,1.14,2.26-1.06,4.72-3.11,3.68s-5.33-7.19-5.61-15.33-8,2.08-10.9,5.75S68.83,602.55,67,602.56c-2.68,0-3.19-2.86-.22-6.46s11.1-15,9.09-16.46-16.42,17.49-16.42,17.49-2.43,4.54-4.81,3c-4.29-2.84,12.53-21.79,14.17-23.56,1.14-1.23-1-2.86-2.14-1.47s-14,19.18-18.36,16.33C44.93,589.2,62,575.67,62.6,570.51s-11.9,11.58-15,9.36c-1.17-.83-1.92-1.61,6.64-10.18,4.16-4.16,20.15-16.77,20.15-16.77L106.79,439.6h42.59Z" transform="translate(-5.34 -49)"/><path class="cls-19" d="M307.73,276.44S368.39,252.3,378,244.85,448.17,183,448.17,183l8.05-6.76c1-1.57,2.12-3.45,3.34-5.71a19.26,19.26,0,0,0,2.07-6.25c.41-2.65.81-6.19.43-8.2-.48-2.48,2.31-4.25,4-2.69s3.16,8.38,1.21,16.28,8.27.2,12.06-2.54,15.87-10.68,17.63-10.18c2.59.72,2.29,3.63-1.55,6.28s-14.79,11.4-13.25,13.33,20.58-12.32,20.58-12.32,3.58-3.7,5.44-1.53c3.35,3.91-18,17.53-20.09,18.78-1.43.86.17,3,1.66,2s18.68-14.62,22.13-10.67c2.65,3-17.47,11.37-19.46,16.16s14.61-7.88,17-4.88c.9,1.11,1.42,2.07-9.17,8-5.14,2.86-24,10.61-24,10.61l-2,2.06-80.65,83.64L319.6,318Z" transform="translate(-5.34 -49)"/><path class="cls-17" d="M81,912.69l-11.88,53.7-21.65,39.77A5.63,5.63,0,0,0,50,1014h0a5.57,5.57,0,0,0,5.16-.23c10.07-5.82,47-27.4,47.65-31.38.76-4.61,16.3-55.82,16.3-55.82Z" transform="translate(-5.34 -49)"/><g class="cls-11"><path class="cls-4" d="M50,1014l53.7-35.22-.56,2.27a8.51,8.51,0,0,1-3.26,4.86c-4.37,3.15-16.63,11.6-44.56,27.9A5.61,5.61,0,0,1,50,1014Z" transform="translate(-5.34 -49)"/></g><g class="cls-11"><path class="cls-4" d="M97,958.83a3.4,3.4,0,0,0-2,4.1,3.27,3.27,0,0,0,4,2c1.58-.57,2.77-2.84,2.07-4.36s-3-2.53-4.45-1.6" transform="translate(-5.34 -49)"/></g><path class="cls-7" d="M68,993.63c-.34.07-.86-3-3.67-5.3s-5.87-2.34-5.86-2.69c0-.14.77-.39,2.06-.26a9,9,0,0,1,7.37,6.18C68.21,992.81,68.1,993.62,68,993.63Z" transform="translate(-5.34 -49)"/><path class="cls-7" d="M62.4,999.85c-.31.17-1.6-2-4.17-3.46s-5-1.6-5-1.95,2.76-.81,5.66.91S62.71,999.77,62.4,999.85Z" transform="translate(-5.34 -49)"/><path class="cls-7" d="M77.29,986.2c-.31.19-2.28-3.14-6.07-5.77s-7.55-3.43-7.47-3.79,4.13-.08,8.16,2.8S77.58,986.11,77.29,986.2Z" transform="translate(-5.34 -49)"/><path class="cls-7" d="M82.27,970.17c-.23.29-2.87-1.67-6.68-2.75s-7.08-.9-7.11-1.26,3.37-1.11,7.45.1S82.5,970,82.27,970.17Z" transform="translate(-5.34 -49)"/><path class="cls-7" d="M86.15,954.5c-.24.27-2.77-2.24-6.87-3s-7.41.38-7.52,0c-.06-.13.69-.66,2.09-1.07a12.12,12.12,0,0,1,5.68-.15,12,12,0,0,1,5.13,2.41C85.79,953.62,86.26,954.4,86.15,954.5Z" transform="translate(-5.34 -49)"/><path class="cls-7" d="M80.11,948.49a4.58,4.58,0,0,1,.42-2,14.38,14.38,0,0,1,2.9-4.9,6.45,6.45,0,0,1,3.4-2.32,2.28,2.28,0,0,1,2.36,1.1,3.68,3.68,0,0,1,.25,2.62,8,8,0,0,1-8.53,5.49,9.23,9.23,0,0,1-7.67-6.85,3.26,3.26,0,0,1,.49-2.63,2.24,2.24,0,0,1,2.54-.59,7.85,7.85,0,0,1,3.07,2.7,16,16,0,0,1,2.63,5,5,5,0,0,1,.37,2c-.22.09-.71-3-3.66-6.56a7.36,7.36,0,0,0-2.74-2.28,1.18,1.18,0,0,0-1.38.31,2.18,2.18,0,0,0-.22,1.75,8.22,8.22,0,0,0,6.71,5.86,6.89,6.89,0,0,0,7.31-4.56,2.63,2.63,0,0,0-.1-1.83,1.24,1.24,0,0,0-1.29-.63,5.86,5.86,0,0,0-2.91,1.91C80.84,945.5,80.33,948.6,80.11,948.49Z" transform="translate(-5.34 -49)"/><g class="cls-20"><path class="cls-17" d="M248.37,932.47l-1.63,43s43.17,16.1,43.64,24.08l-83.5-.16-.21-67.11Z" transform="translate(-5.34 -49)"/></g><g class="cls-11"><path class="cls-4" d="M220.93,971.81a3.39,3.39,0,0,0-2.36,3.88,3.27,3.27,0,0,0,3.83,2.38c1.62-.41,3-2.55,2.48-4.13s-2.78-2.82-4.26-2" transform="translate(-5.34 -49)"/></g><g class="cls-11"><path class="cls-4" d="M206.88,999.39l.25-6.77,80,2.69s3.71,1.62,3.29,4.24Z" transform="translate(-5.34 -49)"/></g><path class="cls-7" d="M248.1,975.05c0,.41-2.06.59-4.06,1.9s-3.09,3-3.46,2.85.24-2.51,2.7-4S248.19,974.68,248.1,975.05Z" transform="translate(-5.34 -49)"/><path class="cls-7" d="M256.85,978.69c.09.4-1.68,1.09-3.07,2.81S252,985,251.59,985s-.66-2.33,1.1-4.44S256.84,978.3,256.85,978.69Z" transform="translate(-5.34 -49)"/><path class="cls-7" d="M261.8,989.18c-.37.09-.93-1.95.12-4.18s3-3.11,3.13-2.77-1,1.53-1.85,3.37S262.21,989.14,261.8,989.18Z" transform="translate(-5.34 -49)"/><path class="cls-7" d="M247.38,965.21c-.17.37-2-.19-4.34,0s-4.11.87-4.32.52,1.52-1.8,4.24-1.94S247.58,964.89,247.38,965.21Z" transform="translate(-5.34 -49)"/><g class="cls-12"><polygon points="242.7 891.99 242.42 899.65 201.38 899.2 201.34 892.29 242.7 891.99"/></g><path class="cls-7" d="M247.55,956.53c0,.17-1.61.42-4.18,0a19.32,19.32,0,0,1-4.37-1.35,20.77,20.77,0,0,1-2.4-1.28,5,5,0,0,1-1.26-1,1.78,1.78,0,0,1-.19-2.17,2.27,2.27,0,0,1,1.79-.93,5.5,5.5,0,0,1,1.57.22,15.28,15.28,0,0,1,2.6.9,14.77,14.77,0,0,1,3.85,2.54c1.93,1.8,2.59,3.32,2.45,3.4s-1.12-1.14-3.09-2.63a16.8,16.8,0,0,0-3.73-2.11,15.31,15.31,0,0,0-2.4-.74c-.88-.24-1.63-.24-1.86.15-.08.15-.09.21.09.47a4.23,4.23,0,0,0,.93.72,21.62,21.62,0,0,0,2.2,1.26,22.61,22.61,0,0,0,4,1.56C246,956.19,247.56,956.31,247.55,956.53Z" transform="translate(-5.34 -49)"/><path class="cls-7" d="M247,957.11c-.15.06-1-1.4-1.1-4a13.72,13.72,0,0,1,.58-4.58,14,14,0,0,1,1.07-2.53,3.45,3.45,0,0,1,2.67-2.11A2,2,0,0,1,252,945a5.61,5.61,0,0,1,.42,1.53,8.89,8.89,0,0,1,0,2.82,9.62,9.62,0,0,1-1.79,4.32c-1.64,2.16-3.34,2.64-3.38,2.5s1.29-1,2.54-3.06a9.75,9.75,0,0,0,1.34-3.93,8.61,8.61,0,0,0-.08-2.42c-.13-.88-.46-1.6-.79-1.51s-1.12.66-1.47,1.37a14.22,14.22,0,0,0-1,2.26,15.19,15.19,0,0,0-.81,4.17C246.81,955.52,247.24,957.05,247,957.11Z" transform="translate(-5.34 -49)"/><path class="cls-13" d="M166.9,460.31S140.49,502,136.69,518c-3.4,14.31-61.16,325.3-73.11,389.68a13.16,13.16,0,0,0,9.16,15L125,938.38a13.16,13.16,0,0,0,16.67-9.86l64.43-301.29L187.2,925.74A15.28,15.28,0,0,0,202.92,942l51.18-1.58a15.26,15.26,0,0,0,14.78-14.31c4.45-71.89,24.45-398.91,20.43-409.18-4.51-11.53-16.37-51.62-16.37-51.62Z" transform="translate(-5.34 -49)"/><path class="cls-14" d="M146,913.81a17.34,17.34,0,0,1-3.2-.4c-2-.33-5-.88-8.62-1.62-7.25-1.49-17.22-3.84-28.08-7s-20.53-6.53-27.45-9.17c-3.46-1.32-6.24-2.44-8.14-3.26A16.85,16.85,0,0,1,67.6,891a16,16,0,0,1,3.08.94l8.26,2.9c7,2.43,16.67,5.65,27.5,8.81s20.73,5.63,27.93,7.33l8.53,2A16.91,16.91,0,0,1,146,913.81Z" transform="translate(-5.34 -49)"/><path class="cls-14" d="M81.24,894.73c-.21.23-2.45-2-3.29-5.69s.12-6.67.41-6.56-.06,2.92.76,6.29S81.53,894.52,81.24,894.73Z" transform="translate(-5.34 -49)"/><path class="cls-14" d="M87.68,883.64c.32,0,.38,2.85-.62,6.17s-2.61,5.65-2.88,5.49.78-2.66,1.72-5.84S87.33,883.61,87.68,883.64Z" transform="translate(-5.34 -49)"/><path class="cls-14" d="M251.58,899.37c.33-.06,1,2.38,1.49,5.43s.63,5.58.3,5.64-1-2.39-1.49-5.44S251.25,899.42,251.58,899.37Z" transform="translate(-5.34 -49)"/><path class="cls-14" d="M257.8,896.46c.33,0,.57,2.62.52,5.84s-.35,5.83-.68,5.82-.57-2.62-.52-5.84S257.47,896.46,257.8,896.46Z" transform="translate(-5.34 -49)"/><path class="cls-14" d="M229,474.86a8.24,8.24,0,0,1,0,1.64c-.05,1.2-.11,2.76-.18,4.7-.16,4.08-.52,10-1,17.26-1.06,14.57-3.05,34.66-6.28,56.71s-7.06,41.88-10,56.17c-1.49,7.15-2.75,12.92-3.67,16.9-.45,1.89-.81,3.41-1.09,4.57a8.67,8.67,0,0,1-.45,1.58,7.87,7.87,0,0,1,.22-1.63c.22-1.17.5-2.71.86-4.62.8-4.14,1.92-9.9,3.29-17,2.75-14.33,6.41-34.16,9.66-56.19s5.35-42.06,6.63-56.6c.6-7.17,1.08-13,1.43-17.22.17-1.94.3-3.49.41-4.68A8.25,8.25,0,0,1,229,474.86Z" transform="translate(-5.34 -49)"/><path class="cls-14" d="M275.63,474.81a4.35,4.35,0,0,1-1.17.14l-3.35.17c-2.92.12-7.14.23-12.35.32-10.42.17-24.83.16-40.73-.28s-30.29-1.25-40.69-2c-5.2-.37-9.4-.72-12.31-1l-3.33-.35a4.4,4.4,0,0,1-1.16-.21,4.62,4.62,0,0,1,1.17,0l3.36.13,12.32.63c10.41.53,24.78,1.19,40.67,1.64s30.28.59,40.7.63l12.34.07,3.35.06A4.23,4.23,0,0,1,275.63,474.81Z" transform="translate(-5.34 -49)"/><path class="cls-14" d="M237.9,474.3a25.77,25.77,0,0,1,0,3.95c-.09,2.74-.21,6.36-.35,10.74-.35,9.06-.92,21.58-1.62,35.4-.38,6.91-.64,13.48-1.1,19.5s-1.75,11.45-4.06,15.49a20.14,20.14,0,0,1-7.42,7.82,13.74,13.74,0,0,1-2.7,1.2,3.15,3.15,0,0,1-1,.21,36.9,36.9,0,0,0,3.46-1.81,20.73,20.73,0,0,0,6.92-7.83c2.13-3.94,3.28-9.25,3.7-15.18s.63-12.56,1-19.46c.7-13.82,1.41-26.33,2-35.39.3-4.37.55-8,.74-10.72A25.74,25.74,0,0,1,237.9,474.3Z" transform="translate(-5.34 -49)"/><path class="cls-14" d="M178.26,500a9.68,9.68,0,0,1,0,2.69A38.65,38.65,0,0,1,177,510a43.79,43.79,0,0,1-33.78,31.54,38.68,38.68,0,0,1-7.29.79,10.15,10.15,0,0,1-2.68-.16c0-.25,3.84-.07,9.79-1.46a45.08,45.08,0,0,0,33.14-30.95C177.94,503.87,178,500,178.26,500Z" transform="translate(-5.34 -49)"/><path class="cls-14" d="M289,543.71a5.73,5.73,0,0,1-1.83-.46,28.59,28.59,0,0,1-4.7-2,38.61,38.61,0,0,1-6.34-4.24,44.34,44.34,0,0,1-6.51-6.71,44.88,44.88,0,0,1-4.83-8,38.94,38.94,0,0,1-2.47-7.22,29,29,0,0,1-.78-5.07,5.51,5.51,0,0,1,0-1.89c.22,0,.42,2.65,1.58,6.74a44.11,44.11,0,0,0,2.65,7,48,48,0,0,0,4.78,7.75,48.54,48.54,0,0,0,6.26,6.6,43.81,43.81,0,0,0,6.05,4.34C286.51,542.62,289,543.5,289,543.71Z" transform="translate(-5.34 -49)"/><path class="cls-14" d="M196.08,507.65s0,.35-.09,1-.22,1.75-.39,3c-.37,2.73-.91,6.66-1.6,11.68-1.4,10.14-3.59,24.8-6.44,42.88-5.7,36.17-14.39,86-25.65,140.73s-23,104-32.07,139.44c-4.52,17.74-8.31,32.06-11,41.93l-3.14,11.36c-.36,1.26-.65,2.23-.85,3s-.33,1-.33,1,.05-.35.21-1l.73-3c.68-2.67,1.67-6.51,2.92-11.42,2.59-9.9,6.24-24.26,10.66-42,8.85-35.52,20.43-84.75,31.72-139.47s20.07-104.5,26-140.63c3-18.06,5.27-32.69,6.81-42.81.79-5,1.4-8.92,1.83-11.64.22-1.29.38-2.29.51-3S196.08,507.65,196.08,507.65Z" transform="translate(-5.34 -49)"/><path class="cls-14" d="M238.51,913.51a6.15,6.15,0,0,1,0-1c.06-.7.13-1.66.22-2.88.21-2.59.53-6.31.93-11.06.87-9.67,2.11-23.55,3.65-40.68,3-34.35,7.86-81.76,11.48-134.23,1.78-26.25,3-51.29,3.51-74.08s.36-43.31-.07-60.54-1.32-31.16-2-40.77c-.35-4.76-.62-8.48-.8-11.07-.08-1.22-.14-2.18-.18-2.89a5.17,5.17,0,0,1,0-1,5.81,5.81,0,0,1,.14,1c.07.71.17,1.66.3,2.88.24,2.59.59,6.3,1,11,.82,9.61,1.73,23.55,2.38,40.78s.81,37.79.33,60.6-1.63,47.86-3.41,74.13c-3.62,52.51-8.57,99.9-11.84,134.23-1.7,17.11-3.08,31-4,40.64-.5,4.75-.89,8.46-1.16,11l-.33,2.87A5.49,5.49,0,0,1,238.51,913.51Z" transform="translate(-5.34 -49)"/><path class="cls-14" d="M270.21,908.1c0,.33-18.35,2.63-41,5.13S188,917.49,188,917.16,206.32,914.53,229,912,270.17,907.77,270.21,908.1Z" transform="translate(-5.34 -49)"/><path class="cls-7" d="M201.24,187.29a30.16,30.16,0,0,0-5,30c2.62,6.67,7.75,12.81,7.31,20-.54,8.87-9.61,15.83-9.11,24.7.56,10,13.36,16.32,13.37,26.35s-6.16,14.05-18.07,16.22c-7.63,1.39-11.86-8.06-15.65-14.82s-5-14.65-5.8-22.37a228.47,228.47,0,0,1-.59-38.53c.71-10.36,2.25-21,7.64-29.9a38.71,38.71,0,0,1,25.45-17.73" transform="translate(-5.34 -49)"/><path class="cls-7" d="M252,205.85c-3.83,5.84-16,2.23-23.31-1.78a17.44,17.44,0,0,1-23.81-4.93c-4.19,5.35-12.72,3.58-15.82-2.44s-1.36-14.31,2.91-19.58,10.51-7.93,16.68-9.07c14.61-2.7,30.54,3,39.28,16.18,4,6.1,6.46,14.32,4.07,21.62" transform="translate(-5.34 -49)"/><path class="cls-14" d="M252.07,204.71c-.2.14-2.27-3.65-6.83-8.79s-12-11.56-22-14.43-19.92-1-25.95,2c-6.19,3-8.57,6.87-8.78,6.64,0,0,.11-.25.4-.67a13.7,13.7,0,0,1,1.41-1.75,23.83,23.83,0,0,1,6.58-5c6.11-3.32,16.27-5.36,26.67-2.4A43.33,43.33,0,0,1,237,187a51.34,51.34,0,0,1,8.91,8.37,52.3,52.3,0,0,1,4.8,6.68A12.09,12.09,0,0,1,252.07,204.71Z" transform="translate(-5.34 -49)"/><path class="cls-14" d="M216.06,207.06c-.19.05-.66-2.07-2.1-5.17a24.27,24.27,0,0,0-8.32-10.06,18.59,18.59,0,0,0-12.52-2.92c-3.37.45-5.21,1.67-5.32,1.46,0-.06.38-.42,1.24-.9a13.23,13.23,0,0,1,3.94-1.41,18.29,18.29,0,0,1,13.33,2.76,23,23,0,0,1,8.44,10.73C216,204.85,216.19,207,216.06,207.06Z" transform="translate(-5.34 -49)"/><path class="cls-17" d="M178.83,306.6s-31.3,8.93-43,28.22S87.91,490,87.91,490l41.43,4.65,34.47-90.47,8.51,28.28-5.42,27.82,106,5,7.32-121.88,113.39-55.06,12.74-13.22-32.93-34.8L360.9,252.06,247.15,293.71s4.24,33.58-26.41,38.46S178.83,306.6,178.83,306.6Z" transform="translate(-5.34 -49)"/><rect class="cls-15" x="234.07" y="303.13" width="25.23" height="6.56"/><path class="cls-7" d="M152.05,364.08c.32-.1,5.06,14.8,10.58,33.28s9.76,33.53,9.44,33.63-5.06-14.8-10.59-33.29S151.73,364.17,152.05,364.08Z" transform="translate(-5.34 -49)"/><path class="cls-7" d="M300.66,316.76c.25.32-6.84,4.51-12.76,12.47s-8.1,15.85-8.48,15.7c-.13,0,.2-2.05,1.33-5.15a44.64,44.64,0,0,1,15.32-20.33C298.74,317.52,300.59,316.64,300.66,316.76Z" transform="translate(-5.34 -49)"/><g class="cls-21"><path d="M154,370.48a165,165,0,0,0-3.58,34.89,29.09,29.09,0,0,0,1,8.58,11,11,0,0,0,5.19,6.67c3.13-4.51,6.37-9.29,6.84-14.76.33-3.81-.73-7.59-1.78-11.27l-7.2-25.21" transform="translate(-5.34 -49)"/></g><path class="cls-7" d="M181.81,300c5.6,3.93,7.49,11.45,7.22,18.28s-2.25,13.51-2.57,20.34,1.43,14.36,6.93,18.42l26.94-9.15c-5.31-3-6.43-10.31-5.27-16.31s4-11.67,4.28-17.77c.84-16-10.67-29.72-16.06-36.23" transform="translate(-5.34 -49)"/><polygon class="cls-10" points="287.12 891.78 276.68 951.48 328.32 951.48 334.02 895.03 287.12 891.78"/><path class="cls-10" d="M334.71,995.59c0,.2-2.87.39-7.52.43s-11.07-.07-18.14-.33l-18.12-.77c-4.64-.22-7.5-.4-7.5-.6s2.87-.38,7.52-.41,11.07.09,18.15.35l18.11.75C331.84,995.23,334.71,995.39,334.71,995.59Z" transform="translate(-5.34 -49)"/><g class="cls-11"><polyline class="cls-10" points="276.68 951.48 328.32 951.48 328.81 946.59 277.61 945.32 276.68 950.89"/></g><path class="cls-7" d="M307.23,995.56c-.33,0,.94-10.24,2.83-22.76s3.7-22.64,4-22.59-.94,10.24-2.83,22.77S307.56,995.61,307.23,995.56Z" transform="translate(-5.34 -49)"/><path class="cls-7" d="M331.85,995.47c-.32,0,1.25-4.32-.87-10.83a21.65,21.65,0,0,0-6.53-9.63,21,21,0,0,0-13.28-4.69,21.89,21.89,0,0,0-13.43,4.37,23.77,23.77,0,0,0-7.2,9.2c-2.71,6.27-2,10.73-2.28,10.68-.05,0-.09-.26-.15-.77a15.11,15.11,0,0,1-.08-2.23,23.43,23.43,0,0,1,1.72-8,24.16,24.16,0,0,1,7.31-9.75,22.7,22.7,0,0,1,14.12-4.69,21.2,21.2,0,0,1,20.61,15.27,20.42,20.42,0,0,1,.77,8.17,14.23,14.23,0,0,1-.44,2.19C332,995.23,331.89,995.48,331.85,995.47Z" transform="translate(-5.34 -49)"/><path class="cls-10" d="M514.51,924.09l12.56,41.16s46,1.07,49.12,8.45l-78.94,27.21-22.2-63.33Z" transform="translate(-5.34 -49)"/><g class="cls-11"><path class="cls-4" d="M501.48,970.25a3.41,3.41,0,0,0-1,4.45,3.28,3.28,0,0,0,4.4,1c1.4-.92,2-3.4,1-4.72s-3.55-1.75-4.69-.52" transform="translate(-5.34 -49)"/></g><g class="cls-11"><path class="cls-4" d="M497.25,1000.91l-2-6.47,76.43-23.67s4,.32,4.5,2.93Z" transform="translate(-5.34 -49)"/></g><path class="cls-7" d="M528.21,964.41c.12.39-1.75,1.23-3.22,3.12s-1.92,3.87-2.33,3.84-.6-2.46,1.22-4.72S528.17,964,528.21,964.41Z" transform="translate(-5.34 -49)"/><path class="cls-7" d="M537.67,965c.22.35-1.23,1.58-2,3.66s-.53,3.93-.92,4.05-1.38-2-.4-4.55S537.53,964.62,537.67,965Z" transform="translate(-5.34 -49)"/><path class="cls-7" d="M545.79,973.27c-.33.2-1.53-1.54-1.26-4s1.77-3.91,2.05-3.65-.46,1.78-.64,3.8S546.16,973.1,545.79,973.27Z" transform="translate(-5.34 -49)"/><path class="cls-7" d="M524.31,955.35c0,.41-2,.48-4.12,1.38s-3.59,2.17-3.91,1.91.85-2.2,3.37-3.22S524.39,955,524.31,955.35Z" transform="translate(-5.34 -49)"/><g class="cls-12"><polygon points="511.64 883.25 513.89 890.58 474.98 903.6 472.68 897.09 511.64 883.25"/></g><path class="cls-7" d="M521.62,947.09c.06.16-1.38.92-4,1.34a18.56,18.56,0,0,1-4.57.16,20.48,20.48,0,0,1-2.69-.42,5.22,5.22,0,0,1-1.51-.52,1.77,1.77,0,0,1-.89-2,2.21,2.21,0,0,1,1.39-1.46,5.32,5.32,0,0,1,1.55-.31,14.91,14.91,0,0,1,7.22,1.13c2.42,1.07,3.54,2.29,3.43,2.41s-1.44-.71-3.78-1.47a16.39,16.39,0,0,0-4.21-.77,15.37,15.37,0,0,0-2.52.08c-.91.07-1.62.31-1.71.76,0,.16,0,.22.24.41a4.11,4.11,0,0,0,1.11.37,22.34,22.34,0,0,0,2.5.48,23.41,23.41,0,0,0,4.33.15C520,947.29,521.55,946.88,521.62,947.09Z" transform="translate(-5.34 -49)"/><path class="cls-7" d="M521.31,947.82c-.12.1-1.36-1-2.36-3.46a13.55,13.55,0,0,1-.77-7.26,3.44,3.44,0,0,1,1.83-2.87,2,2,0,0,1,2,.53,5.77,5.77,0,0,1,.91,1.31,9.63,9.63,0,0,1,.64,7.33c-.84,2.58-2.29,3.59-2.37,3.47s.89-1.35,1.4-3.72a9.84,9.84,0,0,0,0-4.15,9,9,0,0,0-.86-2.26c-.42-.8-1-1.36-1.25-1.17s-.84,1-.94,1.77a14.34,14.34,0,0,0-.24,2.48,15.18,15.18,0,0,0,.6,4.21C520.59,946.38,521.5,947.69,521.31,947.82Z" transform="translate(-5.34 -49)"/><path class="cls-22" d="M283,403.79l-14.88,30.62a37.46,37.46,0,0,0,6.12,41.72h0A37.49,37.49,0,0,0,306.09,488l57.69-6.58,0-34.38-56.88,1.65,14.23-25Z" transform="translate(-5.34 -49)"/><path class="cls-7" d="M356.25,295c-9.54-16.1-12.27-37.56-14.68-56.12-1.13-8.74-3.12-21.17,3-26.64,6.58-5.85,7.21-14.88,14.78-19.39s17.81-4.89,24.94.28" transform="translate(-5.34 -49)"/><path class="cls-22" d="M382.66,352.05h0a25.84,25.84,0,0,0,27.87-24.7c.59-14.07,1.1-28.29,1.1-28.29s21.32-1.94,22.93-23,1.05-69.81,1.05-69.81h0a73.53,73.53,0,0,0-74.32,4.56l1.1,74.26L362.27,325C362.37,338.39,369.3,351,382.66,352.05Z" transform="translate(-5.34 -49)"/><path class="cls-7" d="M413.61,250.21c-3.63-4.52-9.54-6.34-14.41-3.19a12.26,12.26,0,0,0-4.13,15.32,16.13,16.13,0,0,0,10.33,7.86,8.1,8.1,0,0,1,6.32,8.74c-.63,5.29-9.44,7.26-13.43,11.63-6.21,6.8-19.79,9.65-28.93,10.7s-7.91,1.13-13.11-6.28c-3.79-5.38-5-10.56-5.09-17.14q-.41-23.34-.83-46.67c-.09-5.61-.19-11.29,1.12-16.75s4.17-10.75,8.87-13.82c5.14-3.36,11.64-3.63,17.49-5.5,7.32-2.35,13.54-7.17,20.39-10.65s15.23-5.55,22.09-2.08c4.92,2.49,8.2,7.41,13,10.15,6.81,3.9,16.1,3.05,19.38,13.09a17,17,0,0,1-.15,10.73c-4.66,13.63-21.58,19.09-33.74,13.15-.25,2.31,2,7.47-.44,14.76-.79,2.33-1.07,5.89-4.72,6" transform="translate(-5.34 -49)"/><path class="cls-9" d="M409.79,263.37c.09,0,.09.4-.29.91a3.19,3.19,0,0,1-2.35,1.17c-2.37.21-5.37-2.34-5.46-5.84a6.08,6.08,0,0,1,1.57-4.46,6.26,6.26,0,0,1,3.3-1.89c2.18-.45,3.43.35,3.34.49s-1.3-.1-3,.53a5.3,5.3,0,0,0-3.66,5.26c.07,2.75,2.26,4.76,4,4.84S409.64,263.23,409.79,263.37Z" transform="translate(-5.34 -49)"/><path class="cls-7" d="M357.86,215c11.45-5,17.66-19.53,13.33-31.23s-18.52-18.71-30.45-15-19.7,17.46-16.69,29.57c.36,1.44.83,3.05.09,4.34-.89,1.57-3,1.78-4.68,2.42-6,2.25-6.78,11.35-2.42,16s11.67,5.32,17.82,3.66c-1.51,5.42,3.36,11.22,8.95,11.87s11.07-2.83,14.17-7.53,4.21-10.43,4.78-16" transform="translate(-5.34 -49)"/><path class="cls-3" d="M372.18,189.34a6.61,6.61,0,0,1,.1,2.16,30.82,30.82,0,0,1-.84,5.82,35.3,35.3,0,0,1-26.21,26.28,30.18,30.18,0,0,1-5.82.85,6.36,6.36,0,0,1-2.15-.09c0-.22,3.06-.25,7.75-1.58a36.68,36.68,0,0,0,25.61-25.67C371.94,192.41,372,189.33,372.18,189.34Z" transform="translate(-5.34 -49)"/><path class="cls-14" d="M348.8,169.79s.2-.12.63-.23a7.29,7.29,0,0,1,1.94-.19,11.24,11.24,0,0,1,6.64,2.52,14.36,14.36,0,0,1,3.33,3.71,17.15,17.15,0,0,1,2,5.34,31.1,31.1,0,0,1-.52,12.88,52.27,52.27,0,0,1-9.9,21,45.29,45.29,0,0,1-4.76,5.2,9.81,9.81,0,0,1-2,1.63c-.16-.16,2.62-2.6,6.1-7.35a55.41,55.41,0,0,0,9.4-20.72,31.05,31.05,0,0,0,.61-12.4,16.88,16.88,0,0,0-1.81-5,14.18,14.18,0,0,0-3-3.56,11.46,11.46,0,0,0-6.14-2.71C349.73,169.68,348.82,169.91,348.8,169.79Z" transform="translate(-5.34 -49)"/><path class="cls-14" d="M323.11,203.45c-.07,0,.18-.61.76-1.57a21.21,21.21,0,0,1,2.94-3.73A24.82,24.82,0,0,1,356,193.43a21.74,21.74,0,0,1,4,2.6c.85.73,1.26,1.2,1.21,1.26s-2-1.48-5.55-3.09a25.5,25.5,0,0,0-28.19,4.57C324.53,201.42,323.29,203.57,323.11,203.45Z" transform="translate(-5.34 -49)"/><path class="cls-14" d="M364.62,211.68c.13-.16,2.79,2,7.38,5.1a118.24,118.24,0,0,0,18.9,10.35A113.94,113.94,0,0,0,402,231.26c3.49,1.08,6.65,2,9.36,2a11.08,11.08,0,0,0,6.1-1.53c1.28-.8,1.8-1.51,1.88-1.44s-.34.85-1.62,1.83a10.82,10.82,0,0,1-6.36,2c-2.88.08-6.16-.79-9.68-1.82a98.09,98.09,0,0,1-11.28-4.08,99.54,99.54,0,0,1-18.91-10.76c-2.25-1.65-4-3.07-5.17-4.1A9.81,9.81,0,0,1,364.62,211.68Z" transform="translate(-5.34 -49)"/><path class="cls-7" d="M358.26,185a9.85,9.85,0,0,1-.23-2.94,23.28,23.28,0,0,1,1.47-7.92,16,16,0,0,1,7.94-8.89,12.8,12.8,0,0,1,7.11-1.28,12.07,12.07,0,0,1,6.94,3.45,15.22,15.22,0,0,1,3.93,6.65,18.73,18.73,0,0,1,.53,7.16,28.56,28.56,0,0,1-4.06,11.25,59.66,59.66,0,0,1-4.6,6.56,12.72,12.72,0,0,1-1.94,2.21,14.26,14.26,0,0,1,1.56-2.49c1-1.56,2.62-3.79,4.24-6.71a28.9,28.9,0,0,0,3.69-10.94,17.93,17.93,0,0,0-.55-6.71,14.28,14.28,0,0,0-3.65-6.11,10.89,10.89,0,0,0-6.24-3.14,11.65,11.65,0,0,0-6.48,1.11,15.33,15.33,0,0,0-7.63,8.2,25.63,25.63,0,0,0-1.79,7.62A21.63,21.63,0,0,1,358.26,185Z" transform="translate(-5.34 -49)"/><path class="cls-22" d="M599,136.22c-3.44-1.73-13.32,16.66-13.49,11.48s14.71-21.1,11-22.76c-4.77-2.17-14.77,17.28-15.73,18.86s-3.29.24-2.34-1.14c1.36-2,15.19-23.22,10.53-25.4-2.59-1.2-4.33,3.65-4.33,3.65S573.19,141.73,571,140.63s4.12-13.57,6.55-17.62,1.48-6.77-1.18-6.36c-1.81.28-9.54,12.5-11.85,16.56s-8.45,15.3-9.93,7.3-5.65-13.6-7.82-14.33-4,2-2.53,4.1c1.18,1.66,2.28,5.06,3,7.64a19.25,19.25,0,0,1,.69,6.54c-.17,2.57-.42,4.74-.68,6.59l-4.53,9.48s-32.64,74.57-38.33,85.33-51,57.81-51,57.81l9.57,55L536.62,279l38.89-109.48,1-2.71s13.95-14.83,17.45-19.56C601.12,137.52,600.25,136.86,599,136.22Z" transform="translate(-5.34 -49)"/><path class="cls-13" d="M327,505.41s-23.16,52.42-28.17,104.38L274.35,943l81.81,8.53,24-345.36s75.05,348.55,78,348.55,65.87-23.42,65.87-23.42L450,507.1Z" transform="translate(-5.34 -49)"/><path class="cls-7" d="M414.91,614.67c-.1.4-16.68-3.3-37-8.26s-36.77-9.33-36.67-9.73,16.68,3.29,37,8.26S415,614.27,414.91,614.67Z" transform="translate(-5.34 -49)"/><path class="cls-15" d="M360.94,879.5s-.29.1-.85.17a24.35,24.35,0,0,1-2.48.21,46.93,46.93,0,0,1-9.15-.56,87.72,87.72,0,0,1-13.2-3.19c-4.87-1.52-10.13-3.45-15.69-5.28a91.94,91.94,0,0,0-16-3.84,48.52,48.52,0,0,0-13.33-.1c-7.6,1.09-11.61,4-11.73,3.74,0,0,.22-.22.7-.53a18.34,18.34,0,0,1,2.16-1.24,30.27,30.27,0,0,1,8.73-2.82,47.1,47.1,0,0,1,13.62-.15,88,88,0,0,1,16.2,3.79l15.66,5.37a96.22,96.22,0,0,0,13,3.41C356.15,879.86,360.94,879.24,360.94,879.5Z" transform="translate(-5.34 -49)"/><path class="cls-15" d="M361.27,851.39a23,23,0,0,1-3.35-.07,72.31,72.31,0,0,0-9.06.26c-7.66.55-18,3-29.52,5.41a108.7,108.7,0,0,1-16.5,2.13,57.76,57.76,0,0,1-13.57-.92,38.44,38.44,0,0,1-8.74-2.79,22.73,22.73,0,0,1-2.21-1.15c-.5-.29-.74-.45-.72-.49.1-.26,4.26,2.3,11.82,3.59s18.22.81,29.69-1.55,21.92-4.75,29.69-5.08a56.83,56.83,0,0,1,9.15.12A14.5,14.5,0,0,1,361.27,851.39Z" transform="translate(-5.34 -49)"/><path class="cls-15" d="M507.14,818.85s-.12.28-.45.74a13.21,13.21,0,0,1-1.62,1.89,20.36,20.36,0,0,1-7.88,4.63,34.22,34.22,0,0,1-13.48,1.41c-5.11-.37-10.58-1.61-16.31-2.54a53.55,53.55,0,0,0-16.23-.45,51.7,51.7,0,0,0-12.84,3.39c-7.05,2.9-10.74,6-10.88,5.77,0,0,.19-.24.62-.6a24.46,24.46,0,0,1,2-1.5,45.56,45.56,0,0,1,8-4.45,49.18,49.18,0,0,1,13-3.71,52.76,52.76,0,0,1,16.57.35c5.8,1,11.21,2.2,16.21,2.63a34.37,34.37,0,0,0,13.13-1.12,21.44,21.44,0,0,0,7.82-4.15C506.34,819.75,507,818.77,507.14,818.85Z" transform="translate(-5.34 -49)"/><path class="cls-15" d="M519.49,880.25a14.74,14.74,0,0,1-2.14,2.57,54.79,54.79,0,0,1-6.81,6.08,64.59,64.59,0,0,1-27.44,12,66.32,66.32,0,0,1-29.9-1.62,56.48,56.48,0,0,1-8.54-3.21,15.4,15.4,0,0,1-2.93-1.6,20.2,20.2,0,0,1,3.11,1.17,72.91,72.91,0,0,0,8.58,2.82,69.46,69.46,0,0,0,29.47,1.25A67.28,67.28,0,0,0,510,888.21C516.23,883.75,519.32,880.08,519.49,880.25Z" transform="translate(-5.34 -49)"/><path class="cls-15" d="M499.21,793.27c0,.11-1.17-.1-3.24,0a24.26,24.26,0,0,0-8.48,2,46.75,46.75,0,0,0-11,6.86c-3.85,3.07-7.83,6.83-12.56,10.16a33.44,33.44,0,0,1-15,6.19,49.83,49.83,0,0,1-13.26-.06c-3.74-.47-6.72-1.08-8.77-1.52a17.23,17.23,0,0,1-3.16-.82,17.11,17.11,0,0,1,3.25.36c2.07.3,5.06.77,8.78,1.13a52,52,0,0,0,13-.19,33.2,33.2,0,0,0,14.48-6.08c4.63-3.26,8.62-7,12.56-10a44.76,44.76,0,0,1,11.4-6.78,22.53,22.53,0,0,1,8.79-1.64,15,15,0,0,1,2.42.28C498.94,793.15,499.22,793.22,499.21,793.27Z" transform="translate(-5.34 -49)"/><path class="cls-15" d="M368.22,780.05s-.24.2-.74.49a16.56,16.56,0,0,1-2.28,1.16,30,30,0,0,1-9.12,2.36,50.27,50.27,0,0,1-13.95-.64,132.34,132.34,0,0,1-16.53-4.19,147.14,147.14,0,0,0-16.36-4.29,53.36,53.36,0,0,0-13.68-1c-7.86.59-12.15,3.38-12.25,3.08,0,0,.24-.21.75-.49a18.26,18.26,0,0,1,2.29-1.15,30.75,30.75,0,0,1,9.13-2.29,51.28,51.28,0,0,1,13.95.7A136.29,136.29,0,0,1,326,778.07a144.67,144.67,0,0,0,16.37,4.26,52.59,52.59,0,0,0,13.68.88C363.85,782.57,368.12,779.74,368.22,780.05Z" transform="translate(-5.34 -49)"/><path class="cls-15" d="M488.25,723s0,.31-.23.87a15.76,15.76,0,0,1-1,2.37,25.87,25.87,0,0,1-5.83,7.47,39.26,39.26,0,0,1-12,7.27,72.89,72.89,0,0,1-16.72,3.93c-6,.8-11.78,1.29-16.95,2.09s-9.9,1.29-13.65,2.43a23.43,23.43,0,0,0-8.17,4.26C412,755,411.13,756,411,755.88s.16-.28.54-.73a18.28,18.28,0,0,1,1.78-1.86,22.17,22.17,0,0,1,8.22-4.71c3.84-1.29,8.58-1.85,13.74-2.72s11-1.39,17-2.19a76.12,76.12,0,0,0,16.48-3.76A39.86,39.86,0,0,0,480.62,733C486.66,727.87,488,722.77,488.25,723Z" transform="translate(-5.34 -49)"/><path class="cls-15" d="M288.35,716.24c.15-.27,4,3.23,11.64,5.45a36.22,36.22,0,0,0,13.76,1.18c5.21-.5,10.67-2.57,16-5.48s10.31-6,15.21-8.22a37.38,37.38,0,0,1,13.77-3.46,21,21,0,0,1,9.42,1.66,14.8,14.8,0,0,1,2.27,1.29c.49.34.74.54.71.57s-1.09-.61-3.16-1.43a22.17,22.17,0,0,0-9.2-1.24,38.16,38.16,0,0,0-13.35,3.62c-4.77,2.2-9.68,5.37-15.1,8.28s-11.07,5.07-16.47,5.52a36,36,0,0,1-14.12-1.47,33.41,33.41,0,0,1-8.65-4.09,20.23,20.23,0,0,1-2.08-1.55C288.55,716.49,288.33,716.27,288.35,716.24Z" transform="translate(-5.34 -49)"/><path class="cls-15" d="M475.08,655.28a17.5,17.5,0,0,1-1.82,2.92,50.26,50.26,0,0,1-6.25,7,53.25,53.25,0,0,1-27.62,13.31c-6,1-11.88.54-17,.11s-9.85-.57-13.69.13a24.19,24.19,0,0,0-8.61,3.07c-1.84,1.16-2.7,2-2.78,2s.16-.27.57-.69a14.35,14.35,0,0,1,1.95-1.66,22.73,22.73,0,0,1,8.72-3.52c3.92-.83,8.72-.77,13.91-.4s10.9.81,16.78-.19a54.8,54.8,0,0,0,27.23-12.75C472.31,659.36,474.87,655.12,475.08,655.28Z" transform="translate(-5.34 -49)"/><path class="cls-15" d="M371.59,649.44c-.07.28-4.33-1.94-11.77-2.19a34.4,34.4,0,0,0-12.71,2.07c-2.29.8-4.52,2.09-7.07,3.13a15,15,0,0,1-4.13,1.08,10.25,10.25,0,0,1-4.41-.57c-2.83-1-5.07-2.82-7.32-4.21a32.26,32.26,0,0,0-6.89-3.23,34.63,34.63,0,0,0-12.76-1.69c-7.42.49-11.6,2.86-11.69,2.58,0,0,.23-.19.73-.45a18.36,18.36,0,0,1,2.21-1,31.53,31.53,0,0,1,8.69-2,34,34,0,0,1,13.17,1.49,32.25,32.25,0,0,1,7.16,3.28c2.32,1.42,4.53,3.15,7.1,4.07a10.37,10.37,0,0,0,7.7-.47c2.44-1,4.74-2.27,7.14-3.08a34.12,34.12,0,0,1,13.11-1.88,32.36,32.36,0,0,1,8.76,1.71,21.64,21.64,0,0,1,2.24.92C371.35,649.26,371.61,649.41,371.59,649.44Z" transform="translate(-5.34 -49)"/><path class="cls-15" d="M475.08,641.12a19.51,19.51,0,0,1-2.5,2.54,78.44,78.44,0,0,1-7.47,6.21c-1.68,1.18-3.47,2.55-5.57,3.76-1,.63-2.09,1.31-3.21,1.94l-3.53,1.84a81,81,0,0,1-16.61,6.06,79.63,79.63,0,0,1-17.59,2l-4-.11c-1.29-.05-2.53-.22-3.74-.33-2.42-.17-4.63-.64-6.65-1a72.32,72.32,0,0,1-9.41-2.42,19.64,19.64,0,0,1-3.34-1.25c.08-.25,4.87,1.46,12.9,2.83,2,.28,4.2.69,6.6.81,1.19.09,2.42.24,3.69.27l3.92.05a81.64,81.64,0,0,0,17.31-2,83.66,83.66,0,0,0,16.4-5.88l3.51-1.77c1.12-.6,2.16-1.27,3.2-1.86,2.09-1.16,3.89-2.48,5.59-3.6,3.32-2.36,5.94-4.38,7.66-5.87A19.47,19.47,0,0,1,475.08,641.12Z" transform="translate(-5.34 -49)"/><path class="cls-15" d="M461,574.74a8.67,8.67,0,0,1-1.51.92l-4.45,2.4c-3.9,2-9.54,5-16.79,8s-16.18,6.25-26.61,7.4a63.17,63.17,0,0,1-16.38-.3,94,94,0,0,1-17-4.56c-11.29-4.11-21.63-9-31.64-11.58a76,76,0,0,0-27.15-2.14,78.82,78.82,0,0,0-18,4c-2.06.74-3.65,1.34-4.71,1.8a11.47,11.47,0,0,1-1.66.61,9,9,0,0,1,1.56-.84c1-.52,2.6-1.2,4.64-2A74.49,74.49,0,0,1,319.41,574,75.58,75.58,0,0,1,346.94,576c10.15,2.56,20.56,7.45,31.77,11.52A94.68,94.68,0,0,0,395.44,592a63.14,63.14,0,0,0,16.08.35c10.27-1.06,19.14-4.22,26.4-7.08s12.95-5.75,16.91-7.64l4.55-2.2A11.5,11.5,0,0,1,461,574.74Z" transform="translate(-5.34 -49)"/><path class="cls-15" d="M456.17,540.16a23,23,0,0,0-4.36-4.07c-3.17-2.15-8.62-4.12-15.53-4.09a32.2,32.2,0,0,0-11,2c-3.83,1.36-7.83,3.1-12,5-8.32,3.82-17.59,8.24-28,10.61a110.13,110.13,0,0,1-54.08-.72,109.21,109.21,0,0,1-15.53-5.61c-1.77-.83-3.11-1.54-4-2a8.6,8.6,0,0,1-1.36-.78,6.8,6.8,0,0,1,1.47.56l4.1,1.79A124.76,124.76,0,0,0,331.38,548a112.31,112.31,0,0,0,53.58.38c10.32-2.35,19.48-6.67,27.86-10.46,4.21-1.88,8.25-3.6,12.14-4.94a32.78,32.78,0,0,1,11.33-1.85c7.06.08,12.61,2.23,15.78,4.55a15.81,15.81,0,0,1,3.25,3.14A8.66,8.66,0,0,1,456.17,540.16Z" transform="translate(-5.34 -49)"/><path class="cls-10" d="M502.9,324.82,470.27,282l-1.43,1-52,32.75-55.51,1.92s-39,0-53.56,30.7c-1.6,3.37-33.58,67.3-33.58,67.3l49.38,18.13,8-22.84,10.21,51.79L327,505.41,450.79,512l-10.27-62,9.32-74.14Z" transform="translate(-5.34 -49)"/><path class="cls-7" d="M416.71,424.77a12.57,12.57,0,0,1,0,3.57,34.32,34.32,0,0,1-2.38,9.45c-2.95,7.67-10.32,17.34-21.68,23.13s-23.15,6.62-31.27,6.27a75.49,75.49,0,0,1-9.66-1,14.08,14.08,0,0,1-3.47-.82c0-.27,5,.66,13.15.74s19.53-1,30.56-6.55,18.26-14.84,21.38-22.2S416.36,424.71,416.71,424.77Z" transform="translate(-5.34 -49)"/><path class="cls-7" d="M342.22,465.06c-.41.09-6.35-26.78-13.27-60s-12.2-60.23-11.79-60.32,6.35,26.78,13.27,60S342.63,465,342.22,465.06Z" transform="translate(-5.34 -49)"/><g class="cls-21"><path d="M357.48,467.21c-1.35-4.87,2.47-9.86,7-12s9.76-2.45,14.68-3.6a41.31,41.31,0,0,0,23.87-15.91c.77-1.08,1.69-2.31,3-2.38a2.88,2.88,0,0,1,2.7,2.41,9.36,9.36,0,0,1,.24,4.63c-2.3,11.87-11.9,16.83-21.72,22.09s-17.67,5.78-29.82,4.81" transform="translate(-5.34 -49)"/></g><path class="cls-23" d="M376,164.82" transform="translate(-5.34 -49)"/></g></g></svg>