<svg id="Layer_1" data-name="Layer 1" xmlns="http://www.w3.org/2000/svg" xmlns:xlink="http://www.w3.org/1999/xlink" viewBox="0 0 991.05 798.83"><defs><style>.cls-1{fill:url(#linear-gradient);}.cls-2{fill:url(#linear-gradient-2);}.cls-3{fill:url(#linear-gradient-3);}.cls-4{fill:url(#linear-gradient-4);}.cls-5{fill:url(#linear-gradient-5);}.cls-6{fill:url(#linear-gradient-6);}.cls-7{fill:url(#linear-gradient-7);}.cls-8{fill:url(#linear-gradient-8);}.cls-9{fill:url(#linear-gradient-9);}.cls-10{fill:url(#linear-gradient-10);}.cls-11{fill:url(#linear-gradient-11);}.cls-12{fill:url(#linear-gradient-12);}.cls-13{fill:url(#linear-gradient-13);}.cls-14{fill:url(#linear-gradient-14);}.cls-15{fill:url(#linear-gradient-15);}.cls-16{fill:url(#linear-gradient-16);}.cls-17,.cls-62,.cls-66{fill:#1d2328;}.cls-18{fill:#fff;}.cls-19,.cls-20,.cls-21,.cls-22,.cls-23,.cls-24,.cls-25,.cls-26{opacity:0.37;}.cls-19{fill:url(#linear-gradient-17);}.cls-20{fill:url(#linear-gradient-18);}.cls-21{fill:url(#linear-gradient-19);}.cls-22{fill:url(#linear-gradient-20);}.cls-23{fill:url(#linear-gradient-21);}.cls-24{fill:url(#linear-gradient-22);}.cls-25{fill:url(#linear-gradient-23);}.cls-27{fill:url(#linear-gradient-24);}.cls-28{fill:url(#linear-gradient-25);}.cls-29{fill:url(#linear-gradient-26);}.cls-30{fill:url(#linear-gradient-27);}.cls-31{fill:url(#linear-gradient-28);}.cls-32{fill:url(#linear-gradient-29);}.cls-33{fill:url(#linear-gradient-30);}.cls-34{fill:url(#linear-gradient-31);}.cls-35{fill:url(#linear-gradient-32);}.cls-36{fill:url(#linear-gradient-33);}.cls-37{fill:url(#linear-gradient-34);}.cls-38{fill:url(#linear-gradient-35);}.cls-39{fill:url(#linear-gradient-36);}.cls-40{fill:url(#linear-gradient-37);}.cls-41{fill:url(#linear-gradient-38);}.cls-42,.cls-55,.cls-57,.cls-60,.cls-64,.cls-65{fill:none;}.cls-42{stroke:#1d2328;stroke-width:2px;}.cls-42,.cls-55,.cls-57,.cls-60,.cls-65{stroke-miterlimit:10;}.cls-43{fill:#374147;}.cls-44{fill:#647077;}.cls-45{fill:#8c9ba5;}.cls-46{fill:#f9e181;}.cls-47{fill:#6adb6a;}.cls-48{fill:#f74242;}.cls-49{fill:#bbdbf3;}.cls-50{fill:#fdae97;}.cls-51{fill:#e5f0f8;}.cls-52{fill:#414c51;}.cls-53{fill:#e89780;}.cls-54{fill:#322a28;}.cls-55{stroke:#e89780;stroke-width:0.84px;}.cls-56{fill:#2ec6fc;}.cls-57{stroke:#332b27;stroke-width:1.44px;}.cls-58{fill:url(#linear-gradient-39);}.cls-59{fill:#a7adc7;}.cls-60,.cls-64,.cls-65{stroke:#fff;}.cls-60{stroke-width:5.44px;}.cls-61{fill:#93acbf;}.cls-62{opacity:0.25;}.cls-63{fill:#332b27;}.cls-64{stroke-linecap:round;stroke-linejoin:round;stroke-width:0.58px;}.cls-65{stroke-width:1.92px;}.cls-66,.cls-67{opacity:0.15;}.cls-68{fill:#7f7f7f;}.cls-69{fill:#1a2e35;}.cls-70{fill:url(#linear-gradient-40);}.cls-71{fill:url(#linear-gradient-41);}.cls-72{fill:url(#linear-gradient-42);}.cls-73{fill:#c27460;}.cls-74{fill:#7c4235;}.cls-75{fill:url(#linear-gradient-43);}.cls-76{fill:url(#linear-gradient-44);}.cls-77{opacity:0.3;}.cls-78{fill:#e1e1e1;}</style><linearGradient id="linear-gradient" x1="637.88" y1="161.25" x2="655" y2="161.25" gradientUnits="userSpaceOnUse"><stop offset="0" stop-color="#23baf5"/><stop offset="1" stop-color="#1c62d1"/></linearGradient><linearGradient id="linear-gradient-2" x1="971.4" y1="398.08" x2="988.52" y2="398.08" xlink:href="#linear-gradient"/><linearGradient id="linear-gradient-3" x1="616.87" y1="20.67" x2="684.95" y2="20.67" xlink:href="#linear-gradient"/><linearGradient id="linear-gradient-4" x1="593.41" y1="47.7" x2="661.48" y2="47.7" xlink:href="#linear-gradient"/><linearGradient id="linear-gradient-5" x1="607.91" y1="66.52" x2="675.98" y2="66.52" xlink:href="#linear-gradient"/><linearGradient id="linear-gradient-6" x1="607.91" y1="118.34" x2="675.98" y2="118.34" xlink:href="#linear-gradient"/><linearGradient id="linear-gradient-7" x1="607.91" y1="134.37" x2="675.98" y2="134.37" xlink:href="#linear-gradient"/><linearGradient id="linear-gradient-8" x1="631.3" y1="84.45" x2="836.59" y2="84.45" xlink:href="#linear-gradient"/><linearGradient id="linear-gradient-9" x1="631.3" y1="151.4" x2="905.55" y2="151.4" xlink:href="#linear-gradient"/><linearGradient id="linear-gradient-10" x1="631.3" y1="205.02" x2="905.55" y2="205.02" xlink:href="#linear-gradient"/><linearGradient id="linear-gradient-11" x1="657.09" y1="257.5" x2="919.84" y2="257.5" xlink:href="#linear-gradient"/><linearGradient id="linear-gradient-12" x1="631.3" y1="223.23" x2="690.04" y2="223.23" xlink:href="#linear-gradient"/><linearGradient id="linear-gradient-13" x1="631.3" y1="240.56" x2="690.04" y2="240.56" xlink:href="#linear-gradient"/><linearGradient id="linear-gradient-14" x1="631.3" y1="168.51" x2="905.55" y2="168.51" xlink:href="#linear-gradient"/><linearGradient id="linear-gradient-15" x1="631.3" y1="185.63" x2="779.68" y2="185.63" xlink:href="#linear-gradient"/><linearGradient id="linear-gradient-16" x1="631.3" y1="100.57" x2="694.25" y2="100.57" xlink:href="#linear-gradient"/><linearGradient id="linear-gradient-17" x1="360.6" y1="213.55" x2="667.92" y2="213.55" xlink:href="#linear-gradient"/><linearGradient id="linear-gradient-18" x1="468.06" y1="125.01" x2="536.55" y2="125.01" xlink:href="#linear-gradient"/><linearGradient id="linear-gradient-19" x1="549.18" y1="125.01" x2="617.67" y2="125.01" xlink:href="#linear-gradient"/><linearGradient id="linear-gradient-20" x1="316.12" y1="167.24" x2="623.45" y2="167.24" xlink:href="#linear-gradient"/><linearGradient id="linear-gradient-21" x1="323.32" y1="112.93" x2="373.86" y2="112.93" xlink:href="#linear-gradient"/><linearGradient id="linear-gradient-22" x1="323.32" y1="126.01" x2="373.86" y2="126.01" xlink:href="#linear-gradient"/><linearGradient id="linear-gradient-23" x1="323.32" y1="139.09" x2="373.86" y2="139.09" xlink:href="#linear-gradient"/><linearGradient id="linear-gradient-24" x1="347.29" y1="648.95" x2="537.33" y2="648.95" xlink:href="#linear-gradient"/><linearGradient id="linear-gradient-25" x1="347.29" y1="663.26" x2="504.35" y2="663.26" xlink:href="#linear-gradient"/><linearGradient id="linear-gradient-26" x1="347.29" y1="579.33" x2="537.33" y2="579.33" xlink:href="#linear-gradient"/><linearGradient id="linear-gradient-27" x1="347.29" y1="593.64" x2="504.35" y2="593.64" xlink:href="#linear-gradient"/><linearGradient id="linear-gradient-28" x1="347.29" y1="509.72" x2="537.33" y2="509.72" xlink:href="#linear-gradient"/><linearGradient id="linear-gradient-29" x1="347.29" y1="524.03" x2="504.35" y2="524.03" xlink:href="#linear-gradient"/><linearGradient id="linear-gradient-30" x1="347.29" y1="454.19" x2="537.33" y2="454.19" xlink:href="#linear-gradient"/><linearGradient id="linear-gradient-31" x1="347.29" y1="468.5" x2="504.35" y2="468.5" xlink:href="#linear-gradient"/><linearGradient id="linear-gradient-32" x1="347.29" y1="384.58" x2="537.33" y2="384.58" xlink:href="#linear-gradient"/><linearGradient id="linear-gradient-33" x1="347.29" y1="398.89" x2="504.35" y2="398.89" xlink:href="#linear-gradient"/><linearGradient id="linear-gradient-34" x1="347.29" y1="314.96" x2="537.33" y2="314.96" xlink:href="#linear-gradient"/><linearGradient id="linear-gradient-35" x1="347.29" y1="329.27" x2="504.35" y2="329.27" xlink:href="#linear-gradient"/><linearGradient id="linear-gradient-36" x1="381.93" y1="629.92" x2="425.48" y2="629.92" xlink:href="#linear-gradient"/><linearGradient id="linear-gradient-37" x1="109.39" y1="629.92" x2="152.94" y2="629.92" xlink:href="#linear-gradient"/><linearGradient id="linear-gradient-38" x1="44.48" y1="767.39" x2="490.39" y2="767.39" xlink:href="#linear-gradient"/><linearGradient id="linear-gradient-39" x1="283.6" y1="292.82" x2="527.84" y2="292.82" gradientUnits="userSpaceOnUse"><stop offset="0" stop-color="#67a2f9"/><stop offset="1" stop-color="#7edefc"/></linearGradient><linearGradient id="linear-gradient-40" x1="882.69" y1="769.02" x2="886.97" y2="769.02" gradientTransform="translate(1769.67 1538.04) rotate(180)" xlink:href="#linear-gradient"/><linearGradient id="linear-gradient-41" x1="882.69" y1="833.25" x2="886.97" y2="833.25" gradientTransform="translate(1769.67 1666.5) rotate(180)" xlink:href="#linear-gradient"/><linearGradient id="linear-gradient-42" x1="882.69" y1="902.38" x2="886.97" y2="902.38" gradientTransform="translate(1769.67 1804.76) rotate(180)" xlink:href="#linear-gradient"/><linearGradient id="linear-gradient-43" x1="887" y1="602.28" x2="968.6" y2="602.28" xlink:href="#linear-gradient"/><linearGradient id="linear-gradient-44" x1="854.98" y1="604.05" x2="966.23" y2="604.05" xlink:href="#linear-gradient"/></defs><title>Mobile game app development _vector_img</title><path class="cls-1" d="M637.88,162.74v-3L655,150.51V155l-11.43,6.21L655,167.47V172Z" transform="translate(-44.48 -140.58)"/><path class="cls-2" d="M971.4,408.83V404.3l11.44-6.22-11.44-6.21v-4.53l17.12,9.26v3Z" transform="translate(-44.48 -140.58)"/><rect class="cls-3" x="616.87" y="17.17" width="68.07" height="6.99"/><rect class="cls-4" x="593.41" y="44.2" width="68.07" height="6.99"/><rect class="cls-5" x="607.91" y="63.03" width="68.07" height="6.99"/><rect class="cls-6" x="607.91" y="114.84" width="68.07" height="6.99"/><rect class="cls-7" x="607.91" y="130.87" width="68.07" height="6.99"/><rect class="cls-8" x="631.3" y="80.96" width="205.29" height="6.99"/><rect class="cls-9" x="631.3" y="147.9" width="274.25" height="6.99"/><rect class="cls-10" x="631.3" y="201.52" width="274.25" height="6.99"/><rect class="cls-11" x="657.09" y="254.01" width="262.75" height="6.99"/><rect class="cls-12" x="631.3" y="219.74" width="58.74" height="6.99"/><rect class="cls-13" x="631.3" y="237.07" width="58.74" height="6.99"/><rect class="cls-14" x="631.3" y="165.02" width="274.25" height="6.99"/><rect class="cls-15" x="631.3" y="182.13" width="148.38" height="6.99"/><rect class="cls-16" x="631.3" y="97.07" width="62.95" height="6.99"/><path class="cls-17" d="M646.22,141.91H382.3a76.29,76.29,0,0,0-76.07,76V831A76.29,76.29,0,0,0,382.3,907.1H646.22A76.29,76.29,0,0,0,722.29,831V218A76.29,76.29,0,0,0,646.22,141.91Zm21.7,89.47H360.6V217.43a21.72,21.72,0,0,1,21.7-21.7H646.22a21.72,21.72,0,0,1,21.7,21.7Z" transform="translate(-44.48 -140.58)"/><path class="cls-18" d="M646.22,168.54H382.3a48.94,48.94,0,0,0-48.89,48.89v613A49,49,0,0,0,382.3,879.4H646.22a49,49,0,0,0,48.92-48.93v-613A49,49,0,0,0,646.22,168.54Zm21.7,62.84H360.6V217.43a21.72,21.72,0,0,1,21.7-21.7H646.22a21.72,21.72,0,0,1,21.7,21.7Z" transform="translate(-44.48 -140.58)"/><path class="cls-19" d="M667.92,217.43v13.95H360.6V217.43a21.72,21.72,0,0,1,21.7-21.7H646.22A21.72,21.72,0,0,1,667.92,217.43Z" transform="translate(-44.48 -140.58)"/><path class="cls-18" d="M667.92,231.38V830.47a21.72,21.72,0,0,1-21.7,21.7H382.3a21.72,21.72,0,0,1-21.7-21.7V231.38Z" transform="translate(-44.48 -140.58)"/><rect class="cls-20" x="468.06" y="109.39" width="68.49" height="31.25"/><rect class="cls-21" x="549.18" y="109.39" width="68.49" height="31.25"/><rect class="cls-22" x="316.12" y="151.28" width="307.32" height="31.92"/><rect class="cls-23" x="323.32" y="109.39" width="50.54" height="7.09"/><rect class="cls-24" x="323.32" y="122.46" width="50.54" height="7.09"/><rect class="cls-25" x="323.32" y="135.54" width="50.54" height="7.09"/><rect class="cls-18" x="330.3" y="163.02" width="70.25" height="8.42"/><rect class="cls-18" x="416.38" y="163.02" width="70.25" height="8.42"/><rect class="cls-18" x="502.47" y="163.02" width="70.25" height="8.42"/><g class="cls-26"><rect class="cls-27" x="347.29" y="645.64" width="190.05" height="6.63"/><rect class="cls-28" x="347.29" y="659.95" width="157.06" height="6.63"/></g><g class="cls-26"><rect class="cls-29" x="347.29" y="576.02" width="190.05" height="6.63"/><rect class="cls-30" x="347.29" y="590.33" width="157.06" height="6.63"/></g><g class="cls-26"><rect class="cls-31" x="347.29" y="506.4" width="190.05" height="6.63"/><rect class="cls-32" x="347.29" y="520.71" width="157.06" height="6.63"/></g><g class="cls-26"><rect class="cls-33" x="347.29" y="450.88" width="190.05" height="6.63"/><rect class="cls-34" x="347.29" y="465.19" width="157.06" height="6.63"/></g><g class="cls-26"><rect class="cls-35" x="347.29" y="381.26" width="190.05" height="6.63"/><rect class="cls-36" x="347.29" y="395.57" width="157.06" height="6.63"/></g><g class="cls-26"><rect class="cls-37" x="347.29" y="311.64" width="190.05" height="6.63"/><rect class="cls-38" x="347.29" y="325.95" width="157.06" height="6.63"/></g><path class="cls-39" d="M412.83,642.39l-20.5-2A11.56,11.56,0,0,1,382,627.79h0a11.57,11.57,0,0,1,12.6-10.35l20.5,2a11.56,11.56,0,0,1,10.34,12.6h0A11.56,11.56,0,0,1,412.83,642.39Z" transform="translate(-44.48 -140.58)"/><path class="cls-40" d="M122,642.39l20.5-2a11.56,11.56,0,0,0,10.34-12.59h0a11.56,11.56,0,0,0-12.59-10.35l-20.5,2a11.57,11.57,0,0,0-10.35,12.6h0A11.56,11.56,0,0,0,122,642.39Z" transform="translate(-44.48 -140.58)"/><path class="cls-41" d="M490,803.15c-1.48-33.11-8.1-71-18.5-111.87h0a78.73,78.73,0,0,0-77.23-63.51c-23.55,0-41,12.23-57.73,26.23-14.89,12.43-40.16,10.35-74.1,10.48-27.35.1-51.37,1.59-63.41-10.67-15.79-15-36-26-58.48-26a78.73,78.73,0,0,0-77.23,63.51h0c-10.4,40.88-17,78.76-18.49,111.87S45.2,880.44,73,900c17.53,12.32,40.82,6.71,52.72-4,13.69-12.39,46.59-71.73,46.59-71.73l4-8.7H358.57l3.95,8.7s32.89,59.34,46.59,71.73c11.89,10.75,35.18,16.36,52.72,4C489.66,880.44,491.5,836.25,490,803.15Z" transform="translate(-44.48 -140.58)"/><rect class="cls-17" x="83.61" y="545.11" width="21.33" height="67.19" rx="4.47"/><rect class="cls-17" x="128.09" y="685.69" width="21.33" height="67.19" rx="4.47" transform="translate(-625.01 717.45) rotate(-90)"/><circle class="cls-42" cx="138.75" cy="719.28" r="42.3" transform="translate(-637.86 554.15) rotate(-77.16)"/><circle class="cls-43" cx="202.63" cy="793.58" r="48.31" transform="translate(-546.27 235.13) rotate(-45)"/><circle class="cls-44" cx="158.15" cy="653" r="33.59"/><circle class="cls-45" cx="158.15" cy="653" r="30.65"/><circle class="cls-43" cx="334.65" cy="793.58" r="48.31" transform="translate(-507.6 328.49) rotate(-45)"/><circle class="cls-44" cx="290.18" cy="653" r="33.59"/><circle class="cls-45" cx="290.18" cy="653" r="30.65"/><circle class="cls-46" cx="399.03" cy="686.53" r="14.94" transform="translate(-280.26 68.91) rotate(-22.91)"/><circle class="cls-47" cx="399.03" cy="753.97" r="14.94" transform="translate(-306.51 74.23) rotate(-22.91)"/><circle class="cls-48" cx="389.18" cy="579.46" r="14.94"/><circle class="cls-18" cx="319.92" cy="579.46" r="14.94"/><path class="cls-49" d="M227.52,696.48h-8.09A7.5,7.5,0,0,1,212,689h0a7.5,7.5,0,0,1,7.48-7.48h8.09A7.51,7.51,0,0,1,235,689h0A7.51,7.51,0,0,1,227.52,696.48Z" transform="translate(-44.48 -140.58)"/><path class="cls-49" d="M321.28,697.77h-8.09a7.51,7.51,0,0,1-7.48-7.48h0a7.51,7.51,0,0,1,7.48-7.48h8.09a7.51,7.51,0,0,1,7.48,7.48h0A7.51,7.51,0,0,1,321.28,697.77Z" transform="translate(-44.48 -140.58)"/><path class="cls-49" d="M234.73,735.71h-8.09a7.5,7.5,0,0,1-7.48-7.48h0a7.51,7.51,0,0,1,7.48-7.48h8.09a7.51,7.51,0,0,1,7.48,7.48h0A7.5,7.5,0,0,1,234.73,735.71Z" transform="translate(-44.48 -140.58)"/><path class="cls-50" d="M449.37,337.15s5.81-4.5,5.15-6.5-1.72-.77-1.72-.77,2.56-3.9,1.57-5.47-3.11.42-3.11.42.61-2.94-1.22-3.85-7.94,3.55-11.05,5.13-10.66,4.69-11.74,4.14,7.73-6.85,6.84-8.89-15,4.28-19.91,7.18a51.91,51.91,0,0,1-7.13,3.37l4.83,18.34c3.15-.37,18.16-2.21,24.31-3.66,6.9-1.63,15.18-6.7,14.89-8.28A1.32,1.32,0,0,0,449.37,337.15Z" transform="translate(-44.48 -140.58)"/><rect class="cls-51" x="248.6" y="446.07" width="65.01" height="96.13" transform="translate(517.73 847.68) rotate(180)"/><path class="cls-43" d="M313.61,393.62l19.32,110.55A26.55,26.55,0,1,1,281.36,513l-31.1-119.42Z" transform="translate(-44.48 -140.58)"/><polygon class="cls-52" points="181.41 252.01 242.75 242.3 237.89 330.51 230.39 348.72 227.35 374.87 174.31 373.6 181.41 252.01"/><path class="cls-43" d="M334.18,516.78a25.73,25.73,0,0,0,.3-3.74,26.57,26.57,0,0,0-53.13,0l1.58,125.49,44.77,0Z" transform="translate(-44.48 -140.58)"/><path class="cls-52" d="M271.53,511.71a26.56,26.56,0,0,0-30.39-22.08c-14.48,2.3-21.48,9.6-22.35,24.55-2,34.71-4.91,123.8-4.91,123.8l46.46-.12,11.49-122.41A26.42,26.42,0,0,0,271.53,511.71Z" transform="translate(-44.48 -140.58)"/><polygon class="cls-18" points="241.04 127.93 269.13 140.58 269.13 254.62 181.25 254.62 174.27 141.63 212.31 125.84 241.04 127.93"/><path class="cls-50" d="M285.51,250.69v17.82s-1.06,3.85-10.12,3.89-18.61-6-18.61-6l2.81-39Z" transform="translate(-44.48 -140.58)"/><polygon class="cls-53" points="241.04 125.48 222.54 106.27 241.04 106.03 241.04 125.48"/><path class="cls-50" d="M291.71,214.85s.87,10.89,1.48,18.61l.5,6.39c.4,5.05-.42,12.64-6,14.83s-13.51.43-19.42-5-20.08-31.2-4.09-42.38S291.12,212.27,291.71,214.85Z" transform="translate(-44.48 -140.58)"/><path class="cls-54" d="M265.89,206.2s19.56-11,24.73-5.19-2.46,8.54-2.46,8.54,9.59-1.91,9.73,4.65-24.79-.44-24.79-.44,8.32,3,3.91,6.26-10-.09-10-.09-4.4,3-2.69,15-6.39,14.5-6.39,14.5.51-17.62-3.41-22.23S254.31,204,265.89,206.2Z" transform="translate(-44.48 -140.58)"/><path class="cls-50" d="M265.65,237.68c2.22,2.93,2.92,5.06.62,6.8a6.29,6.29,0,0,1-8.58-1.36c-2.22-2.93-2.15-6.71.15-8.45S263.44,234.75,265.65,237.68Z" transform="translate(-44.48 -140.58)"/><path class="cls-55" d="M259.31,237.94s2.46-.56,4.42,2.49a9.33,9.33,0,0,0-3.49.28" transform="translate(-44.48 -140.58)"/><path class="cls-56" d="M204.26,381.89h0a18.42,18.42,0,0,1-13.19-22.38l16.79-65a18.41,18.41,0,0,1,22.37-13.19h0a18.42,18.42,0,0,1,13.19,22.37l-16.79,65A18.43,18.43,0,0,1,204.26,381.89Z" transform="translate(-44.48 -140.58)"/><path class="cls-56" d="M253,268s16.84,36.79,18.14,71.48,0,97.69,0,97.69h-52.4v-155Z" transform="translate(-44.48 -140.58)"/><path class="cls-56" d="M287.68,269.49s7.63,67.31,7.3,87.95S296.62,432,296.62,432H322s1-32,0-52.1-8.36-98.71-8.36-98.71Z" transform="translate(-44.48 -140.58)"/><polygon class="cls-50" points="241.96 508.84 242.39 497.94 278.74 497.92 278.43 508.84 241.96 508.84"/><polygon class="cls-53" points="278.48 505.56 242.39 497.94 278.74 497.92 278.48 505.56"/><polygon class="cls-50" points="172.91 508.84 172.91 497.39 207.59 497.39 206.42 508.84 172.91 508.84"/><polygon class="cls-53" points="206.87 504.44 172.91 497.39 207.59 497.39 206.87 504.44"/><line class="cls-57" x1="272.83" y1="176.34" x2="277.5" y2="221.43"/><path class="cls-58" d="M505.5,339.65a114,114,0,0,1-93.07,46.28c-20.92-.2-40.58,10.11-53,26.95L348.26,428,283.6,380.17l11.14-15.08c12.45-16.84,16.55-38.64,10.18-58.58a116,116,0,0,1-4.75-22.34v0a113.93,113.93,0,0,1,26.18-85.94c36.39-43.31,100.11-53.3,148-23.16,1.06.68,2.13,1.38,3.17,2.08a114.18,114.18,0,0,1,28,162.53Z" transform="translate(-44.48 -140.58)"/><path class="cls-49" d="M338.54,441.94a40,40,0,0,1-3.62,4.24,37.41,37.41,0,0,1-48.6,3.6l-5-3.71a37.34,37.34,0,0,1-10.81-47.5,39.71,39.71,0,0,1,3-4.71,38.78,38.78,0,0,1,3.61-4.21A37.4,37.4,0,0,1,325.68,386l5,3.71a37.38,37.38,0,0,1,10.81,47.54A39.54,39.54,0,0,1,338.54,441.94Z" transform="translate(-44.48 -140.58)"/><path class="cls-59" d="M359.09,429.37a5.49,5.49,0,0,1-4.13-1,5.55,5.55,0,1,1-6.59,8.92,5.67,5.67,0,0,1,1.17,7.78,5.48,5.48,0,0,1-3.65,2.17,5.58,5.58,0,0,1-4.12-1l-4.18-3.09a38.84,38.84,0,0,1-2.67,3.05,37.41,37.41,0,0,1-48.6,3.6l-5-3.71a37.26,37.26,0,0,1-14.87-34.49c6.85,6.68,17.46,13.58,32,13.53,20.47-.07,34.67-23.24,40.92-35.87l28.79,21.28a5.55,5.55,0,0,1,2.25,4.42,5.56,5.56,0,0,1-8.85,4.5,5.61,5.61,0,0,1,2.23,4.06,5.39,5.39,0,0,1-1.05,3.7A5.46,5.46,0,0,1,359.09,429.37Z" transform="translate(-44.48 -140.58)"/><path class="cls-60" d="M317.91,384s92.22-117.24,53.54-130.35S408.37,352.2,447,321.8s-37.42-32.13-59.76-2.06-56.71,76.74-56.71,76.74" transform="translate(-44.48 -140.58)"/><path class="cls-61" d="M359.09,429.37a5.49,5.49,0,0,1-4.13-1,5.55,5.55,0,1,1-6.59,8.92,5.67,5.67,0,0,1,1.17,7.78,5.48,5.48,0,0,1-3.65,2.17,5.58,5.58,0,0,1-4.12-1l-4.18-3.09a38.84,38.84,0,0,1-2.67,3.05,37.41,37.41,0,0,1-48.6,3.6l-5-3.71a37.26,37.26,0,0,1-14.87-34.49c6.85,6.68,17.46,13.58,32,13.53,20.47-.07,34.67-23.24,40.92-35.87l28.79,21.28a5.55,5.55,0,0,1,2.25,4.42,5.56,5.56,0,0,1-8.85,4.5,5.61,5.61,0,0,1,2.23,4.06,5.39,5.39,0,0,1-1.05,3.7A5.46,5.46,0,0,1,359.09,429.37Z" transform="translate(-44.48 -140.58)"/><path class="cls-61" d="M338.54,441.94a40,40,0,0,1-3.62,4.24l-64.43-47.61a39.71,39.71,0,0,1,3-4.71,38.78,38.78,0,0,1,3.61-4.21l64.42,47.61A39.54,39.54,0,0,1,338.54,441.94Z" transform="translate(-44.48 -140.58)"/><path class="cls-49" d="M349.54,445.07a5.48,5.48,0,0,1-3.65,2.17,5.58,5.58,0,0,1-4.12-1L268,391.71a5.53,5.53,0,0,1,2.2-9.87l.27-.06a5.53,5.53,0,0,1,4.13,1l73.75,54.5a5.67,5.67,0,0,1,1.17,7.78Z" transform="translate(-44.48 -140.58)"/><path class="cls-49" d="M369.34,418.28a5.43,5.43,0,0,1-3.65,2.17,5.5,5.5,0,0,1-4.13-1l-73.75-54.5a5.56,5.56,0,0,1,1.71-9.78c.27-.06.52-.13.77-.17a5.58,5.58,0,0,1,4.12,1l73.75,54.5a5.55,5.55,0,0,1,2.25,4.42A5.47,5.47,0,0,1,369.34,418.28Z" transform="translate(-44.48 -140.58)"/><path class="cls-49" d="M362.74,427.2a5.63,5.63,0,0,1-7.78,1.17l-73.74-54.51a5.55,5.55,0,0,1,2.06-9.86l.42-.09a5.61,5.61,0,0,1,4.11,1l73.75,54.5a5.61,5.61,0,0,1,2.23,4.06A5.39,5.39,0,0,1,362.74,427.2Z" transform="translate(-44.48 -140.58)"/><path class="cls-61" d="M370.41,414.94a4.18,4.18,0,0,1-.78.17,5.49,5.49,0,0,1-4.13-1l-73.75-54.5a5.55,5.55,0,0,1-2.23-4.45c.27-.06.52-.13.77-.17a5.58,5.58,0,0,1,4.12,1l73.75,54.5A5.55,5.55,0,0,1,370.41,414.94Z" transform="translate(-44.48 -140.58)"/><path class="cls-61" d="M363.79,423.5l-.41.08a5.49,5.49,0,0,1-4.13-1l-73.75-54.5a5.5,5.5,0,0,1-2.22-4.07l.42-.09a5.61,5.61,0,0,1,4.11,1l73.75,54.5A5.61,5.61,0,0,1,363.79,423.5Z" transform="translate(-44.48 -140.58)"/><path class="cls-49" d="M356.13,436.15a5.57,5.57,0,0,1-7.76,1.14l-73.75-54.5a5.55,5.55,0,0,1-1.16-7.74A5.69,5.69,0,0,1,276.4,373c.23-.05.47-.11.69-.14a5.49,5.49,0,0,1,4.13,1L355,428.37a5.61,5.61,0,0,1,1.17,7.78Z" transform="translate(-44.48 -140.58)"/><path class="cls-61" d="M357.2,432.72a4.25,4.25,0,0,1-.7.16,5.56,5.56,0,0,1-4.11-1l-73.75-54.5A5.49,5.49,0,0,1,276.4,373c.23-.05.47-.11.69-.14a5.49,5.49,0,0,1,4.13,1L355,428.37A5.55,5.55,0,0,1,357.2,432.72Z" transform="translate(-44.48 -140.58)"/><path class="cls-61" d="M350.56,441.22l-.25,0a5.5,5.5,0,0,1-4.13-1l-73.75-54.5a5.52,5.52,0,0,1-2.21-3.91l.27-.06a5.53,5.53,0,0,1,4.13,1l73.75,54.5A5.42,5.42,0,0,1,350.56,441.22Z" transform="translate(-44.48 -140.58)"/><path class="cls-62" d="M474.32,175c1.06.68,2.13,1.38,3.17,2.08a301.24,301.24,0,0,0-55.3-1.48c-67.18,3.92-106,54.23-121.47,79.39a114.09,114.09,0,0,1,25.64-56.83C362.75,154.89,426.47,144.9,474.32,175Z" transform="translate(-44.48 -140.58)"/><path class="cls-50" d="M326.94,377.84,321.13,382a2.11,2.11,0,0,1-2.69-.21L312,375.49l12.7,2.35a1.44,1.44,0,0,0,1.65-1l.3-1a1.46,1.46,0,0,0-.92-1.77l-21.42-7.39-13.2,1.53L286,393c6.59.9,22.21,7.77,27.87,10.34a3.35,3.35,0,0,0,3.75-.69l9.43-9.42a7.37,7.37,0,0,0,2.15-5.57l-.46-9A1.14,1.14,0,0,0,326.94,377.84Z" transform="translate(-44.48 -140.58)"/><path class="cls-56" d="M212.34,347.14c-8.41-2-17.15,4.15-19.43,13.68s2.75,19,11.16,21l82.62,14,6.38-30.66C293.08,365.11,212.34,347.14,212.34,347.14Z" transform="translate(-44.48 -140.58)"/><path class="cls-63" d="M285.29,664.61h50.9l-.06-2.27c0-.33,0-.66-.06-1a13.21,13.21,0,0,0-13.17-11.92H286.42l-.9,11.92Z" transform="translate(-44.48 -140.58)"/><path class="cls-18" d="M285.29,664.61h50.9l-.06-2.27c0-.33,0-.66-.06-1H285.52Z" transform="translate(-44.48 -140.58)"/><path class="cls-64" d="M321.59,653.19s1.11-4.85,3.85-3.53-3.68,3.71-3.68,3.71l3.82,2.63" transform="translate(-44.48 -140.58)"/><path class="cls-64" d="M321.59,653.19s-1.11-4.85-3.85-3.53,3.68,3.71,3.68,3.71L317.61,656" transform="translate(-44.48 -140.58)"/><path class="cls-63" d="M202.93,664.61h46.93l.24-3.26.8-11.92H217.38a14.32,14.32,0,0,0-14.13,11.92,7.42,7.42,0,0,0-.2,1.5Z" transform="translate(-44.48 -140.58)"/><path class="cls-18" d="M202.93,664.61h46.93l.24-3.26H203.25a7.42,7.42,0,0,0-.2,1.5Z" transform="translate(-44.48 -140.58)"/><path class="cls-64" d="M214.7,653.19s1.11-4.85,3.85-3.53-3.67,3.71-3.67,3.71l3.81,2.63" transform="translate(-44.48 -140.58)"/><path class="cls-64" d="M214.7,653.19s-1.11-4.85-3.84-3.53,3.67,3.71,3.67,3.71L210.72,656" transform="translate(-44.48 -140.58)"/><polyline class="cls-65" points="227.25 219.79 186.64 210.74 193.56 183.93"/><line class="cls-65" x1="174.31" y1="243.71" x2="219.82" y2="251.43"/><path class="cls-66" d="M150,478.12a101.2,101.2,0,0,0-3.32-20.07h0a14.15,14.15,0,0,0-8.34-10.27,1.36,1.36,0,0,0,.07-.35,2.07,2.07,0,0,0-1.85-2.26l-3.68-.36a2.07,2.07,0,0,0-2.26,1.86c0,.07,0,.14,0,.2-3.14.61-5.68,2.45-8.13,4.5-2.67,2.23-7.21,1.85-13.29,1.88-4.91,0-9.22.28-11.38-1.92a16.56,16.56,0,0,0-8.27-4.47,1.21,1.21,0,0,0,0-.19,2.07,2.07,0,0,0-2.26-1.86l-3.67.36a2.08,2.08,0,0,0-1.86,2.26,2,2,0,0,0,.07.35,14.15,14.15,0,0,0-8.34,10.27h0a101.86,101.86,0,0,0-3.31,20.07c-.27,5.93.06,13.86,5,17.37a7.91,7.91,0,0,0,9.46-.73c2-1.84,6.44-9.47,7.88-12a8.67,8.67,0,0,0,13.62-2.4h8.25A8.67,8.67,0,0,0,127.78,483c1.57,2.77,5.76,10,7.74,11.76a7.89,7.89,0,0,0,9.45.73C150,492,150.29,484.05,150,478.12Z" transform="translate(-44.48 -140.58)"/><path class="cls-66" d="M839.55,140.58H782.1a6.21,6.21,0,0,0-6.2,6.2v33.07a6.2,6.2,0,0,0,6.2,6.2h23.1v7.46H790a.54.54,0,0,0-.54.54V196a.54.54,0,0,0,.54.54h41.65a.54.54,0,0,0,.54-.54v-1.91a.54.54,0,0,0-.54-.54H816.46v-7.46h23.09a6.2,6.2,0,0,0,6.2-6.2V146.78A6.21,6.21,0,0,0,839.55,140.58Z" transform="translate(-44.48 -140.58)"/><g class="cls-67"><path class="cls-17" d="M830.08,518.61a14.75,14.75,0,0,0-4.75-1.19,3.4,3.4,0,0,1-6.69,1,14.78,14.78,0,0,0-4.2,2.51,3.4,3.4,0,0,1-4,5.43,14.54,14.54,0,0,0-1.18,4.75,3.4,3.4,0,0,1,1,6.69,14.58,14.58,0,0,0,2.52,4.2,3.4,3.4,0,0,1,5.42,4,14.81,14.81,0,0,0,4.75,1.19,3.4,3.4,0,0,1,6.68-1,14.38,14.38,0,0,0,4.21-2.51,3.4,3.4,0,0,1,4-5.42,14.54,14.54,0,0,0,1.18-4.75,3.4,3.4,0,0,1-1-6.69,14.78,14.78,0,0,0-2.51-4.2,3.4,3.4,0,0,1-5.43-4Zm-1.66,7.9a7.23,7.23,0,1,1-10.11,1.5A7.22,7.22,0,0,1,828.42,526.51Z" transform="translate(-44.48 -140.58)"/><path class="cls-17" d="M825.75,573.39A12.38,12.38,0,1,1,817,558.21,12.38,12.38,0,0,1,825.75,573.39Zm13.64-2.34a25.26,25.26,0,0,0-1.1-8.33,5.82,5.82,0,0,1-5.79-10,25.18,25.18,0,0,0-6.65-5.12,5.83,5.83,0,0,1-11.19-3,25.14,25.14,0,0,0-8.31,1.11,5.83,5.83,0,0,1-10,5.78,25.15,25.15,0,0,0-5.11,6.65,5.83,5.83,0,0,1-3,11.19,24.94,24.94,0,0,0,1.1,8.32,5.82,5.82,0,0,1,5.79,10,25,25,0,0,0,6.65,5.12,5.83,5.83,0,0,1,11.19,3,25.14,25.14,0,0,0,8.31-1.11,5.83,5.83,0,0,1,10-5.78,25,25,0,0,0,5.12-6.64,5.83,5.83,0,0,1,3-11.19Z" transform="translate(-44.48 -140.58)"/></g><rect class="cls-68" x="820.13" y="733.5" width="215.4" height="205.92" rx="3.87" transform="translate(1811.18 1532.34) rotate(-180)"/><path class="cls-69" d="M819.75,799.23c0,.23,48.11.42,107.45.42s107.45-.19,107.45-.42-48.1-.41-107.45-.41S819.75,799,819.75,799.23Z" transform="translate(-44.48 -140.58)"/><path class="cls-69" d="M819.75,865.34c0,.23,48.11.42,107.45.42s107.45-.19,107.45-.42-48.1-.41-107.45-.41S819.75,865.11,819.75,865.34Z" transform="translate(-44.48 -140.58)"/><circle class="cls-18" cx="951.89" cy="627.67" r="4.68"/><circle class="cls-18" cx="935.09" cy="627.67" r="4.68"/><rect class="cls-69" x="871.76" y="761.05" width="4.28" height="15.95" rx="1.09" transform="translate(1703.32 1397.46) rotate(-180)"/><rect class="cls-69" x="860.96" y="761.05" width="4.28" height="15.95" rx="1.09" transform="translate(1681.73 1397.46) rotate(-180)"/><rect class="cls-18" x="851.01" y="761.05" width="4.28" height="15.95" rx="1.09" transform="translate(1661.82 1397.46) rotate(-180)"/><rect class="cls-70" x="882.69" y="761.05" width="4.28" height="15.95" rx="1.09" transform="translate(1725.19 1397.46) rotate(-180)"/><circle class="cls-18" cx="951.89" cy="691.9" r="4.68"/><circle class="cls-18" cx="936" cy="691.9" r="4.68"/><rect class="cls-69" x="871.76" y="825.27" width="4.28" height="15.95" rx="1.09" transform="translate(1703.32 1525.91) rotate(-180)"/><rect class="cls-69" x="860.96" y="825.27" width="4.28" height="15.95" rx="1.09" transform="translate(1681.73 1525.91) rotate(-180)"/><rect class="cls-18" x="851.01" y="825.27" width="4.28" height="15.95" rx="1.09" transform="translate(1661.82 1525.91) rotate(-180)"/><rect class="cls-71" x="882.69" y="825.27" width="4.28" height="15.95" rx="1.09" transform="translate(1725.19 1525.91) rotate(-180)"/><circle class="cls-18" cx="951.89" cy="761.03" r="4.68"/><circle class="cls-18" cx="934.65" cy="761.03" r="4.68"/><rect class="cls-69" x="871.76" y="894.4" width="4.28" height="15.95" rx="1.09" transform="translate(1703.32 1664.17) rotate(-180)"/><rect class="cls-69" x="860.96" y="894.4" width="4.28" height="15.95" rx="1.09" transform="translate(1681.73 1664.17) rotate(-180)"/><rect class="cls-18" x="851.01" y="894.4" width="4.28" height="15.95" rx="1.09" transform="translate(1661.82 1664.17) rotate(-180)"/><rect class="cls-72" x="882.69" y="894.4" width="4.28" height="15.95" rx="1.09" transform="translate(1725.19 1664.17) rotate(-180)"/><path class="cls-17" d="M941.59,453.34c4.13-4.61,14.42-4,16.88-1a7.84,7.84,0,0,1,10.29,3.34l11,2.31a11.46,11.46,0,0,1,5.27,2.08c1.44,1.25,2.13,3.6,1,5.1,3.86,1,5.41,6.71,2.57,9.5a4.15,4.15,0,0,1-.57,6,41.76,41.76,0,0,1,7.13,12.13c.69,1.84,1.26,3.9.59,5.76s-3.1,3.14-4.71,2a4.87,4.87,0,0,1,.27,5.24c1.85,0,2.42,2.89,1.16,4.24s-3.33,1.51-5.18,1.48-3.86-.11-5.37,1a1.65,1.65,0,0,0,.61,1.17A7.61,7.61,0,0,1,984.21,524c-.21.31-.42.59-.6.85-1.06,1.53-3.7,2.94-5.34,3.81-4.17,2.22-6.67,1.82-11.33,2.53,1.29,3-6.25,9.73-15,3.23-17.29,4.78-29.77,6.63-47.7,6.81-2.56,0-5.64-.3-6.79-2.59a6.34,6.34,0,0,1-5.86-1.87,18.72,18.72,0,0,1-3.47-5.39,11.16,11.16,0,0,1-8.1-10,13.74,13.74,0,0,1-5.26-9.76,8.08,8.08,0,0,1-4.72-10.88,48.69,48.69,0,0,1,5.22-15.14c-2.94-.61-4.07-4.56-2.89-7.32s3.85-4.54,6.37-6.17c-2.19.6-4.12-2.15-3.61-4.36s2.48-3.75,4.42-4.93a41.37,41.37,0,0,1,9.06-4.12c1-3.87,5.92-8.3,9.52-10,14.54-7,24.75-8.82,43.43,4.66" transform="translate(-44.48 -140.58)"/><path class="cls-73" d="M952.82,476.74c.2-3.07.71-6.1-2.33-6.56l-31-9.35c-10-1.52-17.24,10.55-18.33,20.6-1.21,11.16-2.25,24.84-1.3,33.26a25.59,25.59,0,0,0,16.82,21.46s-.39,10.26-.39,10.26c1.29,7.9,3.28,16.78,6.49,19.94,11-2.05,28.91-26.16,28.91-26.16Z" transform="translate(-44.48 -140.58)"/><path class="cls-74" d="M916.69,536.15s9.13-.58,20.64-6.81c0,0-3.9,10.61-20.79,11.9Z" transform="translate(-44.48 -140.58)"/><path class="cls-17" d="M893.62,489.5a11.57,11.57,0,0,1,2.79-7.24,42.13,42.13,0,0,0,3.12-3c1.89-2.49,1.62-5.94,2.43-8.95a12.67,12.67,0,0,1,7.86-8.54c3.16-1.12,6.73-1,9.69-2.53,2.18-1.16,3.85-3.18,6.1-4.2,4.39-2,9.47.25,13.61,2.72.82,3.29-1.26,6.13-3.27,8.86a11.76,11.76,0,0,1-8.65,4.71c-2.62.15-5.69-.44-7.53,1.43s-1.2,5.44-2.79,7.7c-2.28,3.23-7.47,2-10.89,4-2.63,1.54-3.74,4.69-5.07,7.44s-3.62,5.61-6.67,5.47A34.16,34.16,0,0,1,893.62,489.5Z" transform="translate(-44.48 -140.58)"/><path class="cls-17" d="M932.67,463.74a59.67,59.67,0,0,1,22.5,4.07c2.13.84,4.33,1.9,5.54,3.83a10.57,10.57,0,0,1,1.17,5.83c-.08,6.3-2.62,14-5,19.82L949,502c-6.06-1.44-3.27-11.89-3-17.13a12.34,12.34,0,0,1-7.22-10.92A13.65,13.65,0,0,1,932.67,463.74Z" transform="translate(-44.48 -140.58)"/><path class="cls-73" d="M949.11,499.73c.24-3.6,4.66-4.3,7.75-2.44,1.7,1,3,3,2.75,6.85-.59,10.2-10.7,7.5-10.7,7.21S948.82,503.94,949.11,499.73Z" transform="translate(-44.48 -140.58)"/><path class="cls-74" d="M952.25,507.67s.17.13.46.28a1.73,1.73,0,0,0,1.33.11c1.1-.33,2.1-2,2.26-3.82a6,6,0,0,0-.35-2.57,2,2,0,0,0-1.26-1.44.89.89,0,0,0-1.07.42c-.16.28-.1.48-.16.5s-.21-.18-.1-.6a1.16,1.16,0,0,1,.44-.62,1.36,1.36,0,0,1,1-.2,2.52,2.52,0,0,1,1.77,1.69,6.14,6.14,0,0,1,.45,2.88c-.19,2.05-1.35,3.91-2.85,4.25a1.92,1.92,0,0,1-1.61-.37C952.25,507.91,952.21,507.68,952.25,507.67Z" transform="translate(-44.48 -140.58)"/><path class="cls-73" d="M812.07,657.83l5.74-8.67,9.22-4.63.34-.25a12.36,12.36,0,0,1,10.45-1.94c3.75,1,8.76,2.24,13.1,3l9.92-2.71V662l-50-3.16Z" transform="translate(-44.48 -140.58)"/><path class="cls-74" d="M812.42,657.31a13.27,13.27,0,0,1,2.11-1.93c1.36-1.13,3.25-2.66,5.37-4.32l2-1.54.06,0,.06,0c2-.38,3.84-.69,5.11-.89a7.92,7.92,0,0,1,2-.21,8.07,8.07,0,0,1-2,.59c-1.25.29-3,.68-5.06,1.1l.13-.06-2,1.56c-2.12,1.66-4.06,3.13-5.49,4.17A13.34,13.34,0,0,1,812.42,657.31Z" transform="translate(-44.48 -140.58)"/><path class="cls-74" d="M816.32,659c-.08-.15,3.14-2.1,7.19-4.35l1.76-1,.06,0h.07a37.58,37.58,0,0,1,6.4-.11,40.18,40.18,0,0,1-6.37.71l.13,0-1.74,1C819.76,657.45,816.4,659.15,816.32,659Z" transform="translate(-44.48 -140.58)"/><path class="cls-43" d="M753.86,603.08a3.82,3.82,0,0,1,4.93,1.06l40.28,54.56,63.74.86c2.55.15,5.63,5.3,3.35,7.79l-72-1-41.55-57.74A3.82,3.82,0,0,1,753.86,603.08Z" transform="translate(-44.48 -140.58)"/><path class="cls-75" d="M946.94,539.9a21.24,21.24,0,0,1,10.71,5A36.08,36.08,0,0,1,966.23,559c2.13,6.38,1.17,31.57,1.17,38.86s-1.85,34.71-2.77,39.27.59,11.33,2.71,15.75c3.79,7.91-2.12,12-2.12,12L887,664.2l.31-2.91c.54-5.09-1.35-10.26.58-15a48.64,48.64,0,0,0,3.6-21.91c-1-13-4.89-21.93-2.5-29.49,3.65-11.53,15.69-37.75,30.25-48.95,0,0,11.47-2.46,14.07-3.37C939.21,540.5,942.34,539.39,946.94,539.9Z" transform="translate(-44.48 -140.58)"/><path class="cls-76" d="M855,640.36l66.82-14,1.73-58s2.34-23.63,14.18-25.83l28.52,35.5c-1.6,17.9-.14,51.75-8.37,64.81s-16.22,23.52-36.46,22.59-64.88-1.36-64.88-1.36Z" transform="translate(-44.48 -140.58)"/><path class="cls-69" d="M921.67,626.64c-.16.13,1.45,2.22,2.79,5.13s1.95,5.48,2.15,5.44-.12-2.72-1.53-5.72S921.79,626.52,921.67,626.64Z" transform="translate(-44.48 -140.58)"/><g class="cls-77"><path d="M924,565.92c-6.68,20.51-5.23,52.13-18,63.79l15.77-3.3a79.8,79.8,0,0,1-.13-11.14c1.28-16.21,1.44-32.7,2.32-49.35" transform="translate(-44.48 -140.58)"/></g><path class="cls-69" d="M925.47,558.6a36.36,36.36,0,0,0-1.17,4.66,54.9,54.9,0,0,0-.81,5.74c-.22,2.28-.26,4.92-.37,7.87-.38,11.84-.92,28.83-1.59,49.54l.22-.26L854.91,640l-.28.06,0,.29c.49,7.6,1,15.59,1.54,23.74l0,.32h.31l8.12.09c11.62.15,23,.32,33.9.56q8.22.18,16.12.43c5.24.13,10.44.63,15.48-.16a33.61,33.61,0,0,0,7.27-1.87,31,31,0,0,0,6.41-3.51,43.24,43.24,0,0,0,9.64-10c1.3-1.83,2.54-3.66,3.69-5.48l.87-1.37c.27-.46.51-1,.77-1.42l.75-1.41.57-1.47a56.57,56.57,0,0,0,3-11.59,183.93,183.93,0,0,0,1.95-20.46c.3-6,.44-11.25.59-15.51s.28-7.55.4-9.79c.07-1.1.12-1.94.16-2.54s0-.87,0-.87-.05.29-.1.87-.13,1.44-.23,2.54c-.16,2.23-.35,5.53-.53,9.78s-.36,9.46-.7,15.5a181.91,181.91,0,0,1-2,20.4,55.6,55.6,0,0,1-3,11.48l-.57,1.44-.74,1.38c-.25.46-.49.93-.76,1.39l-.86,1.35c-1.16,1.82-2.4,3.64-3.69,5.45a43.17,43.17,0,0,1-9.53,9.86,30.31,30.31,0,0,1-6.29,3.42,32.81,32.81,0,0,1-7.14,1.82c-4.94.77-10.1.28-15.37.14s-10.65-.33-16.12-.45c-10.95-.25-22.29-.43-33.91-.57l-8.12-.09.33.31c-.53-8.15-1.05-16.15-1.55-23.75l-.26.35,66.81-14,.21,0v-.22c.56-20.71,1-37.7,1.35-49.54.09-3,.1-5.59.29-7.86a57.29,57.29,0,0,1,.74-5.73c.27-1.54.54-2.71.73-3.5.09-.37.17-.67.22-.88A1.14,1.14,0,0,0,925.47,558.6Z" transform="translate(-44.48 -140.58)"/><polygon class="cls-73" points="773.74 642.17 783.66 715.26 757.7 719.52 739.24 654.66 773.74 642.17"/><path class="cls-17" d="M896.91,670.44s-94.87-6.24-114.56-3.1c-11.91,1.9-22.17,20.5-15.68,31.68,3.07,5.29,7.91,21.77,7.91,21.77l51-11.63Z" transform="translate(-44.48 -140.58)"/><polygon class="cls-73" points="781.09 580.21 801.63 611.55 777.46 627.21 751.23 587.02 781.09 580.21"/><path class="cls-17" d="M963.34,664.71s10,44.18-6.15,61.55c-11.53,12.37-39.81,11.07-63.68,11.07-24.18,0-80-1.32-80-1.32s2.53,15.54,4.39,33.23,2.24,28.86,2.24,28.86l-35.58,3s-19.82-60.33-22.87-72.28-2-28,8.52-33.95c8.94-5.05,79.4-24.58,113.14-27.49L887,664.2Z" transform="translate(-44.48 -140.58)"/><path class="cls-69" d="M796.1,721.49c0,.12,1.37.31,3.48,1.07a23.17,23.17,0,0,1,3.56,1.65,22.71,22.71,0,0,1,7.08,6.39,22.7,22.7,0,0,1,2,3.37c1,2,1.31,3.39,1.43,3.36a3,3,0,0,0-.15-1,14.22,14.22,0,0,0-.85-2.57,19.75,19.75,0,0,0-1.93-3.53,21.37,21.37,0,0,0-7.28-6.57,19.6,19.6,0,0,0-3.72-1.56,14.32,14.32,0,0,0-2.64-.58C796.45,721.46,796.1,721.44,796.1,721.49Z" transform="translate(-44.48 -140.58)"/><path class="cls-69" d="M800.32,685.06c.16-.09-.58-1.8-1.87-3.69s-2.6-3.21-2.74-3.09.92,1.61,2.18,3.47S800.15,685.15,800.32,685.06Z" transform="translate(-44.48 -140.58)"/><path class="cls-69" d="M760.18,712s.05-.12.11-.34.14-.6.24-1c.21-.89.54-2.2,1.07-3.85a29.88,29.88,0,0,1,2.53-5.75,14.25,14.25,0,0,1,5.74-5.77,156.86,156.86,0,0,1,20.5-7.29c7.87-2.35,16.54-4.85,25.7-7.27,18.32-4.86,35.14-8.35,47.39-10.38,6.12-1,11.1-1.74,14.54-2.22l4-.54,1-.15a1.5,1.5,0,0,0,.35-.08,1.43,1.43,0,0,0-.36,0l-1,.09-4,.41c-3.45.4-8.44,1-14.58,2a480.27,480.27,0,0,0-47.48,10.2c-9.17,2.42-17.85,4.94-25.71,7.32a152.57,152.57,0,0,0-20.54,7.46,14.66,14.66,0,0,0-5.85,6,28.63,28.63,0,0,0-2.45,5.86,37.91,37.91,0,0,0-1,3.9c-.08.42-.13.75-.18,1A1.41,1.41,0,0,0,760.18,712Z" transform="translate(-44.48 -140.58)"/><path class="cls-43" d="M800.16,858.21,799.3,855c11-1.16,20.84-5.24,28.64-12.35l8.8,19-58.65,26.08C775.87,882.17,800.16,858.21,800.16,858.21Z" transform="translate(-44.48 -140.58)"/><path class="cls-78" d="M836.74,861.7l-2.15-4.64-55.54,26.79s-2.1,2.27-1,3.93Z" transform="translate(-44.48 -140.58)"/><path class="cls-78" d="M800.94,857.84c.14.27,1.64-.24,3.46,0s3.13,1.11,3.35.88-1-1.65-3.19-1.93S800.76,857.61,800.94,857.84Z" transform="translate(-44.48 -140.58)"/><path class="cls-78" d="M823.77,855.8a1.71,1.71,0,0,0,2.25.78,1.63,1.63,0,0,0,.8-2.2,1.72,1.72,0,0,0-2.26-.78A1.63,1.63,0,0,0,823.77,855.8Z" transform="translate(-44.48 -140.58)"/><path class="cls-78" d="M801.3,857.45a3.89,3.89,0,0,0,1.33-.25,7.06,7.06,0,0,0,3.29-1.75,5.27,5.27,0,0,0,.77-1,3.19,3.19,0,0,0,.49-1.35,1.46,1.46,0,0,0-.92-1.45,2.24,2.24,0,0,0-1.78.08,6.56,6.56,0,0,0-3.63,5.72l.87-.12a6.63,6.63,0,0,0-.58-1.32,7.21,7.21,0,0,0-6.36-3.59,2.13,2.13,0,0,0-1,.19,1.27,1.27,0,0,0-.67.87,2.26,2.26,0,0,0,.43,1.69A5.23,5.23,0,0,0,795.8,857a9.19,9.19,0,0,0,4,.6,5.38,5.38,0,0,0,1.47-.12,4.72,4.72,0,0,0-1.46-.22,9.8,9.8,0,0,1-3.76-.81,4.73,4.73,0,0,1-1.9-1.64,1.55,1.55,0,0,1-.29-1.14c.08-.33.35-.44.9-.43a6.43,6.43,0,0,1,5.57,3.21,5.86,5.86,0,0,1,.51,1.16.46.46,0,0,0,.56.28.44.44,0,0,0,.31-.41,5.83,5.83,0,0,1,3.07-5c.8-.43,1.73-.06,1.66.63a3.93,3.93,0,0,1-1,2,7.51,7.51,0,0,1-3,1.85A4.26,4.26,0,0,0,801.3,857.45Z" transform="translate(-44.48 -140.58)"/><path class="cls-78" d="M796.44,861.91c0,.19,1.81-.27,3.88.27s3.42,1.73,3.56,1.58-1.09-1.68-3.39-2.24S796.35,861.76,796.44,861.91Z" transform="translate(-44.48 -140.58)"/><path class="cls-78" d="M793.17,865.63c0,.2,1.61.15,3.44.71s3.14,1.43,3.27,1.27-1.09-1.34-3.08-1.92S793.14,865.46,793.17,865.63Z" transform="translate(-44.48 -140.58)"/><path class="cls-43" d="M817.33,764.26l-1.38-3c10.66-3,19.66-8.67,26.15-17L854,761.55l-53.42,35.58C797.43,792,817.33,764.26,817.33,764.26Z" transform="translate(-44.48 -140.58)"/><path class="cls-78" d="M854,761.55l-2.9-4.22-50.23,35.76s-1.68,2.59-.29,4Z" transform="translate(-44.48 -140.58)"/><path class="cls-18" d="M818,763.77c.19.24,1.57-.51,3.42-.55s3.27.56,3.44.3-1.23-1.46-3.47-1.37S817.82,763.57,818,763.77Z" transform="translate(-44.48 -140.58)"/><path class="cls-78" d="M840.19,757.92a1.72,1.72,0,0,0,2.36.38A1.64,1.64,0,0,0,843,756a1.72,1.72,0,0,0-2.36-.38A1.63,1.63,0,0,0,840.19,757.92Z" transform="translate(-44.48 -140.58)"/><path class="cls-18" d="M818.32,763.32a3.76,3.76,0,0,0,1.27-.46,7.12,7.12,0,0,0,2.95-2.29,4.59,4.59,0,0,0,.59-1.12,3.26,3.26,0,0,0,.26-1.41,1.45,1.45,0,0,0-1.15-1.28,2.25,2.25,0,0,0-1.74.38,6.55,6.55,0,0,0-2.61,6.25l.83-.27a7.74,7.74,0,0,0-.79-1.2,7.25,7.25,0,0,0-6.88-2.47,2.21,2.21,0,0,0-.93.36,1.23,1.23,0,0,0-.51,1,2.25,2.25,0,0,0,.7,1.59,5.19,5.19,0,0,0,2.52,1.4,9,9,0,0,0,4.07-.08,5.14,5.14,0,0,0,1.42-.37,4.49,4.49,0,0,0-1.47,0,10.2,10.2,0,0,1-3.85-.17,4.81,4.81,0,0,1-2.14-1.3,1.61,1.61,0,0,1-.48-1.08c0-.33.28-.49.81-.57a6.45,6.45,0,0,1,6,2.23,6.19,6.19,0,0,1,.7,1,.45.45,0,0,0,.59.19.44.44,0,0,0,.24-.46,5.84,5.84,0,0,1,2.19-5.47c.71-.55,1.68-.35,1.73.34a3.87,3.87,0,0,1-.65,2.14,7.64,7.64,0,0,1-2.59,2.32A5,5,0,0,0,818.32,763.32Z" transform="translate(-44.48 -140.58)"/><path class="cls-18" d="M814.29,768.54c.08.18,1.73-.57,3.87-.39s3.66,1.13,3.77,1-1.36-1.47-3.72-1.63S814.17,768.4,814.29,768.54Z" transform="translate(-44.48 -140.58)"/><path class="cls-18" d="M811.69,772.75c0,.2,1.61-.12,3.51.12s3.34.89,3.43.71-1.29-1.14-3.35-1.38S811.63,772.59,811.69,772.75Z" transform="translate(-44.48 -140.58)"/></svg>