<svg id="Layer_1" data-name="Layer 1" xmlns="http://www.w3.org/2000/svg" xmlns:xlink="http://www.w3.org/1999/xlink" viewBox="0 0 418.68 298.18"><defs><style>.cls-1{font-size:179.97px;font-family:FranklinGothic-Heavy, Franklin Gothic Heavy;font-weight:800;}.cls-1,.cls-3{fill:none;stroke:#1fbcf7;stroke-miterlimit:10;}.cls-2{clip-path:url(#clip-path);}</style><clipPath id="clip-path" transform="translate(-395.56 -388)"><text class="cls-1" transform="translate(487.23 587.41)">1</text></clipPath></defs><title>img7</title><g class="cls-2"><line class="cls-3" x1="0.16" y1="121.67" x2="351.87" y2="0.47"/><line class="cls-3" x1="2.44" y1="128.29" x2="354.15" y2="7.09"/><line class="cls-3" x1="4.72" y1="134.91" x2="356.43" y2="13.71"/><line class="cls-3" x1="7" y1="141.53" x2="358.71" y2="20.33"/><line class="cls-3" x1="9.29" y1="148.14" x2="360.99" y2="26.94"/><line class="cls-3" x1="11.57" y1="154.76" x2="363.27" y2="33.56"/><line class="cls-3" x1="13.85" y1="161.38" x2="365.55" y2="40.18"/><line class="cls-3" x1="16.13" y1="168" x2="367.83" y2="46.8"/><line class="cls-3" x1="18.41" y1="174.62" x2="370.11" y2="53.42"/><line class="cls-3" x1="20.69" y1="181.23" x2="372.39" y2="60.04"/><line class="cls-3" x1="22.97" y1="187.85" x2="374.67" y2="66.65"/><line class="cls-3" x1="25.25" y1="194.47" x2="376.95" y2="73.27"/><line class="cls-3" x1="27.53" y1="201.09" x2="379.23" y2="79.89"/><line class="cls-3" x1="29.81" y1="207.71" x2="381.51" y2="86.51"/><line class="cls-3" x1="37.16" y1="211.67" x2="388.87" y2="90.47"/><line class="cls-3" x1="39.44" y1="218.29" x2="391.15" y2="97.09"/><line class="cls-3" x1="41.72" y1="224.91" x2="393.43" y2="103.71"/><line class="cls-3" x1="44" y1="231.53" x2="395.71" y2="110.33"/><line class="cls-3" x1="46.29" y1="238.14" x2="397.99" y2="116.94"/><line class="cls-3" x1="48.57" y1="244.76" x2="400.27" y2="123.56"/><line class="cls-3" x1="50.85" y1="251.38" x2="402.55" y2="130.18"/><line class="cls-3" x1="53.13" y1="258" x2="404.83" y2="136.8"/><line class="cls-3" x1="55.41" y1="264.62" x2="407.11" y2="143.42"/><line class="cls-3" x1="57.69" y1="271.23" x2="409.39" y2="150.04"/><line class="cls-3" x1="59.97" y1="277.85" x2="411.67" y2="156.65"/><line class="cls-3" x1="62.25" y1="284.47" x2="413.95" y2="163.27"/><line class="cls-3" x1="64.53" y1="291.09" x2="416.23" y2="169.89"/><line class="cls-3" x1="66.81" y1="297.71" x2="418.51" y2="176.51"/></g></svg>