<svg id="Layer_1" data-name="Layer 1" xmlns="http://www.w3.org/2000/svg" xmlns:xlink="http://www.w3.org/1999/xlink" viewBox="0 0 1080 1080"><defs><style>.cls-1{fill:url(#linear-gradient);}.cls-2{fill:#fff;}</style><linearGradient id="linear-gradient" y1="540" x2="1080" y2="540" gradientUnits="userSpaceOnUse"><stop offset="0" stop-color="#23baf5"/><stop offset="1" stop-color="#1c62d1"/></linearGradient></defs><title>phone_ICON</title><rect class="cls-1" width="1080" height="1080"/><path class="cls-2" d="M211.8,388.18c-1.89-36.46,5.57-70.07,30-98,33.75-38.56,76.26-51.78,126.37-40.71,7.31,1.62,11.12,5.57,12.77,12.92q20.73,92.7,41.93,185.31c1.76,7.64-.52,12.56-7,16.42-8.45,5-16.7,10.39-25,15.62-10.55,6.62-11.78,10-7,21.55q49.53,120.23,164.44,181.14c10.11,5.36,20.69,9.9,31.22,14.39,11.35,4.84,14.82,3.5,21.5-7.15,5.37-8.56,10.78-17.09,16.06-25.71,3.58-5.83,8.25-7.94,15.19-6.35q93,21.25,186.1,42.11c7.38,1.65,11,5.67,12.9,12.83,20.65,76.42-39.1,155-118.3,155.42C469.55,869.18,261,694.62,219.78,454.85,216,432.82,214.4,410.41,211.8,388.18Z" transform="translate(0 0)"/><path class="cls-2" d="M542.88,212.06c158.6,3.56,296.35,124.05,321,281.28,2.69,17.2,3.46,34.73,4.57,52.14.63,10.06-4.35,15.81-12.3,15.87s-12.29-5.51-12.47-15.74C841.2,404.17,747,282.66,612.44,247.42a330.35,330.35,0,0,0-78.52-10.52c-10.7-.18-17-7.33-14.1-15.94,2.37-7,7.88-9.28,14.87-8.93C537.41,212.17,540.15,212.06,542.88,212.06Z" transform="translate(0 0)"/><path class="cls-2" d="M542.64,274.42C672.37,278,785.09,378.54,803.15,507.18c1.78,12.67,2.48,25.52,3.08,38.31.47,10.06-4.46,15.82-12.34,15.8s-12.14-5.56-12.5-15.84q-4.83-137.79-121.71-211C622.07,310.9,580.29,300.3,536,299.05c-4.54-.13-10.07-1.52-13.2-4.43-2.47-2.29-3.64-8.5-2.31-11.7,1.49-3.58,6.06-6.71,10-8.22C534,273.33,538.54,274.41,542.64,274.42Z" transform="translate(0 0)"/><path class="cls-2" d="M543,336.64c109.81,3.68,199.74,96.73,201.06,209.63.1,8.47-4.74,14.72-11.63,15-7.85.31-12.88-5.09-13.16-14.32-1.86-63.12-28.07-113.63-79-150.92-29.87-21.88-63.87-32.7-100.77-34.54-3.27-.17-6.64.2-9.81-.42-6.79-1.33-10.55-5.79-10.28-12.72.26-6.49,3.95-10.75,10.53-11.61C533.73,336.24,537.6,336.64,543,336.64Z" transform="translate(0 0)"/><path class="cls-2" d="M681.88,541.77c0,.82,0,1.64,0,2.46.06,11.07-4.06,17-11.89,17-8.3.08-12.56-5.32-13-16.32-1.06-30.08-11.42-56.56-31.45-79-23.94-26.82-54.11-40.84-90.05-42.35-1.37-.06-2.75,0-4.1-.11-7.4-.78-12.32-6.08-12.09-12.95s5.32-11.84,13-11.86c33.36-.05,63.56,9.95,90,30.2C659.4,457.28,678.89,495.25,681.88,541.77Z" transform="translate(0 0)"/></svg>