<svg id="Layer_1" data-name="Layer 1" xmlns="http://www.w3.org/2000/svg" xmlns:xlink="http://www.w3.org/1999/xlink" viewBox="0 0 838.01 897.53"><defs><style>.cls-1{fill:#ececec;}.cls-2,.cls-25{fill:#1d2328;}.cls-10,.cls-3{fill:#fff;}.cls-4{fill:#2c343a;}.cls-5{fill:url(#linear-gradient);}.cls-15,.cls-6{opacity:0.5;}.cls-7{opacity:0.28;}.cls-8{fill:url(#linear-gradient-2);}.cls-9{fill:url(#linear-gradient-3);}.cls-10{fill-rule:evenodd;}.cls-11{fill:url(#linear-gradient-4);}.cls-12{fill:url(#linear-gradient-5);}.cls-13{fill:url(#linear-gradient-6);}.cls-14{fill:url(#linear-gradient-7);}.cls-16{fill:#c36358;}.cls-17{fill:url(#linear-gradient-8);}.cls-18{fill:#383f44;}.cls-19{fill:url(#linear-gradient-9);}.cls-20{fill:#1a2e35;}.cls-21{fill:url(#linear-gradient-10);}.cls-22{opacity:0.1;}.cls-23{fill:url(#linear-gradient-11);}.cls-24{fill:url(#linear-gradient-12);}.cls-25{opacity:0.2;}</style><linearGradient id="linear-gradient" x1="411.04" y1="514.86" x2="668.96" y2="514.86" gradientUnits="userSpaceOnUse"><stop offset="0" stop-color="#23baf5"/><stop offset="1" stop-color="#1c62d1"/></linearGradient><linearGradient id="linear-gradient-2" x1="659.82" y1="400.34" x2="854.53" y2="400.34" gradientTransform="translate(974.81 -428.05) rotate(76.85)" xlink:href="#linear-gradient"/><linearGradient id="linear-gradient-3" x1="630.74" y1="560.71" x2="762.4" y2="560.71" gradientTransform="translate(1079.59 -247.32) rotate(76.53)" xlink:href="#linear-gradient"/><linearGradient id="linear-gradient-4" x1="334.6" y1="408.6" x2="380.86" y2="408.6" xlink:href="#linear-gradient"/><linearGradient id="linear-gradient-5" x1="306.64" y1="278.33" x2="462.2" y2="278.33" xlink:href="#linear-gradient"/><linearGradient id="linear-gradient-6" x1="306.64" y1="278.28" x2="464.61" y2="278.28" xlink:href="#linear-gradient"/><linearGradient id="linear-gradient-7" x1="225.11" y1="63.06" x2="317.47" y2="63.06" xlink:href="#linear-gradient"/><linearGradient id="linear-gradient-8" x1="333.86" y1="918.44" x2="453.68" y2="918.44" xlink:href="#linear-gradient"/><linearGradient id="linear-gradient-9" x1="600.14" y1="930.55" x2="715.98" y2="930.55" xlink:href="#linear-gradient"/><linearGradient id="linear-gradient-10" x1="446.81" y1="742.18" x2="529.61" y2="742.18" xlink:href="#linear-gradient"/><linearGradient id="linear-gradient-11" x1="468.13" y1="783.21" x2="593.3" y2="783.21" xlink:href="#linear-gradient"/><linearGradient id="linear-gradient-12" x1="542.9" y1="747.49" x2="616.97" y2="747.49" xlink:href="#linear-gradient"/></defs><title>Social media optimization_vector_img</title><path class="cls-1" d="M959,387.08H729s22.81-62.3,57.91-62.3,46.1,43,46.1,43,23.69-23.36,43.14-23.36,36.37,30.87,36.37,30.87S940,358.69,959,387.08Z" transform="translate(-120.99 -91.23)"/><path class="cls-1" d="M830.25,171.84H722.74s24-34.8,43-34.8,24.52,23.2,24.52,23.2,13.35-10.82,25.73-8.89S830.25,171.84,830.25,171.84Z" transform="translate(-120.99 -91.23)"/><path class="cls-1" d="M334.42,616.58H226.91s24-34.8,43-34.8S294.38,605,294.38,605s13.35-10.83,25.73-8.9S334.42,616.58,334.42,616.58Z" transform="translate(-120.99 -91.23)"/><path class="cls-1" d="M330.4,368.53H121s28.68-64,59.36-68,45.35,47.57,45.35,47.57,19.78-18.22,35.34-18.22,27.57,24,27.57,24S319.73,337.4,330.4,368.53Z" transform="translate(-120.99 -91.23)"/><path class="cls-1" d="M477.59,210.15H336.13s24.3-46.39,50.66-47.06S427,198.19,427,198.19,468,165.28,477.59,210.15Z" transform="translate(-120.99 -91.23)"/><path class="cls-1" d="M814.34,653.67H672.89s24.29-46.39,50.65-47.06,40.22,35.1,40.22,35.1S804.77,608.8,814.34,653.67Z" transform="translate(-120.99 -91.23)"/><ellipse class="cls-1" cx="419.01" cy="869.13" rx="264.97" ry="28.4"/><path class="cls-2" d="M390.44,778.38c-10.27.36-21.73.94-30.23-5.72-7.85-6.14-14.86-15.31-13.82-25.83.3-3,1-4.85,4.2-3.57,4.9,2,8.68,7.35,12.07,11.15a103.48,103.48,0,0,0,14.25,13.51c3.65,2.8,7.59,5.22,11.32,7.94.47.33.93.68,1.39,1a6.55,6.55,0,0,1,.53.39h.3a.53.53,0,0,1,.42.22.49.49,0,0,1,.08.18A.55.55,0,0,1,390.44,778.38Z" transform="translate(-120.99 -91.23)"/><path class="cls-3" d="M391,777.7c-9-.16-18.78.25-26-5.87a41.72,41.72,0,0,1-8.38-10.19c-1.05-1.7-4.18-6.77-2.88-8.78,2.35-3.65,13.11,11.22,14.6,12.64,5.59,5.33,12.57,8.49,19.94,10.36.47.33.93.68,1.39,1a49.14,49.14,0,0,1-15-5.76c-6.41-3.82-10-9.47-15-14.75-1.08-1.14-4.35-5-5.58-2.59-.81,1.57,2.21,6.53,2.86,7.6a41.75,41.75,0,0,0,7.93,9.68c7.2,6.29,16.9,6.07,26,6.44A.49.49,0,0,1,391,777.7Z" transform="translate(-120.99 -91.23)"/><path class="cls-2" d="M396.11,784.64c-.09.4-.17.79-.25,1.19,0,0,0,0,0,0a.26.26,0,0,1-.18.21.43.43,0,0,1-.54-.21.35.35,0,0,1,0-.25,1.42,1.42,0,0,1,.05-.16c0-.11.07-.23.11-.35s0,0,0,0l0-.11c-1.82-6.8-2.53-13.87-4.45-20.67-1.83-6.49-4.1-12.85-5.42-19.48-.83-4.17-3.74-25.13,5.5-22.52,4.09,1.16,6.89,7.08,8.45,10.63a43.33,43.33,0,0,1,3.4,15.05C403.38,760.76,398.7,772.39,396.11,784.64Z" transform="translate(-120.99 -91.23)"/><path class="cls-3" d="M399.06,758.55a50.05,50.05,0,0,0-1.48-14.22c-.41-1.61-2.42-9.32-5-9.13-1.69.11-2,3.44-2.12,4.54-.59,4.67.93,9.43,1.83,14a192.55,192.55,0,0,1,3.4,28c-.08.59-.18,1.19-.24,1.78s-.13,1-.19,1.48c0,.18-.05.34-.07.51s0,.26,0,.4a.43.43,0,0,0,.54.21c0-.39.11-.77.16-1.15,0,.32,0,.62,0,.94,0,0,0,0,0,0,.07-.34.13-.66.19-1a1.89,1.89,0,0,0,.05-.23c0-.52,0-1,0-1.56C397.25,774.91,398.86,766.79,399.06,758.55Zm-3.12,21.16c-.25-5.5-.79-11-1.57-16.42-.62-4.39-1.45-8.74-2.38-13.07a45.47,45.47,0,0,1-1.17-7.42c-.08-1.91.19-9,3.83-4.6,2.63,3.18,3.27,9.95,3.59,13.85a71.61,71.61,0,0,1-.26,13C397.49,770,396.68,774.83,395.94,779.71Z" transform="translate(-120.99 -91.23)"/><path class="cls-2" d="M401.64,812.83h0l-.38,0c-9.39-.48-21.9.4-29.71-5.81-5.77-4.59-11.44-13.66-9.62-21.36,2.08-8.67,13.79,1.74,16.89,4.25,7.9,6.4,23,22.08,23,22.39a1.77,1.77,0,0,0,.12.17v0C402.05,812.7,401.85,812.78,401.64,812.83Z" transform="translate(-120.99 -91.23)"/><path class="cls-3" d="M402,812.56l-1.62-1c-6.18-3.89-12.2-8-18-12.49-1.46-1.11-12-10.52-13.63-7.16-1,2,2.53,6.18,3.65,7.58a28.89,28.89,0,0,0,7.13,6.37c6.26,3.9,13.85,4.74,20.94,6.62.33.06.67.16,1,.25l.18.12h0C401.85,812.78,402,812.7,402,812.56Zm-18.58-5.35a29.09,29.09,0,0,1-8.1-5.48c-1.58-1.5-7.14-7.12-5.66-9.43.78-1.22,1.44-.57,2.93.16a17.75,17.75,0,0,1,2,1.15c1.58,1,3,2.24,4.49,3.4,2.58,2.07,5.19,4.07,7.87,6q6.54,4.77,13.44,9C394.7,810.31,388.75,809.63,383.38,807.21Z" transform="translate(-120.99 -91.23)"/><path class="cls-2" d="M418.79,793.48a55.46,55.46,0,0,1-16.09,28.11.42.42,0,0,1-.66-.07.39.39,0,0,1,0-.54l.47-.48c1.56-12.77,3.27-25.46,4.59-38.27.31-3,2.67-22.22,8.57-19.1,3.64,1.94,3.89,9.81,4.2,13.34A55.87,55.87,0,0,1,418.79,793.48Z" transform="translate(-120.99 -91.23)"/><path class="cls-3" d="M415.38,776.36c-.31-1.06-.87-2.16-2.07-1.41-2.29,1.43-3.2,10.46-3.58,13-1.57,10.3-4,20.2-6.49,30.28l-.63,2.57-.57.76a.4.4,0,0,0,.48.17c0-.07.05-.17.08-.25.25-.33.52-.68.76-1v0a65.52,65.52,0,0,0,9.3-18.12,62,62,0,0,0,2.74-12.63C415.85,785.69,416.58,780.23,415.38,776.36ZM403.33,819.7c-.11.18-.24.34-.35.51.11-.35.22-.68.32-1a186.81,186.81,0,0,0,5.75-23.44c.68-4,1.11-8.09,1.94-12.08.35-1.69,1.18-6.52,2.58-7.3s1.37,1.1,1.51,2.18c.1.78.1,2.2.11,2.93A64.65,64.65,0,0,1,403.33,819.7Z" transform="translate(-120.99 -91.23)"/><path class="cls-2" d="M404.25,849.13h-1.87c0-1.66-.07-3.31-.12-5-.22-6.67-.49-13.35-.89-20-.22-3.8-.49-7.58-.89-11.32,0-.13,0-.25,0-.38-.05-.3-.08-.61-.11-.92s-.08-.66-.13-1c-1-8.41-2.8-16.62-6.45-24.52-1.19-2.6-2.5-5.13-3.87-7.64-.12-.24-.27-.48-.4-.72a.93.93,0,0,0-.11-.19c-.12-.26-.27-.5-.41-.75l-.32-.56c-4.35-7.64-9.31-14.95-14-22.31-1.35-2.1-2.7-4.21-4-6.33a3.21,3.21,0,0,1-.23-.38,4.76,4.76,0,0,1-.31-.47c-5.92-9.34-11.75-18.77-17.89-27.94-.24-.34.31-.64.54-.3,4.15,6.08,8.45,12.07,12.72,18.08l1.7,2.41c1.13,1.59,2.25,3.17,3.36,4.76,2.23,3.18,4.43,6.37,6.58,9.6,6.05,9.06,12.37,18.2,17.29,28,.37.73.72,1.46,1.07,2.21.22.46.44.92.63,1.39s.5,1.06.74,1.6c4.17,9.57,5.65,19.43,6.32,29.59.05.7.09,1.42.13,2.13,0,.32,0,.65.06,1,0,.17,0,.35,0,.52s0,.45,0,.69v0c0,.15,0,.33,0,.5,0,.61.05,1.21.08,1.84.27,6.67.44,13.34.59,20C404.1,844.86,404.18,847,404.25,849.13Z" transform="translate(-120.99 -91.23)"/><path class="cls-2" d="M348.19,728.27c-5.14-6.91-11.73-21.18-4.15-28.6a8.06,8.06,0,0,1,10.74-.79c4,2.89,5.8,8.37,7.1,12.9,3.47,12.09,5.77,24.42,10.11,36.28a12.83,12.83,0,0,1,.47,1.27c.09.25-.3.35-.39.11-.15-.39-.29-.77-.43-1.16C363.45,742.34,354.29,736.47,348.19,728.27Z" transform="translate(-120.99 -91.23)"/><path class="cls-3" d="M372.06,748.08c-.05-.06-.08-.14-.13-.2a86.63,86.63,0,0,1-4.81-9,172.93,172.93,0,0,1-7.39-19.81c-.82-2.59-4.52-15.3-9.06-10.24-1.91,2.14-1.64,5.91-1.33,8.52a31.86,31.86,0,0,0,4,11.91c4.07,7.34,10.41,12.9,17.07,17.84l.9.68.19.32c0,.06.08.14.13.21a.31.31,0,0,0,.11.09.29.29,0,0,0,.4-.17A.21.21,0,0,0,372.06,748.08Zm-2-1.4c-5.36-4.23-10.6-8.85-14.47-14.52a35.69,35.69,0,0,1-4.71-9.62,27.27,27.27,0,0,1-1-4.66,20.26,20.26,0,0,1-.21-3.57c.08-2.61,1.16-5.46,2.71-5.73,1.91-.35,2.54.76,3.8,3a19.46,19.46,0,0,1,1.13,2.29,62.47,62.47,0,0,1,2.14,6c1.06,3.36,2.15,6.71,3.36,10,.81,2.24,1.68,4.47,2.64,6.65a88.58,88.58,0,0,0,5.64,11Z" transform="translate(-120.99 -91.23)"/><path class="cls-2" d="M690.43,747.6c-.84,6.85-2.16,13.64-3.54,20.4-.78,3.84-1.61,7.66-2.39,11.51-.85,4.23-2.11,8.54-1,12.81h0a3.13,3.13,0,0,1,.05.59l-.05.07a.51.51,0,0,1-.89-.16c0-.1,0-.19-.07-.28l-.07-.09a16.56,16.56,0,0,1-1.48-3.55,89.08,89.08,0,0,1-3.4-9.91,85.54,85.54,0,0,1-3.34-21.14,72.69,72.69,0,0,1,2-19.05c1.23-5,3-12.4,6.67-16.21,3.37-3.44,6.17,2.08,7.14,4.87C692.29,733.81,691.24,741.11,690.43,747.6Z" transform="translate(-120.99 -91.23)"/><path class="cls-3" d="M684.3,733.05c-2.5,0-4.32,8.08-5.21,11.56A69.67,69.67,0,0,0,677,761.43a90,90,0,0,0,5.17,29.87c.13.38.26.78.4,1.16a.33.33,0,0,1,.06.1,1.73,1.73,0,0,1,.08.27.52.52,0,0,0,.9.16c-.16-.85-.29-1.68-.39-2.52S683,789,683,788.21c-.68-8.2.49-16.59,1.53-24.73C685.7,753.93,687.61,733.07,684.3,733.05Zm-1.8,56.77c.13,1.11.3,2.21.51,3.29-.26-.79-.51-1.59-.75-2.38a99.42,99.42,0,0,1-4.71-26.36,71.13,71.13,0,0,1,1.1-15.06,66.14,66.14,0,0,1,1.94-7.88c.35-1.08,2.16-7.83,3.71-7.5,1.08.24,1.34,6.32,1.35,6.45.07,1.21.07,2.43.05,3.66,0,2.52-.21,5-.41,7.53-.48,5.43-1.26,10.84-1.92,16.26C682.5,775,681.66,782.56,682.5,789.82Z" transform="translate(-120.99 -91.23)"/><path class="cls-2" d="M729.79,766.53c-4.59,9-12.31,15.8-20.3,21.68-4.28,3.14-8.7,6.09-13,9.13-3.64,2.54-8.05,5.24-11.27,8.67-.14.14-.29.3-.43.47a18.18,18.18,0,0,0-2.33,3.22.29.29,0,0,1-.22.14,3.12,3.12,0,0,1-.15.39.09.09,0,0,1-.17,0c0-.14,0-.3,0-.44v0a.28.28,0,0,1,0-.34.7.7,0,0,1,.08-.14,3.11,3.11,0,0,1,.06-.44c1.3-10.47,8.62-21,14.81-29.09s13.82-15.18,23.38-18.86c2.4-.93,7.86-3.47,10.3-1.52C732.76,761.1,730.77,764.63,729.79,766.53Z" transform="translate(-120.99 -91.23)"/><path class="cls-3" d="M722.7,766.57c-2.18-2.18-8.59,3.2-10.2,4.46a106.58,106.58,0,0,0-13.28,12.91c-6.79,7.53-12.84,15.37-17,24.54v0c-.08.09-.14.19-.22.28s0,.3-.07.45a1,1,0,0,0-.08.14.28.28,0,0,0,0,.35c.11-.13.2-.25.31-.36.8-1,1.64-2,2.5-2.89l.43-.46c6-6.45,13.06-11.88,19.86-17.53a99.11,99.11,0,0,0,13.22-12.85C719.25,774.42,724.53,768.4,722.7,766.57Zm-2,4.79c-5.42,9-14.79,15.54-22.76,22.09a109.16,109.16,0,0,0-15.11,14.34c4-8.1,9.75-15.39,15.69-22.06a134.49,134.49,0,0,1,10.78-11.1,55,55,0,0,1,6.54-5.24,21.68,21.68,0,0,1,4.43-2.39C723.31,766.11,721.62,769.82,720.7,771.36Z" transform="translate(-120.99 -91.23)"/><path class="cls-2" d="M681,831a.55.55,0,0,1-.46.27l.12.16a.16.16,0,0,1,0,.22.15.15,0,0,1-.23,0c-8.48-8.63-16.65-19.11-20.88-30.55a47.55,47.55,0,0,1-3-15.05c-.09-3.52-.28-10.61,2.73-13.18,6.07-5.15,11.59,16.73,12.41,20,1.51,6,2.5,12.13,3.88,18.17,1.52,6.62,3.52,13.1,5.51,19.58A.46.46,0,0,1,681,831Z" transform="translate(-120.99 -91.23)"/><path class="cls-3" d="M681,831c-.33-.56-.65-1.11-1-1.69a101.88,101.88,0,0,1-10.92-29.39c-1.1-5.11-2.07-10.43-4-15.3-.5-1.21-2-5.88-4-3.52-1,1.22-.18,10.06.23,12.34a65,65,0,0,0,4.92,15,106.53,106.53,0,0,0,13.9,22.58c.16.2.32.41.48.6a.14.14,0,0,0,0-.22c0-.05-.08-.1-.11-.16A.57.57,0,0,0,681,831Zm-12.3-18.8a75.06,75.06,0,0,1-5.83-14.59,55.1,55.1,0,0,1-1.28-6.13,33.49,33.49,0,0,1-.41-4.89c0-4,.35-5,1-5.17.41-.08,1,.35,2.17,2.74A26.83,26.83,0,0,1,666,789c.62,2.36,1.16,4.73,1.67,7.12,1,4.76,2,9.55,3.39,14.22a78.63,78.63,0,0,0,8.43,19.12A121.72,121.72,0,0,1,668.65,812.21Z" transform="translate(-120.99 -91.23)"/><path class="cls-2" d="M708.16,810c-.81,4.23-3.07,8.1-5.57,11.56-5,7-11.47,12.73-17,19.31-.82,1-1.62,2-2.39,3-.08.12-.72,1.57-.71,1.45s.1-.58.28-1.51h0c.88-4.61,3.77-18.51,7.38-25.62a61.42,61.42,0,0,1,8-12.57c1.56-1.77,5.22-5.58,8-4.75C709.17,801.8,708.59,807.83,708.16,810Z" transform="translate(-120.99 -91.23)"/><path class="cls-3" d="M703.68,807.22c-2.95-1.83-10.54,11.74-11.56,13.49a86.32,86.32,0,0,0-8.67,20.68c-.23.81-.44,1.63-.65,2.45s-.29,1.48-.29,1.52.64-1.33.72-1.45l.4-.53c.65-.84,1.32-1.67,2-2.47,3.3-4.93,6.69-9.82,9.89-14.84a79.7,79.7,0,0,0,6.13-11.27C702,813.91,705,808,703.68,807.22Zm-.85,3.82c-4.19,11.8-12.74,21.1-19.26,31.58-.12.17-.21.33-.32.51.09-.31.17-.62.27-.93A98.35,98.35,0,0,1,690.44,825a94.67,94.67,0,0,1,5.83-9.72,48.49,48.49,0,0,1,3.63-5c.61-.66,2.34-2.43,2.93-2.13C703.68,808.5,703.1,810.26,702.83,811Z" transform="translate(-120.99 -91.23)"/><path class="cls-2" d="M737.73,712.65C729,732.76,706,742.12,696.06,761.51l0,.1c-.31.59-.59,1.19-.87,1.8a.41.41,0,0,1-.67.1.29.29,0,0,1,0-.33c.06-.14.13-.29.2-.43,1.56-12.1,6.52-24.54,12.29-35.2,5-9.28,11.92-17.94,21.46-22.83,2.35-1.2,6.93-3.75,9.57-1.76S738.81,710.17,737.73,712.65Z" transform="translate(-120.99 -91.23)"/><path class="cls-3" d="M729.85,713.52c-1.11-.83-2.8.17-3.75.67a33.87,33.87,0,0,0-6.64,4.53,55.19,55.19,0,0,0-10.59,12.6,114.35,114.35,0,0,0-12.49,25.3q-1,3-1.73,6.13c-.07.25-.11.51-.18.76a.42.42,0,0,0,.67-.09c.26-.61.54-1.16.83-1.75l.08-.16A66.77,66.77,0,0,1,702.29,750c3.84-5.59,8.6-10.51,13.11-15.54C717.18,732.53,733.71,716.33,729.85,713.52Zm-1.4,4.65c-2.66,4.72-6.78,8.58-10.38,12.59s-7.31,8.07-10.88,12.18a76.65,76.65,0,0,0-7.65,10.46,59.72,59.72,0,0,0-4.8,9.68A83.36,83.36,0,0,1,698.17,753a.2.2,0,0,1,.06-.11A149.21,149.21,0,0,1,706.72,736c0-.06.08-.14.11-.21a69,69,0,0,1,9.68-13.52,40.16,40.16,0,0,1,6.89-5.86c2.89-1.86,5.4-3.07,6.12-2.15C730,714.9,729.25,716.78,728.45,718.17Z" transform="translate(-120.99 -91.23)"/><path class="cls-2" d="M707.16,736.22c-2.62,5.67-5.14,11.42-7.62,17.18-1.18,2.71-2.34,5.42-3.49,8.11l-.08.16c-.41,1-.84,2-1.26,2.93-3.79,8.82-8,17.85-10.27,27.19a82.45,82.45,0,0,0-2.1,15.11c0,.53-.05,1.05-.08,1.58v0c0,.28,0,.57,0,.86s0,.31,0,.47c-.16,4.41-.1,8.84,0,13.14.11,6,.62,12,1.2,17.9a3,3,0,0,0,0,.52c0,.27,0,.54.07.81s0,.27.05.42,0,.51.06.76c.19,1.91.37,3.82.52,5.75h-1.83a118.73,118.73,0,0,1-2.21-17.71,2.11,2.11,0,0,1,0-.36c0-.58-.08-1.16-.09-1.74s-.08-1.42-.1-2.13c-.06-1.72-.11-3.43-.14-5.11-.17-9.81-.06-20,2.1-29.65.07-.27.13-.53.19-.8,0-.11.05-.22.08-.33s.08-.38.13-.57l.24-.91c.14-.54.3-1.08.46-1.61,0-.16.1-.32.14-.48,2.52-8.39,6.5-16.53,10.11-24.41.67-1.45,1.34-2.88,2-4.31l1.14-2.39c.59-1.2,1.2-2.41,1.79-3.6a.2.2,0,0,1,.06-.11c2.8-5.65,5.72-11.24,8.49-16.91C706.84,735.74,707.29,736,707.16,736.22Z" transform="translate(-120.99 -91.23)"/><path class="cls-2" d="M358.66,848.58H230.14s.3-19.13,12.93-24.2a17.22,17.22,0,0,1,20.15,4.82S268.37,794,291.91,794s34.82,30.35,34.82,30.35,5.27-9.18,18.34-7.47S358.66,848.58,358.66,848.58Z" transform="translate(-120.99 -91.23)"/><path class="cls-2" d="M945.34,848.58s-4-18.38-11.81-21.21-12.66,5.41-12.66,5.41-1.85-17.56-13-22.82-19.53,5.51-19.53,5.51-8.56-22.29-23.86-22.29-23,32.61-23,32.61-9-9.72-18.28-4.23-9.25,27-9.25,27Z" transform="translate(-120.99 -91.23)"/><path class="cls-4" d="M253.17,848.58H134.66s3.91-16.71,11.77-17.89,11.51,6.57,11.51,6.57S157.58,814,172.26,810s27,16.62,27,16.62,9.2-11.74,21.74-11,15.72,20.15,15.72,20.15S248.13,829,253.17,848.58Z" transform="translate(-120.99 -91.23)"/><path class="cls-4" d="M822.43,848.58H749.61s.17-10.84,7.33-13.71a9.74,9.74,0,0,1,11.41,2.73s2.92-19.92,16.26-19.92,19.72,17.19,19.72,17.19,3-5.2,10.4-4.23S822.43,848.58,822.43,848.58Z" transform="translate(-120.99 -91.23)"/><path class="cls-5" d="M411,324.82c0,19.64,0,113.46,88.25,128.76,0,0,1.45,9.9,4.24,25.38,3.38,18.79,8.75,45.8,15.87,73.26a.59.59,0,0,0,0,.2c2.47,9.45,5.13,18.94,8,28.18a.86.86,0,0,0,0,.21c.28.88.54,1.74.83,2.6a481.35,481.35,0,0,1,13.74,53.67c27.12,140.32-30.67,212-30.67,212H632.85S663,717.81,599.06,586.06c-11.81-24.39,35.17-44.21,55.73-89.58,17.42-38.43,16.93-227.52,8.46-239.7s-21.94-9.16-21.94,7.61,0,173.8-11.84,204.28-62.33,67.09-62.33,67.09-25.95-42.48-40.49-135.5v0c-6.82-43.73-11.13-98.6-9-165.51,0,0,0,0,0,0q.66-21.21,2.23-44.06c1.21-17.46-16.92-9.81-23,5.47s-14.52,103.64-2.42,222.58c0,0-60.47-8.52-60.47-103.67C434,297.53,411,305.17,411,324.82Z" transform="translate(-120.99 -91.23)"/><path class="cls-6" d="M411,324.82c0,19.64,0,113.46,88.25,128.76,0,0,1.45,9.9,4.24,25.38,3.38,18.79,8.75,45.8,15.87,73.26a.59.59,0,0,0,0,.2c2.47,9.45,5.13,18.94,8,28.18a.86.86,0,0,0,0,.21c.28.88.54,1.74.83,2.6a481.35,481.35,0,0,1,13.74,53.67c27.12,140.32-30.67,212-30.67,212H632.85S663,717.81,599.06,586.06c-11.81-24.39,35.17-44.21,55.73-89.58,17.42-38.43,16.93-227.52,8.46-239.7s-21.94-9.16-21.94,7.61,0,173.8-11.84,204.28-62.33,67.09-62.33,67.09-25.95-42.48-40.49-135.5v0c-6.82-43.73-11.13-98.6-9-165.51,0,0,0,0,0,0q.66-21.21,2.23-44.06c1.21-17.46-16.92-9.81-23,5.47s-14.52,103.64-2.42,222.58c0,0-60.47-8.52-60.47-103.67C434,297.53,411,305.17,411,324.82Z" transform="translate(-120.99 -91.23)"/><g class="cls-7"><path class="cls-2" d="M572.62,584.78c7,23.76,16.51,46.91,23.43,70.73a484.33,484.33,0,0,1,15.63,73.18,375.67,375.67,0,0,1,2.38,71.81c-1.06,16.43-4.83,32.48-7.68,48.63h11.06c13.13-37.61,11.36-80,4.61-118-4.46-25-11.5-49.21-19.46-73.45-8.12-24.67-15.93-49.86-26.29-73.84C575.41,581.85,572,582.59,572.62,584.78Z" transform="translate(-120.99 -91.23)"/><path class="cls-2" d="M523.75,443c4.86,50.13,27,98.82,43,146.68,16.21,48.81,22.14,98.6,19.09,149.47-.07,1.2-2.06,1.22-2.08,0-.5-27.38-1-55-6.61-82-5.1-24.39-13.16-48.33-21.26-72-8-23.24-16.77-46.31-23.32-69.92A324.71,324.71,0,0,1,521.42,443C521.35,441.68,523.62,441.71,523.75,443Z" transform="translate(-120.99 -91.23)"/><path class="cls-2" d="M524,849.13h12.22c3.4-6.86,6.45-13.81,9.35-20.53a292.51,292.51,0,0,0,19.11-62.06c7.9-41.83,6.08-83.31-3.39-124.78-.29-1.17-2.17-.64-2,.49,7.2,41.17,5.06,84.55-4.44,125.27a348.8,348.8,0,0,1-19.22,58.62A254.23,254.23,0,0,1,524,849.13Z" transform="translate(-120.99 -91.23)"/><path class="cls-2" d="M569.49,795c2.8-9.22,4.51-20.57,9.26-29.15a10.86,10.86,0,0,1,8.68-5.85,2,2,0,0,1,.85-.11,10.08,10.08,0,0,1,1.26.16,12.33,12.33,0,0,1,2.29.52c1.49.51,3.18,1.53,3.44,3.11a2.4,2.4,0,0,1,0,.24c5.4,7.7,3.4,24.16,2.65,30.2-1.16,9.43-4,34.17-20.4,32C561.63,824,566.77,804,569.49,795Z" transform="translate(-120.99 -91.23)"/><path class="cls-2" d="M503.53,479c3.38,18.79,8.75,45.8,15.87,73.26a.59.59,0,0,0,0,.2q1.37,4.68,2.77,9.37c1.88,6.27,3.66,12.54,5.24,18.81a.86.86,0,0,0,0,.21c.28.88.54,1.74.83,2.6a481.35,481.35,0,0,1,13.74,53.67c2.79-23.56-1.71-47-8.64-70.41C524.66,537,514.79,507.87,503.53,479Z" transform="translate(-120.99 -91.23)"/><path class="cls-2" d="M651.91,418.36a10,10,0,0,1,1.17-5c.62-1.26,2.52-1.88,3.91-1.69a3.94,3.94,0,0,1,3.27,2.54c.07.17.11.34.17.51a2.79,2.79,0,0,1,.55,1.15,8,8,0,0,1,.09,2.28c1.11,1.8.18,4.25-1.42,5.8-1.95,1.89-5.09,1.15-6.56-.77A6.2,6.2,0,0,1,651.91,418.36Z" transform="translate(-120.99 -91.23)"/><path class="cls-2" d="M583.14,541.13c28.61-30.56,62.29-66.41,62.18-108.75,0-1.06,1.64-1,1.78,0,6.5,46.52-26.5,81-61.52,111C583.94,544.73,581.72,542.64,583.14,541.13Z" transform="translate(-120.99 -91.23)"/><path class="cls-2" d="M587.51,561.62c1.41-7.61,8-14.13,13.57-19.69,7.49-7.49,15.63-14.33,22-22.68.84-1.11,2.75-.14,2,1.06-4.62,7.56-10.5,14.17-16.63,20.76-6.5,7-11.79,15.12-18.62,21.78A1.4,1.4,0,0,1,587.51,561.62Z" transform="translate(-120.99 -91.23)"/><path class="cls-2" d="M658.29,283.82c0-.85,1.3-.79,1.42,0,5.49,37.16,6.39,76.85-1.19,113.88-.24,1.19-2.29.89-2.29-.28C656.24,359.6,658.25,321.68,658.29,283.82Z" transform="translate(-120.99 -91.23)"/><path class="cls-2" d="M649.33,341.34c0-.29.5-.3.51,0,.21,24.54.23,51.11-5.79,75.14-.36,1.42-2.8,1.1-2.79-.34C641.46,391.4,646.33,365.93,649.33,341.34Z" transform="translate(-120.99 -91.23)"/><path class="cls-2" d="M432,380.22c6.25,16.29,13.07,30.92,27.62,42.72a107.67,107.67,0,0,0,21.95,13.88c7.63,3.58,16.18,5.21,23.66,8.95,1.11.56.47,1.85-.59,2-17.89,1.92-38.32-11.18-49.94-22.31-12.58-12.06-23.85-28-25.09-44.92C429.52,379.22,431.58,379.11,432,380.22Z" transform="translate(-120.99 -91.23)"/><path class="cls-2" d="M429.35,343.41c3.61,30.37,21.46,56,44.75,77.31.65.59-.2,1.67-1,1.19-29-17.39-43.25-48-44.3-78.5C428.78,343.08,429.31,343.09,429.35,343.41Z" transform="translate(-120.99 -91.23)"/><path class="cls-2" d="M497.88,276.91c.11-1.12,2-1.16,2,0-1.35,67.52,13.2,133.87,18.88,201,.09,1.12-2,1.39-2.19.27-6.56-32.92-11.62-66.32-15.7-99.57C496.69,344.77,494.43,310.83,497.88,276.91Z" transform="translate(-120.99 -91.23)"/><path class="cls-2" d="M507,316.15c1.95,27.79,8.35,57.35,19.61,84.07-6.82-43.73-11.13-98.6-9-165.51A232,232,0,0,0,510,263.2,209.43,209.43,0,0,0,507,316.15Z" transform="translate(-120.99 -91.23)"/><path class="cls-2" d="M498.67,239.62c1-6,3.85-11.52,5.12-17.48.27-1.25,2.61-1.29,2.84,0,.92,5.19-.88,9.54-2.38,14.55-2.09,7-2.52,14.21-3.52,21.39a1.21,1.21,0,0,1-2.39,0A72.21,72.21,0,0,1,498.67,239.62Z" transform="translate(-120.99 -91.23)"/><path class="cls-2" d="M579.09,568.45c16.81,26.09,27.19,54.25,33.54,83.75.25,1.18-1.58,1.65-2,.5-10.44-28.05-22.34-55.69-33.34-83.56C576.9,568.17,578.53,567.59,579.09,568.45Z" transform="translate(-120.99 -91.23)"/><path class="cls-2" d="M548.92,592c5.42,10.07,11.51,24.88,9.06,36.21a.33.33,0,0,1-.56.07c-2.93-5-3.7-10.92-5.16-16.42-1.7-6.38-3.88-12.64-5.56-19A1.22,1.22,0,0,1,548.92,592Z" transform="translate(-120.99 -91.23)"/><path class="cls-2" d="M586.07,845.05c8.13-10.17,12.5-20.87,14.9-33.19,2.8-14.42,5.84-29.91,2.93-44.48-2.39-11.94-7-23.24-8.76-35.34a168.59,168.59,0,0,1-.57-43.4c.11-.92,1.66-1,1.63,0a166.27,166.27,0,0,0,5.34,49.9c3.66,13.51,9.55,26.56,9.47,40.65-.12,21.5-3.74,52.26-22.79,67.36C587.13,847.42,585.11,846.26,586.07,845.05Z" transform="translate(-120.99 -91.23)"/><path class="cls-2" d="M560.28,849.13h7.21a25.3,25.3,0,0,0-1-10.78c-2.4-8.38-7.18-17.62-5.75-26.46.08-.49-.72-.92-1-.37C553.85,823.94,558.64,836.49,560.28,849.13Z" transform="translate(-120.99 -91.23)"/><path class="cls-2" d="M562.16,803.91a0,0,0,0,1,.05,0,5.61,5.61,0,0,0-.9,3.49s0,0-.06,0A5.71,5.71,0,0,1,562.16,803.91Z" transform="translate(-120.99 -91.23)"/></g><circle class="cls-2" cx="814" cy="539.53" r="46.18" transform="translate(-282.92 412.87) rotate(-31.46)"/><path class="cls-3" d="M836.46,527.05c-1.12-11.23-8.86-22.42-22.47-22.42s-21.33,11.19-22.45,22.42c-1.72,17.34,10,33.05,22.45,47.38C826.48,560.1,838.18,544.39,836.46,527.05ZM814,539.52a12.3,12.3,0,1,1,12.32-12.3A12.3,12.3,0,0,1,814,539.52Z" transform="translate(-120.99 -91.23)"/><circle class="cls-2" cx="534.15" cy="188.68" r="97.45" transform="translate(-97.96 341.73) rotate(-45)"/><path class="cls-3" d="M531.79,161.68c-.22,6.2-.08,12.47-.08,19.19h24.21c-1,8-1.92,15.35-3.1,22.65-.07.74-1.92,1.63-3,1.7-5.83.15-11.66.08-18,.08V286a95.17,95.17,0,0,1-25.68-4V205.44H485V181.09h20.74c.08-1.85.23-3.32.23-4.73.14-6.42-.08-12.84.51-19.19,1.33-13.95,9.89-23.76,23.69-25.68,8.57-1.18,17.5-.22,26.5-.22v22.14c-3.17,0-6.42-.07-9.59,0-2.81.07-5.76-.07-8.49.59C534.67,154.89,531.94,157.54,531.79,161.68Z" transform="translate(-120.99 -91.23)"/><circle class="cls-2" cx="356.56" cy="454.76" r="97.45" transform="translate(-338.12 294.08) rotate(-45)"/><path class="cls-3" d="M303.35,500.49c13,.25,24.6-2.9,35.1-10.82-14.52-4.41-20.31-8.84-22.42-17.1l9.74-.48c-11.46-4.4-18.19-12.1-19.08-24.68l10,2.66c-10.52-13.23-12.64-23.5-6.36-33.07,13.59,15.51,30.5,24.32,51.5,25.75-.1-1.64-.19-2.87-.24-4.11-.41-10.84,4.14-19,13.8-23.81s19-3.49,27.36,3.3c1.86,1.51,3.42,1.92,5.52,1.13,3.92-1.47,7.85-2.89,12.16-4.46a24.9,24.9,0,0,1-9.56,12.25c.09.24.19.48.28.71l12-3.09.48.48c-3.11,3.13-6.09,6.41-9.39,9.34a6.44,6.44,0,0,0-2.61,5.37,70.46,70.46,0,0,1-64.13,70.62,71.48,71.48,0,0,1-41.82-8.54C304.93,501.49,304.15,501,303.35,500.49Z" transform="translate(-120.99 -91.23)"/><circle class="cls-2" cx="559.61" cy="558.02" r="68.34" transform="translate(-184.64 952.68) rotate(-82.86)"/><g id="_2dqxSk.tif" data-name="2dqxSk.tif"><path class="cls-3" d="M532.83,522.19a1.4,1.4,0,0,0,.29.09,8.53,8.53,0,0,1,7.83,7.23,8.44,8.44,0,0,1-2.89,7.94,8.29,8.29,0,0,1-4.08,1.94,8.65,8.65,0,0,1-2.38.11,8.55,8.55,0,0,1-7.45-6.12,7.91,7.91,0,0,1-.32-1.8c0-.12,0-.26-.14-.31v-.75c.15-.06.13-.19.14-.31s0-.5.08-.74a8.46,8.46,0,0,1,7.88-7.19,1.4,1.4,0,0,0,.29-.09Z" transform="translate(-120.99 -91.23)"/><path class="cls-3" d="M563.55,552.32a3.15,3.15,0,0,0,.22-.29,17.65,17.65,0,0,1,2.51-2.95,15.64,15.64,0,0,1,7-3.73,22,22,0,0,1,3.87-.53,19.36,19.36,0,0,1,2.64,0,19.64,19.64,0,0,1,7.34,1.82,12.76,12.76,0,0,1,5.5,5.24,19.43,19.43,0,0,1,1.82,4.6,25.46,25.46,0,0,1,.67,3.35c.07.56.11,1.13.14,1.7.07,1,.12,2.11.18,3.16v.09c0,1,.07,2,.08,3,0,3.36,0,6.73,0,10.1q0,7.62,0,15.26c0,.57,0,.59-.6.59h-12.5c-.32,0-.64,0-1,.05h-.15c-.72,0-.73-.21-.73-.74q0-6.33,0-12.65t0-12.56a15.83,15.83,0,0,0-.61-4.69,9.1,9.1,0,0,0-1.15-2.54,6,6,0,0,0-3.79-2.51,8.15,8.15,0,0,0-1.78-.19c-.64,0-1.29,0-1.92.08a7.09,7.09,0,0,0-6.06,4.37,13.31,13.31,0,0,0-1,3.56,28.8,28.8,0,0,0-.24,3.93v23a4.51,4.51,0,0,1,0,.52.33.33,0,0,1-.35.35H551.33l-1.36.05h-.19c-.6-.06-.65-.21-.64-.66V546.49c0-.34.14-.46.48-.48H563c.33,0,.45.13.45.46,0,.58,0,1.16,0,1.74,0,.85,0,1.7,0,2.55,0,.4,0,.81,0,1.21,0,.11,0,.22,0,.33Z" transform="translate(-120.99 -91.23)"/><path class="cls-3" d="M525,569.88q0-11.6,0-23.19c0-.14,0-.27,0-.4a.29.29,0,0,1,.29-.27h14c.52,0,.66.13.66.67V593a2.74,2.74,0,0,1,0,.5.36.36,0,0,1-.35.33l-1,0-.4,0H526.7c-.3,0-.6,0-.9.05h-.18c-.51-.05-.66-.11-.66-.68V569.88Z" transform="translate(-120.99 -91.23)"/></g><circle class="cls-8" cx="757.18" cy="400.34" r="97.36" transform="translate(74.12 955.38) rotate(-76.85)"/><path class="cls-3" d="M815.23,368.26c-.06-15.8-9.93-26-25.59-26.16q-32.52-.33-65,0c-15.32.16-25.26,10.31-25.49,25.61-.15,10.81,0,21.64,0,32.46,0,10.58-.06,21.18,0,31.76.13,16.15,10,26.48,26,26.64q32.16.36,64.33,0c15.68-.17,25.72-10.49,25.8-26.1Q815.4,400.39,815.23,368.26Zm-10.36,64.4c-.11,10-5.49,15.52-15.49,15.59q-32.16.19-64.32,0c-10-.06-15.48-5.57-15.53-15.52q-.15-32.44,0-64.88c0-9.91,5.58-15.6,15.47-15.67q32.16-.23,64.32,0c9.92.07,15.44,5.73,15.55,15.61.12,10.82,0,21.63,0,32.44S805,421.85,804.87,432.66Z" transform="translate(-120.99 -91.23)"/><path class="cls-3" d="M757.25,369.86a30.35,30.35,0,1,0,30.15,30.79A30.3,30.3,0,0,0,757.25,369.86Zm-.38,50.55a20.48,20.48,0,0,1-19.9-20,20.23,20.23,0,0,1,40.45,0A20.49,20.49,0,0,1,756.87,420.41Z" transform="translate(-120.99 -91.23)"/><path class="cls-3" d="M796.61,369.14c-.32,4.26-3.05,6.48-7.23,6.28-4.6-.22-6.94-3-6.6-7.56.31-4.24,3.07-6.21,7.31-6.45C794.41,362.14,797,364.59,796.61,369.14Z" transform="translate(-120.99 -91.23)"/><circle class="cls-9" cx="696.57" cy="560.71" r="65.83" transform="translate(-131.97 1016.27) rotate(-76.53)"/><polygon class="cls-3" points="551.03 494.75 551.03 444.2 611.3 469.47 551.03 494.75"/><circle class="cls-2" cx="441.35" cy="576.41" r="46.69" transform="translate(-305.9 117.97) rotate(-22.17)"/><path class="cls-3" d="M467.38,582.36c-7.71,15.54-26,24.76-26,24.76s-18.33-9.22-26-24.76c-6.41-13-2.35-27,7.78-30,14.52-4.39,18.24,20.89,18.24,20.89s3.73-25.28,18.26-20.89C469.73,555.39,473.79,569.4,467.38,582.36Z" transform="translate(-120.99 -91.23)"/><circle class="cls-2" cx="703.79" cy="225.26" r="68.34" transform="translate(-74.14 472.4) rotate(-45)"/><path class="cls-3" d="M707.85,215.86c5.43-5.46,11.8-5.7,18.33-3.36,5,1.79,7,6.28,7.8,11.2a57,57,0,0,1,.68,8.25c.1,5.88,0,11.76,0,17.65,0,2.63-.75,3.37-3.41,3.4-2.37,0-4.73,0-7.1,0s-3.18-.79-3.18-3.24c0-6.34,0-12.69,0-19a15.16,15.16,0,0,0-.7-4.05,5.33,5.33,0,0,0-4.91-4c-2.47-.26-4.75.49-5.9,2.76a14.68,14.68,0,0,0-1.68,5.86c-.22,6-.08,12-.09,18,0,3-.68,3.68-3.64,3.7-2.25,0-4.5,0-6.75,0s-3-.83-3-3.09q0-17.55,0-35.12c0-2.2.8-3,3-3.06,1.9,0,3.8,0,5.71,0C707.11,211.71,707.27,211.85,707.85,215.86Z" transform="translate(-120.99 -91.23)"/><path class="cls-3" d="M689,232.4q0,8.64,0,17.28c0,2.44-.72,3.23-3.15,3.3s-4.72.07-7.08,0-3.12-.9-3.13-3.19q0-17.46,0-34.91c0-2.21,1-3.12,3.18-3.16s4.73,0,7.09,0,3.09,1,3.09,3.22Q689,223.67,689,232.4Z" transform="translate(-120.99 -91.23)"/><path class="cls-3" d="M690.79,200.34a8.41,8.41,0,0,1-8.59,8.45,8.52,8.52,0,0,1-8.32-8.75,8.46,8.46,0,0,1,16.91.3Z" transform="translate(-120.99 -91.23)"/><circle class="cls-2" cx="554.01" cy="387.02" r="97.45" transform="translate(-232.39 413.87) rotate(-45)"/><path class="cls-3" d="M491.85,449.21c2.7-9.71,5.09-18.74,7.76-27.69a10,10,0,0,0-.75-8c-18.8-37.91,6.15-83.72,48.29-88.87,38.74-4.73,71.51,24.48,70.69,63-.68,31.58-27.48,58.8-59.18,60.22a66.93,66.93,0,0,1-31-5.86,10,10,0,0,0-5.95-.45C512,443.89,502.37,446.49,491.85,449.21ZM507,434.5c6.17-1.59,11.39-3.11,16.69-4.21a8.92,8.92,0,0,1,5.51.71,55.59,55.59,0,0,0,25.2,6.56c32.18.57,58.1-29.32,52-60.67-4.23-21.68-17.56-35.9-39.08-40.83-22.07-5.05-40.85,2.06-54.21,20.3-13.05,17.83-13.4,37-2.73,56.48a9.64,9.64,0,0,1,.78,6.11C510.11,424,508.54,428.87,507,434.5Z" transform="translate(-120.99 -91.23)"/><path class="cls-3" d="M527.68,361c4.25-5.73,10-4.6,12.92,1.72,1.16,2.47,1.44,3.3,2.58,6.12,1.72,4.25,1.34,7.11-1.73,9.86-2.23,2-2,3.76-.48,6a43.9,43.9,0,0,0,19,16c2.4,1.06,4,.82,5.74-1.28,5.49-6.56,5.57-6.49,13.32-2.84l2.67,1.27c6,2.86,6.85,8.21,2,12.93s-10.94,5.91-17.49,4.25c-16.72-4.24-28.69-14.77-37.94-28.84-2.82-4.28-4.93-8.83-4.76-14.14A21,21,0,0,1,527.68,361Z" transform="translate(-120.99 -91.23)"/><circle class="cls-2" cx="259.11" cy="336.89" r="46.18" transform="translate(-228.99 31.5) rotate(-22.18)"/><g id="xsrjP0"><path class="cls-10" d="M252.1,357.38c-1.38-.86-2.58-2.11-4.42-1.93-.71.07-.56-.51-.56-.9q-.06-10.4-.09-20.78c0-.5,0-.92.58-1.2,5.28-2.68,7.56-7.94,10.79-12.44a20.69,20.69,0,0,0,3.78-15.73c-.22-1.56.5-2.26,1.91-2.59,1.69-.39,3.37.08,4,1.23a28,28,0,0,1,3.06,9.07c.31,2.63-.62,5.19-.94,7.79-.24,1.91-.67,3.79-1,5.72.47.33,1,.16,1.5.16l17.56,0c2.47,0,3.68.69,4,2.33a4.69,4.69,0,0,1-2.53,5.08c-.44.23-1.23,0-1.28.71s.76.63,1.17.91c2.12,1.45,1.74,4.44-.71,6.19-.59.41-1.73.22-1.76,1.09,0,.69,1.06.68,1.55,1.16,1.71,1.69.87,4.85-1.68,6.13a7.09,7.09,0,0,0-1,.4c-.29.2-.57.41,0,.81,2.55,1.8,2.5,4.33-.05,6.17l-.76.55a4.91,4.91,0,0,1-3.08.69q-13.77.07-27.53.1A3.3,3.3,0,0,1,252.1,357.38Z" transform="translate(-120.99 -91.23)"/><path class="cls-10" d="M226,345.25c0-4.4,0-8.81-.06-13.21,0-.89.08-1.33,1.18-1.32q8.05.06,16.1-.05c1.06,0,1.22.34,1.22,1.28q0,13.29.09,26.58c0,1.12-.29,1.44-1.42,1.43-5.21,0-10.42,0-15.63.06-1.29,0-1.47-.43-1.46-1.56C226,354.06,226,349.65,226,345.25Z" transform="translate(-120.99 -91.23)"/></g><circle class="cls-11" cx="357.73" cy="408.6" r="23.13"/><g id="K0pxJE"><path class="cls-3" d="M478.34,483.76a9.46,9.46,0,0,1,6,1.7,8.33,8.33,0,0,1,3.08,4.27,7.38,7.38,0,0,1,.29,1.88,24.29,24.29,0,0,1,0,2.83c0,.78-.09,1.56-.14,2.34,0,.33,0,.37.31.5a1.93,1.93,0,0,0,1.38,0,5.2,5.2,0,0,0,.69-.27,1.59,1.59,0,0,1,1.74.36.77.77,0,0,1,0,1.08,3.23,3.23,0,0,1-1.33.82c-.4.16-.81.26-1.2.43a3,3,0,0,0-.68.38,1.5,1.5,0,0,0-.57,1.76,9,9,0,0,0,1.14,2.22,10.73,10.73,0,0,0,3.28,3.29,8,8,0,0,0,2.8,1.09.38.38,0,0,1,.31.58,1.49,1.49,0,0,1-.65.64,8,8,0,0,1-2.18.75l-1.26.24a.51.51,0,0,0-.46.37c-.16.45-.22.91-.34,1.37s-.26.56-.75.51-1.19-.21-1.79-.26a5.61,5.61,0,0,0-4.09,1.12,18.86,18.86,0,0,1-1.9,1.31,6.44,6.44,0,0,1-3.49.83,6.6,6.6,0,0,1-3.71-1.29c-.63-.43-1.24-.91-1.9-1.31a4.74,4.74,0,0,0-2.11-.65,9.77,9.77,0,0,0-2.9.25h0c-.68.09-.76,0-.9-.55-.1-.39-.19-.79-.28-1.18a.61.61,0,0,0-.58-.53,11.15,11.15,0,0,1-3.16-.87,3.06,3.06,0,0,1-.52-.33A1,1,0,0,1,462,509a.36.36,0,0,1,.3-.51,7.78,7.78,0,0,0,2.15-.72,9.88,9.88,0,0,0,3.35-2.81,12.62,12.62,0,0,0,1.61-2.69,2.49,2.49,0,0,0,.21-.72,1.55,1.55,0,0,0-.74-1.51,4.73,4.73,0,0,0-1.27-.58,4.83,4.83,0,0,1-1.52-.72,1.55,1.55,0,0,1-.33-.3.77.77,0,0,1,.13-1.15,1.36,1.36,0,0,1,1.56-.2,3.06,3.06,0,0,0,1.48.36,1.65,1.65,0,0,0,.83-.23.27.27,0,0,0,.13-.25q-.1-1.6-.18-3.21a17.67,17.67,0,0,1,.05-2.41,6.79,6.79,0,0,1,.34-1.84,8.47,8.47,0,0,1,5.18-5.16A9.19,9.19,0,0,1,478.34,483.76Z" transform="translate(-120.99 -91.23)"/></g><circle class="cls-2" cx="533.16" cy="217.56" r="23.13"/><circle class="cls-3" cx="533.16" cy="208.82" r="7.7"/><path class="cls-3" d="M667.47,321.28v2.82H640.83v-2.82a13.32,13.32,0,0,1,26.64,0Z" transform="translate(-120.99 -91.23)"/><path class="cls-12" d="M307,285.77A71.46,71.46,0,0,0,426.45,331l35.75,5.24-17.89-30.91A71.48,71.48,0,1,0,307,285.77Z" transform="translate(-120.99 -91.23)"/><path class="cls-13" d="M328.43,226.74a71.33,71.33,0,0,1,59.88-19.88,72.06,72.06,0,0,1,30.5,11.44,73.14,73.14,0,0,1,22.39,23.84c11.11,19,13.06,43.3,4.4,63.7l-.08-1.22,17.78,31,1.31,2.29-2.59-.4L426.3,332l.84-.26a72.09,72.09,0,0,1-35.36,17.46,61.89,61.89,0,0,1-9.89,1A70.06,70.06,0,0,1,372,350a71.47,71.47,0,0,1-19.24-4.59,70.2,70.2,0,0,1-17.24-9.6,80.45,80.45,0,0,1-7.54-6.38,79.06,79.06,0,0,1-6.48-7.46A72,72,0,0,1,307,285.77C304.71,264.25,312.64,241.74,328.43,226.74Z" transform="translate(-120.99 -91.23)"/><path class="cls-2" d="M338.28,280.5a8.65,8.65,0,1,0,8.65-8.65A8.65,8.65,0,0,0,338.28,280.5Z" transform="translate(-120.99 -91.23)"/><path class="cls-2" d="M369.29,280.5a8.65,8.65,0,1,0,8.65-8.65A8.65,8.65,0,0,0,369.29,280.5Z" transform="translate(-120.99 -91.23)"/><path class="cls-2" d="M400.29,280.5a8.65,8.65,0,1,0,8.65-8.65A8.65,8.65,0,0,0,400.29,280.5Z" transform="translate(-120.99 -91.23)"/><path class="cls-2" d="M866.82,262A45.93,45.93,0,0,1,790.06,291l-23,3.37,11.5-19.87a45.48,45.48,0,0,1-3.15-22.12A45.94,45.94,0,0,1,866.82,262Z" transform="translate(-120.99 -91.23)"/><path class="cls-2" d="M866.82,262a46.23,46.23,0,0,1-9.28,23.29,49.74,49.74,0,0,1-4.16,4.79,52.67,52.67,0,0,1-4.85,4.11,45.06,45.06,0,0,1-11.08,6.17,46.05,46.05,0,0,1-12.37,2.95,45.28,45.28,0,0,1-6.38.12,41.19,41.19,0,0,1-6.36-.66,46.36,46.36,0,0,1-22.73-11.22l.55.16-23,3.53-1.67.25.84-1.46,11.44-19.91-.06.78a46.45,46.45,0,0,1,2.83-40.94A47,47,0,0,1,795,218.61a46.72,46.72,0,0,1,40.38-5.44A47.08,47.08,0,0,1,853.07,224,46.24,46.24,0,0,1,866.82,262Z" transform="translate(-120.99 -91.23)"/><path class="cls-3" d="M846.73,258.59a5.56,5.56,0,1,1-5.56-5.56A5.56,5.56,0,0,1,846.73,258.59Z" transform="translate(-120.99 -91.23)"/><path class="cls-3" d="M826.8,258.59a5.56,5.56,0,1,1-5.56-5.56A5.56,5.56,0,0,1,826.8,258.59Z" transform="translate(-120.99 -91.23)"/><path class="cls-3" d="M806.87,258.59a5.56,5.56,0,1,1-5.56-5.56A5.56,5.56,0,0,1,806.87,258.59Z" transform="translate(-120.99 -91.23)"/><circle class="cls-14" cx="271.29" cy="63.06" r="46.18"/><g class="cls-15"><path d="M413.65,141.54a9.37,9.37,0,1,1-9.37-9.37A9.37,9.37,0,0,1,413.65,141.54Z" transform="translate(-120.99 -91.23)"/><path d="M420.47,167.35v3.42H388.08v-3.42a16.2,16.2,0,0,1,32.39,0Z" transform="translate(-120.99 -91.23)"/></g><path class="cls-3" d="M389.66,147.18a9.36,9.36,0,1,1-9.36-9.36A9.36,9.36,0,0,1,389.66,147.18Z" transform="translate(-120.99 -91.23)"/><path class="cls-3" d="M396.48,173v3.42H364.09V173a16.2,16.2,0,0,1,32.39,0Z" transform="translate(-120.99 -91.23)"/><circle class="cls-2" cx="634.73" cy="479.03" r="23.13" transform="translate(-98.89 894.78) rotate(-76.65)"/><path class="cls-3" d="M625.8,486.77h-1.88a2.11,2.11,0,0,1-2.13-2.13,2.14,2.14,0,0,1,2.13-2.13h2.62l1.23-7.13h-2.38a2.13,2.13,0,0,1,0-4.26h3.12l.81-4.87a2.09,2.09,0,0,1,2.13-1.76,2.19,2.19,0,0,1,2.13,2.5l-.73,4.13h6.42l.82-4.87a2.11,2.11,0,0,1,2.18-1.76,2.16,2.16,0,0,1,2.09,2.5l-.7,4.13h1.89a2.14,2.14,0,0,1,2.12,2.13,2.16,2.16,0,0,1-2.12,2.13h-2.62l-1.23,7.13H644a2.11,2.11,0,0,1,2.13,2.13,2.14,2.14,0,0,1-2.13,2.13H641l-.87,5a2.11,2.11,0,0,1-2.13,1.76,2.16,2.16,0,0,1-2.13-2.49l.78-4.3h-6.43l-.86,5a2.13,2.13,0,0,1-2.16,1.76,2.09,2.09,0,0,1-2.09-2.49Zm11.51-4.26,1.23-7.13h-6.39l-1.23,7.13Z" transform="translate(-120.99 -91.23)"/><circle class="cls-2" cx="321.92" cy="186.75" r="23.13" transform="translate(-153.42 -18.28) rotate(-12.31)"/><path class="cls-3" d="M320.15,171.57a15.29,15.29,0,1,0,3.59,30.36,14.83,14.83,0,0,0,3.64-.91,1.22,1.22,0,0,0,.8-.7,1.19,1.19,0,0,0,0-1,1,1,0,0,0-.51-.7,1.43,1.43,0,0,0-1.17-.06,10.93,10.93,0,0,1-3.06.69,12.58,12.58,0,1,1,11-14,11.92,11.92,0,0,1-.7,5.87,4.15,4.15,0,0,1-2,2.28l-.3,0c-.39,0-.5-.07-.52-.08a3.73,3.73,0,0,1-.36-.8c-.36-1.49-.73-6.14-.73-6.2l-.06-.56A7.92,7.92,0,1,0,314,187.66a8.19,8.19,0,0,0,8.89,7.39,7.43,7.43,0,0,0,4.92-2.71l.08.69a4,4,0,0,0,1,2.13,3.17,3.17,0,0,0,2.81,1,3.1,3.1,0,0,0,.92-.21,7.09,7.09,0,0,0,3.55-3.66l.06-.11,0-.09a15.37,15.37,0,0,0-16.16-20.48Zm2.44,20.67a5.27,5.27,0,0,1-5.73-4.91,5.36,5.36,0,0,1,4.42-6.15,5.46,5.46,0,0,1,5.79,4.94A5.37,5.37,0,0,1,322.59,192.24Z" transform="translate(-120.99 -91.23)"/><path class="cls-16" d="M334.7,966.86c1.51-4.26,79.65-103.17,84.89-105,.6-.25,34.09,24.66,34.09,24.66C455,888.43,520,876.12,520,876.12l-1,78-117.66-5s-16.1,9-30.8,16.33c0,0,0,0-.05,0-9,4.53-17.06,8.34-19.33,8.88C345.21,975.74,333.16,971.11,334.7,966.86Z" transform="translate(-120.99 -91.23)"/><path class="cls-3" d="M351.13,974.35c2.28-.53,10.28-4.35,19.32-8.89,0,0,0,0,.06,0,14.69-7.32,30.79-16.34,30.79-16.34l26.19,1.1,42.39-65.32c-9,1.4-15.77,2.22-16.21,1.61,0,0-33.48-24.9-34.08-24.65-5.24,1.82-83.38,100.72-84.89,105S345.21,975.75,351.13,974.35Z" transform="translate(-120.99 -91.23)"/><path class="cls-17" d="M334,967c1.59-4.37,80.07-103.21,85.45-105.09,2-.72,18.45,9.9,34.23,24.64L403,950.19s-46,23.16-52.13,24.59S332.41,971.35,334,967Z" transform="translate(-120.99 -91.23)"/><path class="cls-2" d="M339.08,968.7c13.56-16.24,66.74-83.05,78.91-100.13.1-.14,0-.22-.1-.09-13.8,15.81-66.43,83-79.08,100C338.54,968.85,338.79,969.05,339.08,968.7Z" transform="translate(-120.99 -91.23)"/><path class="cls-2" d="M359.48,971.24a17,17,0,0,0,3.82-13.12c-.61-3.85-2.38-8.12-5.91-10.73-.1-.07-.24.11-.15.2,5.73,6.1,6.74,16.52,2,23.49A.13.13,0,0,0,359.48,971.24Z" transform="translate(-120.99 -91.23)"/><path class="cls-2" d="M397.21,954.07c5.36-6.56,9.13-16.11,7-24.54-.08-.32-.54-.2-.6.08a117.28,117.28,0,0,1-7.27,23.92A.53.53,0,0,0,397.21,954.07Z" transform="translate(-120.99 -91.23)"/><path class="cls-2" d="M391.15,957.6c5.36-6.56,9.12-16.11,7-24.53-.08-.33-.54-.21-.6.07a116.77,116.77,0,0,1-7.28,23.93A.53.53,0,0,0,391.15,957.6Z" transform="translate(-120.99 -91.23)"/><path class="cls-2" d="M385.09,961.13c5.36-6.55,9.12-16.1,7-24.53-.08-.33-.54-.2-.6.08a116.87,116.87,0,0,1-7.28,23.92A.53.53,0,0,0,385.09,961.13Z" transform="translate(-120.99 -91.23)"/><path class="cls-2" d="M379,964.67c5.36-6.56,9.12-16.11,7-24.53-.08-.33-.54-.21-.6.07a116.77,116.77,0,0,1-7.28,23.93A.53.53,0,0,0,379,964.67Z" transform="translate(-120.99 -91.23)"/><path class="cls-2" d="M430.38,885.28c5.88-7.45-5.7-16.62-11.59-9.15S424.48,892.75,430.38,885.28Z" transform="translate(-120.99 -91.23)"/><path class="cls-2" d="M409.22,975.28c5.45-1.14,6.08-7.53,4.84-11.9a44.45,44.45,0,0,0-12.17-19.49.23.23,0,0,0-.36.06,1,1,0,0,0-1.48.77c-.48,7.31-1.91,15.07-.13,22.32C401,971.27,404.06,976.37,409.22,975.28ZM401.58,956c.15-3.61.48-7.18.5-10.79,2.36,3.81,4.88,7.5,6.86,11.54a49.27,49.27,0,0,1,2.55,6c1,3.18,1.42,14.09-6.32,9C400.9,968.91,401.41,960.25,401.58,956Z" transform="translate(-120.99 -91.23)"/><path class="cls-2" d="M412.51,925.46c-5.47,5.07-8.56,12.34-12.18,18.71a1,1,0,0,0,.81,1.45.24.24,0,0,0,.27.25,44.49,44.49,0,0,0,20.89-9.57c3.45-3,6.43-8.64,2.52-12.6C421.11,920,415.7,922.5,412.51,925.46Zm6.95-1c9.26,0,2.94,8.93.31,11a48.81,48.81,0,0,1-5.42,3.58,133.08,133.08,0,0,1-12.08,5.86c2-3,3.67-6.19,5.53-9.28C410,932,414.36,924.44,419.46,924.46Z" transform="translate(-120.99 -91.23)"/><path class="cls-2" d="M523.78,857.57l53.07-4.18s76.64-22.22,120.93-10.59c50.78,13.33,58,72.67,6.32,96.45-51.08,23.52-276,14.85-276,14.85l48.21-71.4s74-17.39,138.85-13.85l-91.77,10.56Z" transform="translate(-120.99 -91.23)"/><path class="cls-18" d="M524.31,872.67c7.9-1.3,15.88-1.94,23.85-2.68s16.08-1.33,24.13-1.84a479.76,479.76,0,0,1,48.27-.73c1.51.06,3,.15,4.52.23.31-.1.66-.15,1-.22.78-.17,1.55-.34,2.33-.48,1.46-.25,2.92-.43,4.39-.62,3.05-.4,6.11-.66,9.15-1.17.19,0,.25.25.07.29-3.06.61-6.07,1.43-9.13,2-.88.18-1.77.35-2.65.51,5.89.43,11.77,1,17.65,1.66.18,0,.18.31,0,.29-8-.63-16.07-.86-24.1-.89s-15.93,0-23.9.27c-16.11.58-32.22,1.69-48.28,3-9,.75-18.06,1.68-27.1,1.87C523.62,874.25,523.42,872.82,524.31,872.67Z" transform="translate(-120.99 -91.23)"/><path class="cls-18" d="M451.18,952.46c3-4.55,5.53-9.41,8.27-14.1s5.48-9.42,8.23-14.12c5.49-9.38,25.14-40.91,27.07-43.11.12-.14.36,0,.29.19-.94,2.45-13.23,23.35-16.06,28-5.65,9.31-11.58,18.44-17.42,27.63-1.67,2.62-3.4,5.21-5.09,7.82s-3.48,5.17-5,7.85A.15.15,0,0,1,451.18,952.46Z" transform="translate(-120.99 -91.23)"/><path class="cls-16" d="M715.18,981.25c-1.31-4.34-74.68-106.83-79.82-108.9-.59-.27-35.22,23-35.22,23-1.46,1.83-65.71-13.54-65.71-13.54l-2.71,77.93,117.77.62s15.65,9.77,30,17.77c0,0,0,0,0,0,8.82,5,16.64,9.14,18.88,9.79C704.26,989.61,716.51,985.56,715.18,981.25Z" transform="translate(-120.99 -91.23)"/><path class="cls-3" d="M698.41,988c-2.25-.65-10.06-4.83-18.88-9.79,0,0,0,0,0,0-14.33-8-30-17.77-30-17.77l-26.21-.14L584,893c9,1.83,15.65,3,16.11,2.38,0,0,34.62-23.29,35.21-23,5.15,2.07,78.52,104.56,79.83,108.89S704.26,989.62,698.41,988Z" transform="translate(-120.99 -91.23)"/><path class="cls-19" d="M715.87,981.4c-1.38-4.44-75.1-106.89-80.38-109-2-.82-18.9,9-35.35,23l47.6,66s44.87,25.31,50.91,27S717.25,985.84,715.87,981.4Z" transform="translate(-120.99 -91.23)"/><path class="cls-2" d="M710.72,982.88C697.94,966,648,896.76,636.63,879.12c-.09-.15,0-.22.11-.08,13,16.44,62.42,86.09,74.26,103.64C711.25,983.05,711,983.23,710.72,982.88Z" transform="translate(-120.99 -91.23)"/><path class="cls-2" d="M690.22,984.45a17.06,17.06,0,0,1-3.2-13.29c.8-3.81,2.76-8,6.41-10.44.11-.07.24.12.15.21-6,5.81-7.52,16.18-3.14,23.36A.14.14,0,0,1,690.22,984.45Z" transform="translate(-120.99 -91.23)"/><path class="cls-2" d="M653.34,965.5c-5-6.8-8.35-16.52-5.8-24.83.1-.32.55-.18.6.1A116.76,116.76,0,0,0,654.27,965,.53.53,0,0,1,653.34,965.5Z" transform="translate(-120.99 -91.23)"/><path class="cls-2" d="M659.23,969.32c-5-6.8-8.35-16.52-5.81-24.84.1-.32.56-.17.6.11a116.78,116.78,0,0,0,6.14,24.24A.53.53,0,0,1,659.23,969.32Z" transform="translate(-120.99 -91.23)"/><path class="cls-2" d="M665.11,973.14c-5-6.81-8.35-16.52-5.8-24.84.1-.32.56-.17.6.1a116.87,116.87,0,0,0,6.14,24.25A.54.54,0,0,1,665.11,973.14Z" transform="translate(-120.99 -91.23)"/><path class="cls-2" d="M671,977c-5-6.81-8.35-16.52-5.8-24.84.1-.32.55-.18.6.1a116.85,116.85,0,0,0,6.13,24.25A.53.53,0,0,1,671,977Z" transform="translate(-120.99 -91.23)"/><path class="cls-2" d="M623.47,895.23c-5.53-7.73,6.47-16.33,12-8.59S629,903,623.47,895.23Z" transform="translate(-120.99 -91.23)"/><path class="cls-2" d="M650,978.33c2.12-7.15,1.07-15,.93-22.3a1,1,0,0,0-1.44-.84.22.22,0,0,0-.35-.07A44.46,44.46,0,0,0,636.07,974c-1.45,4.3-1.11,10.72,4.28,12.12C645.44,987.46,648.79,982.51,650,978.33Zm-5.46,4.42c-8,4.7-7.08-6.19-5.88-9.31a47,47,0,0,1,2.82-5.85,133,133,0,0,1,7.4-11.2c-.15,3.6,0,7.19,0,10.79C648.86,971.48,649,980.16,644.56,982.75Z" transform="translate(-120.99 -91.23)"/><path class="cls-2" d="M627.21,933.87c-4.1,3.76-1.39,9.58,1.91,12.7a44.39,44.39,0,0,0,20.42,10.54.22.22,0,0,0,.28-.23,1,1,0,0,0,.88-1.41c-3.32-6.54-6.06-13.94-11.29-19.26C636.36,933.1,631.08,930.3,627.21,933.87Zm16.43,12.72c1.71,3.17,3.25,6.41,5.08,9.52a130.54,130.54,0,0,1-11.79-6.42,47.81,47.81,0,0,1-5.24-3.83c-2.52-2.2-8.42-11.39.83-11C637.61,935.1,641.6,942.8,643.64,946.59Z" transform="translate(-120.99 -91.23)"/><path class="cls-2" d="M531.51,857.84l-52.83-1.41s-54.56-28-99.35-18.51c-51.36,10.92-59.58,74.84-22,98.51,47.56,30,262.75,30.15,262.75,30.15l-44.4-80s-71.11-16.95-136-16.49L530.79,885Z" transform="translate(-120.99 -91.23)"/><path class="cls-18" d="M578.61,891.71a1.3,1.3,0,0,1-.09-.4c0-.11,0-.22-.07-.33s-.12-.51-.19-.77c-.13-.53-.31-1-.49-1.56s-.4-1-.62-1.51a11.2,11.2,0,0,0-.83-1.42c0-.05-.08-.06-.12-.09l-.08-.06-.12-.05-.11,0c-7.83-1.67-61.06-10.74-69-11.86s-16-2.08-24-3a478.89,478.89,0,0,0-48.18-3c-1.51,0-3,0-4.53,0-.31-.11-.65-.18-1-.27-.77-.2-1.53-.41-2.3-.58-1.45-.32-2.91-.57-4.36-.83-3-.55-6.08-1-9.09-1.6-.18,0-.26.24-.08.28,3,.76,6,1.72,9,2.46.87.22,1.74.43,2.62.63-5.91.16-11.81.45-17.71.83-.18,0-.2.3,0,.29,8-.25,16.09-.1,24.11.25s15.92.73,23.86,1.4c16.06,1.35,32.1,3.22,48.09,5.32,9,1.18,63.24,10.58,72.26,11.2l.11,0c.07.21.14.42.23.63.24.49.48,1,.73,1.47s.49.93.77,1.38c.14.23.28.45.43.67l.21.33a1.63,1.63,0,0,1,.23.35C578.4,892,578.71,891.9,578.61,891.71Z" transform="translate(-120.99 -91.23)"/><path class="cls-18" d="M603.4,961.34c-2.76-4.68-5.08-9.66-7.59-14.47s-5-9.67-7.56-14.5c-5-9.63-23.17-42-25-44.34-.11-.14-.36,0-.3.18.82,2.49,12.11,23.94,14.72,28.73,5.2,9.57,10.69,19,16.09,28.42,1.54,2.7,3.14,5.36,4.71,8s3.24,5.33,4.67,8.08C603.23,961.66,603.5,961.51,603.4,961.34Z" transform="translate(-120.99 -91.23)"/><path class="cls-2" d="M430,638.61l8.09,60.7c.43,1.81-.6,3.11-2.3,2.92l-30.44-3.5a5,5,0,0,1-3.87-3.62l-8.09-60.7c-.43-1.81.6-3.11,2.3-2.91L426.16,635A5,5,0,0,1,430,638.61Z" transform="translate(-120.99 -91.23)"/><path class="cls-4" d="M426.42,638.17l8.09,60.7c.43,1.8-.6,3.11-2.3,2.91l-30.44-3.49a5,5,0,0,1-3.87-3.63L389.81,634c-.43-1.8.6-3.11,2.3-2.91l30.44,3.49A5,5,0,0,1,426.42,638.17Z" transform="translate(-120.99 -91.23)"/><path class="cls-2" d="M417.76,639.9a2.6,2.6,0,1,0,2.83-2.35A2.61,2.61,0,0,0,417.76,639.9Z" transform="translate(-120.99 -91.23)"/><path class="cls-16" d="M518.2,735.14c-21.13,34.9-65.4,78.15-81.31,79.69-7.63.74-21.36,1-30.43-8.76-19.81-21.42-34.18-59.9-35.68-81.22-.54-7.58,37.37-19.87,42.07-13.24,11,15.51,22.63,44.9,24.86,45,8.27.24,39.13-21.23,64.29-36.41C531.72,702.25,526.62,721.23,518.2,735.14Z" transform="translate(-120.99 -91.23)"/><path class="cls-16" d="M374,686.3c5.43-14.7,9.08-17.64,7.07-32.48-1.31-9.74,4.34-14.76,10.27-6.43C401,661,398,681.45,394.86,688.24Z" transform="translate(-120.99 -91.23)"/><path class="cls-16" d="M371.86,731.52s-4.52-21.76-.28-38c2.93-11.23,12-35,45.34-44.45,7.9-2.26,20.76.14,9.19,8.51-8.22,5.94-15.22,7.23-19.37,11.55,0,0,16,5,17.94,13a151.69,151.69,0,0,1,3.6,21.28,31.37,31.37,0,0,1-3.92,1s1.59,7.56-4.92,17.34Z" transform="translate(-120.99 -91.23)"/><path class="cls-16" d="M376.09,683.24c5-3.42,15.8-10.5,26.63-13.23,12-3,36-5.61,38.17,3.29,1.57,6.53-7.51,8.32-7.51,8.32s10.15,1,10.27,7.23c.12,5.66-7,6.63-7,6.63s6.05,1.67,5.11,7.14c-1.13,6.58-13.61,2-20.51,7.67C419.72,711.57,376.09,683.24,376.09,683.24Z" transform="translate(-120.99 -91.23)"/><path class="cls-20" d="M403.8,683.26c5.26-2.45,18.62-4.94,29.41-1.82.24.07.32.29.08.27a121.8,121.8,0,0,0-29.46,1.66A.06.06,0,0,1,403.8,683.26Z" transform="translate(-120.99 -91.23)"/><path class="cls-20" d="M407.21,695.31c4.75-1.64,18.64-3.59,29.46-.06.25.08.31.31.07.28a130.18,130.18,0,0,0-29.51-.1C407.16,695.44,407.15,695.33,407.21,695.31Z" transform="translate(-120.99 -91.23)"/><path class="cls-21" d="M491.54,773.37l-44.73-22s42.71-28,62.58-36.31c20.71-8.69,27.63-3.94,10.7,20.5C503.06,760.11,491.54,773.37,491.54,773.37Z" transform="translate(-120.99 -91.23)"/><path class="cls-3" d="M499.18,764l-.19.24c-2.63-1.62-5.33-3.15-8.12-4.51a44.56,44.56,0,0,0-8.46-3.22c-.2-.06-.43-.1-.65-.16a9,9,0,0,0-.9-.21,27,27,0,0,0-10.55-.25,31,31,0,0,0-8.29,3l-.59-.31a32.53,32.53,0,0,1,8.8-3.12,27.12,27.12,0,0,1,10.73.31c.39.08.8.19,1.19.29.22.06.43.12.65.16A46.47,46.47,0,0,1,491,759.4,93.23,93.23,0,0,1,499.18,764Zm27.36-40.93a37,37,0,0,0-8.65,6.36,38.22,38.22,0,0,0-6.45,8.62A65.49,65.49,0,0,0,507,748.31a2.13,2.13,0,0,0-.14.38c-1.07,3.06-2,6.18-3,9.26.35-.47.72-1,1.07-1.44.82-2.58,1.62-5.17,2.52-7.71a1.79,1.79,0,0,1,.13-.39,64.53,64.53,0,0,1,4.39-10.1,36.65,36.65,0,0,1,14.83-14.85c.24-.14.49-.27.74-.39s.2-.47.3-.7Zm-19,25.36a.59.59,0,0,0-.17,0l-.41-.06a27.15,27.15,0,0,0-10.32.2,34.48,34.48,0,0,0-9.89,4.21,37.37,37.37,0,0,0-4.61,3.28,3.8,3.8,0,0,0-.39.33,39.78,39.78,0,0,0-3.37,3.14,47.1,47.1,0,0,0-4.3,5.29l.45.22a50.62,50.62,0,0,1,4.24-5.15,44,44,0,0,1,3.63-3.34,4,4,0,0,1,.39-.33,40.14,40.14,0,0,1,4.25-3,33.42,33.42,0,0,1,9.73-4.19,26.71,26.71,0,0,1,10.05-.29l.49.09.1,0c.93.16,1.85.35,2.77.59a3,3,0,0,0,.27-.35C509.49,748.8,508.53,748.57,507.55,748.41Z" transform="translate(-120.99 -91.23)"/><path class="cls-20" d="M492.32,764.18c-1-.65-2.1-1.16-3.16-1.71l-3.25-1.7c-2.2-1.16-4.42-2.27-6.64-3.38-4.45-2.21-8.88-4.43-13.36-6.56-1.23-.59-2.47-1.17-3.71-1.73s-2.67-1.07-4-1.65c-.08,0-.12.09-.05.13,1.09.58,2.12,1.25,3.21,1.83s2.22,1.19,3.35,1.76q3.31,1.68,6.66,3.32c4.39,2.14,8.78,4.3,13.22,6.35l3.72,1.7c1.29.6,2.58,1.28,3.93,1.76C492.33,764.32,492.39,764.22,492.32,764.18Z" transform="translate(-120.99 -91.23)"/><path class="cls-22" d="M520.08,735.5c-17,24.6-28.54,37.87-28.54,37.87l-19.83-9.78,55.12-52.19C531.86,713.12,530.36,720.69,520.08,735.5Z" transform="translate(-120.99 -91.23)"/><path class="cls-23" d="M468.2,857.29c1.82,2.17,124.33.76,125,0,1.82-2-19.6-107.68-41.13-139.91-7.26-10.88-30.35-13.1-38.42-2.54C490.51,745.12,466.62,855.39,468.2,857.29Z" transform="translate(-120.99 -91.23)"/><path class="cls-3" d="M576,778.85s0,.06-.06.06a38.48,38.48,0,0,1-7.79,5.58,41.57,41.57,0,0,1-10,3.86,32.44,32.44,0,0,1-10.71.76A41.79,41.79,0,0,1,537,786.77a71.29,71.29,0,0,1-9.76-4.41c-3.47-1.89-6.81-4-10.11-6.15-.19-.11-.35-.23-.54-.35-2.5-1.64-5-3.33-7.44-5s-4.91-3.32-7.41-4.94c-.16-.08-.31-.21-.49-.31-2.79-1.79-5.62-3.49-8.58-5a2,2,0,0,1,.1-.32c3,1.53,5.79,3.24,8.58,5l.49.33c2.53,1.62,5,3.32,7.45,5s4.94,3.4,7.47,5a2.85,2.85,0,0,0,.53.35c.29.21.59.41.88.6,3,1.92,6.05,3.77,9.17,5.47a66,66,0,0,0,9.77,4.35,39.41,39.41,0,0,0,10.4,2.28,32.08,32.08,0,0,0,10.56-.8,40.67,40.67,0,0,0,9.89-3.9,35.93,35.93,0,0,0,7.24-5.17,1.5,1.5,0,0,0,.37-.35,1.31,1.31,0,0,0,.31-.28c0,.1.06.18.08.28S576,778.75,576,778.85Zm-22.66-59.41a41.3,41.3,0,0,0-6.12-1,7.78,7.78,0,0,0-1.09-.07,4.91,4.91,0,0,0-.78,0,30.84,30.84,0,0,0-8.82.84,41.3,41.3,0,0,0-10,3.88,37,37,0,0,0-8.65,6.36,38.22,38.22,0,0,0-6.45,8.62A65.49,65.49,0,0,0,507,748.31a2.13,2.13,0,0,0-.14.38c-1.09,3.1-2,6.26-3,9.38-.76,2.42-1.56,4.86-2.46,7.26a1.24,1.24,0,0,0-.1.29A49.23,49.23,0,0,1,495,777.37a32.73,32.73,0,0,1-5.93,6.12c-.16.14-.33.26-.51.41-.37.29-.76.57-1.15.84a30.22,30.22,0,0,1-2.87,1.76c-.08.29-.17.58-.25.89a38.79,38.79,0,0,0,3.49-2.14c.55-.39,1.09-.78,1.6-1.21.18-.14.37-.29.53-.43a33.71,33.71,0,0,0,5.58-5.87,49,49,0,0,0,6.24-11.81c0-.08.06-.17.1-.27.95-2.44,1.75-4.94,2.55-7.41,1-3.15,1.94-6.33,3.05-9.45a1.79,1.79,0,0,1,.13-.39,64.53,64.53,0,0,1,4.39-10.1,36.65,36.65,0,0,1,14.83-14.85,40.3,40.3,0,0,1,9.89-3.88,30.4,30.4,0,0,1,8.35-.92l.78,0c.49,0,1,0,1.43.08a40.86,40.86,0,0,1,6.38,1.07Q553.48,719.62,553.36,719.44Zm-3.47-4.59a33.56,33.56,0,0,0-4.52,3.48l-.36.33c-.64.6-1.26,1.21-1.85,1.85a38.39,38.39,0,0,0-6.07,8.88c-3.22,6.44-4.91,13.48-6.77,20.35-.68,2.46-1.38,4.92-2.2,7.35a1.15,1.15,0,0,1-.08.28,47.71,47.71,0,0,1-5.7,12,33.45,33.45,0,0,1-5.6,6.32.61.61,0,0,1-.17.15c-.49.43-1,.84-1.5,1.23a41.79,41.79,0,0,1-9.25,5.17,28,28,0,0,1-10.38,1.84,41.3,41.3,0,0,1-5.54-.49c-.28,0-.55-.08-.84-.12-1.15-.19-2.3-.41-3.44-.68-.05.14-.09.29-.13.45,1,.23,2,.45,3.06.64l.82.14a42.45,42.45,0,0,0,6.07.6A28.4,28.4,0,0,0,506,782.81a40.32,40.32,0,0,0,9.41-5.23c.58-.43,1.13-.9,1.67-1.37l.16-.15a34.11,34.11,0,0,0,5.56-6.32,47.91,47.91,0,0,0,5.74-12c0-.08.06-.18.09-.29.84-2.48,1.53-5,2.23-7.5,1.85-6.9,3.53-13.89,6.71-20.25a38,38,0,0,1,6-8.78,25.59,25.59,0,0,1,2.22-2.2,2,2,0,0,1,.36-.31,32.89,32.89,0,0,1,4.11-3.2A3.36,3.36,0,0,0,549.89,714.85Zm26.13,64c0-.1-.06-.2-.08-.31a1.27,1.27,0,0,1-.39,0h-.29a40.64,40.64,0,0,1-10.48-1.82,71.89,71.89,0,0,1-9.93-3.92q-4.8-2.37-9.41-5.09c-3.08-1.82-6.1-3.71-9.13-5.62-2.53-1.58-5.07-3.16-7.65-4.68a4.8,4.8,0,0,0-.54-.32,103.5,103.5,0,0,0-10.5-5.48,43.25,43.25,0,0,0-10.07-3.2.59.59,0,0,0-.17,0l-.41-.06a27,27,0,0,0-10,.14c-.06.18-.14.35-.2.53a26.62,26.62,0,0,1,10-.29l.49.09.1,0a44.06,44.06,0,0,1,10.05,3.14A102.27,102.27,0,0,1,528,757.37l.53.33c2.57,1.5,5.09,3,7.61,4.6,6.08,3.73,12.13,7.55,18.57,10.7a68.73,68.73,0,0,0,10,4,40.57,40.57,0,0,0,10.48,1.88h.06l.72,0H576A.07.07,0,0,0,576,778.85Zm8,30.69a37.86,37.86,0,0,0-9.26,4.74c-5.95,4.08-10.81,9.44-15.75,14.55-1.77,1.82-3.57,3.65-5.46,5.39-.08.08-.16.14-.22.21a48.74,48.74,0,0,1-10.82,7.77,33.37,33.37,0,0,1-10,3.22l-.24,0a41.29,41.29,0,0,1-10.36,0,27,27,0,0,1-8-2.4,7.27,7.27,0,0,1-.69-.32l-1.25-.66a49,49,0,0,1-8.54-6.36c-4.55-4.1-8.7-8.66-13.4-12.64-.1-.1-.22-.18-.32-.29-.66-.55-1.34-1.08-2-1.62a41,41,0,0,0-9.21-5.47c-.44-.19-.89-.35-1.34-.52a1,1,0,0,0-.27-.1c0,.06,0,.1,0,.17s.07,0,.09,0c.49.18,1,.39,1.47.59a41.94,41.94,0,0,1,9.11,5.54c.66.51,1.29,1,1.93,1.56.1.1.23.2.33.29,4.66,4,8.8,8.61,13.35,12.8a49.31,49.31,0,0,0,8.58,6.46l.92.49a7.61,7.61,0,0,0,.7.35,27.37,27.37,0,0,0,8.53,2.69,40.46,40.46,0,0,0,10.77,0h0l.23,0a34.56,34.56,0,0,0,10-3.27A48.15,48.15,0,0,0,553.66,835a1.55,1.55,0,0,0,.23-.21c1.93-1.78,3.77-3.65,5.56-5.51,5-5.13,9.78-10.45,15.65-14.49a38.09,38.09,0,0,1,9.09-4.65A5.73,5.73,0,0,0,584.05,809.54Zm-20.44,42.32c-1.82-3.07-3.55-6.19-5.29-9.31-1.46-2.61-2.91-5.23-4.43-7.8-.1-.18-.21-.34-.31-.53a102.86,102.86,0,0,0-6.58-9.89,43.29,43.29,0,0,0-6.22-6.75,3,3,0,0,0-.43-.39c-.25-.22-.49-.43-.74-.63a27.2,27.2,0,0,0-9.46-5,34.41,34.41,0,0,0-10.69-1.09,39.53,39.53,0,0,0-10.58,1.89,36.53,36.53,0,0,0-3.49,1.29,2.27,2.27,0,0,0-.57.23,75.88,75.88,0,0,0-14.77,8.7c-.13.1-.27.18-.39.28l-.27.19c-5.6,4-11,8.29-17.05,11.51l-.1.06a1.62,1.62,0,0,1-.08.27.34.34,0,0,1,0,.14l.1-.06.25-.12c6.15-3.25,11.61-7.55,17.23-11.51l.26-.19.31-.22a75.71,75.71,0,0,1,15.16-8.76,4.41,4.41,0,0,1,.56-.23c1-.39,2-.76,3-1.07A41.56,41.56,0,0,1,519.49,811,33.52,33.52,0,0,1,530,812a26.78,26.78,0,0,1,9.33,4.93,7.55,7.55,0,0,1,.7.59,2.61,2.61,0,0,1,.45.39,43.06,43.06,0,0,1,6.24,6.69,105,105,0,0,1,6.63,9.87c.1.16.2.34.3.53,1.52,2.54,3,5.13,4.45,7.69,2.94,5.17,5.83,10.38,9.07,15.37h.29C566.14,856,564.84,853.94,563.61,851.86Zm-27.71-1c-1-1.6-2-3.22-3.06-4.84a5.58,5.58,0,0,1-.35-.58c-.78-1.23-1.52-2.44-2.28-3.67-1.58-2.54-3.13-5.09-4.76-7.59-.12-.16-.22-.35-.34-.51a100.36,100.36,0,0,0-7-9.6,43,43,0,0,0-7.73-7.45,30,30,0,0,0-4.39-2.71c-.21-.1-.41-.18-.62-.29a25.79,25.79,0,0,0-4.66-1.64,34.13,34.13,0,0,0-10.72-.63,39,39,0,0,0-10.49,2.31q-1.32.5-2.58,1.05c0,.14-.06.27-.11.41s0,.1,0,.17,0,.06,0,.08a.21.21,0,0,1,.11,0,.46.46,0,0,1,.22-.11c.86-.39,1.72-.73,2.61-1a40.61,40.61,0,0,1,10.36-2.3,33.1,33.1,0,0,1,10.56.55,24.91,24.91,0,0,1,4.19,1.42,5.89,5.89,0,0,1,.63.29,28.77,28.77,0,0,1,4.7,2.81,43.11,43.11,0,0,1,7.69,7.34,103.83,103.83,0,0,1,7.08,9.58,5.54,5.54,0,0,0,.33.51c1.62,2.49,3.2,5,4.76,7.51l2.24,3.59c.12.21.24.39.36.58,2.61,4.18,5.28,8.33,8.23,12.29h.29Q538.39,854.66,535.9,850.84Zm47.84-42.61a30.65,30.65,0,0,0-7.67-2.46,41.11,41.11,0,0,0-10.73-.52,37.17,37.17,0,0,0-10.51,2.3,38.37,38.37,0,0,0-9.37,5.25,55,55,0,0,0-5.11,4.39l-.31.29c-3.45,3.32-6.54,7-9.7,10.55-1.71,1.9-3.43,3.81-5.23,5.62-.07.06-.13.14-.19.2a48.92,48.92,0,0,1-10.48,8.23l-1.27.68a5.5,5.5,0,0,1-.6.28,32.66,32.66,0,0,1-8,2.69,40.43,40.43,0,0,1-10.59.51,27.28,27.28,0,0,1-10.11-3,48.11,48.11,0,0,1-8.8-6c-.94-.78-1.87-1.58-2.79-2.38,0,0-.06-.06-.08-.08a.34.34,0,0,1,0,.14,1.28,1.28,0,0,1-.09.35c.89.78,1.79,1.56,2.69,2.32a48.65,48.65,0,0,0,8.84,6.11,28.33,28.33,0,0,0,10.3,3.08,40.78,40.78,0,0,0,10.75-.49,33.84,33.84,0,0,0,8.64-3l.59-.31a9.42,9.42,0,0,0,.89-.47,48.12,48.12,0,0,0,10.5-8.25,1.89,1.89,0,0,0,.2-.2c1.85-1.87,3.62-3.8,5.32-5.74,3.18-3.59,6.3-7.27,9.72-10.55a2.64,2.64,0,0,1,.29-.29,54.1,54.1,0,0,1,5-4.3,37.58,37.58,0,0,1,9.23-5.22,36.88,36.88,0,0,1,10.34-2.33,40.46,40.46,0,0,1,10.6.45,30.14,30.14,0,0,1,7.86,2.5A3.63,3.63,0,0,0,583.74,808.23Z" transform="translate(-120.99 -91.23)"/><path class="cls-16" d="M565,723.36c50.77,43.12,95.59,100.49,90.13,117.78-5.77,18.28-43.76,36.86-76.46,39.15-6.7.47-24.35-49.49-17.41-51.32,5.41-1.43,29.94-6.84,33-10,2.14-2.18-33.73-52.19-44.27-80.4C539,709.06,551.41,711.81,565,723.36Z" transform="translate(-120.99 -91.23)"/><path class="cls-16" d="M575.05,828.31s-20.41.83-33.73,2c-7.43.65-20.07,2.9-25.31,5.88-7.84,4.45-37.77,28.08-32.2,35.46,5,6.68,13.83-2.89,13.83-2.89s-10.59,9.56-3.55,14.65S511.43,875,511.43,875s-11.94,9.37-3.91,14.09c7,4.09,20.46-10.27,20.46-10.27s-13.62,8.46-6.89,13.35c7.44,5.41,30.36-13.59,30.36-13.59,17.25,3,28,2.43,40.45-.27C594.18,877.78,575.05,828.31,575.05,828.31Z" transform="translate(-120.99 -91.23)"/><path class="cls-20" d="M508.18,878.17c.85-1,1.72-2,2.57-3.07a63.86,63.86,0,0,1,5.22-5.8c1.84-1.75,3.75-3.42,5.71-5s4.33-3.2,6.36-4.95a.15.15,0,1,1,.18.23,72.49,72.49,0,0,0-5.76,5.47c-1.84,1.82-3.67,3.67-5.49,5.52s-3.66,3.48-5.49,5.24c-.92.88-1.79,1.79-2.66,2.71a21.18,21.18,0,0,1-2.55,2.55c-.09.08-.2,0-.16-.14A16.62,16.62,0,0,1,508.18,878.17Z" transform="translate(-120.99 -91.23)"/><path class="cls-20" d="M495.48,870.79c1.09-2,7.65-9.22,9.44-11a72.17,72.17,0,0,1,11.29-9.11c.14-.1.31.11.19.23-3.45,3.41-6.95,6.78-10.44,10.14-1.7,1.65-9.23,9.36-10.12,10.07C495.63,871.31,495.36,871,495.48,870.79Z" transform="translate(-120.99 -91.23)"/><path class="cls-20" d="M519.93,885.42c1.14-1.84,7.35-8.58,9.07-10.16a93.09,93.09,0,0,1,11.41-8c.15-.07.32.13.19.23-3.59,3-7.21,5.82-10.66,8.93-1.67,1.52-8,8-9.74,9.26C520.05,885.79,519.83,885.58,519.93,885.42Z" transform="translate(-120.99 -91.23)"/><path class="cls-24" d="M568.71,781.43,617,768.89s-36.17-36-53.94-48.22c-18.52-12.69-26.26-9.44-14.62,17.92C560.11,766.12,568.71,781.43,568.71,781.43Z" transform="translate(-120.99 -91.23)"/><path class="cls-3" d="M573.46,728.69q-2.93-1.85-6-3.51a68.67,68.67,0,0,0-9.77-4.43,40.44,40.44,0,0,0-10.48-2.31,7.78,7.78,0,0,0-1.09-.07,4.91,4.91,0,0,0-.78,0c-.8,0-1.62,0-2.42,0a2.48,2.48,0,0,0,0,.39c.7,0,1.4-.06,2.08,0l.78,0c.49,0,1,0,1.43.08a41.25,41.25,0,0,1,10.4,2.28,71.38,71.38,0,0,1,9.75,4.35c2.44,1.33,4.84,2.75,7.2,4.21C574.2,729.29,573.83,729,573.46,728.69ZM551,714.15a35.93,35.93,0,0,0-5.58,4.18l-.36.33c-.64.6-1.26,1.21-1.85,1.85-.06.06-.12.14-.19.2,0,.25,0,.52.09.78a5.5,5.5,0,0,1,.51-.61,25.59,25.59,0,0,1,2.22-2.2,2,2,0,0,1,.36-.31,36.22,36.22,0,0,1,5.38-4Zm57.22,46.12A35.83,35.83,0,0,1,595.49,773a36.18,36.18,0,0,1-6.23,3.1l2.81-.72a40.49,40.49,0,0,0,3.67-2,37.79,37.79,0,0,0,8.39-6.72,36.63,36.63,0,0,0,4.45-6Z" transform="translate(-120.99 -91.23)"/><path class="cls-3" d="M592.29,745.27c-.49,1.39-.94,2.79-1.39,4.2-2.16,6.77-4.13,13.73-7.63,20a37.72,37.72,0,0,1-6.45,8.61,3.39,3.39,0,0,1-.49.45,32.79,32.79,0,0,0,4.21-.2l-2.07.53c-.83,0-1.67,0-2.51,0a13.15,13.15,0,0,1-1,.89l-1.21.32a13.49,13.49,0,0,0,1.41-1.23,41.33,41.33,0,0,1-8.57-1.33,3.24,3.24,0,0,0-.19-.37,40.33,40.33,0,0,0,8.84,1.35h.29a8.47,8.47,0,0,0,.88-.82,37.23,37.23,0,0,0,6.32-8.49c3.47-6.24,5.44-13.15,7.59-19.94.48-1.48.95-3,1.48-4.45Z" transform="translate(-120.99 -91.23)"/><path class="cls-20" d="M569.8,772.28c1.11-.43,2.3-.71,3.44-1l3.53-1q3.59-1,7.19-2c4.8-1.26,9.59-2.55,14.41-3.73,1.32-.32,2.65-.64,4-.94s2.83-.5,4.23-.81c.08,0,.1.11,0,.13-1.18.35-2.33.8-3.51,1.15s-2.42.71-3.63,1q-3.6,1-7.2,1.9c-4.73,1.21-9.47,2.44-14.22,3.55l-4,.91c-1.39.33-2.79.73-4.21.93C569.77,772.42,569.73,772.31,569.8,772.28Z" transform="translate(-120.99 -91.23)"/><path class="cls-20" d="M552,752c-.06-.08.08-.17.14-.1a37.59,37.59,0,0,1,3.5,4.64c-.37-.81-.75-1.61-1.11-2.43-1.16-2.61-2.28-5.25-3.45-7.87a.08.08,0,0,1,.15-.07c2.35,4.42,4.88,8.74,7.09,13.23s4.43,9,6.57,13.51c1.18,2.49,2.46,5.66,3.63,8.16,1.45-.17,3.22-.7,4.77-.91.14,0,.15.21,0,.25-1.59.42-3.41,1.21-5.12,1.5-.22,0-8.2-15.94-11.76-23.65C554.9,756.23,553.41,754.15,552,752Z" transform="translate(-120.99 -91.23)"/><path class="cls-16" d="M520.76,734.29c6.91,2.05,19.53-8,24.76-16.4.35-.58-.21-6.9-.53-14.61-.18-4.68-.27-9.89,0-14.65,0-1-30.29,5.6-30.29,5.6s2.39,10.15,1.88,18.45a10.59,10.59,0,0,1-.32,2c0,.08,0,.19-.06.32C515.39,718.63,514.08,732.31,520.76,734.29Z" transform="translate(-120.99 -91.23)"/><path class="cls-20" d="M543.14,688.65c-1.83,8-7.92,27.16-23.88,26.64a18.45,18.45,0,0,1-3-.34,1.5,1.5,0,0,1,.06-.33,12.53,12.53,0,0,0,.32-1.93c.5-8.32-1.89-18.47-1.89-18.47S536.59,689.48,543.14,688.65Z" transform="translate(-120.99 -91.23)"/><path class="cls-16" d="M549,653.45c2.74,10.75-4.3,41.1-12.16,47.57-11.39,9.39-29.33,9.49-37.12-4-7.55-13.12,2.32-52.51,11-58.32C523.53,630.1,544.91,637.56,549,653.45Z" transform="translate(-120.99 -91.23)"/><path class="cls-16" d="M549,653.45c2.74,10.75-4.3,41.1-12.16,47.57-11.39,9.39-29.33,9.49-37.12-4-7.55-13.12,2.32-52.51,11-58.32C523.53,630.1,544.91,637.56,549,653.45Z" transform="translate(-120.99 -91.23)"/><path class="cls-25" d="M547.71,675.87c-1.94-.81-5.13-8.78-6.53-12s.9-18,1.5-21.34a22.38,22.38,0,0,1,6.39,10.69C550.33,658.12,549.6,667,547.71,675.87Z" transform="translate(-120.99 -91.23)"/><path class="cls-2" d="M514.82,648.54a10.71,10.71,0,0,0,8.83,5.53,10.92,10.92,0,0,0,9.54-4.68.09.09,0,1,1,.15.09,10.82,10.82,0,0,1-9.72,5.46,11,11,0,0,1-9-6.27A.14.14,0,0,1,514.82,648.54Z" transform="translate(-120.99 -91.23)"/><path class="cls-2" d="M531,624.92c6,1.38,10.92,5.89,12.29,10.49a11.94,11.94,0,0,1-.44,7.89c0,.1-.25,0-.22-.07a13.16,13.16,0,0,0-3.68-12.92,17,17,0,0,0-14.34-4.8,10.75,10.75,0,0,0-6.59,3.38c-.16.19-.59,0-.44-.25C520,625.19,525.52,623.67,531,624.92Z" transform="translate(-120.99 -91.23)"/><path class="cls-2" d="M493,630.81a13.66,13.66,0,0,1,7.19-6c4.2-1.54,8.34-.33,12.43,1a.09.09,0,0,1,0,.18c-3.49-1.09-7.09-2-10.71-1a13.43,13.43,0,0,0-7.4,5.15,13.08,13.08,0,0,0,2,17,13.3,13.3,0,0,0,10.06,3.17c.14,0,.2.2.05.22A13.37,13.37,0,0,1,493,630.81Z" transform="translate(-120.99 -91.23)"/><path class="cls-2" d="M549.83,659.69s8-9.71,4.41-17c-2-4.12-11.18-5.47-11.18-5.47s-1.87-5.81-9-9-17.16-.65-17.16-.65S510.48,622,503,624.48c-10.5,3.49-12.21,18.07-3.66,24.58,6,4.58,16.23.51,16.23.51.84.29,8.66,7.45,17,.86,0,0,4.49,6,10.08,3.54A8.09,8.09,0,0,0,549.83,659.69Z" transform="translate(-120.99 -91.23)"/><path class="cls-16" d="M541.24,678.09s7.57-9.42,11.9-6.66-1.84,16.76-7.24,18.37a5.38,5.38,0,0,1-7-3.37Z" transform="translate(-120.99 -91.23)"/><path class="cls-20" d="M551.27,675.4a.07.07,0,0,1,0,.14c-3.8,1.25-6,4.55-7.57,8,1.19-1.3,2.74-1.95,4.48-.52.09.08,0,.22-.11.19a3.33,3.33,0,0,0-3.71.91,15.63,15.63,0,0,0-1.93,2.82c-.2.32-.78.1-.63-.27a.36.36,0,0,1,0-.09C542.08,681.88,546.18,675.53,551.27,675.4Z" transform="translate(-120.99 -91.23)"/><path class="cls-20" d="M549.1,720.17a138.71,138.71,0,0,1-10.67,11.4c-3.64,3.27-8,6.19-12.87,6.59-4.74.4-9.47-.62-11.17-6.43-1.34-4.61-1.07-9.34-.2-15.22a.18.18,0,1,0-.35-.06c-1.15,7.58-2.39,19.31,4.48,22,7.68,3,15.28-.9,20.75-6.17a71.17,71.17,0,0,0,10.16-12C549.29,720.2,549.17,720.09,549.1,720.17Z" transform="translate(-120.99 -91.23)"/></svg>