<svg id="Layer_1" data-name="Layer 1" xmlns="http://www.w3.org/2000/svg" xmlns:xlink="http://www.w3.org/1999/xlink" viewBox="0 0 939.92 754.89"><defs><style>.cls-1{fill:url(#linear-gradient);}.cls-13,.cls-18,.cls-2,.cls-21,.cls-22,.cls-23,.cls-24,.cls-25,.cls-26,.cls-27,.cls-35,.cls-40,.cls-41,.cls-42{fill:none;}.cls-11,.cls-13,.cls-18,.cls-2,.cls-21,.cls-22,.cls-23,.cls-24,.cls-25,.cls-26,.cls-27,.cls-3,.cls-35,.cls-40,.cls-41,.cls-42{stroke-miterlimit:10;}.cls-13,.cls-2{stroke-width:2px;}.cls-2{stroke:url(#linear-gradient-2);}.cls-11,.cls-3,.cls-6{fill:#1d2328;}.cls-11,.cls-3{stroke:#1d2328;}.cls-3{stroke-width:3px;}.cls-4{font-size:28.22px;font-family:Impact;}.cls-4,.cls-9{fill:#fff;}.cls-5{letter-spacing:-0.02em;}.cls-7{fill:#cdf1f9;}.cls-8{fill:#aae8f7;}.cls-10{fill:#dcecf4;}.cls-12{fill:#23baf5;}.cls-13{stroke:#23baf5;}.cls-14{opacity:0.38;}.cls-15{opacity:0.05;fill:url(#linear-gradient-3);}.cls-16{opacity:0.15;fill:url(#linear-gradient-4);}.cls-17{opacity:0.5;fill:url(#linear-gradient-5);}.cls-18,.cls-35,.cls-41,.cls-42{stroke:#fff;}.cls-18,.cls-41{stroke-linecap:round;}.cls-18{stroke-width:0.73px;}.cls-19{fill:url(#linear-gradient-6);}.cls-20{fill:url(#linear-gradient-7);}.cls-21{stroke:url(#linear-gradient-8);}.cls-22{stroke:url(#linear-gradient-9);}.cls-23{stroke:url(#linear-gradient-10);}.cls-24{stroke:url(#linear-gradient-11);}.cls-25{stroke:url(#linear-gradient-12);}.cls-26{stroke:url(#linear-gradient-13);}.cls-27{stroke:url(#linear-gradient-14);}.cls-28{fill:url(#linear-gradient-15);}.cls-29{fill:url(#Degradado_sin_nombre_7);}.cls-30{fill:url(#Degradado_sin_nombre_7-2);}.cls-31{fill:url(#Degradado_sin_nombre_7-3);}.cls-32{fill:url(#linear-gradient-16);}.cls-33{fill:url(#linear-gradient-17);}.cls-34{fill:url(#linear-gradient-18);}.cls-36{fill:url(#linear-gradient-19);}.cls-37{fill:url(#linear-gradient-20);}.cls-38{fill:url(#linear-gradient-21);}.cls-39{fill:url(#linear-gradient-22);}.cls-40{stroke:url(#linear-gradient-23);}.cls-41{stroke-width:1.21px;}.cls-42{stroke-width:0.5px;}</style><linearGradient id="linear-gradient" x1="216.98" y1="550.07" x2="887.76" y2="550.07" gradientTransform="translate(550.74 -229.47) rotate(45)" gradientUnits="userSpaceOnUse"><stop offset="0" stop-color="#23baf5"/><stop offset="1" stop-color="#1c62d1"/></linearGradient><linearGradient id="linear-gradient-2" x1="195.01" y1="550.07" x2="909.73" y2="550.07" xlink:href="#linear-gradient"/><linearGradient id="linear-gradient-3" x1="568.38" y1="258.18" x2="938.92" y2="258.18" gradientTransform="matrix(1, 0, 0, 1, 0, 0)" xlink:href="#linear-gradient"/><linearGradient id="linear-gradient-4" x1="581.84" y1="258.18" x2="925.47" y2="258.18" gradientTransform="matrix(1, 0, 0, 1, 0, 0)" xlink:href="#linear-gradient"/><linearGradient id="linear-gradient-5" x1="681.38" y1="421.48" x2="965.65" y2="421.48" gradientTransform="translate(539.24 -458.86) rotate(45)" xlink:href="#linear-gradient"/><linearGradient id="linear-gradient-6" x1="776.76" y1="309.76" x2="870.23" y2="309.76" gradientTransform="translate(935.77 -562.88) rotate(76.72)" xlink:href="#linear-gradient"/><linearGradient id="linear-gradient-7" x1="796.85" y1="582.36" x2="850.15" y2="582.36" gradientTransform="matrix(1, 0, 0, 1, 0, 0)" xlink:href="#linear-gradient"/><linearGradient id="linear-gradient-8" x1="753.34" y1="476.06" x2="893.65" y2="476.06" gradientTransform="matrix(1, 0, 0, 1, 0, 0)" xlink:href="#linear-gradient"/><linearGradient id="linear-gradient-9" x1="791.13" y1="476.06" x2="797.78" y2="476.06" gradientTransform="matrix(1, 0, 0, 1, 0, 0)" xlink:href="#linear-gradient"/><linearGradient id="linear-gradient-10" x1="805.66" y1="476.06" x2="812.31" y2="476.06" gradientTransform="matrix(1, 0, 0, 1, 0, 0)" xlink:href="#linear-gradient"/><linearGradient id="linear-gradient-11" x1="820.19" y1="476.06" x2="826.84" y2="476.06" gradientTransform="matrix(1, 0, 0, 1, 0, 0)" xlink:href="#linear-gradient"/><linearGradient id="linear-gradient-12" x1="834.72" y1="476.06" x2="841.37" y2="476.06" gradientTransform="matrix(1, 0, 0, 1, 0, 0)" xlink:href="#linear-gradient"/><linearGradient id="linear-gradient-13" x1="849.25" y1="476.06" x2="855.9" y2="476.06" gradientTransform="matrix(1, 0, 0, 1, 0, 0)" xlink:href="#linear-gradient"/><linearGradient id="linear-gradient-14" x1="753.34" y1="423.26" x2="893.65" y2="423.26" gradientTransform="matrix(1, 0, 0, 1, 0, 0)" xlink:href="#linear-gradient"/><linearGradient id="linear-gradient-15" x1="778.6" y1="423.26" x2="868.43" y2="423.26" gradientTransform="matrix(1, 0, 0, 1, 0, 0)" xlink:href="#linear-gradient"/><linearGradient id="Degradado_sin_nombre_7" x1="833.92" y1="571.71" x2="899.98" y2="571.71" gradientUnits="userSpaceOnUse"><stop offset="0" stop-color="#fff"/><stop offset="0.08" stop-color="#fff" stop-opacity="0.8"/><stop offset="0.17" stop-color="#fff" stop-opacity="0.62"/><stop offset="0.26" stop-color="#fff" stop-opacity="0.45"/><stop offset="0.36" stop-color="#fff" stop-opacity="0.31"/><stop offset="0.46" stop-color="#fff" stop-opacity="0.2"/><stop offset="0.57" stop-color="#fff" stop-opacity="0.11"/><stop offset="0.68" stop-color="#fff" stop-opacity="0.05"/><stop offset="0.82" stop-color="#fff" stop-opacity="0.01"/><stop offset="1" stop-color="#fff" stop-opacity="0"/></linearGradient><linearGradient id="Degradado_sin_nombre_7-2" x1="833.92" y1="565.94" x2="875.64" y2="565.94" xlink:href="#Degradado_sin_nombre_7"/><linearGradient id="Degradado_sin_nombre_7-3" x1="833.92" y1="577.48" x2="875.64" y2="577.48" xlink:href="#Degradado_sin_nombre_7"/><linearGradient id="linear-gradient-16" x1="861.03" y1="256.7" x2="927.09" y2="256.7" gradientUnits="userSpaceOnUse"><stop offset="0" stop-color="#23b4f3"/><stop offset="0.06" stop-color="#23b4f3" stop-opacity="0.84"/><stop offset="0.15" stop-color="#23b3f2" stop-opacity="0.65"/><stop offset="0.25" stop-color="#22b2f2" stop-opacity="0.47"/><stop offset="0.35" stop-color="#22b2f2" stop-opacity="0.33"/><stop offset="0.45" stop-color="#22b2f1" stop-opacity="0.21"/><stop offset="0.56" stop-color="#22b1f1" stop-opacity="0.12"/><stop offset="0.68" stop-color="#22b1f1" stop-opacity="0.05"/><stop offset="0.81" stop-color="#22b1f1" stop-opacity="0.01"/><stop offset="1" stop-color="#22b1f1" stop-opacity="0"/></linearGradient><linearGradient id="linear-gradient-17" x1="861.03" y1="250.93" x2="902.75" y2="250.93" xlink:href="#linear-gradient-16"/><linearGradient id="linear-gradient-18" x1="861.03" y1="262.47" x2="902.75" y2="262.47" xlink:href="#linear-gradient-16"/><linearGradient id="linear-gradient-19" x1="458.81" y1="308.61" x2="480.88" y2="308.61" gradientTransform="matrix(1, 0, 0, 1, 0, 0)" xlink:href="#linear-gradient"/><linearGradient id="linear-gradient-20" x1="482.48" y1="309.72" x2="506.19" y2="309.72" gradientTransform="matrix(1, 0, 0, 1, 0, 0)" xlink:href="#linear-gradient"/><linearGradient id="linear-gradient-21" x1="431.7" y1="309.72" x2="455.41" y2="309.72" gradientTransform="matrix(1, 0, 0, 1, 0, 0)" xlink:href="#linear-gradient"/><linearGradient id="linear-gradient-22" x1="12.86" y1="334.29" x2="189.25" y2="334.29" gradientTransform="matrix(1, 0, 0, 1, 0, 0)" xlink:href="#linear-gradient"/><linearGradient id="linear-gradient-23" x1="132.48" y1="515.07" x2="271.87" y2="515.07" gradientTransform="matrix(1, 0, 0, 1, 0, 0)" xlink:href="#linear-gradient"/></defs><title>android app development _vector_img</title><circle class="cls-1" cx="552.37" cy="550.07" r="335.39" transform="translate(-297.04 388.39) rotate(-45)"/><circle class="cls-2" cx="552.37" cy="550.07" r="356.36" transform="translate(-297.04 388.39) rotate(-45)"/><path class="cls-3" d="M666.25,916.7H436.73a32.87,32.87,0,0,1-32.87-32.87h0A32.87,32.87,0,0,1,436.73,851H666.25a32.87,32.87,0,0,1,32.87,32.87h0A32.87,32.87,0,0,1,666.25,916.7Z" transform="translate(-69.86 -163.3)"/><line class="cls-3" x1="479.37" y1="687.66" x2="479.37" y2="629.38"/><text class="cls-4" transform="translate(377.03 733.2)">APP DEVE<tspan class="cls-5" x="101.47" y="0">L</tspan><tspan x="111.77" y="0">OPMENT</tspan></text><path class="cls-6" d="M143.48,172.74H821.53a12.39,12.39,0,0,1,12.39,12.39v426.2a0,0,0,0,1,0,0H131.09a0,0,0,0,1,0,0V185.13A12.39,12.39,0,0,1,143.48,172.74Z"/><rect class="cls-6" x="131.09" y="592.53" width="702.83" height="18.8"/><path class="cls-7" d="M150.72,182.94H814.29a9,9,0,0,1,9,9V601.13a0,0,0,0,1,0,0H141.73a0,0,0,0,1,0,0V191.94A9,9,0,0,1,150.72,182.94Z"/><path class="cls-8" d="M150.72,182.94h50.78a0,0,0,0,1,0,0V601.13a0,0,0,0,1,0,0H141.73a0,0,0,0,1,0,0V191.94A9,9,0,0,1,150.72,182.94Z"/><path class="cls-8" d="M150.72,182.94H814.29a9,9,0,0,1,9,9v28.21a0,0,0,0,1,0,0H141.73a0,0,0,0,1,0,0V191.94A9,9,0,0,1,150.72,182.94Z"/><path class="cls-9" d="M895.42,800.47H209.32a35.64,35.64,0,0,1-35.16-29.81l-.32-1.94H930.9l-.33,1.94A35.62,35.62,0,0,1,895.42,800.47Z" transform="translate(-69.86 -163.3)"/><path class="cls-10" d="M923.08,768.72a35.63,35.63,0,0,1-33.65,24H203.33a35.56,35.56,0,0,1-25-10.26,35.63,35.63,0,0,0,31,18.05h686.1a35.64,35.64,0,0,0,35.16-29.81l.32-1.94Z" transform="translate(-69.86 -163.3)"/><line class="cls-11" x1="229.52" y1="252" x2="469.18" y2="252"/><line class="cls-11" x1="488.95" y1="252" x2="568.64" y2="252"/><line class="cls-11" x1="229.52" y1="422.58" x2="469.18" y2="422.58"/><line class="cls-11" x1="488.95" y1="422.58" x2="536.29" y2="422.58"/><line class="cls-11" x1="229.52" y1="471.63" x2="469.18" y2="471.63"/><line class="cls-11" x1="488.95" y1="471.63" x2="536.29" y2="471.63"/><line class="cls-11" x1="229.52" y1="558.83" x2="469.18" y2="558.83"/><line class="cls-11" x1="488.95" y1="558.83" x2="568.64" y2="558.83"/><line class="cls-11" x1="394.29" y1="572.46" x2="469.18" y2="572.46"/><line class="cls-11" x1="488.95" y1="572.46" x2="568.64" y2="572.46"/><line class="cls-11" x1="282.84" y1="271.62" x2="469.18" y2="271.62"/><line class="cls-11" x1="488.95" y1="271.62" x2="518.31" y2="271.62"/><line class="cls-11" x1="282.84" y1="283.61" x2="469.18" y2="283.61"/><line class="cls-11" x1="488.95" y1="283.61" x2="539.88" y2="283.61"/><line class="cls-11" x1="282.84" y1="295.6" x2="469.18" y2="295.6"/><line class="cls-11" x1="488.95" y1="295.6" x2="518.31" y2="295.6"/><line class="cls-11" x1="282.84" y1="307.59" x2="469.18" y2="307.59"/><line class="cls-11" x1="488.95" y1="307.59" x2="539.88" y2="307.59"/><line class="cls-11" x1="282.84" y1="319.58" x2="469.18" y2="319.58"/><line class="cls-11" x1="488.95" y1="319.58" x2="518.31" y2="319.58"/><line class="cls-11" x1="352.94" y1="334.29" x2="469.18" y2="334.29"/><line class="cls-11" x1="488.95" y1="334.29" x2="550.67" y2="334.29"/><line class="cls-11" x1="352.94" y1="349.01" x2="469.18" y2="349.01"/><line class="cls-11" x1="488.95" y1="349.01" x2="550.67" y2="349.01"/><line class="cls-11" x1="352.94" y1="363.72" x2="445.22" y2="363.72"/><line class="cls-11" x1="464.99" y1="363.72" x2="550.67" y2="363.72"/><line class="cls-11" x1="352.94" y1="378.44" x2="469.18" y2="378.44"/><line class="cls-11" x1="488.95" y1="378.44" x2="550.67" y2="378.44"/><line class="cls-11" x1="352.94" y1="393.15" x2="445.22" y2="393.15"/><line class="cls-11" x1="464.99" y1="393.15" x2="550.67" y2="393.15"/><line class="cls-11" x1="352.94" y1="407.87" x2="469.18" y2="407.87"/><line class="cls-11" x1="488.95" y1="407.87" x2="550.67" y2="407.87"/><line class="cls-11" x1="382.3" y1="442.2" x2="498.54" y2="442.2"/><line class="cls-11" x1="518.31" y1="442.2" x2="580.03" y2="442.2"/><line class="cls-11" x1="382.3" y1="456.92" x2="464.99" y2="456.92"/><line class="cls-11" x1="484.76" y1="456.92" x2="580.03" y2="456.92"/><line class="cls-11" x1="429.64" y1="490.71" x2="464.99" y2="490.71"/><line class="cls-11" x1="484.76" y1="490.71" x2="550.67" y2="490.71"/><line class="cls-11" x1="440.42" y1="504.33" x2="464.99" y2="504.33"/><line class="cls-11" x1="484.76" y1="504.33" x2="568.64" y2="504.33"/><line class="cls-11" x1="429.64" y1="517.96" x2="464.99" y2="517.96"/><line class="cls-11" x1="484.76" y1="517.96" x2="550.67" y2="517.96"/><line class="cls-11" x1="440.42" y1="531.58" x2="464.99" y2="531.58"/><line class="cls-11" x1="484.76" y1="531.58" x2="568.64" y2="531.58"/><path class="cls-12" d="M252.17,415.3a10.69,10.69,0,1,1-10.69-10.69A10.7,10.7,0,0,1,252.17,415.3Z" transform="translate(-69.86 -163.3)"/><path class="cls-12" d="M248.3,364.85a4.94,4.94,0,1,1-4.94-4.94A4.94,4.94,0,0,1,248.3,364.85Z" transform="translate(-69.86 -163.3)"/><path class="cls-12" d="M266.43,364.85a4.95,4.95,0,1,1-4.95-4.94A4.95,4.95,0,0,1,266.43,364.85Z" transform="translate(-69.86 -163.3)"/><path class="cls-12" d="M284.55,364.85a4.94,4.94,0,1,1-4.94-4.94A4.94,4.94,0,0,1,284.55,364.85Z" transform="translate(-69.86 -163.3)"/><path class="cls-12" d="M252.17,457.6a10.69,10.69,0,1,1-10.69-10.69A10.69,10.69,0,0,1,252.17,457.6Z" transform="translate(-69.86 -163.3)"/><circle class="cls-12" cx="171.62" cy="336.6" r="10.69"/><path class="cls-12" d="M252.17,542.21a10.69,10.69,0,1,1-10.69-10.69A10.7,10.7,0,0,1,252.17,542.21Z" transform="translate(-69.86 -163.3)"/><path class="cls-13" d="M929.32,420h53.4a26.07,26.07,0,0,1,26.07,26.07V709.7a26.07,26.07,0,0,1-26.07,26.06H902" transform="translate(-69.86 -163.3)"/><g class="cls-14"><circle class="cls-15" cx="753.65" cy="258.18" r="185.27"/><circle class="cls-16" cx="753.65" cy="258.18" r="171.82"/><circle class="cls-17" cx="823.51" cy="421.48" r="142.13" transform="translate(-126.7 542.46) rotate(-45)"/></g><rect class="cls-6" x="646.23" y="50.42" width="214.8" height="403.15" rx="4.07"/><rect class="cls-9" x="652.39" y="57.48" width="202.49" height="389.03" rx="3.88"/><path class="cls-6" d="M717.83,55.16h71.6a0,0,0,0,1,0,0v5.18a2,2,0,0,1-2,2H719.84a2,2,0,0,1-2-2V55.16A0,0,0,0,1,717.83,55.16Z"/><line class="cls-18" x1="738.82" y1="57.48" x2="768.45" y2="57.48"/><circle class="cls-19" cx="823.5" cy="309.76" r="46.73" transform="translate(262.96 876.76) rotate(-76.72)"/><path class="cls-9" d="M835.53,309.27h-4.9a15.28,15.28,0,1,0-14.27,0h-4.9a14.62,14.62,0,0,0-14.61,14.62v4.87a5.7,5.7,0,0,0,5.71,5.71h41.88a5.71,5.71,0,0,0,5.71-5.71v-4.87A14.63,14.63,0,0,0,835.53,309.27Z" transform="translate(-69.86 -163.3)"/><path class="cls-20" d="M845.67,586.84H801.32a4.48,4.48,0,0,1-4.47-4.48h0a4.48,4.48,0,0,1,4.47-4.48h44.35a4.49,4.49,0,0,1,4.48,4.48h0A4.49,4.49,0,0,1,845.67,586.84Z" transform="translate(-69.86 -163.3)"/><path class="cls-21" d="M876,493.22H771a17.16,17.16,0,0,1-17.17-17.16h0A17.16,17.16,0,0,1,771,458.9H876a17.16,17.16,0,0,1,17.16,17.16h0A17.16,17.16,0,0,1,876,493.22Z" transform="translate(-69.86 -163.3)"/><path class="cls-22" d="M797.28,476.06a2.83,2.83,0,1,1-2.82-2.83A2.83,2.83,0,0,1,797.28,476.06Z" transform="translate(-69.86 -163.3)"/><path class="cls-23" d="M811.81,476.06a2.83,2.83,0,1,1-2.82-2.83A2.83,2.83,0,0,1,811.81,476.06Z" transform="translate(-69.86 -163.3)"/><path class="cls-24" d="M826.34,476.06a2.83,2.83,0,1,1-2.83-2.83A2.83,2.83,0,0,1,826.34,476.06Z" transform="translate(-69.86 -163.3)"/><path class="cls-25" d="M840.87,476.06a2.83,2.83,0,1,1-2.83-2.83A2.83,2.83,0,0,1,840.87,476.06Z" transform="translate(-69.86 -163.3)"/><path class="cls-26" d="M855.4,476.06a2.83,2.83,0,1,1-2.83-2.83A2.83,2.83,0,0,1,855.4,476.06Z" transform="translate(-69.86 -163.3)"/><path class="cls-27" d="M876,440.42H771a17.16,17.16,0,0,1-17.17-17.16h0A17.16,17.16,0,0,1,771,406.1H876a17.16,17.16,0,0,1,17.16,17.16h0A17.16,17.16,0,0,1,876,440.42Z" transform="translate(-69.86 -163.3)"/><path class="cls-28" d="M866.65,425H780.38a1.78,1.78,0,1,1,0-3.56h86.27a1.78,1.78,0,1,1,0,3.56Z" transform="translate(-69.86 -163.3)"/><rect class="cls-29" x="833.92" y="565.94" width="66.06" height="11.53"/><rect class="cls-30" x="833.92" y="564.3" width="41.72" height="3.3"/><rect class="cls-31" x="833.92" y="575.83" width="41.72" height="3.3"/><rect class="cls-32" x="861.03" y="250.93" width="66.06" height="11.53"/><rect class="cls-33" x="861.03" y="249.29" width="41.72" height="3.3"/><rect class="cls-34" x="861.03" y="260.82" width="41.72" height="3.3"/><path class="cls-13" d="M187.41,685.16v54.56a4.36,4.36,0,0,1-4.36,4.35H146.86" transform="translate(-69.86 -163.3)"/><circle class="cls-13" cx="117.55" cy="519.01" r="2.85"/><circle class="cls-13" cx="74.14" cy="580.77" r="2.85"/><circle class="cls-13" cx="87.14" cy="612.05" r="2.85"/><circle class="cls-13" cx="120.4" cy="588.07" r="2.85"/><path class="cls-13" d="M187.41,751.37h-26a4.36,4.36,0,0,0-4.36,4.36v17.13" transform="translate(-69.86 -163.3)"/><circle class="cls-13" cx="177.24" cy="160.85" r="2.85"/><path class="cls-13" d="M376.37,324.15a2.85,2.85,0,1,1-2.85-2.85A2.85,2.85,0,0,1,376.37,324.15Z" transform="translate(-69.86 -163.3)"/><line class="cls-13" x1="300.8" y1="160.85" x2="179.88" y2="160.85"/><circle class="cls-13" cx="697.05" cy="37.81" r="2.85"/><path class="cls-13" d="M785.92,201.12a2.86,2.86,0,1,1-2.86-2.86A2.86,2.86,0,0,1,785.92,201.12Z" transform="translate(-69.86 -163.3)"/><path class="cls-13" d="M705.16,273.82V211.2a10.08,10.08,0,0,1,10.08-10.08h48.83" transform="translate(-69.86 -163.3)"/><line class="cls-13" x1="716.05" y1="37.81" x2="759.95" y2="37.81"/><circle class="cls-13" cx="643.38" cy="647.24" r="2.85"/><circle class="cls-13" cx="827.54" cy="647.24" r="2.85"/><line class="cls-13" x1="646.23" y1="647.24" x2="824.69" y2="647.24"/><path class="cls-13" d="M946.76,715.48a2.85,2.85,0,1,1-2.85-2.85A2.85,2.85,0,0,1,946.76,715.48Z" transform="translate(-69.86 -163.3)"/><circle class="cls-13" cx="875.64" cy="432.24" r="2.85"/><circle class="cls-13" cx="846.18" cy="524.32" r="2.85"/><path class="cls-13" d="M916.05,684.77v-31a2.46,2.46,0,0,1,2.45-2.46h24.55a2.45,2.45,0,0,0,2.45-2.45V598.39" transform="translate(-69.86 -163.3)"/><path class="cls-13" d="M916.05,664.47h25.4a2.46,2.46,0,0,1,2.46,2.45v45.71" transform="translate(-69.86 -163.3)"/><circle class="cls-9" cx="468.94" cy="309.76" r="55.97" transform="translate(-152.71 39.73) rotate(-22.5)"/><path class="cls-35" d="M517.18,268.08a63.76,63.76,0,0,1-72.51,100.64" transform="translate(-69.86 -163.3)"/><path class="cls-35" d="M425.81,356.69A63.75,63.75,0,0,1,468.94,246" transform="translate(-69.86 -163.3)"/><path class="cls-36" d="M476.28,283.69h4.6l-17.46,49.85h-4.61Z" transform="translate(-69.86 -163.3)"/><path class="cls-37" d="M506.19,307.45V312l-23.71,9.37V317l18.84-7.25-18.84-7.25v-4.39Z" transform="translate(-69.86 -163.3)"/><path class="cls-38" d="M431.7,312v-4.55l23.71-9.37v4.39l-18.84,7.25L455.41,317v4.4Z" transform="translate(-69.86 -163.3)"/><circle class="cls-39" cx="101.06" cy="334.29" r="88.19"/><path class="cls-40" d="M246.93,431.92A100.48,100.48,0,0,1,132.67,590.51" transform="translate(-69.86 -163.3)"/><path class="cls-41" d="M102.94,571.55a100.46,100.46,0,0,1,68-174.41" transform="translate(-69.86 -163.3)"/><path class="cls-9" d="M158.31,452.65a1.51,1.51,0,0,0-.64.21,1.72,1.72,0,0,0-.42,2.37l3.64,5.44a21.45,21.45,0,0,0-11.19,13.88h46.66a21.39,21.39,0,0,0-11.19-13.88l3.64-5.44a1.69,1.69,0,1,0-2.79-1.9l-4,5.91a26.28,26.28,0,0,0-17.95,0l-4-5.91A1.69,1.69,0,0,0,158.31,452.65Zm5.43,13.45a2.54,2.54,0,1,1-2.53,2.54A2.54,2.54,0,0,1,163.74,466.1Zm18.58,0a2.54,2.54,0,1,1-2.53,2.54A2.54,2.54,0,0,1,182.32,466.1Zm-38,11.83a5.07,5.07,0,0,0-5.07,5.06v23.65a5.07,5.07,0,0,0,5.07,5.06,5,5,0,0,0,1.69-.31V478.24A5,5,0,0,0,144.32,477.93Zm5.07,0v37.15a5.07,5.07,0,0,0,5.06,5.07h37.16a5.08,5.08,0,0,0,5.07-5.07V477.93Zm52.35,0a4.91,4.91,0,0,0-1.68.31v33.15a5.16,5.16,0,0,0,1.68.31,5.07,5.07,0,0,0,5.07-5.06V483A5.07,5.07,0,0,0,201.74,477.93Zm-45.6,45.6v6.75a6.76,6.76,0,1,0,13.52,0v-6.75Zm20.27,0v6.75a6.76,6.76,0,1,0,13.51,0v-6.75Z" transform="translate(-69.86 -163.3)"/><path class="cls-42" d="M544.32,178l-7.47.38.38-7.48a26.14,26.14,0,0,0-9.65-4l-5,5.54-5-5.54a26.07,26.07,0,0,0-9.65,4l.38,7.48-7.48-.38a26.07,26.07,0,0,0-4,9.65l5.54,5-5.54,5a26.14,26.14,0,0,0,4,9.65l7.48-.38-.38,7.47a25.92,25.92,0,0,0,9.65,4l5-5.54,5,5.54a26,26,0,0,0,9.65-4l-.38-7.47,7.47.38a26,26,0,0,0,4-9.65l-5.54-5,5.54-5A25.92,25.92,0,0,0,544.32,178Z" transform="translate(-69.86 -163.3)"/><path class="cls-42" d="M534.05,192.64a11.48,11.48,0,1,1-11.48-11.48A11.48,11.48,0,0,1,534.05,192.64Z" transform="translate(-69.86 -163.3)"/><path class="cls-42" d="M807.67,675.81l-7.47.38.38-7.47a26,26,0,0,0-9.66-4l-5,5.55-5-5.55a26,26,0,0,0-9.66,4l.39,7.47-7.48-.38a26.12,26.12,0,0,0-4,9.66l5.54,5-5.54,5a26.07,26.07,0,0,0,4,9.65l7.48-.38-.39,7.48a26.19,26.19,0,0,0,9.66,4l5-5.54,5,5.54a26.19,26.19,0,0,0,9.66-4l-.38-7.48,7.47.38a25.92,25.92,0,0,0,4-9.65l-5.55-5,5.55-5A26,26,0,0,0,807.67,675.81Z" transform="translate(-69.86 -163.3)"/><path class="cls-42" d="M797.39,690.47A11.48,11.48,0,1,1,785.92,679,11.47,11.47,0,0,1,797.39,690.47Z" transform="translate(-69.86 -163.3)"/><path class="cls-9" d="M141.15,611.15a18,18,0,0,0-2.76-6.69l-5.19.26.27-5.18a18,18,0,0,0-6.7-2.77l-3.48,3.85-3.47-3.85a18,18,0,0,0-6.7,2.77l.27,5.18-5.19-.26a18.19,18.19,0,0,0-2.77,6.69l3.85,3.48-3.85,3.47a18.3,18.3,0,0,0,2.77,6.7l5.19-.26-.27,5.18a18.13,18.13,0,0,0,6.7,2.77l3.47-3.85,3.48,3.85a18.13,18.13,0,0,0,6.7-2.77l-.27-5.18,5.19.26a18.12,18.12,0,0,0,2.76-6.7l-3.84-3.47Zm-17.86,11.44a8,8,0,1,1,8-8A8,8,0,0,1,123.29,622.59Z" transform="translate(-69.86 -163.3)"/><path class="cls-9" d="M895,177.69a18.3,18.3,0,0,0-2.77-6.7l-5.19.26.27-5.18a18.3,18.3,0,0,0-6.7-2.77l-3.47,3.85-3.48-3.85a18.3,18.3,0,0,0-6.7,2.77l.27,5.18-5.19-.26a18.12,18.12,0,0,0-2.76,6.7l3.84,3.47-3.84,3.48a18.12,18.12,0,0,0,2.76,6.7l5.19-.27-.27,5.18a18,18,0,0,0,6.7,2.77l3.48-3.85,3.47,3.85a18,18,0,0,0,6.7-2.77l-.27-5.18,5.19.27a18.3,18.3,0,0,0,2.77-6.7l-3.85-3.48Zm-17.86,11.43a8,8,0,1,1,8-8A8,8,0,0,1,877.16,189.12Z" transform="translate(-69.86 -163.3)"/></svg>