<svg xmlns="http://www.w3.org/2000/svg" xmlns:xlink="http://www.w3.org/1999/xlink" viewBox="0 0 731.98 753.39"><defs><style>.cls-1{isolation:isolate;}.cls-2,.cls-3,.cls-42{fill:none;}.cls-2,.cls-3{stroke:#231f20;}.cls-2,.cls-42,.cls-58{stroke-miterlimit:10;}.cls-3{stroke-linecap:round;stroke-linejoin:round;stroke-dasharray:4.41 5;}.cls-4{fill:#1d2328;}.cls-5,.cls-58{fill:#fff;}.cls-6{fill:#b7b7b7;}.cls-7{fill:#cecece;}.cls-8{fill:#ececec;}.cls-9{fill:url(#linear-gradient);}.cls-10{fill:url(#linear-gradient-2);}.cls-11{fill:url(#linear-gradient-3);}.cls-12{fill:url(#linear-gradient-4);}.cls-13{fill:url(#linear-gradient-5);}.cls-14{fill:url(#linear-gradient-6);}.cls-15{fill:url(#linear-gradient-7);}.cls-16{fill:url(#linear-gradient-8);}.cls-17{fill:url(#linear-gradient-9);}.cls-18{fill:url(#linear-gradient-10);}.cls-19{fill:url(#linear-gradient-11);}.cls-20{fill:url(#linear-gradient-12);}.cls-21{fill:#86c82e;}.cls-22{fill:url(#linear-gradient-13);}.cls-23{fill:url(#linear-gradient-14);}.cls-24{fill:url(#linear-gradient-15);}.cls-25{fill:url(#linear-gradient-16);}.cls-26{fill:url(#linear-gradient-17);}.cls-27{fill:url(#linear-gradient-18);}.cls-28{fill:#e3e3e3;}.cls-29,.cls-37{fill:gray;}.cls-29,.cls-36{opacity:0.5;mix-blend-mode:multiply;}.cls-30{fill:url(#linear-gradient-19);}.cls-31{fill:#f8ede7;}.cls-32{fill:url(#linear-gradient-20);}.cls-33{fill:url(#linear-gradient-21);}.cls-34{fill:#96a0a9;}.cls-35{fill:#f2bd7d;}.cls-38{fill:#e0e0e0;}.cls-39{fill:url(#linear-gradient-22);}.cls-40{fill:url(#linear-gradient-23);}.cls-41{fill:url(#linear-gradient-24);}.cls-42,.cls-58{stroke-width:0.5px;}.cls-42{stroke:url(#linear-gradient-25);}.cls-43{fill:url(#linear-gradient-26);}.cls-44{fill:url(#linear-gradient-27);}.cls-45{fill:#dedede;}.cls-46{fill:#2c4a5d;}.cls-47,.cls-48,.cls-49,.cls-50{opacity:0.79;}.cls-47{fill:url(#linear-gradient-28);}.cls-48{fill:url(#linear-gradient-29);}.cls-49{fill:url(#linear-gradient-30);}.cls-50{fill:url(#linear-gradient-31);}.cls-51{fill:url(#linear-gradient-32);}.cls-52{fill:url(#linear-gradient-33);}.cls-53{fill:url(#linear-gradient-34);}.cls-54{fill:url(#linear-gradient-35);}.cls-55{fill:#f9f9f9;}.cls-56{fill:#23baf5;}.cls-57{fill:#34323d;}.cls-58{stroke:#1d2328;}.cls-59{fill:#e9e9e9;}.cls-60{fill:#232323;}.cls-61{fill:url(#linear-gradient-36);}.cls-62{fill:#bdc7d0;}.cls-63{fill:url(#linear-gradient-37);}.cls-64{fill:#363636;}.cls-65,.cls-66{opacity:0.65;mix-blend-mode:color-dodge;}.cls-65{fill:url(#linear-gradient-38);}.cls-67{fill:url(#linear-gradient-39);}.cls-68{fill:url(#linear-gradient-40);}.cls-69{fill:url(#linear-gradient-41);}.cls-70{fill:url(#linear-gradient-42);}.cls-71{fill:url(#linear-gradient-43);}.cls-72{fill:url(#linear-gradient-44);}.cls-73{fill:url(#linear-gradient-45);}.cls-74{fill:url(#linear-gradient-46);}.cls-75{fill:url(#linear-gradient-47);}.cls-76{fill:url(#linear-gradient-48);}.cls-77{fill:url(#linear-gradient-49);}.cls-78{fill:url(#linear-gradient-50);}.cls-79{fill:url(#linear-gradient-51);}.cls-80{fill:url(#linear-gradient-52);}.cls-81{fill:url(#linear-gradient-53);}.cls-82{fill:url(#linear-gradient-54);}.cls-83{fill:url(#linear-gradient-55);}.cls-84{fill:url(#linear-gradient-56);}.cls-85{fill:url(#linear-gradient-57);}</style><linearGradient id="linear-gradient" x1="191.58" y1="257.35" x2="247.02" y2="257.35" gradientUnits="userSpaceOnUse"><stop offset="0" stop-color="#23baf5"/><stop offset="1" stop-color="#1c62d1"/></linearGradient><linearGradient id="linear-gradient-2" x1="251.75" y1="257.35" x2="296.44" y2="257.35" xlink:href="#linear-gradient"/><linearGradient id="linear-gradient-3" x1="311.91" y1="257.35" x2="345.86" y2="257.35" xlink:href="#linear-gradient"/><linearGradient id="linear-gradient-4" x1="370.57" y1="257.35" x2="402.16" y2="257.35" xlink:href="#linear-gradient"/><linearGradient id="linear-gradient-5" x1="420" y1="257.35" x2="462.33" y2="257.35" xlink:href="#linear-gradient"/><linearGradient id="linear-gradient-6" x1="469.42" y1="257.35" x2="522.49" y2="257.35" xlink:href="#linear-gradient"/><linearGradient id="linear-gradient-7" x1="365.59" y1="456.56" x2="395.67" y2="456.56" xlink:href="#linear-gradient"/><linearGradient id="linear-gradient-8" x1="425.76" y1="456.56" x2="455.84" y2="456.56" xlink:href="#linear-gradient"/><linearGradient id="linear-gradient-9" x1="485.92" y1="456.56" x2="516" y2="456.56" xlink:href="#linear-gradient"/><linearGradient id="linear-gradient-10" x1="666.41" y1="456.56" x2="696.49" y2="456.56" xlink:href="#linear-gradient"/><linearGradient id="linear-gradient-11" x1="606.25" y1="456.56" x2="636.33" y2="456.56" xlink:href="#linear-gradient"/><linearGradient id="linear-gradient-12" x1="546.08" y1="456.56" x2="576.17" y2="456.56" xlink:href="#linear-gradient"/><linearGradient id="linear-gradient-13" x1="586.57" y1="548.64" x2="632.42" y2="548.64" xlink:href="#linear-gradient"/><linearGradient id="linear-gradient-14" x1="590.51" y1="548.64" x2="636.35" y2="548.64" xlink:href="#linear-gradient"/><linearGradient id="linear-gradient-15" x1="239.47" y1="410.41" x2="314.94" y2="410.41" xlink:href="#linear-gradient"/><linearGradient id="linear-gradient-16" x1="314.94" y1="410.41" x2="319.98" y2="410.41" xlink:href="#linear-gradient"/><linearGradient id="linear-gradient-17" x1="312.74" y1="447.6" x2="321.74" y2="447.6" xlink:href="#linear-gradient"/><linearGradient id="linear-gradient-18" x1="237.27" y1="447.6" x2="314.94" y2="447.6" xlink:href="#linear-gradient"/><linearGradient id="linear-gradient-19" x1="585.35" y1="537.05" x2="672.69" y2="537.05" xlink:href="#linear-gradient"/><linearGradient id="linear-gradient-20" x1="500.41" y1="244.08" x2="549.83" y2="244.08" xlink:href="#linear-gradient"/><linearGradient id="linear-gradient-21" x1="500.41" y1="273.74" x2="549.83" y2="273.74" xlink:href="#linear-gradient"/><linearGradient id="linear-gradient-22" x1="743.84" y1="325.93" x2="749.4" y2="325.93" xlink:href="#linear-gradient"/><linearGradient id="linear-gradient-23" x1="675.25" y1="325.93" x2="680.82" y2="325.93" xlink:href="#linear-gradient"/><linearGradient id="linear-gradient-24" x1="687.83" y1="320.44" x2="737.62" y2="320.44" xlink:href="#linear-gradient"/><linearGradient id="linear-gradient-25" x1="738.65" y1="321.68" x2="686.81" y2="321.68" xlink:href="#linear-gradient"/><linearGradient id="linear-gradient-26" x1="812.55" y1="403.63" x2="828.15" y2="403.63" xlink:href="#linear-gradient"/><linearGradient id="linear-gradient-27" x1="788.57" y1="430.36" x2="869.26" y2="430.36" xlink:href="#linear-gradient"/><linearGradient id="linear-gradient-28" x1="839.77" y1="586.05" x2="882.67" y2="586.05" xlink:href="#linear-gradient"/><linearGradient id="linear-gradient-29" x1="844.56" y1="586.05" x2="877.88" y2="586.05" xlink:href="#linear-gradient"/><linearGradient id="linear-gradient-30" x1="673.1" y1="418.99" x2="683.79" y2="418.99" xlink:href="#linear-gradient"/><linearGradient id="linear-gradient-31" x1="856.68" y1="575.42" x2="861.31" y2="575.42" xlink:href="#linear-gradient"/><linearGradient id="linear-gradient-32" x1="224.95" y1="479.47" x2="242.64" y2="479.47" xlink:href="#linear-gradient"/><linearGradient id="linear-gradient-33" x1="269.23" y1="479.47" x2="286.93" y2="479.47" xlink:href="#linear-gradient"/><linearGradient id="linear-gradient-34" x1="330.42" y1="295.52" x2="393.04" y2="295.52" xlink:href="#linear-gradient"/><linearGradient id="linear-gradient-35" x1="183.08" y1="129.3" x2="189" y2="129.3" xlink:href="#linear-gradient"/><linearGradient id="linear-gradient-36" x1="630.04" y1="796.33" x2="720.2" y2="796.33" xlink:href="#linear-gradient"/><linearGradient id="linear-gradient-37" x1="650.77" y1="809.89" x2="728.59" y2="809.89" xlink:href="#linear-gradient"/><linearGradient id="linear-gradient-38" x1="617.98" y1="195.9" x2="685.27" y2="195.9" xlink:href="#linear-gradient"/><linearGradient id="linear-gradient-39" x1="498.04" y1="805.17" x2="503.9" y2="805.17" xlink:href="#linear-gradient"/><linearGradient id="linear-gradient-40" x1="486.71" y1="771.11" x2="515.21" y2="771.11" xlink:href="#linear-gradient"/><linearGradient id="linear-gradient-41" x1="483.94" y1="779.84" x2="488.28" y2="779.84" xlink:href="#linear-gradient"/><linearGradient id="linear-gradient-42" x1="473.13" y1="813.49" x2="528.79" y2="813.49" xlink:href="#linear-gradient"/><linearGradient id="linear-gradient-43" x1="499.87" y1="786.07" x2="515.95" y2="786.07" xlink:href="#linear-gradient"/><linearGradient id="linear-gradient-44" x1="499.87" y1="788.19" x2="510.52" y2="788.19" xlink:href="#linear-gradient"/><linearGradient id="linear-gradient-45" x1="489.61" y1="779.84" x2="512.31" y2="779.84" xlink:href="#linear-gradient"/><linearGradient id="linear-gradient-46" x1="513.66" y1="779.84" x2="518" y2="779.84" xlink:href="#linear-gradient"/><linearGradient id="linear-gradient-47" x1="518.48" y1="902.55" x2="581.17" y2="902.55" xlink:href="#linear-gradient"/><linearGradient id="linear-gradient-48" x1="339.67" y1="723.69" x2="411.97" y2="723.69" xlink:href="#linear-gradient"/><linearGradient id="linear-gradient-49" x1="551.22" y1="877.11" x2="573.19" y2="877.11" xlink:href="#linear-gradient"/><linearGradient id="linear-gradient-50" x1="551.23" y1="876.88" x2="573.2" y2="876.88" xlink:href="#linear-gradient"/><linearGradient id="linear-gradient-51" x1="570.84" y1="885.8" x2="571.97" y2="885.8" xlink:href="#linear-gradient"/><linearGradient id="linear-gradient-52" x1="527.13" y1="877.11" x2="549.1" y2="877.11" xlink:href="#linear-gradient"/><linearGradient id="linear-gradient-53" x1="527.12" y1="876.88" x2="549.09" y2="876.88" xlink:href="#linear-gradient"/><linearGradient id="linear-gradient-54" x1="528.35" y1="885.8" x2="529.48" y2="885.8" xlink:href="#linear-gradient"/><linearGradient id="linear-gradient-55" x1="227.76" y1="248.24" x2="276.79" y2="248.24" xlink:href="#linear-gradient"/><linearGradient id="linear-gradient-56" x1="223.81" y1="271.77" x2="279.83" y2="271.77" xlink:href="#linear-gradient"/><linearGradient id="linear-gradient-57" x1="263.57" y1="271.77" x2="271.3" y2="271.77" xlink:href="#linear-gradient"/></defs><title>e- commerce website development  _vector_img</title><g class="cls-1"><g id="Layer_1" data-name="Layer 1"><path class="cls-2" d="M316.37,781.31a304.19,304.19,0,0,1-90.44-216.83c0-168.51,136.6-305.12,305.12-305.12S836.16,396,836.16,564.48a304.66,304.66,0,0,1-123.09,244.9" transform="translate(-174.01 -163.3)"/><path class="cls-3" d="M573.94,850.94a291.61,291.61,0,0,1-42.89,3.15c-159.95,0-289.62-129.66-289.62-289.61S371.1,274.86,531.05,274.86a288.85,288.85,0,0,1,110,21.6" transform="translate(-174.01 -163.3)"/><path class="cls-3" d="M302.6,339.62a319.58,319.58,0,0,1,228.45-95.68c177,0,320.54,143.51,320.54,320.54,0,154.9-109.88,284.14-255.94,314" transform="translate(-174.01 -163.3)"/><rect class="cls-4" x="198.02" y="277.83" width="318.03" height="230.36" rx="4.12"/><rect class="cls-5" x="208.38" y="287.26" width="297.31" height="211.52"/><rect class="cls-6" x="331.81" y="507.72" width="50.45" height="29.73"/><path class="cls-4" d="M618.44,715.63H443.65V704.88a4.11,4.11,0,0,0,4.12-4.12H614.31a4.13,4.13,0,0,1,4.13,4.12Z" transform="translate(-174.01 -163.3)"/><path class="cls-7" d="M382.39,490.58a15,15,0,0,0,13.28-14.93h30.09a15,15,0,0,0,30.08,0h30.08a15,15,0,0,0,30.08,0h30.08a15,15,0,0,0,30.09,0h30.08a15,15,0,0,0,30.08,0h30.08a15,15,0,0,0,13.29,14.93v-40H382.39Z" transform="translate(-174.01 -163.3)"/><rect class="cls-8" x="341.99" y="264.67" width="30.08" height="42.13"/><rect class="cls-8" x="281.83" y="264.67" width="30.08" height="42.13"/><rect class="cls-8" x="221.67" y="264.67" width="30.08" height="42.13"/><polygon class="cls-5" points="251.75 264.67 221.67 264.67 247.02 250.03 271.73 250.03 251.75 264.67"/><polygon class="cls-5" points="311.91 264.67 281.83 264.67 296.44 250.03 321.15 250.03 311.91 264.67"/><polygon class="cls-5" points="372.08 264.67 341.99 264.67 345.86 250.03 370.57 250.03 372.08 264.67"/><polygon class="cls-5" points="432.24 264.67 402.16 264.67 395.28 250.03 420 250.03 432.24 264.67"/><polygon class="cls-5" points="492.41 264.67 462.32 264.67 444.71 250.03 469.42 250.03 492.41 264.67"/><polygon class="cls-9" points="221.67 264.67 191.58 264.67 222.31 250.03 247.02 250.03 221.67 264.67"/><polygon class="cls-10" points="281.83 264.67 251.75 264.67 271.73 250.03 296.44 250.03 281.83 264.67"/><polygon class="cls-11" points="341.99 264.67 311.91 264.67 321.15 250.03 345.86 250.03 341.99 264.67"/><polygon class="cls-12" points="402.16 264.67 372.08 264.67 370.57 250.03 395.28 250.03 402.16 264.67"/><polygon class="cls-13" points="462.32 264.67 432.24 264.67 420 250.03 444.71 250.03 462.32 264.67"/><polygon class="cls-14" points="522.49 264.67 492.41 264.67 469.42 250.03 494.13 250.03 522.49 264.67"/><path class="cls-15" d="M365.59,428v42.13a15,15,0,0,0,30.08,0V428Z" transform="translate(-174.01 -163.3)"/><path class="cls-16" d="M425.76,428v42.13a15,15,0,1,0,30.08,0V428Z" transform="translate(-174.01 -163.3)"/><path class="cls-17" d="M485.92,428v42.13a15,15,0,0,0,30.08,0V428Z" transform="translate(-174.01 -163.3)"/><rect class="cls-8" x="402.16" y="264.67" width="30.08" height="42.13"/><rect class="cls-8" x="462.32" y="264.67" width="30.08" height="42.13"/><path class="cls-18" d="M696.49,428v42.13a15,15,0,1,1-30.08,0V428Z" transform="translate(-174.01 -163.3)"/><path class="cls-19" d="M636.33,428v42.13a15,15,0,0,1-30.08,0V428Z" transform="translate(-174.01 -163.3)"/><path class="cls-20" d="M576.17,428v42.13a15,15,0,0,1-30.09,0V428Z" transform="translate(-174.01 -163.3)"/><path class="cls-8" d="M679.7,489.43c-139.63,5.12-237.34,45.26-297.31,172.65H679.7Z" transform="translate(-174.01 -163.3)"/><path class="cls-21" d="M679.34,666.33a2.86,2.86,0,1,1-2.86-2.86A2.86,2.86,0,0,1,679.34,666.33Z" transform="translate(-174.01 -163.3)"/><path class="cls-22" d="M631.86,565.74a.56.56,0,0,1-.57-.56c0-.33-.24-32.51-21.8-32.51s-21.8,32.18-21.8,32.51a.56.56,0,1,1-1.12,0c0-.34.26-33.63,22.92-33.63s22.93,33.29,22.93,33.63A.57.57,0,0,1,631.86,565.74Z" transform="translate(-174.01 -163.3)"/><path class="cls-23" d="M635.79,565.74a.56.56,0,0,1-.56-.56c0-.33-.25-32.51-21.8-32.51s-21.8,32.18-21.8,32.51a.56.56,0,1,1-1.12,0c0-.34.26-33.63,22.92-33.63s22.92,33.29,22.92,33.63A.56.56,0,0,1,635.79,565.74Z" transform="translate(-174.01 -163.3)"/><rect class="cls-4" x="401.29" y="395.15" width="76.33" height="57.97"/><polygon class="cls-4" points="401.29 453.12 395.88 449.34 395.88 397.52 401.29 395.15 401.29 453.12"/><rect x="416.01" y="395.15" width="2.23" height="13.32"/><rect x="460.66" y="395.15" width="2.23" height="13.32"/><polygon class="cls-4" points="395.88 449.34 398.58 445.05 401.29 453.12 395.88 449.34"/><polygon class="cls-4" points="398.58 445.05 401.29 453.12 401.29 395.15 398.58 396.33 398.58 445.05"/><path class="cls-4" d="M436.63,549.5a.94.94,0,0,1-.94-.94c0-.32.24-30.71,21.07-30.71s21.06,30.39,21.06,30.71a.94.94,0,0,1-1.88,0c0-.29-.24-28.82-19.18-28.82s-19.18,28.53-19.18,28.82A1,1,0,0,1,436.63,549.5Z" transform="translate(-174.01 -163.3)"/><rect class="cls-24" x="239.47" y="378.34" width="75.47" height="64.15"/><polygon class="cls-25" points="319.98 442.49 314.94 442.49 314.94 378.33 319.98 380.53 319.98 442.49"/><polygon class="cls-26" points="321.74 450.89 312.75 452.71 314.94 442.49 319.98 442.49 321.74 450.89"/><polygon class="cls-27" points="312.75 452.71 237.27 452.71 239.47 442.49 314.94 442.49 312.75 452.71"/><path class="cls-28" d="M433.92,548.56a2.83,2.83,0,1,1-2.83-2.84A2.84,2.84,0,0,1,433.92,548.56Zm-2.83-1.14a1.14,1.14,0,1,0,1.14,1.14A1.14,1.14,0,0,0,431.09,547.42Z" transform="translate(-174.01 -163.3)"/><path class="cls-28" d="M471.34,545.72a2.84,2.84,0,1,1-2.83,2.84A2.84,2.84,0,0,1,471.34,545.72Zm-1.14,2.84a1.14,1.14,0,1,0,1.14-1.14A1.14,1.14,0,0,0,470.2,548.56Z" transform="translate(-174.01 -163.3)"/><path class="cls-4" d="M431.09,549.5a.94.94,0,0,1-.94-.94c0-.32.24-30.71,21.06-30.71s21.07,30.39,21.07,30.71a.95.95,0,0,1-1.89,0c0-.29-.23-28.82-19.18-28.82S432,548.27,432,548.56A.94.94,0,0,1,431.09,549.5Z" transform="translate(-174.01 -163.3)"/><path class="cls-29" d="M857.06,678.63a14,14,0,0,0-23.82-10,44.75,44.75,0,1,0,16.21,22.46A14,14,0,0,0,857.06,678.63Z" transform="translate(-174.01 -163.3)"/><circle class="cls-30" cx="629.02" cy="537.05" r="43.67"/><path class="cls-5" d="M803,655.5a44.85,44.85,0,1,0,44.85,44.85A44.9,44.9,0,0,0,803,655.5Zm0,87.34a42.49,42.49,0,1,1,42.49-42.49A42.53,42.53,0,0,1,803,742.84Z" transform="translate(-174.01 -163.3)"/><polygon class="cls-5" points="611.86 530.78 650.63 531.03 644.36 551.21 613.29 551.01 604.03 519.78 604.03 519.47 595.13 519.41 595.12 522 602 522.04 611.35 553.59 611.5 553.54 611.5 553.58 646.24 553.8 646.27 553.82 646.27 553.8 646.27 553.8 646.27 553.77 653.34 531.04 653.36 528.46 611.09 528.19 611.86 530.78"/><path class="cls-5" d="M816.55,718.89a3.72,3.72,0,1,0,3.69,3.74A3.73,3.73,0,0,0,816.55,718.89Z" transform="translate(-174.01 -163.3)"/><path class="cls-5" d="M791.55,718.72a3.73,3.73,0,1,0,3.71,3.76A3.72,3.72,0,0,0,791.55,718.72Z" transform="translate(-174.01 -163.3)"/><polygon class="cls-5" points="614.16 538.52 643.53 538.71 644.33 536.12 613.39 535.93 614.16 538.52"/><polygon class="cls-5" points="616.41 546.09 641.18 546.25 641.99 543.67 615.64 543.5 616.41 546.09"/><circle class="cls-4" cx="665.32" cy="510.95" r="14.01"/><path class="cls-5" d="M846.33,671.84h-4.84V667a2.33,2.33,0,1,0-4.66,0v4.84H832a2.33,2.33,0,1,0,0,4.66h4.84v4.84a2.33,2.33,0,1,0,4.66,0V676.5h4.84a2.33,2.33,0,1,0,0-4.66Z" transform="translate(-174.01 -163.3)"/><path class="cls-29" d="M576.05,292.25V272.83a4.11,4.11,0,0,0-4.23-4,4.27,4.27,0,0,0-3.89,2.41h-.34v-1.34a4,4,0,0,0-2.85-3.74V225.62c0-2.91-2.88-5.26-6.43-5.26H497.59c-3.55,0-6.43,2.35-6.43,5.26v85.74c0,2.91,2.88,5.26,6.43,5.26h46.35v10.1h32.11V306.43h-3.83v-5.1C574.44,300.64,576.05,296.84,576.05,292.25Z" transform="translate(-174.01 -163.3)"/><path class="cls-4" d="M561,307c0,2.9-2.87,5.25-6.42,5.25H493.88c-3.56,0-6.44-2.35-6.44-5.25V221.25c0-2.91,2.88-5.26,6.44-5.26H554.6c3.55,0,6.42,2.35,6.42,5.26Z" transform="translate(-174.01 -163.3)"/><path class="cls-31" d="M556,300.64c0,2.36-2.48,4.28-5.54,4.28H498.06c-3.06,0-5.54-1.92-5.54-4.28v-70c0-2.37,2.48-4.29,5.54-4.29h52.35c3.06,0,5.54,1.92,5.54,4.29Z" transform="translate(-174.01 -163.3)"/><path class="cls-32" d="M549.83,247.84c0,3.24-2.28,5.87-5.1,5.87H505.5c-2.81,0-5.09-2.63-5.09-5.87v-7.51c0-3.25,2.28-5.88,5.09-5.88h39.23c2.82,0,5.1,2.63,5.1,5.88Z" transform="translate(-174.01 -163.3)"/><path class="cls-33" d="M549.83,277.49c0,3.25-2.28,5.88-5.1,5.88H505.5c-2.81,0-5.09-2.63-5.09-5.88V270c0-3.24,2.28-5.87,5.09-5.87h39.23c2.82,0,5.1,2.63,5.1,5.87Z" transform="translate(-174.01 -163.3)"/><path class="cls-34" d="M530.53,221.72H517.94a1.24,1.24,0,1,1,0-2.47h12.59a1.24,1.24,0,1,1,0,2.47Z" transform="translate(-174.01 -163.3)"/><path class="cls-35" d="M568.1,264.48a4.27,4.27,0,0,0-3.89,2.41h-.34v-1.34a4.24,4.24,0,0,0-8.47,0v-.79a4.24,4.24,0,0,0-8.47,0V243a4.26,4.26,0,0,0-8.47,0v38.73h-1.6l-3.53-2.94s-6.06-4.35-9.08-3.16-3,3.9,0,6.1,6.35,2.75,7.56,5.29c3.66,7.7,9.53,9.77,11.56,10.1v11.3h25.14V297c2.21-.69,3.83-4.48,3.83-9.08V268.46A4.11,4.11,0,0,0,568.1,264.48Z" transform="translate(-174.01 -163.3)"/><rect class="cls-4" x="366.22" y="138.76" width="32.11" height="20.29"/><g class="cls-36"><path class="cls-37" d="M765.06,313.77a11.33,11.33,0,0,0-7.38-3.78,10.4,10.4,0,0,0-1.41-.24v-2.9a37.15,37.15,0,0,0-37-37.2h-6.46a37.15,37.15,0,0,0-37,37.2v2.9a10.4,10.4,0,0,0-1.41.24,11.37,11.37,0,0,0-7.39,3.78c-2.77,3.48-5,10.92-5,16.53s2.28,13,5,16.52a11.31,11.31,0,0,0,7.39,3.78,8.91,8.91,0,0,0,4.56,0c3.3-.91,5.57-3.89,5.57-8V318a8.12,8.12,0,0,0-3.34-6.92v-4.18a31.75,31.75,0,0,1,31.62-31.8h6.46a31.75,31.75,0,0,1,31.62,31.8V311a8.12,8.12,0,0,0-3.34,6.92v24.69a8.29,8.29,0,0,0,2.7,6.4c-.29.71-.61,1.47-1,2.31l-.31.74a11.72,11.72,0,0,1-9.86,6.58H730.3l-.07-.14c0,.05,0,.09,0,.14h-.06a3,3,0,0,0-.07-.32c0,.06.08.13.11.18a5.26,5.26,0,0,0-.36-.95,8.71,8.71,0,0,0-4.5-3.8,16,16,0,0,0-3.86-1.09,17.4,17.4,0,0,0-4.52-.08,7.82,7.82,0,0,0-4.59,2.13,6.53,6.53,0,0,0-1.4,2.37,13,13,0,0,0-.34,1.37l-.13,1.29a7.66,7.66,0,0,0,1.61,5.26,8.23,8.23,0,0,0,4.81,2.59c.85.18,1.53.19,2.27.28a18.8,18.8,0,0,0,2.41,0,16.46,16.46,0,0,0,4.22-.88,10.19,10.19,0,0,0,5.56-4.19,7.58,7.58,0,0,0,.55-1.22c.06-.24.13-.49.17-.7h7A13.94,13.94,0,0,0,751,352.94l.31-.75c.3-.72.56-1.36.81-1.95a6.35,6.35,0,0,0,1,.36,8.91,8.91,0,0,0,4.56,0,11.28,11.28,0,0,0,7.38-3.78c2.79-3.48,5.06-10.91,5.06-16.52S767.85,317.25,765.06,313.77Z" transform="translate(-174.01 -163.3)"/><path class="cls-37" d="M713.58,339.29c6.56-.1,19.53-2,23.52-6.46a19.72,19.72,0,0,0-1.42-27.71c-3.49-3.16-10.45-5.05-18.61-5.05-7.48,0-17,1.7-21.29,6.47a19.12,19.12,0,0,0,9.92,31.9l5.1,13Z" transform="translate(-174.01 -163.3)"/></g><path class="cls-5" d="M751.77,308H748v-5.48a32.54,32.54,0,0,0-32.4-32.59H709.1a32.53,32.53,0,0,0-32.4,32.59V308h-3.82v-5.48a36.36,36.36,0,0,1,36.22-36.42h6.46a36.36,36.36,0,0,1,36.21,36.42Z" transform="translate(-174.01 -163.3)"/><path class="cls-38" d="M752.56,308.74h-5.39v-6.26a31.74,31.74,0,0,0-31.61-31.8H709.1a31.75,31.75,0,0,0-31.62,31.8v6.26H672.1v-6.26a37.15,37.15,0,0,1,37-37.2h6.46a37.15,37.15,0,0,1,37,37.2Zm-3.81-1.57H751v-4.69a35.57,35.57,0,0,0-35.43-35.63H709.1a35.57,35.57,0,0,0-35.43,35.63v4.69h2.24v-4.69a33.32,33.32,0,0,1,33.19-33.37h6.46a33.32,33.32,0,0,1,33.19,33.37Z" transform="translate(-174.01 -163.3)"/><path class="cls-38" d="M735.42,356.5H724.75v-2.2h10.67a11.71,11.71,0,0,0,9.85-6.58l.31-.74c1.66-4,2.72-6.64,2.93-7.24l0-.09v0l.05,0h2.11v.25c0,.23,0,.47-3.09,7.92l-.32.75A13.91,13.91,0,0,1,735.42,356.5Z" transform="translate(-174.01 -163.3)"/><path class="cls-4" d="M761.35,309.41a11.28,11.28,0,0,0-7.38-3.78,8.84,8.84,0,0,0-4.57,0v40.61a8.94,8.94,0,0,0,4.57,0,11.28,11.28,0,0,0,7.38-3.78c2.78-3.48,5-10.91,5-16.52S764.13,312.88,761.35,309.41Z" transform="translate(-174.01 -163.3)"/><path class="cls-39" d="M743.84,313.58v24.69c0,4.08,2.27,7.05,5.56,8V305.62C746.11,306.54,743.84,309.51,743.84,313.58Z" transform="translate(-174.01 -163.3)"/><path class="cls-4" d="M670.69,305.63a11.29,11.29,0,0,0-7.39,3.78c-2.78,3.47-5,10.91-5,16.52s2.27,13,5,16.52a11.29,11.29,0,0,0,7.39,3.78,8.91,8.91,0,0,0,4.56,0V305.62A8.8,8.8,0,0,0,670.69,305.63Z" transform="translate(-174.01 -163.3)"/><path class="cls-40" d="M675.25,305.62v40.61c3.29-.91,5.57-3.88,5.57-8V313.58C680.82,309.51,678.54,306.54,675.25,305.62Z" transform="translate(-174.01 -163.3)"/><path class="cls-5" d="M726.66,355.4c0,3.73-4.9,6.75-10.94,6.75s-8-3-8-6.75,1.91-6.75,8-6.75S726.66,351.67,726.66,355.4Z" transform="translate(-174.01 -163.3)"/><path class="cls-38" d="M728.56,355.55s0,.21-.07.59a9.08,9.08,0,0,1-.25,1.06,7.58,7.58,0,0,1-.55,1.22,10.15,10.15,0,0,1-5.56,4.19,16.37,16.37,0,0,1-4.22.88,18.61,18.61,0,0,1-2.4,0c-.75-.09-1.43-.1-2.27-.27a8.3,8.3,0,0,1-4.81-2.6,7.72,7.72,0,0,1-1.62-5.26l.14-1.29c.06-.42.22-.92.33-1.36a6.51,6.51,0,0,1,1.41-2.38,7.72,7.72,0,0,1,4.59-2.12,16.91,16.91,0,0,1,4.51.07,16.09,16.09,0,0,1,3.87,1.09,8.72,8.72,0,0,1,4.5,3.81,4.55,4.55,0,0,1,.5,2.18Zm-1.33-.11s-.49-.92-1.21-2.15a8.4,8.4,0,0,0-4.58-3.32,14.76,14.76,0,0,0-3.74-.76,16.35,16.35,0,0,0-4.22.23,6.31,6.31,0,0,0-3.63,2,4.8,4.8,0,0,0-.91,1.82c-.05.35-.15.63-.18,1l0,1.15a5.6,5.6,0,0,0,1.39,3.75,6,6,0,0,0,3.41,1.5c.65.1,1.48.07,2.19.1a16.78,16.78,0,0,0,1.87-.18,13.93,13.93,0,0,0,3.39-1c3.78-.91,5.66-5.23,5.66-5.23Z" transform="translate(-174.01 -163.3)"/><path class="cls-41" d="M731.44,301.34c-7.68-7-31.85-6.36-38.79,1.36a18.35,18.35,0,0,0,9.92,30.7l4.32,11,2.34-10.27c6.79,0,19.85-2.05,23.57-6.2A18.91,18.91,0,0,0,731.44,301.34Z" transform="translate(-174.01 -163.3)"/><path class="cls-42" d="M707.09,347.06l-5.1-13a19.11,19.11,0,0,1-9.92-31.89c4.29-4.78,13.81-6.48,21.28-6.48,8.17,0,15.13,1.89,18.62,5.05a19.73,19.73,0,0,1,1.41,27.72c-4,4.44-17,6.35-23.52,6.45Zm6.26-49.79c-9,0-16.86,2.34-20.11,6a18.16,18.16,0,0,0,1.3,25.51,18.35,18.35,0,0,0,8.21,3.9l.4.1,3.54,9,1.92-8.4h.63c7.42,0,19.67-2.26,23-5.94a18.15,18.15,0,0,0-1.3-25.5C727.75,299.05,721,297.27,713.35,297.27Z" transform="translate(-174.01 -163.3)"/><path class="cls-4" d="M726,310.61H700.13a1.1,1.1,0,1,1,0-2.2H726a1.1,1.1,0,0,1,0,2.2Z" transform="translate(-174.01 -163.3)"/><path class="cls-4" d="M726,316.6H700.13a1.1,1.1,0,1,1,0-2.2H726a1.1,1.1,0,0,1,0,2.2Z" transform="translate(-174.01 -163.3)"/><path class="cls-4" d="M726,322.59H700.13a1.1,1.1,0,0,1,0-2.2H726a1.1,1.1,0,0,1,0,2.2Z" transform="translate(-174.01 -163.3)"/><path class="cls-29" d="M880.66,456.72a5.06,5.06,0,0,0-.23-1,5.54,5.54,0,0,0-7-3.56l-.93.3L854.57,395.9a1.13,1.13,0,0,0-1.41-.74s-19.95,6.4-20,6.35l-3.5,1.11a.89.89,0,0,0-.56,0l-12.21,3.87a.85.85,0,0,0-.44.35l-3.31,1,2.88,9-.06-.1-2.82-8.94c-.07,0-20,6.35-20,6.35h0l-8.95-27.56a5.55,5.55,0,0,0-6-3.78l-25.73,3.49a5.57,5.57,0,0,0,1.5,11h0L775,394.52l25.39,76.75a15,15,0,1,0,21.88,13.36,14.68,14.68,0,0,0-.56-4l55.5-18.53.53-.21C880.3,461.05,881,459.33,880.66,456.72Z" transform="translate(-174.01 -163.3)"/><polygon class="cls-5" points="635.38 240.18 655.41 233.84 658.67 243.88 638.6 250.26 635.38 240.18"/><rect class="cls-5" x="834.36" y="426.72" width="25.66" height="24.02" transform="translate(-267.3 115.08) rotate(-17.7)"/><path class="cls-43" d="M828.11,404.08a.86.86,0,0,1-.56,1.08L815.35,409a.86.86,0,0,1-1.09-.56l-1.67-5.28a.86.86,0,0,1,.56-1.09l12.2-3.86a.86.86,0,0,1,1.09.56Z" transform="translate(-174.01 -163.3)"/><path class="cls-44" d="M849.45,390.8s-20,6.39-20,6.34l2.83,8.94a1.13,1.13,0,0,1-.74,1.42l-17.87,5.66a1.13,1.13,0,0,1-1.42-.73l-2.83-8.94c-.07,0-20,6.34-20,6.34a1.14,1.14,0,0,0-.74,1.41L807,469.19a1.13,1.13,0,0,0,1.41.73l60.09-19a1.12,1.12,0,0,0,.73-1.41l-18.35-58A1.12,1.12,0,0,0,849.45,390.8Zm-10.15,39,5.3,4-2,.62,2.58,8.13-3.67,1.16L839,435.61l-2,.63Zm19.92,15.52-17.57,5.56-1.08-3.41L858.14,442Zm-6.62-14.07,2.58,8.14-3.67,1.16-2.58-8.14-2,.64,2.3-6.4,5.31,4Z" transform="translate(-174.01 -163.3)"/><path class="cls-4" d="M876.94,452.36a5,5,0,0,0-.22-1,5.55,5.55,0,0,0-7-3.56l-61.53,20.12-27.8-85.64a5.56,5.56,0,0,0-6-3.78L748.62,382a5.57,5.57,0,0,0,1.5,11h0l21.14-2.87,26.81,81.07,1.39,3.17a6.11,6.11,0,0,1,11.27,3.28,6.24,6.24,0,0,1-.1,1.06l62.83-21,.54-.21C876.59,456.68,877.3,455,876.94,452.36Z" transform="translate(-174.01 -163.3)"/><path class="cls-4" d="M803.5,465.24a15,15,0,1,0,15,15A15,15,0,0,0,803.5,465.24Zm0,21.15a6.12,6.12,0,1,1,6.12-6.13A6.13,6.13,0,0,1,803.5,486.39Z" transform="translate(-174.01 -163.3)"/><circle class="cls-45" cx="629.49" cy="316.96" r="6.63"/><path class="cls-29" d="M906,523.77H782.4v80.74h66.39c.11.12.22.23.32.35l-2.79,2.78a5.91,5.91,0,0,0-6.55,1.09l-10,10a6.45,6.45,0,0,0,9.09,9.09l10-10a5.83,5.83,0,0,0,1.28-6l3.33-3.34a21.37,21.37,0,0,0,27.52-4h25Z" transform="translate(-174.01 -163.3)"/><rect class="cls-5" x="604.71" y="356.15" width="123.6" height="80.74"/><rect class="cls-4" x="681.57" y="359.54" width="6.77" height="43.96"/><rect class="cls-4" x="617.23" y="359.54" width="11.83" height="74.1"/><rect class="cls-4" x="651.3" y="359.54" width="11.83" height="67.14"/><polygon class="cls-4" points="704.97 413.19 693.14 403.51 693.14 359.54 704.97 359.54 704.97 413.19"/><rect class="cls-4" x="634.05" y="359.54" width="5.92" height="67.14"/><rect class="cls-4" x="671.63" y="359.54" width="5.91" height="49.12"/><rect class="cls-4" x="642.95" y="359.54" width="2.96" height="67.14"/><rect class="cls-4" x="708.97" y="359.54" width="5.92" height="67.14"/><rect class="cls-4" x="717.88" y="359.54" width="2.96" height="67.14"/><rect class="cls-4" x="664.74" y="359.54" width="2.96" height="67.14"/><path class="cls-46" d="M846.23,607.77a2.84,2.84,0,0,1-4,0h0a2.86,2.86,0,0,1,0-4l5.6-5.59a2.84,2.84,0,0,1,4,0h0a2.83,2.83,0,0,1,0,4Z" transform="translate(-174.01 -163.3)"/><path class="cls-4" d="M835.17,623.53a6.19,6.19,0,0,1-8.72-.38h0a6.19,6.19,0,0,1-.38-8.72l10-10a6.18,6.18,0,0,1,8.72.38h0a6.19,6.19,0,0,1,.38,8.71Z" transform="translate(-174.01 -163.3)"/><path class="cls-47" d="M882.67,586.05a21.45,21.45,0,1,0-21.45,21.45A21.45,21.45,0,0,0,882.67,586.05Z" transform="translate(-174.01 -163.3)"/><path class="cls-5" d="M879.48,586.05a18.26,18.26,0,1,0-18.26,18.25A18.27,18.27,0,0,0,879.48,586.05Z" transform="translate(-174.01 -163.3)"/><path class="cls-48" d="M877.88,586.05a16.66,16.66,0,1,0-16.66,16.66A16.66,16.66,0,0,0,877.88,586.05Z" transform="translate(-174.01 -163.3)"/><ellipse class="cls-49" cx="678.44" cy="418.99" rx="5.35" ry="5.35"/><path class="cls-50" d="M861.31,575.43a2.32,2.32,0,1,1-2.31-2.32A2.3,2.3,0,0,1,861.31,575.43Z" transform="translate(-174.01 -163.3)"/><path class="cls-4" d="M859,584.34l-2.48-2.47,4.15-4.15h2.85v13.41h2.12v3.14h-7.86v-3.14h2.12v-7.4l.31-.81-.07,0-.49.81Z" transform="translate(-174.01 -163.3)"/><path class="cls-4" d="M819.62,591.39v1.05H817v.85h1.73l.93.92v1.41l-.93.92h-1.88l-1.1-.36.34-1,.94.31h1.2l.3-.3v-.56l-.3-.29h-2.35v-3Z" transform="translate(-174.01 -163.3)"/><path class="cls-4" d="M831.48,593.62l.3-.35v-.54l-.29-.29h-1.32l-.92.29-.31-1,1.09-.34h2l.93.93v1.3l-.73.81-1.88,1.06h2.61v1H829V595Z" transform="translate(-174.01 -163.3)"/><path class="cls-4" d="M808.6,592.44v-1.05h3.87v.88l-1.29,1.14-.26.16,0,0,.25-.1h.36l.92.92v1.21l-.92.92h-2.07l-1-.35.34-1,.92.31h1.36l.29-.3v-.43l-.29-.29h-1.52v-.91l1.18-1,.25-.15,0,0-.25.09Z" transform="translate(-174.01 -163.3)"/><path class="cls-4" d="M787.43,595.62l-.93.92h-2l-1-.35.33-1,.89.3H786l.29-.3v-.63l-.46.09h-1.45l-.92-.93v-1.4l.92-.93h2.11l.93.93Zm-1.4-2,.27-.07v-.8l-.29-.29h-1.12l-.3.29v.58l.3.29Z" transform="translate(-174.01 -163.3)"/><g class="cls-36"><path class="cls-37" d="M239.79,392h26.67a10.47,10.47,0,0,0,10.47-10.46V354.84a10.47,10.47,0,0,0-10.47-10.47H239.79a10.47,10.47,0,0,0-10.46,10.47v26.67A10.47,10.47,0,0,0,239.79,392Z" transform="translate(-174.01 -163.3)"/><path class="cls-37" d="M237.51,473a10.84,10.84,0,1,0,10.84,10.84A10.84,10.84,0,0,0,237.51,473Z" transform="translate(-174.01 -163.3)"/><path class="cls-37" d="M281.8,473a10.84,10.84,0,1,0,10.84,10.84A10.84,10.84,0,0,0,281.8,473Z" transform="translate(-174.01 -163.3)"/><path class="cls-37" d="M329.18,373H317.85c-2.47,0-4.51,1.2-4.91,2.76-4.33,1.24-8.38,4.67-9.83,8.75l-5.79,16.18H210.19A7.28,7.28,0,0,0,203,410.9l1.22,3.49v0l9.41,26.9a14.76,14.76,0,0,0,7.79,8,10.21,10.21,0,0,0-4.94,8.72v.2a10.26,10.26,0,0,0,10.25,10.25h64.66a1.4,1.4,0,1,0,0-2.79H226.69a7.47,7.47,0,0,1-7.46-7.46v-.2a7.47,7.47,0,0,1,7.46-7.46h47.47a1.37,1.37,0,0,0,.77-.26c4.69-1,9.26-4.62,10.83-9L287,438v0l18.76-52.53c1.18-3.3,4.65-6.15,8.21-7.07a6.13,6.13,0,0,0,3.91,1.28h11.33c2.76,0,5-1.49,5-3.33S331.94,373,329.18,373Zm-36.06,39.48h-15l1.94-9h16.29Zm-4.21,11.78H275.55l1.94-9h14.63ZM284.7,436H273l1.94-9h13Zm-27.18,11.78.67-9h11.36l-1.94,9Zm-25.82,0-1.88-9H241.2l.6,9ZM211.55,427h13l1.88,9H214.7Zm48.39-11.78h14.7l-1.94,9H259.27Zm-3.46,9H243l-.6-9h14.73Zm-16.26,0H226.78l-1.87-9h14.7Zm.19,2.79.6,9H229.24l-1.88-9Zm2.79,0h13.07l-.67,9H243.8Zm15.87,0h13l-1.94,9H258.4Zm16.17-14.57H260.15l.66-9h16.37Zm-17.89,0H242.22l-.6-9H258Zm-17.92,0H224.32l-1.87-9h16.37Zm-15.5,11.78H210.58l-3.15-9h14.63ZM244,438.83h11.4l-.66,9H244.6Zm-38.06-33.49a5,5,0,0,1,4.26-1.87h9.41l1.87,9h-15l-.87-2.5A5,5,0,0,1,205.93,405.34Zm10.3,35.05-.55-1.56H227l1.88,9h-2.16A12,12,0,0,1,216.23,440.39Zm56.38,7.43h-2.14l1.94-9H283.7l-.56,1.58A12.18,12.18,0,0,1,272.61,447.82Z" transform="translate(-174.01 -163.3)"/></g><path class="cls-4" d="M263.45,340.4H235.38a9.36,9.36,0,0,0-9.36,9.37v2.47c8.31,4.37,26,10.57,46.79-.49v-2A9.36,9.36,0,0,0,263.45,340.4Z" transform="translate(-174.01 -163.3)"/><path class="cls-4" d="M226,352.24v25.6a9.36,9.36,0,0,0,9.36,9.36h28.07a9.36,9.36,0,0,0,9.36-9.36V351.75C252,362.81,234.33,356.61,226,352.24Z" transform="translate(-174.01 -163.3)"/><path class="cls-5" d="M244.82,353.84a6.05,6.05,0,0,0-2-1.6,6.25,6.25,0,0,0-2.83-.59,6.37,6.37,0,0,0-2.87.59,5.78,5.78,0,0,0-2,1.6,6.83,6.83,0,0,0-1.16,2.28,9.2,9.2,0,0,0,0,5.3,6.64,6.64,0,0,0,1.16,2.28,5.67,5.67,0,0,0,2,1.6,6.36,6.36,0,0,0,2.87.6,6.25,6.25,0,0,0,2.83-.6,5.93,5.93,0,0,0,2-1.6,6.68,6.68,0,0,0,1.18-2.28,9.43,9.43,0,0,0,0-5.3A6.87,6.87,0,0,0,244.82,353.84Zm-3.43,7.36a1.51,1.51,0,0,1-2.8,0,5.78,5.78,0,0,1-.43-2.43,5.66,5.66,0,0,1,.43-2.43,1.54,1.54,0,0,1,2.8,0,5.66,5.66,0,0,1,.43,2.43A5.78,5.78,0,0,1,241.39,361.2Z" transform="translate(-174.01 -163.3)"/><path class="cls-5" d="M263.67,363.9a6,6,0,0,0-2-1.6,6.25,6.25,0,0,0-2.83-.6,6.32,6.32,0,0,0-2.86.6,5.91,5.91,0,0,0-2,1.6,6.83,6.83,0,0,0-1.16,2.28,9.43,9.43,0,0,0,0,5.3,6.83,6.83,0,0,0,1.16,2.28,5.8,5.8,0,0,0,2,1.6,6.32,6.32,0,0,0,2.86.6,6.25,6.25,0,0,0,2.83-.6,5.83,5.83,0,0,0,2-1.6,6.69,6.69,0,0,0,1.18-2.28,9.2,9.2,0,0,0,0-5.3A6.69,6.69,0,0,0,263.67,363.9Zm-3.43,7.36a1.51,1.51,0,0,1-2.8,0,5.78,5.78,0,0,1-.43-2.43,5.66,5.66,0,0,1,.43-2.43,1.54,1.54,0,0,1,2.8,0,5.66,5.66,0,0,1,.43,2.43A5.78,5.78,0,0,1,260.24,371.26Z" transform="translate(-174.01 -163.3)"/><path class="cls-5" d="M256.21,351.78c-.4,0-.82,0-1.25.05a11,11,0,0,0-1.22.15L240,375.53a10,10,0,0,0,1.5.18l1.13,0c.4,0,.82,0,1.25-.05s.84-.09,1.21-.15L258.84,352a11.76,11.76,0,0,0-1.5-.19Z" transform="translate(-174.01 -163.3)"/><path class="cls-5" d="M262.75,340.59H236.08a9.88,9.88,0,0,0-9.87,9.88v26.67a9.87,9.87,0,0,0,9.87,9.87h26.67a9.88,9.88,0,0,0,9.87-9.87V350.47A9.89,9.89,0,0,0,262.75,340.59Zm9,37.25a8.34,8.34,0,0,1-8.33,8.33H235.38a8.33,8.33,0,0,1-8.33-8.33V349.77a8.34,8.34,0,0,1,8.33-8.34h28.07a8.35,8.35,0,0,1,8.33,8.34Z" transform="translate(-174.01 -163.3)"/><path class="cls-5" d="M262.75,340H236.08a10.48,10.48,0,0,0-10.47,10.47v26.67a10.49,10.49,0,0,0,10.47,10.47h26.67a10.49,10.49,0,0,0,10.47-10.47V350.47A10.48,10.48,0,0,0,262.75,340Zm8.44,37.84a7.75,7.75,0,0,1-7.74,7.74H235.38a7.75,7.75,0,0,1-7.74-7.74V349.77a7.75,7.75,0,0,1,7.74-7.74h28.07a7.75,7.75,0,0,1,7.74,7.74Z" transform="translate(-174.01 -163.3)"/><path class="cls-5" d="M290.38,410.89H201.75a1.4,1.4,0,1,1,0-2.79h88.63a1.4,1.4,0,1,1,0,2.79Z" transform="translate(-174.01 -163.3)"/><path class="cls-5" d="M286.17,422.67h-80.3a1.4,1.4,0,0,1,0-2.79h80.3a1.4,1.4,0,1,1,0,2.79Z" transform="translate(-174.01 -163.3)"/><path class="cls-5" d="M282,434.46H210a1.4,1.4,0,1,1,0-2.79h72a1.4,1.4,0,0,1,0,2.79Z" transform="translate(-174.01 -163.3)"/><path class="cls-5" d="M226.85,444.85,217,397.71Z" transform="translate(-174.01 -163.3)"/><path class="cls-5" d="M226.85,446.24a1.4,1.4,0,0,1-1.36-1.11L215.65,398a1.4,1.4,0,0,1,1.08-1.65,1.41,1.41,0,0,1,1.65,1.09l9.84,47.13a1.39,1.39,0,0,1-1.08,1.65A1.43,1.43,0,0,1,226.85,446.24Z" transform="translate(-174.01 -163.3)"/><path class="cls-5" d="M239.58,444.85l-3.17-47.14Z" transform="translate(-174.01 -163.3)"/><path class="cls-5" d="M239.58,446.24a1.39,1.39,0,0,1-1.39-1.3L235,397.8a1.39,1.39,0,1,1,2.78-.18L241,444.75a1.4,1.4,0,0,1-1.3,1.49Z" transform="translate(-174.01 -163.3)"/><path class="cls-5" d="M252.31,444.85l3.5-47.14Z" transform="translate(-174.01 -163.3)"/><path class="cls-5" d="M252.31,446.24h-.1a1.4,1.4,0,0,1-1.29-1.5l3.5-47.13a1.39,1.39,0,1,1,2.78.2L253.7,445A1.4,1.4,0,0,1,252.31,446.24Z" transform="translate(-174.01 -163.3)"/><path class="cls-5" d="M265,444.85l10.17-47.14Z" transform="translate(-174.01 -163.3)"/><path class="cls-5" d="M265,446.24a1.53,1.53,0,0,1-.3,0,1.4,1.4,0,0,1-1.07-1.66l10.17-47.13a1.4,1.4,0,0,1,2.73.58l-10.17,47.14A1.4,1.4,0,0,1,265,446.24Z" transform="translate(-174.01 -163.3)"/><path class="cls-5" d="M287.64,464.15H223a10.26,10.26,0,0,1-10.25-10.25v-.2A10.26,10.26,0,0,1,223,443.45H268.9A12.14,12.14,0,0,0,279.42,436l20-55.91a15,15,0,0,1,13.15-9.27h14.24a1.4,1.4,0,1,1,0,2.79H312.54A12.17,12.17,0,0,0,302,381.06l-20,55.91a15,15,0,0,1-13.15,9.27H223a7.47,7.47,0,0,0-7.46,7.46v.2a7.47,7.47,0,0,0,7.46,7.46h64.66a1.4,1.4,0,0,1,0,2.79Z" transform="translate(-174.01 -163.3)"/><path class="cls-51" d="M233.8,488.32a8.85,8.85,0,1,1,8.84-8.85A8.86,8.86,0,0,1,233.8,488.32Z" transform="translate(-174.01 -163.3)"/><path class="cls-4" d="M233.8,472.61a6.86,6.86,0,1,1-6.86,6.86,6.86,6.86,0,0,1,6.86-6.86Zm0-4a10.84,10.84,0,1,0,10.84,10.84,10.84,10.84,0,0,0-10.84-10.84Z" transform="translate(-174.01 -163.3)"/><path class="cls-52" d="M278.08,488.32a8.85,8.85,0,1,1,8.85-8.85A8.86,8.86,0,0,1,278.08,488.32Z" transform="translate(-174.01 -163.3)"/><path class="cls-4" d="M278.08,472.61a6.86,6.86,0,1,1-6.86,6.86,6.87,6.87,0,0,1,6.86-6.86Zm0-4a10.84,10.84,0,1,0,10.84,10.84,10.84,10.84,0,0,0-10.84-10.84Z" transform="translate(-174.01 -163.3)"/><path class="cls-5" d="M270.45,446.24H223a14.86,14.86,0,0,1-13.1-9.3l-10.65-30.41a7.28,7.28,0,0,1,7.25-10.21h88.11a1.39,1.39,0,1,1,0,2.78H206.48a4.52,4.52,0,0,0-4.61,6.51L212.51,436A12,12,0,0,0,223,443.45h47.47a1.4,1.4,0,0,1,0,2.79Z" transform="translate(-174.01 -163.3)"/><path class="cls-4" d="M330.47,371.94c0,1.84-2.24,3.33-5,3.33H314.14c-2.77,0-5-1.49-5-3.33h0c0-1.83,2.23-3.32,5-3.32h11.33c2.76,0,5,1.49,5,3.32Z" transform="translate(-174.01 -163.3)"/><g class="cls-36"><path class="cls-37" d="M407.35,282.65a45.36,45.36,0,0,0-34.69-27.26l-.52-.08c-.29,0-.58-.1-.88-.13-.11,0-.22,0-.33,0a45.43,45.43,0,0,0-34.6,10c-2.91,2.41-3.73,5.74-2.35,6.91s4.24.23,6.63-1.76a38.53,38.53,0,1,1,20.64,68l-.24,0c-.39,0-.76-.1-1.14-.16a38.7,38.7,0,0,1-29.62-22.82,10,10,0,0,1,1.64-.22l2.05-.18c2.88-.35,3.36-1.62,1.25-3a33.09,33.09,0,0,1-8.73-9c-1.55-2.46-3.94-2.65-5.24.37A45.15,45.15,0,0,0,318,318.61c-.06,3.7,1.68,4.65,3.5,2.18l1.34-1.66A8.43,8.43,0,0,1,324.1,318a45.48,45.48,0,0,0,23.22,23.44,9.79,9.79,0,0,0,1.62.81,42.8,42.8,0,0,0,10.3,2.61l.3.05.3,0,1,.11a45.22,45.22,0,0,0,46.5-62.36Z" transform="translate(-174.01 -163.3)"/><path class="cls-37" d="M365.66,331.19a31.3,31.3,0,1,0-31.52-31.09A31.33,31.33,0,0,0,365.66,331.19Z" transform="translate(-174.01 -163.3)"/></g><path class="cls-5" d="M403.64,278.28A45.37,45.37,0,0,0,368.94,251l-.51-.08c-.3,0-.59-.1-.88-.13-.11,0-.22,0-.34,0a45.43,45.43,0,0,0-34.6,10c-2.9,2.42-3.73,5.74-2.34,6.91s4.23.23,6.62-1.76a38.54,38.54,0,1,1,20.65,68l-.25,0-1.14-.17A38.71,38.71,0,0,1,326.54,311a9.88,9.88,0,0,1,1.64-.22l2.05-.18c2.88-.34,3.35-1.62,1.25-3a33.13,33.13,0,0,1-8.73-9c-1.56-2.46-3.94-2.65-5.24.37a44.91,44.91,0,0,0-3.23,15.33c-.07,3.7,1.67,4.65,3.49,2.18l1.34-1.66a8.52,8.52,0,0,1,1.28-1.17A45.48,45.48,0,0,0,343.61,337a10.09,10.09,0,0,0,1.61.81,42.87,42.87,0,0,0,10.31,2.61l.29.05.31,0,1,.11a45.22,45.22,0,0,0,46.5-62.36Z" transform="translate(-174.01 -163.3)"/><circle class="cls-5" cx="361.73" cy="295.52" r="29.74" transform="translate(-230.35 340.54) rotate(-65.73)"/><path class="cls-53" d="M361.5,264.23A31.3,31.3,0,1,0,393,295.29,31.3,31.3,0,0,0,361.5,264.23Zm-11.62,44.42H336.32V306c.54-.67,1.13-1.44,1.76-2.3s1.26-1.77,1.89-2.74,1.25-2,1.84-3a31.29,31.29,0,0,0,1.56-3.12,22.11,22.11,0,0,0,1.08-3.07,10.86,10.86,0,0,0,.41-2.82,4.18,4.18,0,0,0-.77-2.62,2.85,2.85,0,0,0-2.4-1,5,5,0,0,0-2,.44A6.52,6.52,0,0,0,338,286.8l-1.74-3.36a9.44,9.44,0,0,1,2.86-1.72,10.44,10.44,0,0,1,3.81-.64,7.3,7.3,0,0,1,2.59.45,5.61,5.61,0,0,1,2.07,1.32,6.57,6.57,0,0,1,1.37,2.21,8.37,8.37,0,0,1,.5,3.05,15.27,15.27,0,0,1-.58,4.11,29.82,29.82,0,0,1-1.48,4.12,41.7,41.7,0,0,1-2,3.82,36.27,36.27,0,0,1-2.12,3.2l-1.7,1.59v.18l2.31-.58h6Zm20.46-7.53h-3.4v7.53h-4.36v-7.53H353v-2.85l9.88-16.84h4v15.75h3.4Zm11.74,7.53V297a6.78,6.78,0,0,0-.49-3,1.78,1.78,0,0,0-1.75-.93,2.6,2.6,0,0,0-1.7.66,3.13,3.13,0,0,0-1,1.66v13.28h-4.6v-27h4.6v9.45h.11a6.23,6.23,0,0,1,1.88-1.62,5.57,5.57,0,0,1,2.75-.62,5.75,5.75,0,0,1,2.09.35,3.54,3.54,0,0,1,1.51,1.16,5.49,5.49,0,0,1,.92,2.18,15.92,15.92,0,0,1,.31,3.46v12.66Z" transform="translate(-174.01 -163.3)"/><polygon class="cls-54" points="187.68 127.55 184.63 132.72 183.08 134.19 185.06 133.88 188.57 133.88 188.57 127.89 189 124.42 188.84 124.42 187.68 127.55"/><path class="cls-29" d="M273.83,540.35h-92.4a4.57,4.57,0,0,0-4.57,4.56v58.52a4.58,4.58,0,0,0,4.57,4.56H205v4.8H194.22v5.93H261v-5.93H250.22V608h23.61a4.58,4.58,0,0,0,4.56-4.56V544.91A4.57,4.57,0,0,0,273.83,540.35Z" transform="translate(-174.01 -163.3)"/><rect class="cls-4" x="28.17" y="420.57" width="45.19" height="31.49"/><rect class="cls-4" x="17.36" y="446.12" width="66.81" height="5.93"/><rect class="cls-4" y="373.69" width="101.53" height="62.62" rx="4.56"/><rect class="cls-55" y="378.7" width="101.53" height="62.62" rx="4.56"/><rect class="cls-4" y="373.69" width="101.53" height="62.62" rx="4.56"/><rect class="cls-56" x="3.66" y="377.77" width="94.2" height="54.46" rx="2.74"/><rect class="cls-57" y="431.75" width="101.53" height="5.02"/><rect class="cls-4" x="20.04" y="392.05" width="61.45" height="26.99" rx="5.95"/><path class="cls-5" d="M212,568.79a4.78,4.78,0,0,0-1.18-.86c-.45-.23-1-.47-1.53-.7l-1-.39a3.62,3.62,0,0,1-.92-.48,1.19,1.19,0,0,1-.24-1.46,1,1,0,0,1,.37-.37,1.86,1.86,0,0,1,.53-.19,3.18,3.18,0,0,1,.62-.06,5.67,5.67,0,0,1,1.78.24c.47.16.89.32,1.24.47a8.36,8.36,0,0,0,.54-1.48,11.87,11.87,0,0,0,.3-1.43,17.69,17.69,0,0,0-2.07-.6,10.23,10.23,0,0,0-2-.2,6.92,6.92,0,0,0-2.1.3,4.42,4.42,0,0,0-1.6.87,4.09,4.09,0,0,0-1,1.42,4.78,4.78,0,0,0-.36,1.91,4.4,4.4,0,0,0,.23,1.53,3.72,3.72,0,0,0,.66,1.15,4.36,4.36,0,0,0,1,.87,7.9,7.9,0,0,0,1.34.63l1.14.43.52.21a2.35,2.35,0,0,1,.46.28,1.26,1.26,0,0,1,.32.4,1.19,1.19,0,0,1,.12.56,1.14,1.14,0,0,1-.58,1.09,3.4,3.4,0,0,1-1.62.31,8.46,8.46,0,0,1-3.26-.81c-.19.55-.35,1.1-.49,1.64a11.44,11.44,0,0,0-.28,1.52,15.09,15.09,0,0,0,2.09.63,11.32,11.32,0,0,0,2.23.2,8,8,0,0,0,2.45-.34,5.11,5.11,0,0,0,1.81-1,4,4,0,0,0,1.11-1.49,4.88,4.88,0,0,0,.37-1.95,4.79,4.79,0,0,0-.26-1.7A3.49,3.49,0,0,0,212,568.79Z" transform="translate(-174.01 -163.3)"/><path class="cls-5" d="M220.84,561.44c-.31,0-.59,0-.85,0s-.62,0-.92,0l-1,.11-4.57,14.54c.4.07.76.12,1.07.16s.61,0,.85,0,.5,0,.75,0l.86-.12.75-2.8a9,9,0,0,0,1,.22,6.39,6.39,0,0,0,1,.07,7.26,7.26,0,0,0,1-.08,9.92,9.92,0,0,0,1.09-.25l.77,2.84.88.12c.27,0,.54,0,.81,0a12.37,12.37,0,0,0,2-.19l-4.5-14.56Zm-.35,9.35a5.06,5.06,0,0,1-.68.05,3.21,3.21,0,0,1-.63-.06c-.2,0-.42-.1-.65-.17l1.36-5.23,1.31,5.25A7.1,7.1,0,0,1,220.49,570.79Z" transform="translate(-174.01 -163.3)"/><path class="cls-5" d="M236,573h-4.71V561.57c-.35-.06-.68-.1-1-.13s-.59,0-.83,0-.5,0-.79,0-.64.07-1,.13v14.61H236a8.23,8.23,0,0,0,.13-.91q0-.37,0-.72t0-.69A7.22,7.22,0,0,0,236,573Z" transform="translate(-174.01 -163.3)"/><path class="cls-5" d="M241.33,573v-2.9h3.93a7.9,7.9,0,0,0,.18-1.59,8,8,0,0,0-.18-1.58h-3.93V564.7h5a9.37,9.37,0,0,0,.16-1.61,6.29,6.29,0,0,0,0-.73c0-.26-.07-.54-.12-.83h-8.6v14.65h8.72a7.9,7.9,0,0,0,.19-1.61,7.6,7.6,0,0,0-.19-1.55Z" transform="translate(-174.01 -163.3)"/><path class="cls-29" d="M304.61,687.76a19,19,0,0,0-.23-2.84A19.24,19.24,0,0,0,287,666.66v-1.49a6.87,6.87,0,0,0-6.87-6.87H233.39a6.87,6.87,0,0,0-6.87,6.87v85.07a6.87,6.87,0,0,0,6.87,6.88h46.72a6.87,6.87,0,0,0,6.87-6.88V706.93A19.24,19.24,0,0,0,304.61,687.76Z" transform="translate(-174.01 -163.3)"/><path class="cls-4" d="M222.8,745.87a6.88,6.88,0,0,0,6.88,6.88H276.4a6.87,6.87,0,0,0,6.87-6.88V660.81a6.87,6.87,0,0,0-6.87-6.88H229.68a6.88,6.88,0,0,0-6.88,6.88Z" transform="translate(-174.01 -163.3)"/><path class="cls-5" d="M229.33,730.3a.69.69,0,0,0,.69.69h46a.68.68,0,0,0,.68-.69V669.51a.68.68,0,0,0-.68-.69H230a.69.69,0,0,0-.69.69Z" transform="translate(-174.01 -163.3)"/><path class="cls-58" d="M248.23,741.75a4.81,4.81,0,1,0,4.81-4.81A4.81,4.81,0,0,0,248.23,741.75Z" transform="translate(-174.01 -163.3)"/><path class="cls-58" d="M250.06,741.75a3,3,0,0,1,3-3h0a3,3,0,0,1,3,3h0a3,3,0,0,1-3,3h0a3,3,0,0,1-3-3Zm3,2.29a2.3,2.3,0,0,0,2.29-2.29h0a2.3,2.3,0,0,0-2.29-2.29h0a2.31,2.31,0,0,0-2.3,2.29h0A2.3,2.3,0,0,0,253,744Z" transform="translate(-174.01 -163.3)"/><path class="cls-59" d="M245.36,662a.69.69,0,0,0,.69.69h14a.69.69,0,0,0,.69-.69v-.69a.68.68,0,0,0-.69-.68h-14a.68.68,0,0,0-.69.68Z" transform="translate(-174.01 -163.3)"/><path class="cls-29" d="M726.05,787.39h-8.66L711,769.55a7.77,7.77,0,0,0-9.89-4.68l-62.23,22.31a7.75,7.75,0,0,0-4.68,9.89l12.46,34.77a48.95,48.95,0,0,0,13.28,8h66.11a7.76,7.76,0,0,0,7.74-7.73V795.13A7.77,7.77,0,0,0,726.05,787.39Z" transform="translate(-174.01 -163.3)"/><path class="cls-4" d="M719.75,800a7.76,7.76,0,0,1-4.68,9.89l-62.23,22.3a7.77,7.77,0,0,1-9.89-4.68L630.49,792.7a7.75,7.75,0,0,1,4.67-9.89l62.24-22.3a7.76,7.76,0,0,1,9.89,4.67Z" transform="translate(-174.01 -163.3)"/><path class="cls-5" d="M669.87,781.68l33.3-11.93Z" transform="translate(-174.01 -163.3)"/><rect class="cls-60" x="668.83" y="774.58" width="35.37" height="2.26" transform="translate(-395.54 113.92) rotate(-19.73)"/><path class="cls-5" d="M672.63,789.39l33.29-11.93Z" transform="translate(-174.01 -163.3)"/><rect class="cls-60" x="671.6" y="782.29" width="35.37" height="2.26" transform="translate(-397.98 115.31) rotate(-19.73)"/><path class="cls-61" d="M719.75,800a7.76,7.76,0,0,1-4.68,9.89l-62.23,22.3a7.77,7.77,0,0,1-9.89-4.68L630.49,792.7a7.75,7.75,0,0,1,4.67-9.89l62.24-22.3a7.76,7.76,0,0,1,9.89,4.67Z" transform="translate(-174.01 -163.3)"/><path class="cls-5" d="M669.87,781.68l33.3-11.93Z" transform="translate(-174.01 -163.3)"/><rect class="cls-62" x="668.83" y="774.58" width="35.37" height="2.26" transform="translate(-395.54 113.92) rotate(-19.73)"/><path class="cls-5" d="M672.63,789.39l33.29-11.93Z" transform="translate(-174.01 -163.3)"/><rect class="cls-62" x="671.6" y="782.29" width="35.37" height="2.26" transform="translate(-397.98 115.31) rotate(-19.73)"/><path class="cls-4" d="M730.07,827.7a7.75,7.75,0,0,1-7.74,7.73h-66.1a7.75,7.75,0,0,1-7.74-7.73V790.76a7.77,7.77,0,0,1,7.74-7.74h66.1a7.77,7.77,0,0,1,7.74,7.74Z" transform="translate(-174.01 -163.3)"/><path class="cls-63" d="M727.39,811.09H652a1.2,1.2,0,0,1,0-2.4h75.42a1.2,1.2,0,1,1,0,2.4Z" transform="translate(-174.01 -163.3)"/><rect class="cls-5" x="515.27" y="654.73" width="35.37" height="9.21"/><path class="cls-5" d="M689.28,793.67h0Z" transform="translate(-174.01 -163.3)"/><path class="cls-64" d="M724.65,794.8H689.28a1.13,1.13,0,1,1,0-2.26h35.37a1.13,1.13,0,0,1,0,2.26Z" transform="translate(-174.01 -163.3)"/><path class="cls-5" d="M689.28,801.86h0Z" transform="translate(-174.01 -163.3)"/><path class="cls-64" d="M724.65,803H689.28a1.13,1.13,0,1,1,0-2.26h35.37a1.13,1.13,0,0,1,0,2.26Z" transform="translate(-174.01 -163.3)"/><path class="cls-65" d="M685.27,187.78l-9.85-23.92-6.71,5a32.4,32.4,0,0,0-18.13-5.54h-.2A32.56,32.56,0,0,0,622,211.5c-.58,0-1.16-.05-1.75-.11,0,0,.73.23,2,.53a32.63,32.63,0,0,0,28.34,16.57h.2A32.49,32.49,0,0,0,681.24,185ZM670.78,218.1a37,37,0,0,0,1.89-4.16,10.26,10.26,0,0,1,1.2.95c-.61.74-1.24,1.45-1.92,2.14C671.58,217.41,671.17,217.75,670.78,218.1ZM657,225.27a44.67,44.67,0,0,0,6.35-15,29.25,29.25,0,0,1,7.87,2.75,34.36,34.36,0,0,1-4.34,8.14A29.88,29.88,0,0,1,657,225.27Zm-5.35.64-.1-16.53.51-.24a60.32,60.32,0,0,1,9.59.8,42.37,42.37,0,0,1-7.05,15.73C653.58,225.79,652.59,225.87,651.6,225.91Zm-17-4.63a33.91,33.91,0,0,1-4.37-8l.35-.18a48.7,48.7,0,0,0,8.15-.24,43.43,43.43,0,0,0,5.87,12.5A29.91,29.91,0,0,1,634.56,221.28Zm-7-6.13a9.28,9.28,0,0,1,1.16-.94,36.36,36.36,0,0,0,1.91,4.06A30.15,30.15,0,0,1,627.53,215.15Zm-7-18.23,4.7,0a52,52,0,0,0,2.39,14.48c-.87.1-1.76.16-2.66.18A29.65,29.65,0,0,1,620.57,196.92Zm9.18-22.66c-.51,1-1,2.15-1.52,3.42a7.56,7.56,0,0,1-.94-.78c.6-.73,1.23-1.44,1.91-2.13C629.38,174.59,629.57,174.44,629.75,174.26Zm44.47,20.65-5.12,0a59.36,59.36,0,0,0,4.56-7.2A53.54,53.54,0,0,1,674.22,194.91Zm-42.7,15.81c-.69.16-1.4.29-2.11.41A49.29,49.29,0,0,1,627,196.88l9.35,0a62.06,62.06,0,0,0,1.32,11.87c-.14.07-.29.12-.43.18A35,35,0,0,0,631.52,210.72Zm6.49-13.9,11.72-.07,0,3.86A44.49,44.49,0,0,1,639.24,208,60.16,60.16,0,0,1,638,196.82Zm13.35-12.47a62.73,62.73,0,0,0,10.43-1c.11.49.21,1,.31,1.54A74.34,74.34,0,0,1,655,195l-3.61,0Zm12.82-3.25c-.36.09-.72.19-1.1.27-.32-1.22-.67-2.34-1-3.42l3.57.11S665.13,179.23,664.18,181.1Zm-12.75,15.64h2.13c-.68.76-1.38,1.51-2.12,2.25Zm9.38-22a34.69,34.69,0,0,0-4.95-8.38,29.85,29.85,0,0,1,10.65,4.14Zm-1.43,1.06-2.71,2,3.53.11c.43,1.18.83,2.45,1.19,3.83a61.53,61.53,0,0,1-10,.93l-.09-16.78c.74,0,1.48,0,2.2.11l-.1.11A30.24,30.24,0,0,1,659.38,175.78Zm-9.65,19.28-11.73.07a57,57,0,0,1,1.22-11.62,61.83,61.83,0,0,0,10.44.86Zm-13.42.08-9.39.05a47.68,47.68,0,0,1,2.23-14.93,30.93,30.93,0,0,0,8.38,2.93A60.16,60.16,0,0,0,636.31,195.14Zm26.58,6.71a57.9,57.9,0,0,1-.93,6.44,57.93,57.93,0,0,0-6.83-.75A42.46,42.46,0,0,0,662.89,201.85Zm1.84-1.77c1-1.05,2-2.22,3-3.44l6.44,0a49.58,49.58,0,0,1-2.44,14.79,31.4,31.4,0,0,0-8.11-2.78A59.67,59.67,0,0,0,664.73,200.08Zm-15.08-17.41a60.7,60.7,0,0,1-10-.82c2.68-10.71,7.78-15.64,7.85-15.71l-.11-.12c.73-.08,1.47-.1,2.21-.13ZM645,166.38a38.61,38.61,0,0,0-7.06,15.14,29.35,29.35,0,0,1-8.18-2.9,31.65,31.65,0,0,1,4.11-7.69A30,30,0,0,1,645,166.38Zm-18.69,11.9a13.17,13.17,0,0,0,1.36,1.06,49.53,49.53,0,0,0-2.4,15.86l-4.67,0A29.68,29.68,0,0,1,626.27,178.28Zm1.4,34.57a11.08,11.08,0,0,0-1.17.94c-.29-.39-.56-.8-.84-1.21Q626.61,212.73,627.67,212.85Zm12.76-.24a43.3,43.3,0,0,0,9.38-2.52l.1,15.83a28.83,28.83,0,0,1-3-.21A40.51,40.51,0,0,1,640.43,212.61Zm34.46.91a12.35,12.35,0,0,0-1.6-1.22,51,51,0,0,0,2.6-15.7l4.7,0A29.75,29.75,0,0,1,674.89,213.52Zm1-18.62a54.48,54.48,0,0,0-.94-9.64c.56-1.14,1.11-2.31,1.64-3.54l.63.44a29.66,29.66,0,0,1,3.34,12.72Z" transform="translate(-174.01 -163.3)"/><g class="cls-66"><path class="cls-67" d="M500.18,799.89l-2.07,8.22,2.86,6.65,2.84-6.65-2-8.22s.67-.27,2.13-3.2a4.44,4.44,0,0,0-5.86,0C499.5,799.62,500.18,799.89,500.18,799.89Z" transform="translate(-174.01 -163.3)"/><path class="cls-68" d="M501,764.25c7,0,12.72,7,12.72,15.6h1.52c0-9.65-6.36-17.48-14.24-17.48s-14.26,7.83-14.26,17.48h1.54C488.25,771.23,494,764.25,501,764.25Z" transform="translate(-174.01 -163.3)"/><path class="cls-69" d="M486.19,775.56a2.25,2.25,0,0,0-2.25,2.25v4.06a2.25,2.25,0,0,0,2.25,2.25h2.09v-8.56Z" transform="translate(-174.01 -163.3)"/><path class="cls-70" d="M518.56,797.92a70,70,0,0,0-8.78-1.23h0l-.29.67L501,817.19l-8.79-20.5a86.21,86.21,0,0,0-8.77,1.23c-4.42,1.31-10.28,3.17-10.28,9v18.22s1.15,1.26,5.33,1.26,5-1.26,5-1.26v-8a1.44,1.44,0,0,1,1.44-1.45,1.46,1.46,0,0,1,1.47,1.45v10.19s4.35,2.91,14.27,2.91,15-2.91,15-2.91V817.19a1.47,1.47,0,0,1,2.93,0v8a11.78,11.78,0,0,0,5.44,1.4,8,8,0,0,0,4.79-1.4V807C528.79,802.54,522.93,799.23,518.56,797.92ZM514,814.52h-8v-3.28h8Z" transform="translate(-174.01 -163.3)"/><path class="cls-71" d="M516,782.83l-1.29-.86-2.9,5.38h-6.88a2.8,2.8,0,0,0-2.39-1.15c-1.43,0-2.62.89-2.62,2s1.19,2,2.62,2a2.77,2.77,0,0,0,2.39-1.15h7.71Z" transform="translate(-174.01 -163.3)"/><path class="cls-72" d="M502.49,786.2c-1.43,0-2.62.89-2.62,2s1.19,2,2.62,2a2.77,2.77,0,0,0,2.39-1.15h4.61a14.63,14.63,0,0,0,1-1.67h-5.64A2.8,2.8,0,0,0,502.49,786.2Z" transform="translate(-174.01 -163.3)"/><path class="cls-73" d="M505.3,789.86a3.78,3.78,0,0,1-2.81,1.15c-1.91,0-3.45-1.27-3.45-2.82s1.54-2.82,3.45-2.82a3.81,3.81,0,0,1,2.81,1.14h5.62a15.91,15.91,0,0,0,1.39-6.66c0-7.7-5.06-13.93-11.34-13.93s-11.36,6.23-11.36,13.93,5.09,13.91,11.36,13.91a10.38,10.38,0,0,0,7.88-3.9Z" transform="translate(-174.01 -163.3)"/><path class="cls-74" d="M515.75,775.56h-2.09v8.56h2.09a2.25,2.25,0,0,0,2.25-2.25v-4.06A2.25,2.25,0,0,0,515.75,775.56Z" transform="translate(-174.01 -163.3)"/></g><g class="cls-66"><path class="cls-75" d="M518.48,888.41l5.8,25.12c.35,2.09,1.44,3.17,3.22,3.17h44.65c1.78,0,2.84-1.37,3.22-3.17l5.8-25.12Zm15.66,22.48a.64.64,0,0,1-.64.63h-2.26a.64.64,0,0,1-.64-.63v-15.2a.64.64,0,0,1,.64-.63h2.26a.64.64,0,0,1,.64.63Zm9.16,0a.63.63,0,0,1-.64.63h-2.25a.64.64,0,0,1-.65-.63v-15.2a.64.64,0,0,1,.65-.63h2.25a.63.63,0,0,1,.64.63Zm8.27,0a.64.64,0,0,1-.65.63h-2.25a.63.63,0,0,1-.64-.63v-15.2a.63.63,0,0,1,.64-.63h2.25a.64.64,0,0,1,.65.63Zm9,0a.63.63,0,0,1-.64.63h-2.25a.64.64,0,0,1-.65-.63v-15.2a.64.64,0,0,1,.65-.63h2.25a.63.63,0,0,1,.64.63Zm8.38,0a.64.64,0,0,1-.65.63H566a.64.64,0,0,1-.65-.63v-15.2a.64.64,0,0,1,.65-.63h2.25a.64.64,0,0,1,.65.63Z" transform="translate(-174.01 -163.3)"/><rect class="cls-76" x="339.67" y="719.79" width="72.3" height="7.81" rx="2.04"/><path class="cls-77" d="M572.91,885.26a1.42,1.42,0,0,1-.28,1.94l-.19.19a1.42,1.42,0,0,1-1.94.32l-19-18.75a1.42,1.42,0,0,1,.29-1.94l.18-.19a1.42,1.42,0,0,1,1.94-.31Z" transform="translate(-174.01 -163.3)"/><path class="cls-78" d="M572.93,885a1.43,1.43,0,0,1-.29,2l-.18.19a1.43,1.43,0,0,1-1.94.31l-19-18.75a1.42,1.42,0,0,1,.28-1.94l.19-.19a1.43,1.43,0,0,1,1.94-.31Z" transform="translate(-174.01 -163.3)"/><path class="cls-79" d="M572,885.79a.57.57,0,1,1-.57-.56A.56.56,0,0,1,572,885.79Z" transform="translate(-174.01 -163.3)"/><path class="cls-80" d="M527.41,885.26a1.42,1.42,0,0,0,.28,1.94l.19.19a1.42,1.42,0,0,0,1.94.32l19-18.75a1.41,1.41,0,0,0-.29-1.94l-.18-.19a1.42,1.42,0,0,0-1.94-.31Z" transform="translate(-174.01 -163.3)"/><path class="cls-81" d="M527.39,885a1.43,1.43,0,0,0,.29,2l.18.19a1.43,1.43,0,0,0,1.94.31l19-18.75a1.42,1.42,0,0,0-.28-1.94l-.19-.19a1.43,1.43,0,0,0-1.94-.31Z" transform="translate(-174.01 -163.3)"/><path class="cls-82" d="M528.35,885.79a.57.57,0,1,0,.57-.56A.56.56,0,0,0,528.35,885.79Z" transform="translate(-174.01 -163.3)"/></g><g class="cls-66"><path class="cls-83" d="M228.67,249.56h47.21c.5,0,.91-.09.91-.2v-2.25c0-.11-.41-.2-.91-.2H228.67c-.5,0-.91.09-.91.2v2.25C227.76,249.47,228.17,249.56,228.67,249.56Z" transform="translate(-174.01 -163.3)"/><path class="cls-84" d="M276,251h-48.3a3.86,3.86,0,0,0-3.86,3.86v33.81a3.86,3.86,0,0,0,3.86,3.86H276a3.86,3.86,0,0,0,3.86-3.86V254.86A3.86,3.86,0,0,0,276,251Zm2.74,28.5H263.57a3.86,3.86,0,0,1-3.86-3.87V267.9a3.86,3.86,0,0,1,3.86-3.86h15.14Z" transform="translate(-174.01 -163.3)"/><path class="cls-85" d="M267.44,275.63a3.87,3.87,0,1,0-3.87-3.86A3.86,3.86,0,0,0,267.44,275.63Z" transform="translate(-174.01 -163.3)"/></g></g></g></svg>