<svg id="Layer_1" data-name="Layer 1" xmlns="http://www.w3.org/2000/svg" xmlns:xlink="http://www.w3.org/1999/xlink" viewBox="0 0 1080 1080"><defs><style>.cls-1{fill:url(#linear-gradient);}.cls-2{fill:#fff;}</style><linearGradient id="linear-gradient" y1="540" x2="1080" y2="540" gradientUnits="userSpaceOnUse"><stop offset="0" stop-color="#23baf5"/><stop offset="1" stop-color="#1c62d1"/></linearGradient></defs><title>email_ICON</title><rect class="cls-1" width="1080" height="1080"/><path class="cls-2" d="M940.92,297.16V782.62a5.62,5.62,0,0,0-.66,1.41c-5.78,37.65-37.19,62.57-77.37,61.43-34.95-1-69.94-.2-104.91-.2q-272.08,0-544.18,0c-43.54,0-74.52-29.73-74.58-72.42q-.33-232.94.23-465.88a78.06,78.06,0,0,1,7.33-32.34c13.37-28,37.22-40.1,67.81-40.1q325.34,0,650.66,0c1.83,0,3.66,0,5.48,0,22.27,1,40.73,9.52,54.93,27.13C934.13,272.18,937.89,284.46,940.92,297.16Zm-721-15.28L540.12,599.3,857.7,281.88Zm637.89,516L634.45,574.51c-1.4,1.34-3.49,3.25-5.49,5.24q-33.51,33.46-67,66.94c-14.41,14.38-26.38,14.32-41-.17q-34.46-34.17-68.82-68.45c-2-2-2.91-5-3.65-6.34L222.34,797.88ZM186.75,315.09v448.1l225-224.94ZM671.25,540,893.51,762.21V317.69Z" transform="translate(0 0)"/></svg>