<svg xmlns="http://www.w3.org/2000/svg" xmlns:xlink="http://www.w3.org/1999/xlink" viewBox="0 0 877.86 630.44"><defs><style>.cls-1{isolation:isolate;}.cls-2{fill:url(#linear-gradient);}.cls-3{fill:#fff;}.cls-4{fill:#024bb5;}.cls-5{fill:#1d2328;}.cls-6{fill:#545a5e;}.cls-7{fill:#2d353a;}.cls-8{fill:url(#linear-gradient-2);}.cls-9{opacity:0.29;}.cls-10{fill:#d3d3d3;}.cls-11{fill:#21111d;}.cls-12{fill:url(#linear-gradient-3);}.cls-13{fill:url(#linear-gradient-4);}.cls-14{fill:url(#linear-gradient-5);}.cls-15{fill:url(#linear-gradient-6);}.cls-16{fill:url(#linear-gradient-7);}.cls-17,.cls-69{opacity:0.3;}.cls-17,.cls-24,.cls-62{mix-blend-mode:multiply;}.cls-18{fill:url(#linear-gradient-8);}.cls-19{fill:url(#linear-gradient-9);}.cls-20{fill:url(#linear-gradient-10);}.cls-21{fill:url(#linear-gradient-11);}.cls-22{fill:url(#linear-gradient-12);}.cls-23{fill:url(#linear-gradient-13);}.cls-25{fill:url(#linear-gradient-14);}.cls-26{fill:url(#linear-gradient-15);}.cls-27{fill:url(#linear-gradient-16);}.cls-28{opacity:0.56;}.cls-29{fill:url(#linear-gradient-17);}.cls-30{fill:url(#linear-gradient-18);}.cls-31{fill:url(#linear-gradient-19);}.cls-32{fill:url(#linear-gradient-20);}.cls-33{fill:url(#linear-gradient-21);}.cls-34{fill:url(#linear-gradient-22);}.cls-35{fill:url(#linear-gradient-23);}.cls-36{fill:url(#linear-gradient-24);}.cls-37{fill:url(#linear-gradient-25);}.cls-38{fill:url(#linear-gradient-26);}.cls-39{opacity:0.43;}.cls-40{fill:url(#linear-gradient-27);}.cls-41{opacity:0.44;}.cls-42{fill:url(#linear-gradient-28);}.cls-43{opacity:0.71;}.cls-44{fill:url(#linear-gradient-29);}.cls-45{fill:url(#linear-gradient-30);}.cls-46{opacity:0.6;}.cls-47{fill:url(#linear-gradient-31);}.cls-48{fill:url(#linear-gradient-32);}.cls-49{fill:url(#linear-gradient-33);}.cls-50{fill:url(#linear-gradient-34);}.cls-51{fill:url(#linear-gradient-35);}.cls-52{fill:url(#linear-gradient-36);}.cls-53{fill:url(#linear-gradient-37);}.cls-54{fill:url(#linear-gradient-38);}.cls-55{fill:url(#linear-gradient-39);}.cls-56{fill:url(#linear-gradient-40);}.cls-57{fill:#fcad97;}.cls-58{fill:#d7e4f7;}.cls-59{fill:url(#linear-gradient-41);}.cls-60{fill:url(#linear-gradient-42);}.cls-61{fill:#e2f2f1;}.cls-62{fill:#5fb28a;}.cls-63{fill:#c84d71;}.cls-64{fill:#090028;}.cls-65{fill:#ffd54f;}.cls-66{fill:#ffcd6e;}.cls-67{fill:#dcf4ff;}.cls-68{fill:#adc2c4;}.cls-70{fill:#8f989e;}.cls-71{fill:#a6aeb2;}.cls-72{fill:url(#linear-gradient-43);}.cls-73{fill:url(#linear-gradient-44);}.cls-74{opacity:0.26;}.cls-75{fill:url(#linear-gradient-45);}.cls-76{fill:#f3fffe;}.cls-77{fill:url(#linear-gradient-46);}.cls-78{fill:#d87830;}.cls-79{fill:url(#linear-gradient-47);}.cls-80{opacity:0.15;}.cls-81{fill:url(#linear-gradient-48);}.cls-82{fill:url(#linear-gradient-49);}.cls-83{fill:url(#linear-gradient-50);}.cls-84{fill:url(#linear-gradient-51);}.cls-85{fill:url(#linear-gradient-52);}.cls-86{fill:url(#linear-gradient-53);}.cls-87{fill:url(#linear-gradient-54);}.cls-88{fill:#b2c3ce;}.cls-89{fill:url(#linear-gradient-55);}.cls-90{fill:url(#linear-gradient-56);}.cls-91{fill:url(#linear-gradient-57);}.cls-92{fill:#4c222e;}.cls-93{fill:#223749;}</style><linearGradient id="linear-gradient" x1="554.96" y1="405.97" x2="903.77" y2="405.97" gradientUnits="userSpaceOnUse"><stop offset="0" stop-color="#23baf5"/><stop offset="1" stop-color="#1c62d1"/></linearGradient><linearGradient id="linear-gradient-2" x1="141.25" y1="487.47" x2="292.08" y2="487.47" xlink:href="#linear-gradient"/><linearGradient id="linear-gradient-3" x1="296.27" y1="489.61" x2="296.27" y2="355.15" xlink:href="#linear-gradient"/><linearGradient id="linear-gradient-4" x1="268.15" y1="489.61" x2="268.15" y2="381.3" xlink:href="#linear-gradient"/><linearGradient id="linear-gradient-5" x1="321.38" y1="489.61" x2="321.38" y2="367.53" xlink:href="#linear-gradient"/><linearGradient id="linear-gradient-6" x1="240.03" y1="489.61" x2="240.03" y2="362.73" xlink:href="#linear-gradient"/><linearGradient id="linear-gradient-7" x1="211.91" y1="489.61" x2="211.91" y2="400.35" xlink:href="#linear-gradient"/><linearGradient id="linear-gradient-8" x1="286.2" y1="429.65" x2="306.34" y2="429.65" xlink:href="#linear-gradient"/><linearGradient id="linear-gradient-9" x1="258.09" y1="447.94" x2="278.22" y2="447.94" xlink:href="#linear-gradient"/><linearGradient id="linear-gradient-10" x1="311.32" y1="442.64" x2="331.45" y2="442.64" xlink:href="#linear-gradient"/><linearGradient id="linear-gradient-11" x1="229.97" y1="440.79" x2="250.1" y2="440.79" xlink:href="#linear-gradient"/><linearGradient id="linear-gradient-12" x1="201.85" y1="455.27" x2="221.98" y2="455.27" xlink:href="#linear-gradient"/><linearGradient id="linear-gradient-13" x1="382.18" y1="389.69" x2="592.61" y2="389.69" xlink:href="#linear-gradient"/><linearGradient id="linear-gradient-14" x1="503.33" y1="538.75" x2="670.01" y2="538.75" gradientTransform="translate(1173.34 1077.51) rotate(-180)" xlink:href="#linear-gradient"/><linearGradient id="linear-gradient-15" x1="674.59" y1="538.75" x2="682.95" y2="538.75" xlink:href="#linear-gradient"/><linearGradient id="linear-gradient-16" x1="687.53" y1="538.75" x2="695.89" y2="538.75" xlink:href="#linear-gradient"/><linearGradient id="linear-gradient-17" x1="427.16" y1="335.2" x2="577.56" y2="335.2" xlink:href="#linear-gradient"/><linearGradient id="linear-gradient-18" x1="427.16" y1="344.47" x2="577.56" y2="344.47" xlink:href="#linear-gradient"/><linearGradient id="linear-gradient-19" x1="508.88" y1="587.45" x2="630.37" y2="587.45" xlink:href="#linear-gradient"/><linearGradient id="linear-gradient-20" x1="508.88" y1="595.51" x2="630.37" y2="595.51" xlink:href="#linear-gradient"/><linearGradient id="linear-gradient-21" x1="508.88" y1="603.57" x2="630.37" y2="603.57" xlink:href="#linear-gradient"/><linearGradient id="linear-gradient-22" x1="508.88" y1="619.69" x2="630.37" y2="619.69" xlink:href="#linear-gradient"/><linearGradient id="linear-gradient-23" x1="508.88" y1="627.76" x2="630.37" y2="627.76" xlink:href="#linear-gradient"/><linearGradient id="linear-gradient-24" x1="508.88" y1="635.82" x2="630.37" y2="635.82" xlink:href="#linear-gradient"/><linearGradient id="linear-gradient-25" x1="508.88" y1="651.94" x2="630.37" y2="651.94" xlink:href="#linear-gradient"/><linearGradient id="linear-gradient-26" x1="508.88" y1="660" x2="630.37" y2="660" xlink:href="#linear-gradient"/><linearGradient id="linear-gradient-27" x1="638.06" y1="608.82" x2="688.67" y2="608.82" gradientTransform="translate(1326.72 1217.64) rotate(-180)" xlink:href="#linear-gradient"/><linearGradient id="linear-gradient-28" x1="638.06" y1="652.38" x2="688.67" y2="652.38" gradientTransform="translate(1326.72 1304.75) rotate(-180)" xlink:href="#linear-gradient"/><linearGradient id="linear-gradient-29" x1="530.01" y1="384.04" x2="572.68" y2="384.04" xlink:href="#linear-gradient"/><linearGradient id="linear-gradient-30" x1="666.13" y1="598.37" x2="673.89" y2="598.37" gradientTransform="translate(155.4 -137.93) rotate(13.28)" xlink:href="#linear-gradient"/><linearGradient id="linear-gradient-31" x1="494.62" y1="706.19" x2="705.06" y2="706.19" xlink:href="#linear-gradient"/><linearGradient id="linear-gradient-32" x1="508.25" y1="466.54" x2="564.87" y2="466.54" xlink:href="#linear-gradient"/><linearGradient id="linear-gradient-33" x1="500.91" y1="477.37" x2="572.21" y2="477.37" xlink:href="#linear-gradient"/><linearGradient id="linear-gradient-34" x1="482.73" y1="503.24" x2="584.79" y2="503.24" xlink:href="#linear-gradient"/><linearGradient id="linear-gradient-35" x1="482.73" y1="515.47" x2="584.79" y2="515.47" xlink:href="#linear-gradient"/><linearGradient id="linear-gradient-36" x1="482.73" y1="527.7" x2="584.79" y2="527.7" xlink:href="#linear-gradient"/><linearGradient id="linear-gradient-37" x1="482.73" y1="541.66" x2="584.79" y2="541.66" xlink:href="#linear-gradient"/><linearGradient id="linear-gradient-38" x1="482.73" y1="553.89" x2="584.79" y2="553.89" xlink:href="#linear-gradient"/><linearGradient id="linear-gradient-39" x1="482.73" y1="595.86" x2="584.79" y2="595.86" xlink:href="#linear-gradient"/><linearGradient id="linear-gradient-40" x1="482.73" y1="585.87" x2="584.79" y2="585.87" xlink:href="#linear-gradient"/><linearGradient id="linear-gradient-41" x1="365.13" y1="494.42" x2="424.69" y2="494.42" xlink:href="#linear-gradient"/><linearGradient id="linear-gradient-42" x1="327.78" y1="490.88" x2="398.49" y2="490.88" xlink:href="#linear-gradient"/><linearGradient id="linear-gradient-43" x1="153.64" y1="728.95" x2="198.38" y2="728.95" xlink:href="#linear-gradient"/><linearGradient id="linear-gradient-44" x1="186.36" y1="692.44" x2="203.92" y2="692.44" gradientTransform="translate(664 1239.21) rotate(154.9)" xlink:href="#linear-gradient"/><linearGradient id="linear-gradient-45" x1="177.53" y1="659.92" x2="242.35" y2="659.92" gradientTransform="translate(180.23 -31.95) rotate(15.19)" xlink:href="#linear-gradient"/><linearGradient id="linear-gradient-46" x1="172.38" y1="659.92" x2="247.51" y2="659.92" xlink:href="#linear-gradient"/><linearGradient id="linear-gradient-47" x1="60.89" y1="491.8" x2="66.05" y2="491.8" xlink:href="#linear-gradient"/><linearGradient id="linear-gradient-48" x1="576.13" y1="553.83" x2="656" y2="553.83" xlink:href="#linear-gradient"/><linearGradient id="linear-gradient-49" x1="696.15" y1="774.88" x2="701.82" y2="774.88" xlink:href="#linear-gradient"/><linearGradient id="linear-gradient-50" x1="576.13" y1="576.24" x2="656" y2="576.24" xlink:href="#linear-gradient"/><linearGradient id="linear-gradient-51" x1="696.15" y1="797.28" x2="701.82" y2="797.28" xlink:href="#linear-gradient"/><linearGradient id="linear-gradient-52" x1="576.13" y1="598.63" x2="656" y2="598.63" xlink:href="#linear-gradient"/><linearGradient id="linear-gradient-53" x1="696.15" y1="819.67" x2="701.82" y2="819.67" xlink:href="#linear-gradient"/><linearGradient id="linear-gradient-54" x1="830.02" y1="687.45" x2="853.22" y2="687.45" xlink:href="#linear-gradient"/><linearGradient id="linear-gradient-55" x1="842.46" y1="708.11" x2="858.34" y2="708.11" xlink:href="#linear-gradient"/><linearGradient id="linear-gradient-56" x1="866.91" y1="709.04" x2="901.75" y2="709.04" xlink:href="#linear-gradient"/><linearGradient id="linear-gradient-57" x1="881.81" y1="669.27" x2="882.69" y2="669.27" xlink:href="#linear-gradient"/></defs><title>Web_designing_service_vector_img</title><g class="cls-1"><g id="Layer_1" data-name="Layer 1"><path class="cls-2" d="M771.38,224.62h0L765.83,280l-.51,3a124.73,124.73,0,0,1,84.33,66.68l54.12-22.24A183.15,183.15,0,0,0,771.38,224.62ZM737.84,528.91a124.48,124.48,0,0,1-94.9-205L596.48,288.4a182.9,182.9,0,0,0,246.07,266l-28.09-51.86A123.94,123.94,0,0,1,737.84,528.91Z" transform="translate(-112.45 -223.56)"/><path class="cls-3" d="M853.59,358.58l55-19.86a183.18,183.18,0,0,0-137.18-114.1h0L765.82,280l-.5,3.05A124.69,124.69,0,0,1,853.59,358.58Z" transform="translate(-112.45 -223.56)"/><path class="cls-4" d="M920.73,404.44a182.65,182.65,0,0,1-78.18,150l-28.09-51.86a124.57,124.57,0,0,0,35.19-152.86l54.12-22.24A182.16,182.16,0,0,1,920.73,404.44Z" transform="translate(-112.45 -223.56)"/><path d="M737.84,529.59v-1.36A123.84,123.84,0,0,0,849.05,350l1.21-.6a125.44,125.44,0,0,1-.34,110.81,126.4,126.4,0,0,1-35,42.88,124.62,124.62,0,0,1-77,26.52Z" transform="translate(-112.45 -223.56)"/><path class="cls-5" d="M737.84,588A183.48,183.48,0,0,1,596,288l.42-.51,47,35.9-.82,1.07-45.94-35.1a182.56,182.56,0,0,0-41,115.11c0,100.47,81.74,182.21,182.21,182.21a182.22,182.22,0,0,0,33.41-361.36l.13-.67-.48.48-1.54-1.54,2.14.4a183.81,183.81,0,0,1,132.89,103.2,181.94,181.94,0,0,1,17,77.28A183.52,183.52,0,0,1,737.84,588Z" transform="translate(-112.45 -223.56)"/><path class="cls-3" d="M644,363v8h1.65v.6H641V371h1.65v-7.41h-1.8V363Z" transform="translate(-112.45 -223.56)"/><path class="cls-3" d="M658.46,371.78a3.59,3.59,0,0,1-1.54-.31,3.1,3.1,0,0,1-1.14-.89,4,4,0,0,1-.71-1.39,6.63,6.63,0,0,1-.24-1.85,6.26,6.26,0,0,1,.26-1.91,4.24,4.24,0,0,1,.75-1.45,3.39,3.39,0,0,1,1.2-.92,3.81,3.81,0,0,1,1.58-.32,3.68,3.68,0,0,1,1.52.31,3.21,3.21,0,0,1,1.14.89,3.92,3.92,0,0,1,.7,1.4,6.5,6.5,0,0,1,.25,1.84A6.71,6.71,0,0,1,662,369a4.25,4.25,0,0,1-.72,1.46,3.22,3.22,0,0,1-1.17,1A3.7,3.7,0,0,1,658.46,371.78Zm0-.58a2.37,2.37,0,0,0,.61-.07,1.5,1.5,0,0,0,.54-.22,1.69,1.69,0,0,0,.43-.45,2.76,2.76,0,0,0,.33-.73,6.28,6.28,0,0,0,.2-1.06,12.34,12.34,0,0,0,.07-1.45,10.63,10.63,0,0,0-.15-2,3.56,3.56,0,0,0-.42-1.19,1.35,1.35,0,0,0-.67-.57,2.42,2.42,0,0,0-.88-.15,2.57,2.57,0,0,0-.9.15,1.43,1.43,0,0,0-.69.59,3.38,3.38,0,0,0-.44,1.21,10.1,10.1,0,0,0-.16,2,11.92,11.92,0,0,0,.07,1.42,6.28,6.28,0,0,0,.19,1,3.15,3.15,0,0,0,.31.71,1.61,1.61,0,0,0,.42.44,1.41,1.41,0,0,0,.52.22A2.45,2.45,0,0,0,658.5,371.2Z" transform="translate(-112.45 -223.56)"/><path class="cls-3" d="M675.42,371.78a3.59,3.59,0,0,1-1.54-.31,3.1,3.1,0,0,1-1.14-.89,4,4,0,0,1-.71-1.39,6.63,6.63,0,0,1-.24-1.85,6.26,6.26,0,0,1,.26-1.91,4.09,4.09,0,0,1,.76-1.45,3.35,3.35,0,0,1,1.19-.92,3.81,3.81,0,0,1,1.58-.32,3.73,3.73,0,0,1,1.53.31,3.26,3.26,0,0,1,1.13.89,3.92,3.92,0,0,1,.7,1.4,6.16,6.16,0,0,1,.25,1.84A6.71,6.71,0,0,1,679,369a4.42,4.42,0,0,1-.71,1.46,3.34,3.34,0,0,1-1.18,1A3.7,3.7,0,0,1,675.42,371.78Zm0-.58a2.51,2.51,0,0,0,.62-.07,1.53,1.53,0,0,0,.53-.22,1.72,1.72,0,0,0,.44-.45,3.13,3.13,0,0,0,.32-.73,5.42,5.42,0,0,0,.2-1.06,12.34,12.34,0,0,0,.07-1.45,10.63,10.63,0,0,0-.15-2,3.56,3.56,0,0,0-.42-1.19,1.35,1.35,0,0,0-.67-.57,2.42,2.42,0,0,0-.88-.15,2.62,2.62,0,0,0-.9.15,1.43,1.43,0,0,0-.69.59,3.38,3.38,0,0,0-.44,1.21,10.1,10.1,0,0,0-.16,2,11.92,11.92,0,0,0,.07,1.42,6.28,6.28,0,0,0,.19,1,3.15,3.15,0,0,0,.31.71,2,2,0,0,0,.42.44,1.41,1.41,0,0,0,.52.22A2.45,2.45,0,0,0,675.46,371.2Z" transform="translate(-112.45 -223.56)"/><path class="cls-3" d="M692.38,371.78a3.59,3.59,0,0,1-1.54-.31,3.1,3.1,0,0,1-1.14-.89,4,4,0,0,1-.71-1.39,7.2,7.2,0,0,1,0-3.76,4.25,4.25,0,0,1,.76-1.45,3.35,3.35,0,0,1,1.19-.92,3.81,3.81,0,0,1,1.58-.32,3.73,3.73,0,0,1,1.53.31,3.17,3.17,0,0,1,1.13.89,3.92,3.92,0,0,1,.7,1.4,6.16,6.16,0,0,1,.25,1.84,6.71,6.71,0,0,1-.24,1.84,4.42,4.42,0,0,1-.71,1.46,3.34,3.34,0,0,1-1.18,1A3.7,3.7,0,0,1,692.38,371.78Zm0-.58a2.51,2.51,0,0,0,.62-.07,1.46,1.46,0,0,0,.53-.22,1.72,1.72,0,0,0,.44-.45,2.76,2.76,0,0,0,.32-.73,5.42,5.42,0,0,0,.2-1.06,12.34,12.34,0,0,0,.07-1.45,10.75,10.75,0,0,0-.14-2,3.55,3.55,0,0,0-.43-1.19,1.38,1.38,0,0,0-.66-.57,2.5,2.5,0,0,0-.88-.15,2.67,2.67,0,0,0-.91.15,1.43,1.43,0,0,0-.69.59,3.38,3.38,0,0,0-.44,1.21,10.1,10.1,0,0,0-.16,2,11.92,11.92,0,0,0,.07,1.42,6.28,6.28,0,0,0,.19,1,3.15,3.15,0,0,0,.31.71,2,2,0,0,0,.42.44,1.41,1.41,0,0,0,.52.22A2.45,2.45,0,0,0,692.42,371.2Z" transform="translate(-112.45 -223.56)"/><path class="cls-3" d="M708.48,363v8h1.65v.6h-4.68V371h1.64v-7.41H705.3V363Z" transform="translate(-112.45 -223.56)"/><path class="cls-3" d="M723,371.78a3.64,3.64,0,0,1-1.55-.31,3.07,3.07,0,0,1-1.13-.89,4,4,0,0,1-.71-1.39,6.62,6.62,0,0,1-.25-1.85,6.25,6.25,0,0,1,.27-1.91,4.07,4.07,0,0,1,.75-1.45,3.39,3.39,0,0,1,1.2-.92,4,4,0,0,1,3.1,0,3.21,3.21,0,0,1,1.14.89,4.09,4.09,0,0,1,.7,1.4,6.51,6.51,0,0,1,.24,1.84,6.71,6.71,0,0,1-.24,1.84,4.23,4.23,0,0,1-.71,1.46,3.22,3.22,0,0,1-1.17,1A3.7,3.7,0,0,1,723,371.78Zm0-.58a2.45,2.45,0,0,0,.62-.07,1.46,1.46,0,0,0,.53-.22,1.58,1.58,0,0,0,.44-.45,2.76,2.76,0,0,0,.33-.73,6.28,6.28,0,0,0,.2-1.06,12.34,12.34,0,0,0,.07-1.45,10.63,10.63,0,0,0-.15-2,3.56,3.56,0,0,0-.42-1.19,1.4,1.4,0,0,0-.67-.57,2.42,2.42,0,0,0-.88-.15,2.57,2.57,0,0,0-.9.15,1.43,1.43,0,0,0-.69.59,3.57,3.57,0,0,0-.45,1.21,11,11,0,0,0-.15,2c0,.54,0,1,.06,1.42a6.21,6.21,0,0,0,.2,1,2.76,2.76,0,0,0,.31.71,1.61,1.61,0,0,0,.42.44,1.41,1.41,0,0,0,.52.22A2.37,2.37,0,0,0,723,371.2Z" transform="translate(-112.45 -223.56)"/><path class="cls-3" d="M739.05,363v8h1.64v.6H736V371h1.65v-7.41h-1.8V363Z" transform="translate(-112.45 -223.56)"/><path class="cls-3" d="M753.51,371.78a3.59,3.59,0,0,1-1.54-.31,3.1,3.1,0,0,1-1.14-.89,4.14,4.14,0,0,1-.71-1.39,7.2,7.2,0,0,1,0-3.76,4.25,4.25,0,0,1,.76-1.45,3.44,3.44,0,0,1,1.19-.92,3.84,3.84,0,0,1,1.58-.32,3.73,3.73,0,0,1,1.53.31,3.09,3.09,0,0,1,1.13.89,3.93,3.93,0,0,1,.71,1.4,6.51,6.51,0,0,1,.24,1.84A6.71,6.71,0,0,1,757,369a4.42,4.42,0,0,1-.71,1.46,3.25,3.25,0,0,1-1.18,1A3.67,3.67,0,0,1,753.51,371.78Zm0-.58a2.45,2.45,0,0,0,.62-.07,1.46,1.46,0,0,0,.53-.22,1.72,1.72,0,0,0,.44-.45,2.47,2.47,0,0,0,.32-.73,6.2,6.2,0,0,0,.21-1.06c0-.41.07-.9.07-1.45a10.63,10.63,0,0,0-.15-2,3.56,3.56,0,0,0-.42-1.19,1.44,1.44,0,0,0-.67-.57,2.46,2.46,0,0,0-.88-.15,2.57,2.57,0,0,0-.9.15,1.41,1.41,0,0,0-.7.59,3.58,3.58,0,0,0-.44,1.21,10.91,10.91,0,0,0-.16,2c0,.54,0,1,.07,1.42a6.21,6.21,0,0,0,.2,1,2.45,2.45,0,0,0,.31.71,1.61,1.61,0,0,0,.42.44,1.34,1.34,0,0,0,.52.22A2.37,2.37,0,0,0,753.55,371.2Z" transform="translate(-112.45 -223.56)"/><path class="cls-3" d="M769.61,363v8h1.65v.6h-4.68V371h1.65v-7.41h-1.8V363Z" transform="translate(-112.45 -223.56)"/><path class="cls-3" d="M784.08,371.78a3.59,3.59,0,0,1-1.54-.31,3.1,3.1,0,0,1-1.14-.89,4,4,0,0,1-.71-1.39,6.63,6.63,0,0,1-.24-1.85,6.26,6.26,0,0,1,.26-1.91,4.09,4.09,0,0,1,.76-1.45,3.35,3.35,0,0,1,1.19-.92,3.81,3.81,0,0,1,1.58-.32,3.65,3.65,0,0,1,1.52.31,3.21,3.21,0,0,1,1.14.89,3.92,3.92,0,0,1,.7,1.4,6.16,6.16,0,0,1,.25,1.84,6.71,6.71,0,0,1-.24,1.84,4.42,4.42,0,0,1-.71,1.46,3.34,3.34,0,0,1-1.18,1A3.7,3.7,0,0,1,784.08,371.78Zm0-.58a2.51,2.51,0,0,0,.62-.07,1.53,1.53,0,0,0,.53-.22,1.55,1.55,0,0,0,.43-.45,2.76,2.76,0,0,0,.33-.73,5.42,5.42,0,0,0,.2-1.06,12.34,12.34,0,0,0,.07-1.45,10.63,10.63,0,0,0-.15-2,3.56,3.56,0,0,0-.42-1.19,1.35,1.35,0,0,0-.67-.57,2.42,2.42,0,0,0-.88-.15,2.62,2.62,0,0,0-.9.15,1.43,1.43,0,0,0-.69.59,3.38,3.38,0,0,0-.44,1.21,10.1,10.1,0,0,0-.16,2,11.92,11.92,0,0,0,.07,1.42,6.28,6.28,0,0,0,.19,1,3.15,3.15,0,0,0,.31.71,2,2,0,0,0,.42.44,1.41,1.41,0,0,0,.52.22A2.45,2.45,0,0,0,784.12,371.2Z" transform="translate(-112.45 -223.56)"/><path class="cls-3" d="M800.18,363v8h1.65v.6h-4.68V371h1.64v-7.41H797V363Z" transform="translate(-112.45 -223.56)"/><path class="cls-3" d="M814.65,371.78a3.64,3.64,0,0,1-1.55-.31,3,3,0,0,1-1.13-.89,4,4,0,0,1-.71-1.39,6.62,6.62,0,0,1-.25-1.85,6.25,6.25,0,0,1,.27-1.91A4.07,4.07,0,0,1,812,364a3.39,3.39,0,0,1,1.2-.92,4,4,0,0,1,3.1,0,3.21,3.21,0,0,1,1.14.89,4.09,4.09,0,0,1,.7,1.4,6.51,6.51,0,0,1,.24,1.84,6.71,6.71,0,0,1-.24,1.84,4.23,4.23,0,0,1-.71,1.46,3.22,3.22,0,0,1-1.17,1A3.7,3.7,0,0,1,814.65,371.78Zm0-.58a2.45,2.45,0,0,0,.62-.07,1.46,1.46,0,0,0,.53-.22,1.58,1.58,0,0,0,.44-.45,2.76,2.76,0,0,0,.33-.73,7.46,7.46,0,0,0,.2-1.06,12.34,12.34,0,0,0,.07-1.45,10.63,10.63,0,0,0-.15-2,3.56,3.56,0,0,0-.42-1.19,1.4,1.4,0,0,0-.67-.57,2.42,2.42,0,0,0-.88-.15,2.57,2.57,0,0,0-.9.15,1.43,1.43,0,0,0-.69.59,3.57,3.57,0,0,0-.45,1.21,11,11,0,0,0-.15,2c0,.54,0,1,.06,1.42a6.21,6.21,0,0,0,.2,1,2.76,2.76,0,0,0,.31.71,1.61,1.61,0,0,0,.42.44,1.41,1.41,0,0,0,.52.22A2.37,2.37,0,0,0,814.68,371.2Z" transform="translate(-112.45 -223.56)"/><path class="cls-3" d="M708.48,392.07v8h1.65v.6h-4.68v-.6h1.64v-7.41H705.3v-.6Z" transform="translate(-112.45 -223.56)"/><path class="cls-3" d="M723,400.89a3.64,3.64,0,0,1-1.55-.31,3.07,3.07,0,0,1-1.13-.89,4,4,0,0,1-.71-1.39,6.62,6.62,0,0,1-.25-1.85,6.25,6.25,0,0,1,.27-1.91,4.07,4.07,0,0,1,.75-1.45,3.39,3.39,0,0,1,1.2-.92,3.76,3.76,0,0,1,1.57-.32,3.58,3.58,0,0,1,1.53.31,3.1,3.1,0,0,1,1.14.89,4.09,4.09,0,0,1,.7,1.4,6.49,6.49,0,0,1,.24,1.83,6.74,6.74,0,0,1-.24,1.85,4.23,4.23,0,0,1-.71,1.46,3.22,3.22,0,0,1-1.17,1A3.7,3.7,0,0,1,723,400.89Zm0-.58a2.45,2.45,0,0,0,.62-.07,1.48,1.48,0,0,0,.53-.23,1.67,1.67,0,0,0,.44-.44,2.76,2.76,0,0,0,.33-.73,6.48,6.48,0,0,0,.2-1.06,12.34,12.34,0,0,0,.07-1.45,10.63,10.63,0,0,0-.15-2,3.56,3.56,0,0,0-.42-1.19,1.42,1.42,0,0,0-.67-.58,2.66,2.66,0,0,0-.88-.14,2.57,2.57,0,0,0-.9.15,1.43,1.43,0,0,0-.69.59,3.57,3.57,0,0,0-.45,1.21,11,11,0,0,0-.15,2c0,.54,0,1,.06,1.42a5.88,5.88,0,0,0,.2,1,2.69,2.69,0,0,0,.31.72,1.61,1.61,0,0,0,.42.44,1.41,1.41,0,0,0,.52.22A2.37,2.37,0,0,0,723,400.31Z" transform="translate(-112.45 -223.56)"/><path class="cls-3" d="M739.05,392.07v8h1.64v.6H736v-.6h1.65v-7.41h-1.8v-.6Z" transform="translate(-112.45 -223.56)"/><path class="cls-3" d="M753.51,400.89a3.59,3.59,0,0,1-1.54-.31,3.1,3.1,0,0,1-1.14-.89,4.14,4.14,0,0,1-.71-1.39,7.2,7.2,0,0,1,0-3.76,4.25,4.25,0,0,1,.76-1.45,3.44,3.44,0,0,1,1.19-.92,3.84,3.84,0,0,1,1.58-.32,3.58,3.58,0,0,1,1.53.31,3,3,0,0,1,1.13.89,3.93,3.93,0,0,1,.71,1.4,6.49,6.49,0,0,1,.24,1.83,6.74,6.74,0,0,1-.24,1.85,4.42,4.42,0,0,1-.71,1.46,3.25,3.25,0,0,1-1.18,1A3.67,3.67,0,0,1,753.51,400.89Zm0-.58a2.45,2.45,0,0,0,.62-.07,1.48,1.48,0,0,0,.53-.23,1.84,1.84,0,0,0,.44-.44,2.47,2.47,0,0,0,.32-.73,6.4,6.4,0,0,0,.21-1.06c0-.41.07-.9.07-1.45a10.63,10.63,0,0,0-.15-2,3.56,3.56,0,0,0-.42-1.19,1.47,1.47,0,0,0-.67-.58,2.71,2.71,0,0,0-.88-.14,2.57,2.57,0,0,0-.9.15,1.41,1.41,0,0,0-.7.59,3.58,3.58,0,0,0-.44,1.21,10.91,10.91,0,0,0-.16,2c0,.54,0,1,.07,1.42a5.88,5.88,0,0,0,.2,1,2.4,2.4,0,0,0,.31.72,1.61,1.61,0,0,0,.42.44,1.34,1.34,0,0,0,.52.22A2.37,2.37,0,0,0,753.55,400.31Z" transform="translate(-112.45 -223.56)"/><path class="cls-3" d="M769.61,392.07v8h1.65v.6h-4.68v-.6h1.65v-7.41h-1.8v-.6Z" transform="translate(-112.45 -223.56)"/><path class="cls-3" d="M784.08,400.89a3.59,3.59,0,0,1-1.54-.31,3.1,3.1,0,0,1-1.14-.89,4,4,0,0,1-.71-1.39,6.63,6.63,0,0,1-.24-1.85,6.26,6.26,0,0,1,.26-1.91,4.09,4.09,0,0,1,.76-1.45,3.35,3.35,0,0,1,1.19-.92,3.81,3.81,0,0,1,1.58-.32,3.5,3.5,0,0,1,1.52.31,3.1,3.1,0,0,1,1.14.89,3.92,3.92,0,0,1,.7,1.4,6.14,6.14,0,0,1,.25,1.83,6.74,6.74,0,0,1-.24,1.85,4.42,4.42,0,0,1-.71,1.46,3.34,3.34,0,0,1-1.18,1A3.7,3.7,0,0,1,784.08,400.89Zm0-.58a2.51,2.51,0,0,0,.62-.07,1.55,1.55,0,0,0,.53-.23,1.64,1.64,0,0,0,.43-.44,2.76,2.76,0,0,0,.33-.73,5.57,5.57,0,0,0,.2-1.06,12.34,12.34,0,0,0,.07-1.45,10.63,10.63,0,0,0-.15-2,3.56,3.56,0,0,0-.42-1.19,1.38,1.38,0,0,0-.67-.58,2.66,2.66,0,0,0-.88-.14,2.62,2.62,0,0,0-.9.15,1.43,1.43,0,0,0-.69.59,3.38,3.38,0,0,0-.44,1.21,10.1,10.1,0,0,0-.16,2,11.92,11.92,0,0,0,.07,1.42,6,6,0,0,0,.19,1,3,3,0,0,0,.31.72,2,2,0,0,0,.42.44,1.41,1.41,0,0,0,.52.22A2.45,2.45,0,0,0,784.12,400.31Z" transform="translate(-112.45 -223.56)"/><path class="cls-3" d="M800.18,392.07v8h1.65v.6h-4.68v-.6h1.64v-7.41H797v-.6Z" transform="translate(-112.45 -223.56)"/><path class="cls-3" d="M814.65,400.89a3.64,3.64,0,0,1-1.55-.31,3,3,0,0,1-1.13-.89,4,4,0,0,1-.71-1.39,6.62,6.62,0,0,1-.25-1.85,6.25,6.25,0,0,1,.27-1.91,4.07,4.07,0,0,1,.75-1.45,3.39,3.39,0,0,1,1.2-.92,3.76,3.76,0,0,1,1.57-.32,3.58,3.58,0,0,1,1.53.31,3.1,3.1,0,0,1,1.14.89,4.09,4.09,0,0,1,.7,1.4,6.49,6.49,0,0,1,.24,1.83,6.74,6.74,0,0,1-.24,1.85,4.23,4.23,0,0,1-.71,1.46,3.22,3.22,0,0,1-1.17,1A3.7,3.7,0,0,1,814.65,400.89Zm0-.58a2.45,2.45,0,0,0,.62-.07,1.48,1.48,0,0,0,.53-.23,1.67,1.67,0,0,0,.44-.44,2.76,2.76,0,0,0,.33-.73,7.75,7.75,0,0,0,.2-1.06,12.34,12.34,0,0,0,.07-1.45,10.63,10.63,0,0,0-.15-2,3.56,3.56,0,0,0-.42-1.19,1.42,1.42,0,0,0-.67-.58,2.66,2.66,0,0,0-.88-.14,2.57,2.57,0,0,0-.9.15,1.43,1.43,0,0,0-.69.59,3.57,3.57,0,0,0-.45,1.21,11,11,0,0,0-.15,2c0,.54,0,1,.06,1.42a5.88,5.88,0,0,0,.2,1,2.69,2.69,0,0,0,.31.72,1.61,1.61,0,0,0,.42.44,1.41,1.41,0,0,0,.52.22A2.37,2.37,0,0,0,814.68,400.31Z" transform="translate(-112.45 -223.56)"/><path class="cls-3" d="M646.41,419.67v8h1.65v.6h-4.69v-.6H645v-7.42h-1.8v-.6Z" transform="translate(-112.45 -223.56)"/><path class="cls-3" d="M660.87,428.5a3.78,3.78,0,0,1-1.54-.31,3.21,3.21,0,0,1-1.14-.89,4,4,0,0,1-.7-1.4,6.16,6.16,0,0,1-.25-1.84,6.7,6.7,0,0,1,.26-1.92,4.2,4.2,0,0,1,.76-1.44,3.27,3.27,0,0,1,1.2-.92,3.61,3.61,0,0,1,1.57-.32,3.58,3.58,0,0,1,1.53.31,3,3,0,0,1,1.13.89,4,4,0,0,1,.71,1.39,6.56,6.56,0,0,1,.24,1.84,6.74,6.74,0,0,1-.24,1.85,4.18,4.18,0,0,1-.71,1.45,3.25,3.25,0,0,1-1.18,1A3.64,3.64,0,0,1,660.87,428.5Zm0-.59a3,3,0,0,0,.62-.06,1.48,1.48,0,0,0,.53-.23,1.72,1.72,0,0,0,.44-.45,2.68,2.68,0,0,0,.33-.72,7.75,7.75,0,0,0,.2-1.06,12.45,12.45,0,0,0,.07-1.45,10.49,10.49,0,0,0-.15-2,3.48,3.48,0,0,0-.42-1.19,1.41,1.41,0,0,0-.67-.58A2.46,2.46,0,0,0,661,420a2.36,2.36,0,0,0-.9.16,1.39,1.39,0,0,0-.7.58,3.64,3.64,0,0,0-.44,1.22,11,11,0,0,0-.15,2q0,.81.06,1.41a6,6,0,0,0,.2,1,2.48,2.48,0,0,0,.31.71,1.51,1.51,0,0,0,.94.67A2.93,2.93,0,0,0,660.91,427.91Z" transform="translate(-112.45 -223.56)"/><path class="cls-3" d="M677,419.67v8h1.65v.6h-4.68v-.6h1.65v-7.42h-1.8v-.6Z" transform="translate(-112.45 -223.56)"/><path class="cls-3" d="M691.44,428.5a3.75,3.75,0,0,1-1.54-.31,3.21,3.21,0,0,1-1.14-.89,4,4,0,0,1-.71-1.4,6.51,6.51,0,0,1-.24-1.84,6.7,6.7,0,0,1,.26-1.92,4.2,4.2,0,0,1,.76-1.44,3.32,3.32,0,0,1,1.19-.92,3.66,3.66,0,0,1,1.58-.32,3.58,3.58,0,0,1,1.53.31,3.07,3.07,0,0,1,1.13.89,4.14,4.14,0,0,1,.71,1.39,6.56,6.56,0,0,1,.24,1.84,6.74,6.74,0,0,1-.24,1.85,4.36,4.36,0,0,1-.71,1.45,3.34,3.34,0,0,1-1.18,1A3.67,3.67,0,0,1,691.44,428.5Zm0-.59a3.11,3.11,0,0,0,.62-.06,1.48,1.48,0,0,0,.53-.23,1.72,1.72,0,0,0,.44-.45,2.68,2.68,0,0,0,.32-.72,5.57,5.57,0,0,0,.2-1.06,12.27,12.27,0,0,0,.08-1.45,10.49,10.49,0,0,0-.15-2,3.46,3.46,0,0,0-.43-1.19,1.35,1.35,0,0,0-.66-.58,2.5,2.5,0,0,0-.88-.15,2.45,2.45,0,0,0-.91.16,1.41,1.41,0,0,0-.69.58,3.44,3.44,0,0,0-.44,1.22,10.1,10.1,0,0,0-.16,2,11.63,11.63,0,0,0,.07,1.41,6.09,6.09,0,0,0,.19,1,2.79,2.79,0,0,0,.31.71,1.62,1.62,0,0,0,.42.44,1.43,1.43,0,0,0,.52.23A3,3,0,0,0,691.48,427.91Z" transform="translate(-112.45 -223.56)"/><path class="cls-3" d="M707.54,419.67v8h1.65v.6h-4.68v-.6h1.65v-7.42h-1.8v-.6Z" transform="translate(-112.45 -223.56)"/><path class="cls-3" d="M722,428.5a3.79,3.79,0,0,1-1.55-.31,3.26,3.26,0,0,1-1.13-.89,4,4,0,0,1-.71-1.4,6.5,6.5,0,0,1-.25-1.84,6.36,6.36,0,0,1,.27-1.92,4,4,0,0,1,.75-1.44,3.27,3.27,0,0,1,1.2-.92,3.61,3.61,0,0,1,1.57-.32,3.58,3.58,0,0,1,1.53.31,3.1,3.1,0,0,1,1.14.89,4.13,4.13,0,0,1,.7,1.39,6.56,6.56,0,0,1,.24,1.84,6.74,6.74,0,0,1-.24,1.85,4.18,4.18,0,0,1-.71,1.45,3.22,3.22,0,0,1-1.17,1A3.7,3.7,0,0,1,722,428.5Zm0-.59a3,3,0,0,0,.62-.06,1.48,1.48,0,0,0,.53-.23,1.58,1.58,0,0,0,.44-.45,2.68,2.68,0,0,0,.33-.72,6.48,6.48,0,0,0,.2-1.06,12.45,12.45,0,0,0,.07-1.45,10.49,10.49,0,0,0-.15-2,3.48,3.48,0,0,0-.42-1.19,1.37,1.37,0,0,0-.67-.58,2.42,2.42,0,0,0-.88-.15,2.36,2.36,0,0,0-.9.16,1.41,1.41,0,0,0-.69.58,3.63,3.63,0,0,0-.45,1.22,11,11,0,0,0-.15,2,11.63,11.63,0,0,0,.07,1.41,5.25,5.25,0,0,0,.19,1,2.48,2.48,0,0,0,.31.71,1.37,1.37,0,0,0,.42.44,1.43,1.43,0,0,0,.52.23A2.93,2.93,0,0,0,722,427.91Z" transform="translate(-112.45 -223.56)"/><path class="cls-3" d="M738.11,419.67v8h1.64v.6h-4.68v-.6h1.65v-7.42h-1.8v-.6Z" transform="translate(-112.45 -223.56)"/><path class="cls-3" d="M752.57,428.5a3.75,3.75,0,0,1-1.54-.31,3.21,3.21,0,0,1-1.14-.89,4.2,4.2,0,0,1-.71-1.4,6.51,6.51,0,0,1-.24-1.84,6.7,6.7,0,0,1,.26-1.92,4.2,4.2,0,0,1,.76-1.44,3.32,3.32,0,0,1,1.19-.92,3.69,3.69,0,0,1,1.58-.32,3.58,3.58,0,0,1,1.53.31,3,3,0,0,1,1.13.89,4,4,0,0,1,.71,1.39,6.56,6.56,0,0,1,.24,1.84,6.74,6.74,0,0,1-.24,1.85,4.36,4.36,0,0,1-.71,1.45,3.25,3.25,0,0,1-1.18,1A3.67,3.67,0,0,1,752.57,428.5Zm0-.59a3,3,0,0,0,.62-.06,1.48,1.48,0,0,0,.53-.23,1.72,1.72,0,0,0,.44-.45,2.4,2.4,0,0,0,.32-.72,6.4,6.4,0,0,0,.21-1.06c0-.42.07-.9.07-1.45a10.49,10.49,0,0,0-.15-2,3.48,3.48,0,0,0-.42-1.19,1.41,1.41,0,0,0-.67-.58,2.46,2.46,0,0,0-.88-.15,2.36,2.36,0,0,0-.9.16,1.39,1.39,0,0,0-.7.58,3.64,3.64,0,0,0-.44,1.22,10.91,10.91,0,0,0-.16,2,14.1,14.1,0,0,0,.07,1.41,6,6,0,0,0,.2,1,2.23,2.23,0,0,0,.31.71,1.51,1.51,0,0,0,.94.67A2.93,2.93,0,0,0,752.61,427.91Z" transform="translate(-112.45 -223.56)"/><path class="cls-5" d="M719.32,347c.42-1.78.79-3.6,1.12-5.41l.09-.49,1,.17-.09.5c-.33,1.83-.71,3.67-1.13,5.46l-.11.49-1-.23Zm1.95-10.87c.22-1.84.4-3.69.52-5.5l0-.5,1,.06,0,.5c-.12,1.83-.3,3.7-.53,5.56l-.06.5-1-.12ZM656.9,305.88l-.41-.29.59-.82.41.3a11.41,11.41,0,0,0,2.61,1.38h0a12.63,12.63,0,0,0,2.27.62l.5.09-.18,1-.5-.09a13.69,13.69,0,0,1-2.44-.67h0A12.27,12.27,0,0,1,656.9,305.88Zm10.29,1.33.49-.12a7.63,7.63,0,0,0,4.23-2.87l.31-.39.79.62-.31.39a8.6,8.6,0,0,1-4.78,3.23l-.49.12Zm-14.05-5.64a16.87,16.87,0,0,1-1.8-5.39l-.08-.5,1-.16.08.49a16.09,16.09,0,0,0,1.69,5.08l.24.44-.88.49ZM722,325.09c0-1.87-.06-3.72-.18-5.51l0-.5,1-.07,0,.5c.12,1.82.18,3.69.17,5.59v.5h-1ZM674.3,299.45a25.23,25.23,0,0,0,1-5.34l0-.5,1,.08,0,.5a25.43,25.43,0,0,1-1,5.56l-.15.48-1-.3Zm-23.14-8.93a26.88,26.88,0,0,1,1.09-5.54l.15-.48,1,.3-.15.48a25.4,25.4,0,0,0-1.05,5.33l0,.5-1-.09Zm70.06,23.58c-.27-1.84-.61-3.66-1-5.41l-.12-.49,1-.23.12.49c.41,1.78.77,3.62,1,5.5l.07.49-1,.15Zm-46-25.45a40.17,40.17,0,0,0-.85-5.41l-.11-.49,1-.22.11.49a42.27,42.27,0,0,1,.87,5.55l0,.5-1,.08Zm-21-8.42.25-.44c.36-.65.75-1.29,1.16-1.89a21,21,0,0,1,2.16-2.69l.35-.36.73.69-.35.36a19.72,19.72,0,0,0-2.06,2.56c-.39.58-.76,1.19-1.11,1.82l-.25.44Zm64.46,23.18a53.13,53.13,0,0,0-2-5.1l-.21-.45.91-.43.21.46a53.15,53.15,0,0,1,2.08,5.2l.16.47-.95.33ZM672.83,278a50.31,50.31,0,0,0-2.13-5.06l-.22-.45.9-.44.22.45a50.08,50.08,0,0,1,2.18,5.16l.17.47-1,.34Zm41.22,15.5a45.81,45.81,0,0,0-3.13-4.51l-.31-.39.79-.62.31.39a49,49,0,0,1,3.2,4.6l.26.43-.86.52ZM661.82,272l.43-.25a22.11,22.11,0,0,1,5.24-2.15l.48-.13.26,1-.48.13a20.69,20.69,0,0,0-5,2.05l-.43.25Zm45.46,12.91a54.74,54.74,0,0,0-4.06-3.71l-.38-.32.64-.78.38.32c1.44,1.19,2.83,2.46,4.14,3.78l.35.36-.72.71ZM668,268.12a54.36,54.36,0,0,0-3.15-4.5l-.31-.4.79-.62.31.4a54.82,54.82,0,0,1,3.21,4.59l.27.42-.86.54Zm4.53.6.5,0a32.58,32.58,0,0,1,5.63.21l.5.06-.12,1-.5-.06a31.51,31.51,0,0,0-5.45-.21l-.51,0Zm26.26,9.14c-1.53-1-3.11-2-4.7-2.84l-.45-.23.48-.89.44.24a53.41,53.41,0,0,1,4.79,2.89l.42.28-.56.83Zm-15.11-8,.49.13a46.78,46.78,0,0,1,5.32,1.78l.46.19-.37.93-.47-.18a44.78,44.78,0,0,0-5.2-1.75l-.49-.13ZM661.3,259.46a43.66,43.66,0,0,0-4.07-3.69l-.39-.31.63-.79.39.32a45.5,45.5,0,0,1,4.16,3.76l.35.37-.72.7Zm-45.56-19,.5,0c1.84.16,3.71.38,5.54.63l.5.07-.14,1-.5-.07c-1.82-.26-3.66-.47-5.49-.63l-.5,0Zm11,1.49.49.1c1.85.36,3.68.76,5.44,1.21l.49.13-.25,1-.48-.12c-1.75-.45-3.56-.85-5.39-1.2l-.5-.1Zm26,10.67c-1.51-1-3.12-1.86-4.79-2.71l-.44-.23.45-.89.45.22c1.7.86,3.33,1.79,4.87,2.76l.42.27-.53.85Zm-15.15-8,.48.15c1.79.58,3.53,1.21,5.25,1.91l.46.19-.37.93-.47-.19c-1.69-.68-3.41-1.31-5.18-1.88l-.48-.15Z" transform="translate(-112.45 -223.56)"/><path class="cls-6" d="M593.68,251.36l-3.6-6.76s-23.74-8.31-24-8.56l-11.36-9.44,15.94,2.74L595.48,239Z" transform="translate(-112.45 -223.56)"/><polygon class="cls-7" points="491.79 4.23 442.23 3.04 483.04 15.46 491.79 4.23"/><polygon class="cls-7" points="477.63 21.04 468.4 33.02 442.23 3.04 477.63 21.04"/><path class="cls-8" d="M230.84,427.68a61,61,0,0,0-19.77-1.4l-7.84-14.23-10.54,3.52-10.54,3.51,2.26,16.09a61.12,61.12,0,0,0-15,13l-15.6-4.51-5,9.94-5,9.93,13,9.78a61.26,61.26,0,0,0-1.41,19.77l-14.22,7.84,3.51,10.54L148.28,522l16.08-2.26a61.37,61.37,0,0,0,13,15l-4.51,15.6,9.94,5,9.93,5,9.78-13a61.24,61.24,0,0,0,19.77,1.41l7.84,14.22,10.54-3.51,10.54-3.52-2.27-16.08a61,61,0,0,0,15-13l15.61,4.51,5-9.93,5-9.94-13-9.78a60.93,60.93,0,0,0,1.4-19.77L292.08,474l-3.51-10.54L285.05,453,269,455.22a61,61,0,0,0-13-15l4.51-15.61-9.94-5-9.93-5Zm23.1,78.42a41.67,41.67,0,1,1-18.64-55.91A41.68,41.68,0,0,1,253.94,506.1Z" transform="translate(-112.45 -223.56)"/><g class="cls-9"><path class="cls-5" d="M919.19,640a44.11,44.11,0,0,0,13.88,3l4.11,10.9,7.84-1.41,7.84-1.41,0-11.65a43.58,43.58,0,0,0,12-7.68l10.62,4.81,4.54-6.54,4.55-6.54-8.2-8.28a43.83,43.83,0,0,0,3-13.88l10.9-4.11-1.41-7.84-1.41-7.84-11.65-.05a43.58,43.58,0,0,0-7.68-12L973,558.94l-6.54-4.55-6.54-4.54-8.28,8.2a43.83,43.83,0,0,0-13.88-3l-4.11-10.9-7.84,1.41-7.84,1.41-.05,11.65a43.58,43.58,0,0,0-12,7.68l-10.62-4.81L890.77,568l-4.55,6.54,8.2,8.28a44,44,0,0,0-3,13.88l-10.9,4.11,1.41,7.84,1.41,7.84,11.65,0a43.73,43.73,0,0,0,7.68,12l-4.81,10.62,6.54,4.54,6.54,4.55Zm-8.33-58a29.89,29.89,0,1,1,7.48,41.6A29.89,29.89,0,0,1,910.86,582Z" transform="translate(-112.45 -223.56)"/></g><rect class="cls-5" x="339.91" y="454.7" width="81.52" height="170.78"/><path class="cls-7" d="M738.62,740.33v-234a20.13,20.13,0,0,0-20.13-20.13H264.88a20.13,20.13,0,0,0-20.13,20.13v234Z" transform="translate(-112.45 -223.56)"/><path class="cls-7" d="M244.75,740.33v37.49c0,7.8,5.15,14.12,11.51,14.12H727.11c6.36,0,11.51-6.32,11.51-14.12V740.33Z" transform="translate(-112.45 -223.56)"/><path class="cls-10" d="M727.06,730.17V507a10.78,10.78,0,0,0-11-10.59H267.28a10.78,10.78,0,0,0-11,10.59V730.17Z" transform="translate(-112.45 -223.56)"/><path class="cls-7" d="M603.39,853.92c1.38-8.07-4-14.62-12.11-14.62H395.1c-8.07,0-15.73,6.55-17.12,14.62H603.39Z" transform="translate(-112.45 -223.56)"/><path class="cls-11" d="M727.11,792.53H256.26c-6.67,0-12.1-6.6-12.1-14.71V506.38a20.74,20.74,0,0,1,20.72-20.72v1.18a19.57,19.57,0,0,0-19.54,19.54V777.82c0,7.46,4.9,13.53,10.92,13.53H727.11Z" transform="translate(-112.45 -223.56)"/><rect class="cls-11" x="652.95" y="759.36" width="19.27" height="1.18" transform="translate(-453.59 631.67) rotate(-54.34)"/><rect class="cls-11" x="653.12" y="766.97" width="18.92" height="1.18" transform="translate(-460.89 621.45) rotate(-53.58)"/><rect class="cls-11" x="469.11" y="799.91" width="11.27" height="1.18" transform="translate(-568.27 591.98) rotate(-60.26)"/><rect class="cls-11" x="470.42" y="806.11" width="9.99" height="1.18" transform="translate(-573.4 584.97) rotate(-59.6)"/><path class="cls-11" d="M727.65,730.76H256.31v-1.18H726.47V507a10.21,10.21,0,0,0-10.38-10v-1.18A11.39,11.39,0,0,1,727.65,507Z" transform="translate(-112.45 -223.56)"/><rect class="cls-12" x="286.2" y="355.15" width="20.13" height="134.46"/><rect class="cls-13" x="258.09" y="381.3" width="20.13" height="108.31"/><rect class="cls-14" x="311.32" y="367.53" width="20.13" height="122.08"/><rect class="cls-15" x="229.97" y="362.73" width="20.13" height="126.88"/><rect class="cls-16" x="201.85" y="400.35" width="20.13" height="89.26"/><g class="cls-17"><rect class="cls-18" x="286.2" y="369.68" width="20.13" height="119.93"/></g><g class="cls-17"><rect class="cls-19" x="258.09" y="406.26" width="20.13" height="83.35"/></g><g class="cls-17"><rect class="cls-20" x="311.32" y="395.67" width="20.13" height="93.95"/></g><g class="cls-17"><rect class="cls-21" x="229.97" y="391.97" width="20.13" height="97.64"/></g><g class="cls-17"><rect class="cls-22" x="201.85" y="420.92" width="20.13" height="68.69"/></g><polygon class="cls-5" points="344.65 334.96 328.61 347.09 334.73 347.48 296.43 414.89 275.22 383.1 245.22 453.07 225.93 425.66 195.73 468.34 199.57 471.12 225.92 434.05 246.31 463.02 276.2 393.31 296.78 424.15 339.18 349.53 343.12 353.76 344.65 334.96"/><g class="cls-9"><rect class="cls-23" x="382.18" y="301.38" width="210.43" height="176.63"/></g><g class="cls-24"><rect class="cls-25" x="503.33" y="534.58" width="166.68" height="8.35" transform="translate(1060.89 853.95) rotate(180)"/></g><rect class="cls-3" x="503.33" y="578.76" width="192.56" height="113.35" transform="translate(1086.77 1047.31) rotate(180)"/><g class="cls-24"><path class="cls-26" d="M674.59,538.75a4.18,4.18,0,1,0,4.18-4.17A4.18,4.18,0,0,0,674.59,538.75Z" transform="translate(-112.45 -223.56)"/></g><g class="cls-24"><path class="cls-27" d="M687.53,538.75a4.18,4.18,0,1,0,4.18-4.17A4.18,4.18,0,0,0,687.53,538.75Z" transform="translate(-112.45 -223.56)"/></g><g class="cls-28"><g class="cls-24"><rect class="cls-29" x="427.16" y="333.77" width="150.39" height="2.87"/></g></g><g class="cls-28"><g class="cls-24"><rect class="cls-30" x="427.16" y="343.03" width="150.39" height="2.87"/></g></g><g class="cls-28"><path class="cls-31" d="M629,588.78H510.21a1.34,1.34,0,0,1-1.33-1.33h0a1.34,1.34,0,0,1,1.33-1.33H629a1.34,1.34,0,0,1,1.33,1.33h0A1.34,1.34,0,0,1,629,588.78Z" transform="translate(-112.45 -223.56)"/></g><g class="cls-28"><path class="cls-32" d="M629,596.84H510.21a1.34,1.34,0,0,1-1.33-1.33h0a1.34,1.34,0,0,1,1.33-1.33H629a1.34,1.34,0,0,1,1.33,1.33h0A1.34,1.34,0,0,1,629,596.84Z" transform="translate(-112.45 -223.56)"/></g><g class="cls-28"><path class="cls-33" d="M629,604.9H510.21a1.34,1.34,0,0,1-1.33-1.33h0a1.34,1.34,0,0,1,1.33-1.33H629a1.34,1.34,0,0,1,1.33,1.33h0A1.34,1.34,0,0,1,629,604.9Z" transform="translate(-112.45 -223.56)"/></g><g class="cls-28"><path class="cls-34" d="M629,621H510.21a1.33,1.33,0,0,1-1.33-1.33h0a1.33,1.33,0,0,1,1.33-1.32H629a1.33,1.33,0,0,1,1.33,1.32h0A1.33,1.33,0,0,1,629,621Z" transform="translate(-112.45 -223.56)"/></g><g class="cls-28"><path class="cls-35" d="M629,629.08H510.21a1.33,1.33,0,0,1-1.33-1.32h0a1.33,1.33,0,0,1,1.33-1.33H629a1.33,1.33,0,0,1,1.33,1.33h0A1.33,1.33,0,0,1,629,629.08Z" transform="translate(-112.45 -223.56)"/></g><g class="cls-28"><path class="cls-36" d="M629,637.14H510.21a1.33,1.33,0,0,1-1.33-1.32h0a1.33,1.33,0,0,1,1.33-1.33H629a1.33,1.33,0,0,1,1.33,1.33h0A1.33,1.33,0,0,1,629,637.14Z" transform="translate(-112.45 -223.56)"/></g><g class="cls-28"><path class="cls-37" d="M629,653.27H510.21a1.34,1.34,0,0,1-1.33-1.33h0a1.34,1.34,0,0,1,1.33-1.33H629a1.34,1.34,0,0,1,1.33,1.33h0A1.34,1.34,0,0,1,629,653.27Z" transform="translate(-112.45 -223.56)"/></g><g class="cls-28"><path class="cls-38" d="M629,661.33H510.21a1.34,1.34,0,0,1-1.33-1.33h0a1.34,1.34,0,0,1,1.33-1.33H629a1.34,1.34,0,0,1,1.33,1.33h0A1.34,1.34,0,0,1,629,661.33Z" transform="translate(-112.45 -223.56)"/></g><g class="cls-39"><rect class="cls-40" x="638.06" y="586.12" width="50.61" height="45.4" transform="translate(1214.28 994.08) rotate(180)"/></g><g class="cls-41"><rect class="cls-42" x="638.06" y="643.43" width="50.61" height="17.9" transform="translate(1214.28 1081.19) rotate(180)"/></g><g class="cls-43"><polygon class="cls-44" points="572.68 397.46 564.07 383.23 551.34 388.65 542.83 370.62 530.01 397.46 572.68 397.46"/></g><g class="cls-43"><circle class="cls-45" cx="670.01" cy="598.37" r="3.88" transform="translate(-232 -53.62) rotate(-13.28)"/></g><path class="cls-5" d="M494.72,519.39V525H705.17v-5.65a5.66,5.66,0,0,0-5.66-5.65H500.38A5.65,5.65,0,0,0,494.72,519.39Z" transform="translate(-112.45 -223.56)"/><g class="cls-46"><path class="cls-47" d="M705.06,706.19v-5.65H494.62v5.65a5.66,5.66,0,0,0,5.66,5.66H699.4A5.65,5.65,0,0,0,705.06,706.19Z" transform="translate(-112.45 -223.56)"/></g><path class="cls-4" d="M696.69,519.39a2.06,2.06,0,1,0,2-2.06A2.05,2.05,0,0,0,696.69,519.39Z" transform="translate(-112.45 -223.56)"/><path class="cls-4" d="M689,519.39a2.06,2.06,0,1,0,2-2.06A2.05,2.05,0,0,0,689,519.39Z" transform="translate(-112.45 -223.56)"/><path class="cls-4" d="M681.27,519.39a2.06,2.06,0,1,0,2.05-2.06A2.05,2.05,0,0,0,681.27,519.39Z" transform="translate(-112.45 -223.56)"/><polygon class="cls-3" points="482.13 223.75 482.13 389.42 358.75 389.42 358.75 251.01 385.31 223.75 482.13 223.75"/><polygon class="cls-10" points="358.75 251.07 385.16 223.75 385.16 251.07 358.75 251.07"/><path class="cls-48" d="M509.65,467.93h53.82a1.4,1.4,0,0,0,1.4-1.39h0a1.4,1.4,0,0,0-1.4-1.4H509.65a1.39,1.39,0,0,0-1.4,1.4h0A1.39,1.39,0,0,0,509.65,467.93Z" transform="translate(-112.45 -223.56)"/><path class="cls-49" d="M502.31,478.77h68.5a1.4,1.4,0,0,0,1.4-1.4h0a1.4,1.4,0,0,0-1.4-1.4h-68.5a1.4,1.4,0,0,0-1.4,1.4h0A1.4,1.4,0,0,0,502.31,478.77Z" transform="translate(-112.45 -223.56)"/><path class="cls-50" d="M484.13,504.63h99.26a1.39,1.39,0,0,0,1.4-1.39h0a1.39,1.39,0,0,0-1.4-1.4H484.13a1.4,1.4,0,0,0-1.4,1.4h0A1.4,1.4,0,0,0,484.13,504.63Z" transform="translate(-112.45 -223.56)"/><path class="cls-51" d="M484.13,516.87h99.26a1.4,1.4,0,0,0,1.4-1.4h0a1.4,1.4,0,0,0-1.4-1.4H484.13a1.4,1.4,0,0,0-1.4,1.4h0A1.4,1.4,0,0,0,484.13,516.87Z" transform="translate(-112.45 -223.56)"/><path class="cls-52" d="M484.13,529.1h99.26a1.4,1.4,0,0,0,1.4-1.4h0a1.4,1.4,0,0,0-1.4-1.4H484.13a1.4,1.4,0,0,0-1.4,1.4h0A1.4,1.4,0,0,0,484.13,529.1Z" transform="translate(-112.45 -223.56)"/><path class="cls-53" d="M484.13,543.05h99.26a1.39,1.39,0,0,0,1.4-1.39h0a1.39,1.39,0,0,0-1.4-1.4H484.13a1.4,1.4,0,0,0-1.4,1.4h0A1.4,1.4,0,0,0,484.13,543.05Z" transform="translate(-112.45 -223.56)"/><path class="cls-54" d="M484.13,555.29h99.26a1.4,1.4,0,0,0,1.4-1.4h0a1.4,1.4,0,0,0-1.4-1.4H484.13a1.4,1.4,0,0,0-1.4,1.4h0A1.4,1.4,0,0,0,484.13,555.29Z" transform="translate(-112.45 -223.56)"/><path class="cls-55" d="M484.13,597.26h99.26a1.4,1.4,0,0,0,1.4-1.4h0a1.39,1.39,0,0,0-1.4-1.4H484.13a1.4,1.4,0,0,0-1.4,1.4h0A1.4,1.4,0,0,0,484.13,597.26Z" transform="translate(-112.45 -223.56)"/><path class="cls-56" d="M484.13,587.27h99.26a1.4,1.4,0,0,0,1.4-1.4h0a1.4,1.4,0,0,0-1.4-1.4H484.13a1.4,1.4,0,0,0-1.4,1.4h0A1.4,1.4,0,0,0,484.13,587.27Z" transform="translate(-112.45 -223.56)"/><path class="cls-57" d="M332.88,444.18l3.9,1.68,4.33,2.06s6.73,1.17,6.83,1.15l-.56,1c8.35,1,34.66,2.11,39,2.59,2.61.29,5.11,3.53,6.69,6.06l-2.14,1.44s-23-1-22.94-.53c0,.16.67,2.44,1.67,5.42-14.19.95-34.07.86-37.76-5C328.85,455.26,331.8,448.37,332.88,444.18Z" transform="translate(-112.45 -223.56)"/><polygon class="cls-57" points="309.71 323.77 292.25 324.01 292 307.69 309.39 305.53 309.71 323.77"/><path class="cls-5" d="M439,553.4l-35.39-4.31.86-7.06a5.52,5.52,0,0,1,6.69-.87s5.3,4.87,11.13.53l12.43,7.17S439.28,551,439,553.4Z" transform="translate(-112.45 -223.56)"/><path d="M404.35,551.33h36.16a0,0,0,0,1,0,0v2.49a0,0,0,0,1,0,0H404.35a1,1,0,0,1-1-1v-.39A1,1,0,0,1,404.35,551.33Z" transform="translate(661.48 928.52) rotate(-173.06)"/><path class="cls-58" d="M426,543.81c-1.41,1.7-4.24,5.1-6.05,7.26l-2.41-.29,6.67-8Z" transform="translate(-112.45 -223.56)"/><path class="cls-58" d="M423.77,551.54l-2.41-.29,5.67-6.81,1.8,1Z" transform="translate(-112.45 -223.56)"/><path class="cls-59" d="M384,458.48s36.92,2.36,38,6.63,4.12,49.6,1.84,68.94c0,0-14,1-20.72-.66l-1.63-47.16L390.46,485,365.13,454.5Z" transform="translate(-112.45 -223.56)"/><path class="cls-60" d="M397.66,534.15s-15.07.86-21.77-.76l-1.81-44.49-6.23.22h-.27c-2.09,0-15.61.2-25.3-.13-3.38-.11-6.39.13-8.18-.27-7.33-1.63-9.14-24.52-.81-38.55,4.31-7.25,14.17.76,22.7,10.18l10.3-2.58s28.48,8,29.55,12.3S399.94,514.81,397.66,534.15Z" transform="translate(-112.45 -223.56)"/><polygon class="cls-57" points="282.6 323.77 265.14 324.01 264.89 307.69 282.29 305.53 282.6 323.77"/><path class="cls-5" d="M410.62,555.18l-34.95-7.07,1.41-7a5.53,5.53,0,0,1,6.74-.34s4.9,5.27,11.05,1.4l11.83,8.12S411.1,552.8,410.62,555.18Z" transform="translate(-112.45 -223.56)"/><path d="M376.1,551.77h36.16a0,0,0,0,1,0,0v2.49a0,0,0,0,1,0,0H376.1a1,1,0,0,1-1-1v-.39a1,1,0,0,1,1-1Z" transform="translate(557.56 949.47) rotate(-168.58)"/><path class="cls-58" d="M398.37,544.6l-6.59,6.77-2.38-.48,7.27-7.46Z" transform="translate(-112.45 -223.56)"/><path class="cls-58" d="M395.6,552.14l-2.38-.48c1.43-1.47,4.21-4.33,6.19-6.35l1.7,1.17Z" transform="translate(-112.45 -223.56)"/><path class="cls-11" d="M384.93,534.68c-6.66,0-9-1-9.15-1.06l-.14-.06-1.75-44.75,2.75,1.3-.22.46-2-.93,1.7,43.57c.72.25,4.17,1.24,12.33.87l0,.51C387.19,534.65,386,534.68,384.93,534.68Z" transform="translate(-112.45 -223.56)"/><path class="cls-11" d="M378.69,525c-.72-2.75-.92-29.48-.93-30.61h.52c0,.28.21,27.81.9,30.49Z" transform="translate(-112.45 -223.56)"/><path class="cls-11" d="M405.15,487.23a36.26,36.26,0,0,0-8.07-1.26l0-.51a36.29,36.29,0,0,1,8.21,1.28Z" transform="translate(-112.45 -223.56)"/><path class="cls-11" d="M412.75,534.58a45.87,45.87,0,0,1-9.66-.94l-.19,0-1.64-47.68,2.1,1.69-.32.4-1.23-1,1.59,46.17a46.37,46.37,0,0,0,9.85.88v.52Z" transform="translate(-112.45 -223.56)"/><path class="cls-11" d="M405.59,526c-.71-4.14,0-32.16,0-33.35h.52c0,.29-.71,29.16,0,33.25Z" transform="translate(-112.45 -223.56)"/><path class="cls-11" d="M356.54,489.6c-6.56,0-14.43-.23-23.27-.89l0-.51c26.34,2,44,0,44.18,0l.06.51A209.28,209.28,0,0,1,356.54,489.6Z" transform="translate(-112.45 -223.56)"/><path class="cls-5" d="M365.55,443.42c.51,0,21,8.79,21,8.79l-4.12,7.89-11.48-2.52Z" transform="translate(-112.45 -223.56)"/><path class="cls-5" d="M335.91,406.76s-8.7-.3-12.85,2.05c-6.19,3.51-4,23.62-4,23.62s5.27-2.88,5.59-3.83S335.91,406.76,335.91,406.76Z" transform="translate(-112.45 -223.56)"/><path class="cls-11" d="M333.8,450.4h0l6.4,1.47a.24.24,0,0,0,.11-.47l-6.4-1.46a.23.23,0,0,0-.28.18A.22.22,0,0,0,333.8,450.4Z" transform="translate(-112.45 -223.56)"/><path class="cls-57" d="M330.46,446.6l3.9,1.68,4.33,2.06s6.73,1.17,6.83,1.15l-.56,1c8.35,1,34.66,2.11,39,2.59,2.61.29,5.11,3.53,6.69,6.06l-2.14,1.44s-23-1-22.94-.53c0,.16.67,2.44,1.67,5.42-14.19.95-34.07.86-37.76-5C326.43,457.68,329.38,450.79,330.46,446.6Z" transform="translate(-112.45 -223.56)"/><path class="cls-5" d="M327.49,408.33c4.95-.68,18-1.16,18-1.16s1.73.46,1.18.2c14.41,2.55,16,13.23,16,13.23l7,30.87,7.83.42c2.53,4.8.67,17.74.67,17.74l-37.9,4.27s-8.2,1.35-15.13-7.53c-4.58-5.88-6.14-23.93-6.14-37.12C319,429.25,319.81,409.39,327.49,408.33Z" transform="translate(-112.45 -223.56)"/><polygon class="cls-5" points="321.21 208.67 285.12 208.67 272.53 240.72 308.62 240.72 321.21 208.67"/><polygon points="272.53 240.72 274.42 240.72 287 208.67 285.12 208.67 272.53 240.72"/><path class="cls-61" d="M410.06,447.24c-.5,1.47-.13,2.93.82,3.25s2.13-.61,2.63-2.08.14-2.93-.82-3.25S410.56,445.76,410.06,447.24Z" transform="translate(-112.45 -223.56)"/><path d="M373.05,461.7h13.49v2.58H373.05a1.29,1.29,0,0,1-1.29-1.29h0A1.29,1.29,0,0,1,373.05,461.7Z" transform="translate(-112.45 -223.56)"/><rect class="cls-62" x="376.47" y="462.58" width="8.52" height="0.41" transform="translate(649 702.01) rotate(180)"/><path class="cls-11" d="M340.23,452a.23.23,0,0,0,.14,0,.24.24,0,0,0,.18-.29c0-.17-4-17-5.68-27.6a.25.25,0,0,0-.28-.2.24.24,0,0,0-.2.27c1.69,10.62,5.66,27.47,5.7,27.64A.24.24,0,0,0,340.23,452Z" transform="translate(-112.45 -223.56)"/><path class="cls-11" d="M364.75,451.72a.29.29,0,0,0,.16,0,.24.24,0,0,0,.15-.3c-.06-.19-5.93-18.84-7.16-25.28a.24.24,0,0,0-.28-.19.23.23,0,0,0-.19.28c1.23,6.47,7.12,25.14,7.18,25.33A.21.21,0,0,0,364.75,451.72Z" transform="translate(-112.45 -223.56)"/><path class="cls-11" d="M340.86,416.22l.56,0a.21.21,0,0,0,.22-.18.22.22,0,0,0-.19-.22c-8.24-.58-9.77-6.61-9.79-6.67a.19.19,0,0,0-.22-.16.2.2,0,0,0-.17.22C331.28,409.32,332.8,415.39,340.86,416.22Z" transform="translate(-112.45 -223.56)"/><path class="cls-11" d="M366.43,447.27a.24.24,0,0,0,.29-.1l1.61-2.75,0-.1-5.42-23.77a14.32,14.32,0,0,0-2.85-6c-2.2-2.87-6.54-6.51-14.72-7.6a.24.24,0,0,0-.06.48c8,1.06,12.24,4.6,14.39,7.39a14.17,14.17,0,0,1,2.77,5.84v0l5.39,23.69-1.51,2.59a.24.24,0,0,0,.09.33Z" transform="translate(-112.45 -223.56)"/><path class="cls-11" d="M374.91,447.36a.22.22,0,0,0,.3-.13.25.25,0,0,0-.13-.32l-6.92-2.75a.24.24,0,0,0-.31.13.24.24,0,0,0,.14.31l6.91,2.76Z" transform="translate(-112.45 -223.56)"/><path class="cls-5" d="M377.52,451.89s2.5,5.9.67,17.74L369,464.72l2.72-8.84Z" transform="translate(-112.45 -223.56)"/><path class="cls-11" d="M332,452.21l.09,0c.34,0,34.21-1,45.29-.11.27.72,1.52,4.48,1.17,11.36a.24.24,0,0,0,.23.25.25.25,0,0,0,.25-.23c.39-7.79-1.2-11.55-1.26-11.71l-.06-.13h-.14c-11-.94-45.15.09-45.49.1a.24.24,0,0,0-.08.46Z" transform="translate(-112.45 -223.56)"/><path class="cls-57" d="M347.45,389.22l.27,10.42S348,403,345,403.48l.66,4.45a3.48,3.48,0,0,1-2.29,3.82,9.44,9.44,0,0,1-2.75.5,5.6,5.6,0,0,1-5.54-3.63c-.31-1.25.37-7.27.37-7.27l-.18-2.94.09-11.44Z" transform="translate(-112.45 -223.56)"/><path class="cls-63" d="M338.16,400.81s.34,5.6,7.36,5.95l-.49-3.28S340.51,404.51,338.16,400.81Z" transform="translate(-112.45 -223.56)"/><path class="cls-64" d="M334.66,393.55l3,.55.56.55s-.39-5-1-6S334.66,393.55,334.66,393.55Z" transform="translate(-112.45 -223.56)"/><path class="cls-57" d="M338.88,395.33a2.51,2.51,0,1,1-2.57-2.45A2.51,2.51,0,0,1,338.88,395.33Z" transform="translate(-112.45 -223.56)"/><path class="cls-63" d="M336,396.8a1.06,1.06,0,0,1-1-.76,1,1,0,0,1,.37-1.16,1.16,1.16,0,0,1,1.32,0,1.14,1.14,0,0,0-.52-.61,1.53,1.53,0,0,0-1.12,0,.07.07,0,0,1-.05-.13,1.68,1.68,0,0,1,1.23.05,1.33,1.33,0,0,1,.66.89l.07.25-.18-.18a1.1,1.1,0,0,0-1.33-.13.84.84,0,0,0-.31,1,.89.89,0,0,0,.86.66h0a.07.07,0,0,1,.07.07.08.08,0,0,1-.07.07Z" transform="translate(-112.45 -223.56)"/><path class="cls-64" d="M334.66,393.55s-1-4.86.48-6.73,10-5.27,11-4.39a1.39,1.39,0,0,1,0,2s3.43-1.19,4.29,1.85-6.53,4.53-11,3.21A9.89,9.89,0,0,0,334.66,393.55Z" transform="translate(-112.45 -223.56)"/><path class="cls-11" d="M333.68,473.19c.56.21,1.09.38,1.58.51a13.18,13.18,0,0,0,5.07.44.24.24,0,0,0,.19-.28.23.23,0,0,0-.27-.19,13,13,0,0,1-4.89-.44,18.94,18.94,0,0,1-10-7c-4.43-5.68-6.05-23.18-6.09-36.44a.24.24,0,0,0-.48,0c0,13.33,1.69,31,6.2,36.73A20,20,0,0,0,333.68,473.19Z" transform="translate(-112.45 -223.56)"/><path class="cls-65" d="M315.5,606.51s11.58-19.16,39.38-14.19C354.88,592.32,336.17,620.07,315.5,606.51Z" transform="translate(-112.45 -223.56)"/><path class="cls-66" d="M297.41,611.57s3.45-38.4,50.21-51.72C347.62,559.85,339.64,616.93,297.41,611.57Z" transform="translate(-112.45 -223.56)"/><path class="cls-3" d="M102.14,373.66h93.14a15.91,15.91,0,0,1,15.91,15.91v218.3a13.87,13.87,0,0,1-13.87,13.87H100.1a13.87,13.87,0,0,1-13.87-13.87V389.57A15.91,15.91,0,0,1,102.14,373.66Z"/><g class="cls-24"><path class="cls-67" d="M318.42,597.23H203.9a5.22,5.22,0,0,0-5.22,5.22V615h125V602.45A5.22,5.22,0,0,0,318.42,597.23Z" transform="translate(-112.45 -223.56)"/></g><path class="cls-5" d="M316.11,592.05H206.21a12.82,12.82,0,0,0-12.81,12.81V840.62a12.82,12.82,0,0,0,12.81,12.81h109.9a12.81,12.81,0,0,0,12.8-12.81V604.86A12.81,12.81,0,0,0,316.11,592.05Zm7.53,246.3a7,7,0,0,1-7,7h-111a7,7,0,0,1-6.95-7V605a7.75,7.75,0,0,1,7.76-7.76H315.88a7.75,7.75,0,0,1,7.76,7.76Z" transform="translate(-112.45 -223.56)"/><path class="cls-68" d="M208.68,606.2a1.73,1.73,0,1,1-1.72-1.73A1.72,1.72,0,0,1,208.68,606.2Z" transform="translate(-112.45 -223.56)"/><path class="cls-68" d="M214,606.2a1.73,1.73,0,1,1-1.73-1.73A1.73,1.73,0,0,1,214,606.2Z" transform="translate(-112.45 -223.56)"/><path class="cls-68" d="M219.35,606.2a1.73,1.73,0,1,1-1.72-1.73A1.72,1.72,0,0,1,219.35,606.2Z" transform="translate(-112.45 -223.56)"/><path class="cls-68" d="M301,603.09v1.23h-.7v2.11h.7v1.49h13.56v-4.83Zm13.09,4.44H301.48v-4h12.63Z" transform="translate(-112.45 -223.56)"/><rect class="cls-68" x="199.55" y="380.55" width="1.34" height="2.76"/><rect class="cls-68" x="197.31" y="380.55" width="1.34" height="2.76"/><rect class="cls-68" x="195" y="380.55" width="1.34" height="2.76"/><g class="cls-69"><rect class="cls-68" x="92.78" y="400.96" width="42.81" height="86.66" rx="18.05"/></g><g class="cls-69"><rect class="cls-68" x="144.81" y="400.96" width="59.59" height="86.66" rx="25.13"/></g><g class="cls-69"><rect class="cls-68" x="92.77" y="496.64" width="112.09" height="29.35" rx="12.38"/></g><g class="cls-69"><rect class="cls-68" x="92.77" y="534.89" width="112.09" height="76.07" rx="26.24"/></g><path class="cls-5" d="M276.7,347.18a24.44,24.44,0,0,0-7.19-3.32l-.92-6.42-4.44-.17-4.43-.17-1.42,6.33a24.42,24.42,0,0,0-7.43,2.74l-5.2-3.88-3.26,3-3.25,3,3.47,5.49a24.16,24.16,0,0,0-3.31,7.19l-6.43.93-.17,4.43-.17,4.43,6.33,1.43a24.22,24.22,0,0,0,2.75,7.42l-3.89,5.2,3,3.26,3,3.25,5.48-3.47a24.27,24.27,0,0,0,7.19,3.31l.93,6.43,4.43.17,4.44.17,1.42-6.33a24.22,24.22,0,0,0,7.42-2.75l5.2,3.89,3.26-3,3.26-3-3.48-5.48a24.44,24.44,0,0,0,3.32-7.19l6.42-.93.17-4.43.17-4.44-6.33-1.42a24.46,24.46,0,0,0-2.74-7.42l3.88-5.2-3-3.26-3-3.26Zm-2.42,32.56a16.64,16.64,0,1,1,.92-23.52A16.63,16.63,0,0,1,274.28,379.74Z" transform="translate(-112.45 -223.56)"/><path class="cls-5" d="M937.38,531.09A26,26,0,0,0,944,536.3l-.62,6.91,4.57,1.27,4.57,1.27,3-6.23a26.21,26.21,0,0,0,8.4-1l4.45,5.32,4.12-2.33,4.13-2.34-2.26-6.55a25.84,25.84,0,0,0,5.21-6.66l6.9.62,1.27-4.57,1.27-4.57-6.23-3a26.2,26.2,0,0,0-1-8.4l5.31-4.44-2.33-4.13-2.33-4.13-6.55,2.26a26,26,0,0,0-6.66-5.21l.61-6.9-4.56-1.27-4.57-1.27-3,6.23a25.87,25.87,0,0,0-8.39,1l-4.45-5.32-4.13,2.33-4.12,2.33,2.26,6.55a26,26,0,0,0-5.21,6.66l-6.91-.61-1.27,4.57-1.27,4.56,6.23,3a26.15,26.15,0,0,0,1,8.39l-5.32,4.45,2.33,4.13,2.34,4.12Zm10.53-33.25a17.78,17.78,0,1,1-6.74,24.22A17.78,17.78,0,0,1,947.91,497.84Z" transform="translate(-112.45 -223.56)"/><polygon class="cls-57" points="46.65 626.91 33.77 627.08 33.59 614.95 46.41 613.35 46.65 626.91"/><polygon class="cls-57" points="24.49 626.91 11.62 627.08 11.43 614.95 24.25 613.35 24.49 626.91"/><path class="cls-70" d="M138.31,745.41c.42,12.53,2.28,61.56,6.17,93.64a4.2,4.2,0,0,0,4.18,3.7,32,32,0,0,0,9.27-1.4,4.22,4.22,0,0,0,3-4l1.59-97.6a5.52,5.52,0,0,0-.05-.71l-.08-.48a4.21,4.21,0,0,0-5.67-3.3l-15.72,6A4.22,4.22,0,0,0,138.31,745.41Z" transform="translate(-112.45 -223.56)"/><path class="cls-71" d="M121,742.88s-1.07,60.29,1.72,97.48a3.55,3.55,0,0,0,3.29,3.28,32.19,32.19,0,0,0,10.56-1,3.56,3.56,0,0,0,2.64-3.14l7.46-86.46,4.6-24Z" transform="translate(-112.45 -223.56)"/><path class="cls-11" d="M123,843.22Z" transform="translate(-112.45 -223.56)"/><path class="cls-5" d="M116.22,723.69c.27,2.41,1.71,38.14,5.72,41.09s42.36.11,43.26-3.37-1-40.82-1-40.82Z" transform="translate(-112.45 -223.56)"/><path class="cls-5" d="M159.53,706.86c.52,0,21,9.67,21,9.67l-4.47,7.88-11.6-3Z" transform="translate(-112.45 -223.56)"/><path class="cls-5" d="M122,669.82c5-.52,18.35-.55,18.35-.55s1.74.52,1.19.24c14.57,3.09,15.82,14,15.82,14l6.09,31.65,7.94.71c2.42,5,.07,18.07.07,18.07l-38.72,3s-8.38,1.09-15.13-8.2c-4.46-6.14-5.42-24.56-5-38C112.67,690.82,114.16,670.64,122,669.82Z" transform="translate(-112.45 -223.56)"/><path class="cls-11" d="M160.29,710.8a.24.24,0,0,0,.3-.09l1.74-2.75,0-.09-4.69-24.38a14.77,14.77,0,0,0-2.69-6.25c-2.14-3-6.43-6.84-14.72-8.23a.23.23,0,0,0-.28.2.25.25,0,0,0,.2.28c8.11,1.36,12.3,5.11,14.39,8a14.57,14.57,0,0,1,2.62,6v0l4.67,24.29-1.63,2.59a.23.23,0,0,0,.08.33Z" transform="translate(-112.45 -223.56)"/><path class="cls-11" d="M168.92,711.19a.24.24,0,0,0,.19-.45l-6.94-3a.25.25,0,1,0-.2.45l6.94,3Z" transform="translate(-112.45 -223.56)"/><path class="cls-5" d="M124.23,678.79l4.71-7.91,8.29,2.5,3.36-3.58s.72,3.31.7,3.58-3.79,4.19-4.27,4.14S124.23,678.79,124.23,678.79Z" transform="translate(-112.45 -223.56)"/><path class="cls-11" d="M124.9,765.9a.28.28,0,0,0,0-.56c-4-.29-4.53-3.67-5.43-9.28-.16-1-.33-2-.53-3.17-1.35-7.44-1.95-25.48-1.95-25.66a.28.28,0,0,0-.28-.27h0a.28.28,0,0,0-.28.29c0,.18.6,18.26,2,25.75.2,1.11.37,2.15.53,3.15.92,5.68,1.52,9.44,5.95,9.75Z" transform="translate(-112.45 -223.56)"/><path class="cls-72" d="M187.19,693.49l5.42,2.54.35.16,5.42,2.54L173.82,762.3a3.29,3.29,0,0,1-4.48,1.8l-13.79-6.46a3.3,3.3,0,0,1-1.49-4.6Z" transform="translate(-112.45 -223.56)"/><path class="cls-73" d="M191.76,689.2h4.59a6.57,6.57,0,0,1,6.57,6.57v2.08a0,0,0,0,1,0,0H185.19a0,0,0,0,1,0,0v-2.08a6.57,6.57,0,0,1,6.57-6.57Z" transform="translate(-36.88 1180.3) rotate(-154.9)"/><path class="cls-11" d="M188.86,696.18l8.74,4.1a3.09,3.09,0,0,0,4.1-1.49l2.49-5.3-.54-.25-2.48,5.3a2.49,2.49,0,0,1-3.32,1.2l-8.74-4.09Z" transform="translate(-112.45 -223.56)"/><g class="cls-74"><circle class="cls-75" cx="209.94" cy="659.92" r="32.4" transform="translate(-278.01 -145.51) rotate(-15.19)"/></g><ellipse class="cls-76" cx="203.46" cy="640.61" rx="12.17" ry="5.81" transform="translate(-318.33 -116.07) rotate(-19.9)"/><rect class="cls-11" x="151.79" y="731.29" width="67.63" height="0.59" transform="translate(-676.33 418.97) rotate(-68.99)"/><path class="cls-11" d="M236.37,650.51l.58-.13c0-.07-1.68-7.26-7.32-11.55l-.36.47C234.74,643.46,236.36,650.44,236.37,650.51Z" transform="translate(-112.45 -223.56)"/><path class="cls-11" d="M233.16,653l.58-.13c0-.07-1.68-7.26-7.32-11.55l-.35.47C231.53,646,233.15,652.94,233.16,653Z" transform="translate(-112.45 -223.56)"/><path class="cls-77" d="M196.2,689.27a32.4,32.4,0,1,1,43.08-15.6A32.41,32.41,0,0,1,196.2,689.27ZM244,675.85A37.56,37.56,0,1,0,194,693.93,37.55,37.55,0,0,0,244,675.85Z" transform="translate(-112.45 -223.56)"/><path class="cls-11" d="M193.88,694.2a37.85,37.85,0,1,0,4-70.16l.19.56a37.26,37.26,0,1,1-22.77,49l-.55.21A37.71,37.71,0,0,0,193.88,694.2Z" transform="translate(-112.45 -223.56)"/><path class="cls-57" d="M186.63,727.2a1.23,1.23,0,0,0-1.15-1.22l-3.88-.26a.28.28,0,0,1-.25-.21h0a.28.28,0,0,1,.25-.36l5.75-.38a.94.94,0,0,0,.88-1.24h0a1.52,1.52,0,0,0-1.5-1.07l-5.86.38a.29.29,0,0,1-.3-.21l0-.09a.29.29,0,0,1,.2-.35L187,720.5a1.23,1.23,0,0,0,.89-1.42,1.18,1.18,0,0,0-1.45-.86l-6.33,1.7a.29.29,0,0,1-.35-.2l-.08-.3a.29.29,0,0,1,.17-.34l5.61-2.32a1.24,1.24,0,0,0,.7-1.53,1.18,1.18,0,0,0-1.55-.67s-4.73,1.78-6.14,2.15l-1.31.07c1.91,1.79-.25-.65-1.82-1-1.74-.35-6.34,3.91-6.34,3.91a2.31,2.31,0,0,0,.34,1.8,94,94,0,0,0,2,9.67l7.09-2.17a17.6,17.6,0,0,1,6.33-.72l.54,0A1.16,1.16,0,0,0,186.63,727.2Z" transform="translate(-112.45 -223.56)"/><path class="cls-78" d="M171.41,715.89s2.34,6.09.07,18.07l-8,.45,1.9-14.66Z" transform="translate(-112.45 -223.56)"/><path class="cls-5" d="M130.64,668.52s-8.84-.62-13.15,1.63c-6.43,3.36-4.88,23.9-4.88,23.9s5.46-2.74,5.82-3.7S130.64,668.52,130.64,668.52Z" transform="translate(-112.45 -223.56)"/><path class="cls-11" d="M133.47,714.7a.22.22,0,0,0,.14,0,.25.25,0,0,0,.19-.29c0-.17-3.48-17.45-4.83-28.29a.24.24,0,0,0-.27-.21.24.24,0,0,0-.21.27c1.35,10.86,4.8,28.15,4.83,28.33A.26.26,0,0,0,133.47,714.7Z" transform="translate(-112.45 -223.56)"/><path class="cls-11" d="M157.37,715.11a.2.2,0,0,1-.15.06.24.24,0,0,1-.26-.23c0-.2-1.16-20.07-2.32-26.65a.24.24,0,0,1,.19-.29.26.26,0,0,1,.29.2c1.16,6.61,2.32,26.51,2.33,26.71A.28.28,0,0,1,157.37,715.11Z" transform="translate(-112.45 -223.56)"/><path class="cls-11" d="M127,712.86h0l6.46,1.71a.24.24,0,0,0,.13-.47l-6.46-1.71a.24.24,0,0,0-.3.17A.25.25,0,0,0,127,712.86Z" transform="translate(-112.45 -223.56)"/><path class="cls-11" d="M125.05,714.63a.15.15,0,0,0,.09,0c.35,0,34.85.14,46.1,1.46.25.75,1.39,4.62.79,11.6a.25.25,0,0,0,.23.27.25.25,0,0,0,.26-.23c.67-7.91-.82-11.79-.88-12l0-.14-.15,0c-11.11-1.33-45.95-1.47-46.3-1.47a.24.24,0,0,0-.09.46Z" transform="translate(-112.45 -223.56)"/><path class="cls-11" d="M139.12,736.18c14.09,0,31.33-1.82,32.39-1.93a.3.3,0,0,0,.26-.32.29.29,0,0,0-.32-.25c-.38,0-38.54,4.07-48.13.31s-10.13-24.59-10.14-24.8a.27.27,0,0,0-.29-.27.28.28,0,0,0-.28.29c0,.87.68,21.46,10.5,25.31C126.27,735.75,132.33,736.18,139.12,736.18Z" transform="translate(-112.45 -223.56)"/><path class="cls-57" d="M140,649.57l1.46,9.79s.63,3.29-2.19,4.13l1.2,4.34a3.47,3.47,0,0,1-1.79,4.06,9,9,0,0,1-2.65.83,5.56,5.56,0,0,1-5.9-2.92c-.46-1.2-.52-7.26-.52-7.26l-.54-2.9-1.31-11.34Z" transform="translate(-112.45 -223.56)"/><path class="cls-64" d="M127.74,647.16s-3,2.2-.4,8.64l1.16-.84-1-3.48Z" transform="translate(-112.45 -223.56)"/><path class="cls-57" d="M130.84,656.66a2.5,2.5,0,1,1-2.84-2.12A2.51,2.51,0,0,1,130.84,656.66Z" transform="translate(-112.45 -223.56)"/><path class="cls-63" d="M128.41,658.57a1,1,0,0,1-1.08-.63,1,1,0,0,1,.22-1.19,1.17,1.17,0,0,1,1.3-.15,1.12,1.12,0,0,0-.59-.53,1.54,1.54,0,0,0-1.1.09.06.06,0,0,1-.09,0,.07.07,0,0,1,0-.1,1.67,1.67,0,0,1,1.21-.09,1.32,1.32,0,0,1,.77.81l.09.23-.2-.15a1.08,1.08,0,0,0-1.33,0,.83.83,0,0,0-.18,1,.9.9,0,0,0,.93.56h0a.07.07,0,0,1,0,.14Z" transform="translate(-112.45 -223.56)"/><path class="cls-64" d="M141.67,657.73s1.89,6.5-2.45,7.39c-6.21,1.27-7.35-2.23-8.17-5.12l-1-6.06-.06-1.79h0a3.12,3.12,0,0,1,1,1.69c.35,1.43,1.26,5.31,1.65,5.43S140.6,657.24,141.67,657.73Z" transform="translate(-112.45 -223.56)"/><path class="cls-64" d="M130,652.26l-1.41-.94-.82,3.27a2,2,0,0,1,1.9,1.67c.27,1.64-.24,4.35,3.17,7.62s-1.05-5.49-1.13-5.8S130,652.26,130,652.26Z" transform="translate(-112.45 -223.56)"/><path class="cls-64" d="M127.74,647.16c1.13-1.51,5.6-2.94,9.16-1.46h0a4.51,4.51,0,0,1,3.28,5.27l-.06,0,.09.25a4.26,4.26,0,0,0-.58-.52l-1.63-.9a7.84,7.84,0,0,0-3.49-.46,10.59,10.59,0,0,0-3.62.85c-.14.88-.11,2.58.7,5.81,1.23,4.94-1.87-.81-3-3a5.65,5.65,0,0,0-.14,1.53S125.49,650.18,127.74,647.16Z" transform="translate(-112.45 -223.56)"/><path class="cls-57" d="M140.38,652.32a21.39,21.39,0,0,0-.37-2.45c-.16-.43-4.82-1-7.22-.32s2.75,2.69,2.8,2.68Z" transform="translate(-112.45 -223.56)"/><polygon class="cls-57" points="18.94 426.73 16.25 424.88 18.96 427.76 18.94 426.73"/><path class="cls-7" d="M140.07,666.49l.37,2.56s-2.19,1.86-3.6,2.84a35.3,35.3,0,0,0-7-3.41l-.26-3.77c-5.17-.59-10.53,2.88-9.19,4.56s8.34,2.18,10.2,2.79,6.51,2,6.51,2a52.59,52.59,0,0,0,4.54-4.8l3.34.93C145.1,666.82,140.07,666.49,140.07,666.49Z" transform="translate(-112.45 -223.56)"/><path d="M137.15,674.27a.19.19,0,0,0,.14,0l5.84-5.93a.19.19,0,0,0,0-.27.19.19,0,0,0-.26,0L137,674a.2.2,0,0,0,0,.27A.18.18,0,0,0,137.15,674.27Z" transform="translate(-112.45 -223.56)"/><polygon class="cls-79" points="64.25 488.77 60.89 494.83 66.05 493.15 64.25 488.77"/><path d="M146,850.85h11.25l4.56-5.1,8.35,5.1H172a1.32,1.32,0,0,1,.05,2.63H145.86a.35.35,0,0,1-.34-.36v-1.75A.51.51,0,0,1,146,850.85Z" transform="translate(-112.45 -223.56)"/><path class="cls-5" d="M146.12,850.86v-4.73a4,4,0,0,1,4.78-1.28s4.37,3.17,8.21-.67l9.55,4.35s2.62.89,3.33,2.33Z" transform="translate(-112.45 -223.56)"/><rect x="33.58" y="622.57" width="0.19" height="4.71"/><path d="M154.81,846.18a5.35,5.35,0,0,0,.6,0l0-.2a6.66,6.66,0,0,1-4.42-1.18l-.11.16A7,7,0,0,0,154.81,846.18Z" transform="translate(-112.45 -223.56)"/><polygon points="36 626.42 36.11 626.25 34.89 625.41 34.78 625.58 36 626.42"/><polygon points="36.87 626.18 36.98 626.02 35.76 625.17 35.66 625.34 36.87 626.18"/><path d="M172.91,853.25a1.43,1.43,0,0,0,.49-1.08,1.4,1.4,0,0,0-1.38-1.41H146.16a.75.75,0,0,0-.74.76v1.31h.19v-1.31a.56.56,0,0,1,.55-.56H172a1.2,1.2,0,0,1,1.18,1.21,1.24,1.24,0,0,1-.41.93Z" transform="translate(-112.45 -223.56)"/><path d="M171.93,850.9l.18-.08a4.79,4.79,0,0,0-2.5-2c-1.92-.84-10.37-4.68-10.46-4.72l-.08.18c.09,0,8.54,3.88,10.46,4.72A4.69,4.69,0,0,1,171.93,850.9Z" transform="translate(-112.45 -223.56)"/><path d="M123.64,850.85h11.25l4.56-5.1,8.34,5.1h1.8a1.32,1.32,0,0,1,0,2.63H123.48a.36.36,0,0,1-.35-.36v-1.75A.51.51,0,0,1,123.64,850.85Z" transform="translate(-112.45 -223.56)"/><path class="cls-5" d="M123.74,850.86v-4.73a4,4,0,0,1,4.78-1.28s4.36,3.17,8.21-.67l9.55,4.35s2.62.89,3.33,2.33Z" transform="translate(-112.45 -223.56)"/><rect x="11.2" y="622.57" width="0.19" height="4.71"/><path d="M132.43,846.18a4.83,4.83,0,0,0,.59,0l0-.2a6.65,6.65,0,0,1-4.42-1.18l-.11.16A7,7,0,0,0,132.43,846.18Z" transform="translate(-112.45 -223.56)"/><polygon points="13.62 626.42 13.72 626.25 12.51 625.41 12.4 625.58 13.62 626.42"/><polygon points="14.49 626.18 14.6 626.02 13.38 625.17 13.27 625.34 14.49 626.18"/><path d="M150.53,853.25a1.42,1.42,0,0,0,.48-1.08,1.39,1.39,0,0,0-1.37-1.41H123.78a.75.75,0,0,0-.74.76v1.31h.19v-1.31a.56.56,0,0,1,.55-.56h25.86a1.2,1.2,0,0,1,1.18,1.21,1.21,1.21,0,0,1-.42.93Z" transform="translate(-112.45 -223.56)"/><path d="M149.55,850.9l.17-.08a4.73,4.73,0,0,0-2.5-2c-1.92-.84-10.37-4.68-10.45-4.72l-.08.18c.09,0,8.54,3.88,10.46,4.72A4.69,4.69,0,0,1,149.55,850.9Z" transform="translate(-112.45 -223.56)"/><g class="cls-80"><path class="cls-5" d="M506,353.58H413a5.38,5.38,0,0,0-5.37,5.38v45a5.38,5.38,0,0,0,5.37,5.38h7.92l-3.61,9.85,14.25-9.85H506a5.38,5.38,0,0,0,5.38-5.38V359A5.38,5.38,0,0,0,506,353.58Z" transform="translate(-112.45 -223.56)"/></g><path class="cls-5" d="M420.72,362.79v5h1v.37h-2.9v-.37h1v-4.6h-1.11v-.37Z" transform="translate(-112.45 -223.56)"/><path class="cls-5" d="M429.68,368.26a2.26,2.26,0,0,1-1-.2,1.79,1.79,0,0,1-.7-.55,2.41,2.41,0,0,1-.44-.86,4,4,0,0,1-.15-1.14,4,4,0,0,1,.16-1.19,2.6,2.6,0,0,1,.47-.89,2,2,0,0,1,.74-.57,2.46,2.46,0,0,1,1.92,0,1.89,1.89,0,0,1,.7.55,2.55,2.55,0,0,1,.44.87,3.91,3.91,0,0,1,.15,1.13,4.16,4.16,0,0,1-.15,1.15,2.52,2.52,0,0,1-.44.9,2,2,0,0,1-.73.59A2.18,2.18,0,0,1,429.68,368.26Zm0-.36a2.22,2.22,0,0,0,.38,0,1,1,0,0,0,.6-.42,1.57,1.57,0,0,0,.21-.45,4.92,4.92,0,0,0,.12-.66,7.71,7.71,0,0,0,.05-.9,6.56,6.56,0,0,0-.1-1.22,2.18,2.18,0,0,0-.26-.74.83.83,0,0,0-.41-.36,1.59,1.59,0,0,0-.55-.09,1.47,1.47,0,0,0-.56.1.85.85,0,0,0-.42.36,2.22,2.22,0,0,0-.28.75,6.92,6.92,0,0,0-.1,1.25,7.35,7.35,0,0,0,.05.88,2.7,2.7,0,0,0,.12.64,1.39,1.39,0,0,0,.19.44.88.88,0,0,0,.26.28,1.15,1.15,0,0,0,.32.14A2.33,2.33,0,0,0,429.7,367.9Z" transform="translate(-112.45 -223.56)"/><path class="cls-5" d="M440.18,368.26a2.21,2.21,0,0,1-.95-.2,1.82,1.82,0,0,1-.71-.55,2.41,2.41,0,0,1-.44-.86,4,4,0,0,1-.15-1.14,4,4,0,0,1,.17-1.19,2.42,2.42,0,0,1,.46-.89,2,2,0,0,1,.74-.57,2.49,2.49,0,0,1,1.93,0,2,2,0,0,1,.7.55,2.74,2.74,0,0,1,.44.87,3.91,3.91,0,0,1,.15,1.13,4.16,4.16,0,0,1-.15,1.15,2.7,2.7,0,0,1-.44.9,2.09,2.09,0,0,1-.73.59A2.19,2.19,0,0,1,440.18,368.26Zm0-.36a2.33,2.33,0,0,0,.38,0,1,1,0,0,0,.6-.42,1.56,1.56,0,0,0,.2-.45,3.67,3.67,0,0,0,.13-.66,7.93,7.93,0,0,0,0-.9,6.69,6.69,0,0,0-.09-1.22,2.18,2.18,0,0,0-.26-.74.85.85,0,0,0-.42-.36,1.53,1.53,0,0,0-.54-.09,1.43,1.43,0,0,0-.56.1.87.87,0,0,0-.43.36,2,2,0,0,0-.27.75,6.11,6.11,0,0,0-.1,1.25,7.56,7.56,0,0,0,0,.88,4.32,4.32,0,0,0,.12.64,1.66,1.66,0,0,0,.19.44,1.18,1.18,0,0,0,.26.28,1.22,1.22,0,0,0,.33.14A2.11,2.11,0,0,0,440.21,367.9Z" transform="translate(-112.45 -223.56)"/><path class="cls-5" d="M460.66,362.79v5h1v.37h-2.9v-.37h1v-4.6h-1.11v-.37Z" transform="translate(-112.45 -223.56)"/><path class="cls-5" d="M451.2,362.79v5h1v.37h-2.89v-.37h1v-4.6h-1.12v-.37Z" transform="translate(-112.45 -223.56)"/><path class="cls-5" d="M469.62,368.26a2.26,2.26,0,0,1-1-.2,1.79,1.79,0,0,1-.7-.55,2.41,2.41,0,0,1-.44-.86,4,4,0,0,1-.15-1.14,4,4,0,0,1,.16-1.19,2.6,2.6,0,0,1,.47-.89,2,2,0,0,1,.74-.57,2.46,2.46,0,0,1,1.92,0,1.89,1.89,0,0,1,.7.55,2.55,2.55,0,0,1,.44.87,3.91,3.91,0,0,1,.15,1.13,4.16,4.16,0,0,1-.15,1.15,2.52,2.52,0,0,1-.44.9,2,2,0,0,1-.73.59A2.18,2.18,0,0,1,469.62,368.26Zm0-.36a2.11,2.11,0,0,0,.38,0,1,1,0,0,0,.6-.42,1.57,1.57,0,0,0,.21-.45,4.92,4.92,0,0,0,.12-.66,7.71,7.71,0,0,0,.05-.9,6.56,6.56,0,0,0-.1-1.22,2.18,2.18,0,0,0-.26-.74.83.83,0,0,0-.41-.36,1.59,1.59,0,0,0-.55-.09,1.47,1.47,0,0,0-.56.1.85.85,0,0,0-.42.36,2.22,2.22,0,0,0-.28.75,6.92,6.92,0,0,0-.1,1.25,7.35,7.35,0,0,0,.05.88,2.7,2.7,0,0,0,.12.64,1.39,1.39,0,0,0,.19.44.88.88,0,0,0,.26.28,1.15,1.15,0,0,0,.32.14A2.33,2.33,0,0,0,469.64,367.9Z" transform="translate(-112.45 -223.56)"/><path class="cls-5" d="M479.59,362.79v5h1v.37h-2.9v-.37h1v-4.6h-1.11v-.37Z" transform="translate(-112.45 -223.56)"/><path class="cls-5" d="M488.55,368.26a2.26,2.26,0,0,1-1-.2,1.86,1.86,0,0,1-.7-.55,2.41,2.41,0,0,1-.44-.86,4,4,0,0,1-.15-1.14,4,4,0,0,1,.16-1.19,2.6,2.6,0,0,1,.47-.89,2,2,0,0,1,.74-.57,2.46,2.46,0,0,1,1.92,0,1.92,1.92,0,0,1,.71.55,2.53,2.53,0,0,1,.43.87,3.91,3.91,0,0,1,.15,1.13,4.16,4.16,0,0,1-.15,1.15,2.37,2.37,0,0,1-.44.9,2,2,0,0,1-.72.59A2.22,2.22,0,0,1,488.55,368.26Zm0-.36a2.34,2.34,0,0,0,.39,0,1,1,0,0,0,.32-.15,1,1,0,0,0,.28-.27,1.89,1.89,0,0,0,.2-.45,4.92,4.92,0,0,0,.12-.66,7.71,7.71,0,0,0,.05-.9,5.8,5.8,0,0,0-.1-1.22,2.18,2.18,0,0,0-.26-.74.83.83,0,0,0-.41-.36,1.55,1.55,0,0,0-.55-.09,1.38,1.38,0,0,0-.55.1.83.83,0,0,0-.43.36,2.22,2.22,0,0,0-.28.75,7.05,7.05,0,0,0-.09,1.25,7.56,7.56,0,0,0,0,.88,2.7,2.7,0,0,0,.12.64,1.39,1.39,0,0,0,.19.44,1,1,0,0,0,.26.28,1.15,1.15,0,0,0,.32.14A2.33,2.33,0,0,0,488.57,367.9Z" transform="translate(-112.45 -223.56)"/><path class="cls-5" d="M498.52,362.79v5h1v.37h-2.9v-.37h1v-4.6h-1.11v-.37Z" transform="translate(-112.45 -223.56)"/><path class="cls-5" d="M420.72,372.19v5h1v.37h-2.9v-.37h1v-4.6h-1.11v-.37Z" transform="translate(-112.45 -223.56)"/><path class="cls-5" d="M429.68,377.66a2.42,2.42,0,0,1-1-.19,2,2,0,0,1-.7-.55,2.55,2.55,0,0,1-.44-.87,4,4,0,0,1-.15-1.14,4,4,0,0,1,.16-1.19,2.6,2.6,0,0,1,.47-.89,2,2,0,0,1,.74-.57,2.35,2.35,0,0,1,1-.2,2.19,2.19,0,0,1,.94.19,1.89,1.89,0,0,1,.7.55,2.55,2.55,0,0,1,.44.87,4,4,0,0,1,.15,1.14,4.14,4.14,0,0,1-.15,1.14,2.52,2.52,0,0,1-.44.9,2,2,0,0,1-.73.59A2.18,2.18,0,0,1,429.68,377.66Zm0-.36a2.22,2.22,0,0,0,.38,0,1.22,1.22,0,0,0,.33-.14,1.2,1.2,0,0,0,.27-.28,1.57,1.57,0,0,0,.21-.45,4.64,4.64,0,0,0,.12-.66,7.58,7.58,0,0,0,.05-.9,6.56,6.56,0,0,0-.1-1.22,2.18,2.18,0,0,0-.26-.74.88.88,0,0,0-.41-.36,1.59,1.59,0,0,0-.55-.09,1.47,1.47,0,0,0-.56.1.85.85,0,0,0-.42.36,2.22,2.22,0,0,0-.28.75,6.92,6.92,0,0,0-.1,1.25,7.35,7.35,0,0,0,.05.88,2.61,2.61,0,0,0,.12.64,1.39,1.39,0,0,0,.19.44.88.88,0,0,0,.26.28,1.15,1.15,0,0,0,.32.14A2.33,2.33,0,0,0,429.7,377.3Z" transform="translate(-112.45 -223.56)"/><path class="cls-5" d="M440.18,377.66a2.37,2.37,0,0,1-.95-.19,2,2,0,0,1-.71-.55,2.55,2.55,0,0,1-.44-.87,4,4,0,0,1-.15-1.14,4,4,0,0,1,.17-1.19,2.42,2.42,0,0,1,.46-.89,2,2,0,0,1,.74-.57,2.38,2.38,0,0,1,1-.2,2.24,2.24,0,0,1,1,.19,2,2,0,0,1,.7.55,2.74,2.74,0,0,1,.44.87,4,4,0,0,1,.15,1.14,4.14,4.14,0,0,1-.15,1.14,2.7,2.7,0,0,1-.44.9,2.09,2.09,0,0,1-.73.59A2.19,2.19,0,0,1,440.18,377.66Zm0-.36a2.33,2.33,0,0,0,.38,0,1.22,1.22,0,0,0,.33-.14,1.2,1.2,0,0,0,.27-.28,1.56,1.56,0,0,0,.2-.45,3.5,3.5,0,0,0,.13-.66,7.82,7.82,0,0,0,0-.9,6.69,6.69,0,0,0-.09-1.22,2.18,2.18,0,0,0-.26-.74.9.9,0,0,0-.42-.36,1.53,1.53,0,0,0-.54-.09,1.43,1.43,0,0,0-.56.1.87.87,0,0,0-.43.36,2,2,0,0,0-.27.75,6.11,6.11,0,0,0-.1,1.25,7.56,7.56,0,0,0,0,.88,4.08,4.08,0,0,0,.12.64,1.66,1.66,0,0,0,.19.44,1.18,1.18,0,0,0,.26.28,1.22,1.22,0,0,0,.33.14A2.11,2.11,0,0,0,440.21,377.3Z" transform="translate(-112.45 -223.56)"/><path class="cls-5" d="M450.69,377.66a2.42,2.42,0,0,1-1-.19,2,2,0,0,1-.7-.55,2.38,2.38,0,0,1-.44-.87,4,4,0,0,1-.15-1.14,4,4,0,0,1,.16-1.19,2.44,2.44,0,0,1,.47-.89,2,2,0,0,1,.74-.57,2.34,2.34,0,0,1,1-.2,2.21,2.21,0,0,1,1,.19,1.89,1.89,0,0,1,.7.55,2.55,2.55,0,0,1,.44.87,4,4,0,0,1,.15,1.14,4.14,4.14,0,0,1-.15,1.14,2.52,2.52,0,0,1-.44.9,2,2,0,0,1-.73.59A2.18,2.18,0,0,1,450.69,377.66Zm0-.36a2.22,2.22,0,0,0,.38,0,1.22,1.22,0,0,0,.33-.14,1.2,1.2,0,0,0,.27-.28,1.89,1.89,0,0,0,.21-.45,4.64,4.64,0,0,0,.12-.66,7.82,7.82,0,0,0,0-.9,6.69,6.69,0,0,0-.09-1.22,2.18,2.18,0,0,0-.26-.74.88.88,0,0,0-.41-.36,1.63,1.63,0,0,0-.55-.09,1.47,1.47,0,0,0-.56.1.87.87,0,0,0-.43.36,2.48,2.48,0,0,0-.27.75,6.92,6.92,0,0,0-.1,1.25c0,.34,0,.63,0,.88a3.12,3.12,0,0,0,.13.64,1.39,1.39,0,0,0,.19.44.88.88,0,0,0,.26.28,1.15,1.15,0,0,0,.32.14A2.22,2.22,0,0,0,450.71,377.3Z" transform="translate(-112.45 -223.56)"/><path class="cls-5" d="M460.66,372.19v5h1v.37h-2.9v-.37h1v-4.6h-1.11v-.37Z" transform="translate(-112.45 -223.56)"/><path class="cls-5" d="M469.62,377.66a2.42,2.42,0,0,1-1-.19,2,2,0,0,1-.7-.55,2.55,2.55,0,0,1-.44-.87,4,4,0,0,1-.15-1.14,4,4,0,0,1,.16-1.19,2.6,2.6,0,0,1,.47-.89,2,2,0,0,1,.74-.57,2.35,2.35,0,0,1,1-.2,2.19,2.19,0,0,1,.94.19,1.89,1.89,0,0,1,.7.55,2.55,2.55,0,0,1,.44.87,4,4,0,0,1,.15,1.14,4.14,4.14,0,0,1-.15,1.14,2.52,2.52,0,0,1-.44.9,2,2,0,0,1-.73.59A2.18,2.18,0,0,1,469.62,377.66Zm0-.36a2.11,2.11,0,0,0,.38,0,1.22,1.22,0,0,0,.33-.14,1.2,1.2,0,0,0,.27-.28,1.57,1.57,0,0,0,.21-.45,4.64,4.64,0,0,0,.12-.66,7.58,7.58,0,0,0,.05-.9,6.56,6.56,0,0,0-.1-1.22,2.18,2.18,0,0,0-.26-.74.88.88,0,0,0-.41-.36,1.59,1.59,0,0,0-.55-.09,1.47,1.47,0,0,0-.56.1.85.85,0,0,0-.42.36,2.22,2.22,0,0,0-.28.75,6.92,6.92,0,0,0-.1,1.25,7.35,7.35,0,0,0,.05.88,2.61,2.61,0,0,0,.12.64,1.39,1.39,0,0,0,.19.44.88.88,0,0,0,.26.28,1.15,1.15,0,0,0,.32.14A2.33,2.33,0,0,0,469.64,377.3Z" transform="translate(-112.45 -223.56)"/><path class="cls-5" d="M479.59,372.19v5h1v.37h-2.9v-.37h1v-4.6h-1.11v-.37Z" transform="translate(-112.45 -223.56)"/><path class="cls-5" d="M488.55,377.66a2.42,2.42,0,0,1-1-.19,2.09,2.09,0,0,1-.7-.55,2.55,2.55,0,0,1-.44-.87,4,4,0,0,1-.15-1.14,4,4,0,0,1,.16-1.19,2.6,2.6,0,0,1,.47-.89,2,2,0,0,1,.74-.57,2.35,2.35,0,0,1,1-.2,2.19,2.19,0,0,1,.94.19,1.92,1.92,0,0,1,.71.55,2.53,2.53,0,0,1,.43.87,4,4,0,0,1,.15,1.14,4.14,4.14,0,0,1-.15,1.14,2.37,2.37,0,0,1-.44.9,2,2,0,0,1-.72.59A2.22,2.22,0,0,1,488.55,377.66Zm0-.36a2.34,2.34,0,0,0,.39,0,1.3,1.3,0,0,0,.32-.14,1.24,1.24,0,0,0,.28-.28,1.89,1.89,0,0,0,.2-.45,4.64,4.64,0,0,0,.12-.66,7.58,7.58,0,0,0,.05-.9,5.8,5.8,0,0,0-.1-1.22,2.18,2.18,0,0,0-.26-.74.88.88,0,0,0-.41-.36,1.55,1.55,0,0,0-.55-.09,1.38,1.38,0,0,0-.55.1.83.83,0,0,0-.43.36,2.22,2.22,0,0,0-.28.75,7.05,7.05,0,0,0-.09,1.25,7.56,7.56,0,0,0,0,.88,2.61,2.61,0,0,0,.12.64,1.39,1.39,0,0,0,.19.44,1,1,0,0,0,.26.28,1.15,1.15,0,0,0,.32.14A2.33,2.33,0,0,0,488.57,377.3Z" transform="translate(-112.45 -223.56)"/><path class="cls-5" d="M498.52,372.19v5h1v.37h-2.9v-.37h1v-4.6h-1.11v-.37Z" transform="translate(-112.45 -223.56)"/><path class="cls-5" d="M420.72,381.6v5h1v.37h-2.9v-.37h1V382h-1.11v-.37Z" transform="translate(-112.45 -223.56)"/><path class="cls-5" d="M429.68,387.06a2.25,2.25,0,0,1-1-.19,1.89,1.89,0,0,1-.7-.55,2.55,2.55,0,0,1-.44-.87,4,4,0,0,1-.15-1.14,4,4,0,0,1,.16-1.19,2.6,2.6,0,0,1,.47-.89,2,2,0,0,1,.74-.57,2.35,2.35,0,0,1,1-.2,2.19,2.19,0,0,1,.94.19,1.89,1.89,0,0,1,.7.55,2.55,2.55,0,0,1,.44.87,4,4,0,0,1,.15,1.14,4.14,4.14,0,0,1-.15,1.14,2.52,2.52,0,0,1-.44.9,2,2,0,0,1-.73.6A2.31,2.31,0,0,1,429.68,387.06Zm0-.36a2.22,2.22,0,0,0,.38,0,1.22,1.22,0,0,0,.33-.14,1,1,0,0,0,.27-.28,1.57,1.57,0,0,0,.21-.45,4.39,4.39,0,0,0,.12-.66,7.58,7.58,0,0,0,.05-.9A6.56,6.56,0,0,0,431,383a2.18,2.18,0,0,0-.26-.74.85.85,0,0,0-.41-.35,1.38,1.38,0,0,0-.55-.1,1.47,1.47,0,0,0-.56.1.85.85,0,0,0-.42.36,2.22,2.22,0,0,0-.28.75,7,7,0,0,0-.1,1.26,7.3,7.3,0,0,0,.05.87,2.61,2.61,0,0,0,.12.64,1.56,1.56,0,0,0,.19.45,1,1,0,0,0,.26.27.92.92,0,0,0,.32.14A2.33,2.33,0,0,0,429.7,386.7Z" transform="translate(-112.45 -223.56)"/><path class="cls-5" d="M450.69,387.06a2.25,2.25,0,0,1-1-.19,1.89,1.89,0,0,1-.7-.55,2.38,2.38,0,0,1-.44-.87,4,4,0,0,1-.15-1.14,4,4,0,0,1,.16-1.19,2.44,2.44,0,0,1,.47-.89,2,2,0,0,1,.74-.57,2.34,2.34,0,0,1,1-.2,2.21,2.21,0,0,1,1,.19,1.89,1.89,0,0,1,.7.55,2.55,2.55,0,0,1,.44.87,4,4,0,0,1,.15,1.14,4.14,4.14,0,0,1-.15,1.14,2.52,2.52,0,0,1-.44.9,2,2,0,0,1-.73.6A2.31,2.31,0,0,1,450.69,387.06Zm0-.36a2.22,2.22,0,0,0,.38,0,1.22,1.22,0,0,0,.33-.14,1,1,0,0,0,.27-.28,1.89,1.89,0,0,0,.21-.45,4.39,4.39,0,0,0,.12-.66,7.82,7.82,0,0,0,0-.9A6.69,6.69,0,0,0,452,383a2.18,2.18,0,0,0-.26-.74.85.85,0,0,0-.41-.35,1.42,1.42,0,0,0-.55-.1,1.47,1.47,0,0,0-.56.1.87.87,0,0,0-.43.36,2.48,2.48,0,0,0-.27.75,7,7,0,0,0-.1,1.26c0,.33,0,.62,0,.87a3.12,3.12,0,0,0,.13.64,1.56,1.56,0,0,0,.19.45,1,1,0,0,0,.26.27.92.92,0,0,0,.32.14A2.22,2.22,0,0,0,450.71,386.7Z" transform="translate(-112.45 -223.56)"/><path class="cls-5" d="M460.66,381.6v5h1v.37h-2.9v-.37h1V382h-1.11v-.37Z" transform="translate(-112.45 -223.56)"/><path class="cls-5" d="M440.86,381.6v5h1v.37H439v-.37h1V382h-1.11v-.37Z" transform="translate(-112.45 -223.56)"/><path class="cls-5" d="M469.62,387.06a2.25,2.25,0,0,1-1-.19,1.89,1.89,0,0,1-.7-.55,2.55,2.55,0,0,1-.44-.87,4,4,0,0,1-.15-1.14,4,4,0,0,1,.16-1.19,2.6,2.6,0,0,1,.47-.89,2,2,0,0,1,.74-.57,2.35,2.35,0,0,1,1-.2,2.19,2.19,0,0,1,.94.19,1.89,1.89,0,0,1,.7.55,2.55,2.55,0,0,1,.44.87,4,4,0,0,1,.15,1.14,4.14,4.14,0,0,1-.15,1.14,2.52,2.52,0,0,1-.44.9,2,2,0,0,1-.73.6A2.31,2.31,0,0,1,469.62,387.06Zm0-.36a2.11,2.11,0,0,0,.38,0,1.22,1.22,0,0,0,.33-.14,1,1,0,0,0,.27-.28,1.57,1.57,0,0,0,.21-.45,4.39,4.39,0,0,0,.12-.66,7.58,7.58,0,0,0,.05-.9,6.56,6.56,0,0,0-.1-1.22,2.18,2.18,0,0,0-.26-.74.85.85,0,0,0-.41-.35,1.38,1.38,0,0,0-.55-.1,1.47,1.47,0,0,0-.56.1.85.85,0,0,0-.42.36,2.22,2.22,0,0,0-.28.75,7,7,0,0,0-.1,1.26,7.3,7.3,0,0,0,.05.87,2.61,2.61,0,0,0,.12.64,1.56,1.56,0,0,0,.19.45,1,1,0,0,0,.26.27.92.92,0,0,0,.32.14A2.33,2.33,0,0,0,469.64,386.7Z" transform="translate(-112.45 -223.56)"/><path class="cls-5" d="M479.59,381.6v5h1v.37h-2.9v-.37h1V382h-1.11v-.37Z" transform="translate(-112.45 -223.56)"/><path class="cls-5" d="M488.55,387.06a2.25,2.25,0,0,1-1-.19,2,2,0,0,1-.7-.55,2.55,2.55,0,0,1-.44-.87,4,4,0,0,1-.15-1.14,4,4,0,0,1,.16-1.19,2.6,2.6,0,0,1,.47-.89,2,2,0,0,1,.74-.57,2.35,2.35,0,0,1,1-.2,2.19,2.19,0,0,1,.94.19,1.92,1.92,0,0,1,.71.55,2.53,2.53,0,0,1,.43.87,4,4,0,0,1,.15,1.14,4.14,4.14,0,0,1-.15,1.14,2.37,2.37,0,0,1-.44.9,2,2,0,0,1-.72.6A2.35,2.35,0,0,1,488.55,387.06Zm0-.36a2.34,2.34,0,0,0,.39,0,1.3,1.3,0,0,0,.32-.14,1.06,1.06,0,0,0,.28-.28,1.89,1.89,0,0,0,.2-.45,4.39,4.39,0,0,0,.12-.66,7.58,7.58,0,0,0,.05-.9,5.8,5.8,0,0,0-.1-1.22,2.18,2.18,0,0,0-.26-.74.85.85,0,0,0-.41-.35,1.35,1.35,0,0,0-.55-.1,1.38,1.38,0,0,0-.55.1.83.83,0,0,0-.43.36,2.22,2.22,0,0,0-.28.75,7.1,7.1,0,0,0-.09,1.26,7.49,7.49,0,0,0,0,.87,2.61,2.61,0,0,0,.12.64,1.56,1.56,0,0,0,.19.45,1.12,1.12,0,0,0,.26.27.92.92,0,0,0,.32.14A2.33,2.33,0,0,0,488.57,386.7Z" transform="translate(-112.45 -223.56)"/><path class="cls-5" d="M498.52,381.6v5h1v.37h-2.9v-.37h1V382h-1.11v-.37Z" transform="translate(-112.45 -223.56)"/><path class="cls-5" d="M420.72,391v5h1v.37h-2.9V396h1v-4.59h-1.11V391Z" transform="translate(-112.45 -223.56)"/><path class="cls-5" d="M440.7,391v5h1v.37h-2.9V396h1v-4.59h-1.11V391Z" transform="translate(-112.45 -223.56)"/><path class="cls-5" d="M451.2,391v5h1v.37h-2.89V396h1v-4.59h-1.12V391Z" transform="translate(-112.45 -223.56)"/><path class="cls-5" d="M429.68,396.46a2.25,2.25,0,0,1-1-.19,1.89,1.89,0,0,1-.7-.55,2.55,2.55,0,0,1-.44-.87,4.46,4.46,0,0,1,0-2.33,2.69,2.69,0,0,1,.47-.89,2,2,0,0,1,.74-.57,2.46,2.46,0,0,1,1.92,0,2,2,0,0,1,.7.55,2.55,2.55,0,0,1,.44.87,4,4,0,0,1,.15,1.14,4.14,4.14,0,0,1-.15,1.14,2.52,2.52,0,0,1-.44.9,2,2,0,0,1-.73.6A2.31,2.31,0,0,1,429.68,396.46Zm0-.36a1.53,1.53,0,0,0,.38,0,1,1,0,0,0,.33-.14,1,1,0,0,0,.27-.28,1.57,1.57,0,0,0,.21-.45,4.39,4.39,0,0,0,.12-.66,7.53,7.53,0,0,0,.05-.89,6.6,6.6,0,0,0-.1-1.23,2.18,2.18,0,0,0-.26-.74.85.85,0,0,0-.41-.35,1.38,1.38,0,0,0-.55-.1,1.69,1.69,0,0,0-.56.1.85.85,0,0,0-.42.36,2.22,2.22,0,0,0-.28.75,7,7,0,0,0-.1,1.26,7.3,7.3,0,0,0,.05.87,2.79,2.79,0,0,0,.12.65,1.62,1.62,0,0,0,.19.44,1,1,0,0,0,.26.27.92.92,0,0,0,.32.14A1.58,1.58,0,0,0,429.7,396.1Z" transform="translate(-112.45 -223.56)"/><path class="cls-5" d="M469.62,396.46a2.25,2.25,0,0,1-1-.19,1.89,1.89,0,0,1-.7-.55,2.55,2.55,0,0,1-.44-.87,4.46,4.46,0,0,1,0-2.33,2.69,2.69,0,0,1,.47-.89,2,2,0,0,1,.74-.57,2.46,2.46,0,0,1,1.92,0,2,2,0,0,1,.7.55,2.55,2.55,0,0,1,.44.87,4,4,0,0,1,.15,1.14,4.14,4.14,0,0,1-.15,1.14,2.52,2.52,0,0,1-.44.9,2,2,0,0,1-.73.6A2.31,2.31,0,0,1,469.62,396.46Zm0-.36a1.48,1.48,0,0,0,.38,0,1,1,0,0,0,.33-.14,1,1,0,0,0,.27-.28,1.57,1.57,0,0,0,.21-.45,4.39,4.39,0,0,0,.12-.66,7.53,7.53,0,0,0,.05-.89,6.6,6.6,0,0,0-.1-1.23,2.18,2.18,0,0,0-.26-.74.85.85,0,0,0-.41-.35,1.38,1.38,0,0,0-.55-.1,1.69,1.69,0,0,0-.56.1.85.85,0,0,0-.42.36,2.22,2.22,0,0,0-.28.75,7,7,0,0,0-.1,1.26,7.3,7.3,0,0,0,.05.87,2.79,2.79,0,0,0,.12.65,1.62,1.62,0,0,0,.19.44,1,1,0,0,0,.26.27.92.92,0,0,0,.32.14A1.58,1.58,0,0,0,469.64,396.1Z" transform="translate(-112.45 -223.56)"/><path class="cls-5" d="M460.14,396.46a2.18,2.18,0,0,1-.95-.19,1.92,1.92,0,0,1-.71-.55,2.55,2.55,0,0,1-.44-.87,4,4,0,0,1-.15-1.14,4.39,4.39,0,0,1,.16-1.19,2.69,2.69,0,0,1,.47-.89,2,2,0,0,1,.74-.57,2.38,2.38,0,0,1,1-.2,2.32,2.32,0,0,1,.94.19,2,2,0,0,1,.71.55,2.53,2.53,0,0,1,.43.87,4,4,0,0,1,.15,1.14,4.56,4.56,0,0,1-.14,1.14,2.7,2.7,0,0,1-.44.9,2.12,2.12,0,0,1-.73.6A2.32,2.32,0,0,1,460.14,396.46Zm0-.36a1.61,1.61,0,0,0,.39,0,1,1,0,0,0,.33-.14,1,1,0,0,0,.27-.28,1.56,1.56,0,0,0,.2-.45,3.41,3.41,0,0,0,.12-.66,7.53,7.53,0,0,0,0-.89,6.73,6.73,0,0,0-.09-1.23,2.17,2.17,0,0,0-.27-.74.85.85,0,0,0-.41-.35,1.33,1.33,0,0,0-.54-.1,1.64,1.64,0,0,0-.56.1.87.87,0,0,0-.43.36,2.22,2.22,0,0,0-.28.75,7.17,7.17,0,0,0-.09,1.26,7.49,7.49,0,0,0,0,.87,4.48,4.48,0,0,0,.12.65,2,2,0,0,0,.19.44,1.12,1.12,0,0,0,.26.27,1,1,0,0,0,.32.14A1.58,1.58,0,0,0,460.16,396.1Z" transform="translate(-112.45 -223.56)"/><path class="cls-5" d="M479.59,391v5h1v.37h-2.9V396h1v-4.59h-1.11V391Z" transform="translate(-112.45 -223.56)"/><path class="cls-5" d="M488.55,396.46a2.25,2.25,0,0,1-1-.19,2,2,0,0,1-.7-.55,2.55,2.55,0,0,1-.44-.87,4.46,4.46,0,0,1,0-2.33,2.69,2.69,0,0,1,.47-.89,2,2,0,0,1,.74-.57,2.46,2.46,0,0,1,1.92,0,2,2,0,0,1,.71.55,2.53,2.53,0,0,1,.43.87,4,4,0,0,1,.15,1.14,4.14,4.14,0,0,1-.15,1.14,2.37,2.37,0,0,1-.44.9,2,2,0,0,1-.72.6A2.35,2.35,0,0,1,488.55,396.46Zm0-.36a1.61,1.61,0,0,0,.39,0,1,1,0,0,0,.32-.14,1.06,1.06,0,0,0,.28-.28,1.89,1.89,0,0,0,.2-.45,4.39,4.39,0,0,0,.12-.66,7.53,7.53,0,0,0,.05-.89,5.84,5.84,0,0,0-.1-1.23,2.18,2.18,0,0,0-.26-.74.85.85,0,0,0-.41-.35,1.35,1.35,0,0,0-.55-.1,1.58,1.58,0,0,0-.55.1.83.83,0,0,0-.43.36,2.22,2.22,0,0,0-.28.75,7.17,7.17,0,0,0-.09,1.26,7.49,7.49,0,0,0,0,.87,2.79,2.79,0,0,0,.12.65,1.62,1.62,0,0,0,.19.44,1.12,1.12,0,0,0,.26.27.92.92,0,0,0,.32.14A1.58,1.58,0,0,0,488.57,396.1Z" transform="translate(-112.45 -223.56)"/><path class="cls-5" d="M498.52,391v5h1v.37h-2.9V396h1v-4.59h-1.11V391Z" transform="translate(-112.45 -223.56)"/><rect class="cls-81" x="576.13" y="542.64" width="79.87" height="22.4" rx="2.97"/><rect class="cls-64" x="576.13" y="558.67" width="79.87" height="1.42"/><rect class="cls-64" x="631.62" y="546.02" width="0.94" height="10.59"/><rect class="cls-64" x="637.57" y="546.02" width="0.94" height="10.59"/><rect class="cls-64" x="643.53" y="546.02" width="0.94" height="10.59"/><rect class="cls-64" x="649.48" y="546.02" width="0.94" height="10.59"/><path class="cls-82" d="M701.82,774.88A2.84,2.84,0,1,1,699,772,2.84,2.84,0,0,1,701.82,774.88Z" transform="translate(-112.45 -223.56)"/><path class="cls-64" d="M710.52,774.88a2.84,2.84,0,1,1-2.83-2.84A2.83,2.83,0,0,1,710.52,774.88Z" transform="translate(-112.45 -223.56)"/><path class="cls-64" d="M719.22,774.88a2.83,2.83,0,1,1-2.83-2.84A2.83,2.83,0,0,1,719.22,774.88Z" transform="translate(-112.45 -223.56)"/><path d="M765.47,788.73v-.27a2.84,2.84,0,0,0,2.84-2.84V769.17a2.84,2.84,0,0,0-2.84-2.84H691.55a2.84,2.84,0,0,0-2.84,2.84v16.45h-.27V769.17a3.11,3.11,0,0,1,3.11-3.11h73.92a3.11,3.11,0,0,1,3.11,3.11v16.45A3.11,3.11,0,0,1,765.47,788.73Z" transform="translate(-112.45 -223.56)"/><rect x="576.13" y="558.53" width="79.87" height="0.27"/><path d="M699,777.85a3,3,0,0,1,0-5.94v.27a2.7,2.7,0,1,0,0,5.39Z" transform="translate(-112.45 -223.56)"/><path d="M704.79,775.54a3,3,0,0,1,5.79-1.33l-.27.06a2.69,2.69,0,0,0-4.91-.82,2.6,2.6,0,0,0-.34,2Z" transform="translate(-112.45 -223.56)"/><path d="M716.42,777.83a3,3,0,0,1-2.9-2.32l.27-.06a2.71,2.71,0,0,0,1.19,1.69,2.7,2.7,0,0,0,4.07-2.87l.27-.06a3,3,0,0,1-.39,2.24,3,3,0,0,1-2.51,1.38Z" transform="translate(-112.45 -223.56)"/><rect x="631.48" y="546.02" width="0.27" height="10.59"/><rect x="637.44" y="546.02" width="0.27" height="10.59"/><rect x="643.39" y="546.02" width="0.27" height="10.59"/><rect x="649.35" y="546.02" width="0.27" height="10.59"/><rect x="727.2" y="773.48" width="5.26" height="0.27" transform="translate(-394.39 222.25) rotate(-28.72)"/><rect x="728.47" y="774.75" width="5.26" height="0.27" transform="translate(-394.84 223.02) rotate(-28.72)"/><rect class="cls-83" x="576.13" y="565.04" width="79.87" height="22.4" rx="2.97"/><rect class="cls-64" x="576.13" y="581.07" width="79.87" height="1.42"/><rect class="cls-64" x="631.62" y="568.42" width="0.94" height="10.59"/><rect class="cls-64" x="637.57" y="568.42" width="0.94" height="10.59"/><rect class="cls-64" x="643.53" y="568.42" width="0.94" height="10.59"/><rect class="cls-64" x="649.48" y="568.42" width="0.94" height="10.59"/><path class="cls-84" d="M701.82,797.28a2.84,2.84,0,1,1-2.84-2.84A2.84,2.84,0,0,1,701.82,797.28Z" transform="translate(-112.45 -223.56)"/><path class="cls-64" d="M710.52,797.28a2.84,2.84,0,1,1-2.83-2.84A2.83,2.83,0,0,1,710.52,797.28Z" transform="translate(-112.45 -223.56)"/><path class="cls-64" d="M719.22,797.28a2.83,2.83,0,1,1-2.83-2.84A2.83,2.83,0,0,1,719.22,797.28Z" transform="translate(-112.45 -223.56)"/><path d="M765.47,811.13v-.27a2.84,2.84,0,0,0,2.84-2.84V791.57a2.84,2.84,0,0,0-2.84-2.84H691.55a2.84,2.84,0,0,0-2.84,2.84V808h-.27V791.57a3.11,3.11,0,0,1,3.11-3.11h73.92a3.11,3.11,0,0,1,3.11,3.11V808A3.11,3.11,0,0,1,765.47,811.13Z" transform="translate(-112.45 -223.56)"/><rect x="576.13" y="580.94" width="79.87" height="0.27"/><path d="M699,800.25a3,3,0,0,1,0-5.94v.27a2.7,2.7,0,1,0,0,5.4Z" transform="translate(-112.45 -223.56)"/><path d="M704.79,798a3,3,0,0,1,2.23-3.57,3,3,0,0,1,3.56,2.23l-.27.06a2.69,2.69,0,0,0-4.91-.82,2.61,2.61,0,0,0-.34,2Z" transform="translate(-112.45 -223.56)"/><path d="M716.42,800.23a3,3,0,0,1-1.59-.46,3,3,0,0,1-1.31-1.86l.27-.06a2.7,2.7,0,1,0,5.26-1.18l.27-.06a3,3,0,0,1-.39,2.24,3,3,0,0,1-2.51,1.38Z" transform="translate(-112.45 -223.56)"/><rect x="631.48" y="568.42" width="0.27" height="10.59"/><rect x="637.44" y="568.42" width="0.27" height="10.59"/><rect x="643.39" y="568.42" width="0.27" height="10.59"/><rect x="649.35" y="568.42" width="0.27" height="10.59"/><rect x="727.2" y="795.88" width="5.26" height="0.27" transform="translate(-405.18 225.1) rotate(-28.72)"/><rect x="728.47" y="797.15" width="5.26" height="0.27" transform="translate(-405.58 225.69) rotate(-28.71)"/><rect class="cls-85" x="576.13" y="587.43" width="79.87" height="22.4" rx="2.97"/><rect class="cls-64" x="576.13" y="603.46" width="79.87" height="1.42"/><rect class="cls-64" x="631.62" y="590.81" width="0.94" height="10.59"/><rect class="cls-64" x="637.57" y="590.81" width="0.94" height="10.59"/><rect class="cls-64" x="643.53" y="590.81" width="0.94" height="10.59"/><rect class="cls-64" x="649.48" y="590.81" width="0.94" height="10.59"/><path class="cls-86" d="M701.82,819.67a2.84,2.84,0,1,1-2.84-2.84A2.84,2.84,0,0,1,701.82,819.67Z" transform="translate(-112.45 -223.56)"/><path class="cls-64" d="M710.52,819.67a2.84,2.84,0,1,1-2.83-2.84A2.83,2.83,0,0,1,710.52,819.67Z" transform="translate(-112.45 -223.56)"/><path class="cls-64" d="M719.22,819.67a2.83,2.83,0,1,1-2.83-2.84A2.83,2.83,0,0,1,719.22,819.67Z" transform="translate(-112.45 -223.56)"/><path d="M765.47,833.52v-.27a2.84,2.84,0,0,0,2.84-2.84V814a2.84,2.84,0,0,0-2.84-2.84H691.55a2.84,2.84,0,0,0-2.84,2.84v16.45h-.27V814a3.11,3.11,0,0,1,3.11-3.11h73.92a3.11,3.11,0,0,1,3.11,3.11v16.45A3.11,3.11,0,0,1,765.47,833.52Z" transform="translate(-112.45 -223.56)"/><rect x="576.13" y="603.32" width="79.87" height="0.27"/><path d="M699,822.64a3,3,0,1,1,0-5.94V817a2.7,2.7,0,1,0,0,5.4Z" transform="translate(-112.45 -223.56)"/><path d="M704.79,820.34a3,3,0,1,1,5.79-1.34l-.27.06a2.69,2.69,0,0,0-4.91-.82,2.61,2.61,0,0,0-.34,2Z" transform="translate(-112.45 -223.56)"/><path d="M716.42,822.62a3,3,0,0,1-1.59-.46,3,3,0,0,1-1.31-1.86l.27-.06a2.7,2.7,0,1,0,5.26-1.18l.27-.06a3,3,0,0,1-.39,2.24,3,3,0,0,1-2.51,1.38Z" transform="translate(-112.45 -223.56)"/><rect x="631.48" y="590.81" width="0.27" height="10.59"/><rect x="637.44" y="590.81" width="0.27" height="10.59"/><rect x="643.39" y="590.81" width="0.27" height="10.59"/><rect x="649.35" y="590.81" width="0.27" height="10.59"/><rect x="727.2" y="818.27" width="5.26" height="0.27" transform="translate(-415.91 227.76) rotate(-28.72)"/><rect x="728.47" y="819.54" width="5.26" height="0.27" transform="translate(-416.33 228.44) rotate(-28.71)"/><path class="cls-57" d="M814.49,714.26s-6.84,2.79-7.85,3-7.67,1.18-9.15,2.52-.91,2.89-.89,4.47c0,.39.9,2.75,1.77,2.75s5.76-3.79,5.76-3.79l3.3,1.47,9.33-.54Z" transform="translate(-112.45 -223.56)"/><polygon class="cls-57" points="793.26 618.38 800.77 609.84 793.32 602.32 784.86 610.35 793.26 618.38"/><path class="cls-7" d="M862.55,734.43s5,26.88,9.56,57c13.18,12.71,26.9,26.4,37.15,37.77,0,0-2.85,6.61-11.53,10.5l-21.47-18.37,0,.32c-5.9-4.71-21.14-16.53-26.66-20.92A4.77,4.77,0,0,1,848,798l-4-58Z" transform="translate(-112.45 -223.56)"/><path class="cls-57" d="M860.77,648.7l-1.93,10.9s-.64,2.93,1.88,3.76l-1.62,5.29c-.44,1.44.63,1.56,2,2.26a8.4,8.4,0,0,0,2.38.81,5,5,0,0,0,5.39-2.48c.44-1.07.64-6.5.64-6.5l.55-2.58L871.47,650Z" transform="translate(-112.45 -223.56)"/><path class="cls-64" d="M871.13,649.18a3.72,3.72,0,0,1,3.18,3.24c.31,2.88-1,4.13-1.18,4.94s-.59,6.41-4.39,5.32l.57-9.28,2-3.38Z" transform="translate(-112.45 -223.56)"/><path class="cls-57" d="M867.25,657a2.25,2.25,0,1,0,2.61-1.82A2.25,2.25,0,0,0,867.25,657Z" transform="translate(-112.45 -223.56)"/><path class="cls-63" d="M869.4,658.73a.93.93,0,0,0,1-.54.88.88,0,0,0-.17-1.07A1.08,1.08,0,0,0,869,657a1,1,0,0,1,.55-.46,1.31,1.31,0,0,1,1,.11.08.08,0,0,0,.09,0,.06.06,0,0,0,0-.08,1.46,1.46,0,0,0-1.09-.12,1.19,1.19,0,0,0-.71.7l-.09.21.18-.13a1,1,0,0,1,1.2.06.78.78,0,0,1,.15.93.83.83,0,0,1-.86.47h0s-.06,0-.07,0a.08.08,0,0,0,0,.07Z" transform="translate(-112.45 -223.56)"/><path class="cls-63" d="M867.16,661.91s-1,4.92-7.31,4.3l.87-2.85S864.59,664.87,867.16,661.91Z" transform="translate(-112.45 -223.56)"/><path class="cls-64" d="M870.52,651.43s-7.25,2-10.66-2.31-2.31-4.88-.73-4.56,3.75,1,5.53.56,5.43-.4,6.59,1.69S873.6,650.19,870.52,651.43Z" transform="translate(-112.45 -223.56)"/><path class="cls-57" d="M806.62,717.25l22.2-8.47L834.73,688l5,4.07,7.42,4.34,4.33,1.68s-5.8,19.4-11.18,23.19-38.21,5.14-38.21,5.14Z" transform="translate(-112.45 -223.56)"/><path class="cls-87" d="M843.09,673.1s-6.39,5-10.59,18.22L830,699a35.46,35.46,0,0,0,16,5.11c8.83.38,7.57-22.31,6.2-25.46a64.23,64.23,0,0,0-4.45-7.78A12.49,12.49,0,0,0,843.09,673.1Z" transform="translate(-112.45 -223.56)"/><polygon class="cls-57" points="759.7 626.89 770.98 627.04 771.14 616.41 759.91 615.01 759.7 626.89"/><path class="cls-5" d="M884.65,731.13s3.32,69.19,0,110.16a17.73,17.73,0,0,1-15.5.89l-8.63-81.13L854,743.86V715.55Z" transform="translate(-112.45 -223.56)"/><path d="M875.6,843.75a22.3,22.3,0,0,0,8.8-1.9l.11-.05,0-.12c2.89-15.63,1-92.64,1-93.42a.24.24,0,0,0-.24-.23h0a.23.23,0,0,0-.23.24c0,.78,1.85,77.35-1,93.2-1,.44-8.2,3.53-14.88.49a.23.23,0,0,0-.31.12.22.22,0,0,0,.11.31A15.85,15.85,0,0,0,875.6,843.75Z" transform="translate(-112.45 -223.56)"/><path class="cls-88" d="M887.73,706l.61,38.75s-26,2-44-1.86c0,0,2.72-68.1,3.25-71.1.63-3.53,17.85-3.73,25-2.83,0,0,4.38-.67,10.35,3.06Z" transform="translate(-112.45 -223.56)"/><path d="M880.42,843.18a.24.24,0,0,0,.24-.23l.41-27.89a.24.24,0,0,0-.23-.25h0a.24.24,0,0,0-.23.24l-.42,27.89a.23.23,0,0,0,.23.24Z" transform="translate(-112.45 -223.56)"/><path class="cls-57" d="M869.76,668.46s-2,3.84-5.43,3.84c-5.2,0-6.07-3.83-6.07-3.83l5.75-.27Z" transform="translate(-112.45 -223.56)"/><path class="cls-89" d="M858.34,668.46s-1.42,69-2.83,79.28a35.16,35.16,0,0,1-13-2.24s1.32-72,3.21-73.93S858.34,668.46,858.34,668.46Z" transform="translate(-112.45 -223.56)"/><path d="M858,682.3a.23.23,0,0,0,.23-.23l.32-13.87-.26,0c-.49,0-11.88,1-15.24,4.88a.24.24,0,0,0,0,.34.25.25,0,0,0,.34,0c3-3.44,12.91-4.53,14.65-4.69l-.3,13.34a.23.23,0,0,0,.23.24Z" transform="translate(-112.45 -223.56)"/><path d="M866.91,748h0a.23.23,0,0,0,.23-.24c-.11-49,1.23-66,1.24-66.17a.24.24,0,0,0-.22-.26.24.24,0,0,0-.25.22c0,.17-1.36,17.2-1.24,66.21A.24.24,0,0,0,866.91,748Z" transform="translate(-112.45 -223.56)"/><path d="M842.34,745.72h0a.23.23,0,0,0,.23-.24c-.46-21.45,3.31-67.83,3.35-68.29a.24.24,0,0,0-.22-.26.24.24,0,0,0-.26.22c0,.46-3.81,46.87-3.34,68.34A.23.23,0,0,0,842.34,745.72Z" transform="translate(-112.45 -223.56)"/><path d="M888,709.64a.23.23,0,0,0,.23-.24V698.17a.23.23,0,0,0-.23-.23.23.23,0,0,0-.24.23V709.4A.24.24,0,0,0,888,709.64Z" transform="translate(-112.45 -223.56)"/><path class="cls-57" d="M896.79,692.7s4.58,15.69,5.19,17.39c1.39,3.85,2.36,33.65,2.36,33.65l-10.68.89-4.81-28.44-5.39-14.5Z" transform="translate(-112.45 -223.56)"/><path class="cls-90" d="M888.33,708l.85,41.44s-15.38,1.09-22.27-1.67c0,0,0-76.94,2.85-79.28.31,0,5.73.11,10.46.56h.09l1.5.17.88.16h0a11.88,11.88,0,0,1,5.06,2.3c3,2.54,11.14,21.3,14,32.13Z" transform="translate(-112.45 -223.56)"/><path class="cls-91" d="M882.69,669.35l-.88-.16.44,0A2.18,2.18,0,0,1,882.69,669.35Z" transform="translate(-112.45 -223.56)"/><path d="M886.15,703.34h.07l14.15-4.12a.25.25,0,1,0-.14-.49l-14.15,4.12a.25.25,0,0,0-.17.32A.25.25,0,0,0,886.15,703.34Z" transform="translate(-112.45 -223.56)"/><path class="cls-11" d="M887.27,675a.18.18,0,0,1-.13-.06A9.44,9.44,0,0,0,883,672a.17.17,0,0,1-.11-.2.17.17,0,0,1,.21-.11,9.63,9.63,0,0,1,4.28,3,.16.16,0,0,1,0,.23A.17.17,0,0,1,887.27,675Z" transform="translate(-112.45 -223.56)"/><path class="cls-11" d="M887,676.46a.16.16,0,0,1-.13-.06,9.44,9.44,0,0,0-4.13-2.93.16.16,0,0,1-.1-.2.17.17,0,0,1,.2-.11,9.7,9.7,0,0,1,4.29,3.05.16.16,0,0,1,0,.22A.19.19,0,0,1,887,676.46Z" transform="translate(-112.45 -223.56)"/><path d="M876.46,750.94a70.08,70.08,0,0,0,11.6-1.34.25.25,0,0,0,.2-.3.26.26,0,0,0-.31-.2c-.08,0-8.65,1.75-13.61,1.22a.26.26,0,0,0-.28.23.26.26,0,0,0,.23.28A18.52,18.52,0,0,0,876.46,750.94Z" transform="translate(-112.45 -223.56)"/><path d="M884.09,709.56l18-5.6-.06-.24c0-.17-4.68-16.55-9.08-24.34-.37-.67-.71-1.29-1-1.87-3.58-6.46-4.66-8.4-12.51-8.83a.27.27,0,0,0-.27.25.26.26,0,0,0,.24.27c7.57.4,8.62,2.29,12.1,8.56.32.58.66,1.21,1,1.87,4.07,7.22,8.36,21.93,8.95,24l-17,5.28a107.22,107.22,0,0,0-3.77-13.4l-.27-.81a.27.27,0,0,0-.33-.16.27.27,0,0,0-.16.33c.08.25.18.51.28.8A110.11,110.11,0,0,1,884,709.29Z" transform="translate(-112.45 -223.56)"/><path d="M881.26,698.19a.26.26,0,0,0,.16-.45l-1.9-1.57a.25.25,0,0,0-.36,0,.26.26,0,0,0,0,.36l1.9,1.57A.27.27,0,0,0,881.26,698.19Z" transform="translate(-112.45 -223.56)"/><path d="M843.72,704.33a.26.26,0,0,0,.06-.51c-.09,0-8.43-2-13.45-5l3.32-10.09a.26.26,0,0,0-.49-.16l-3.44,10.48.17.1c5.07,3.11,13.69,5.12,13.77,5.14Z" transform="translate(-112.45 -223.56)"/><path d="M841.4,699.65a.25.25,0,0,0,.07-.5c-.07,0-6.8-1.77-10.12-3.81a.27.27,0,0,0-.36.09.26.26,0,0,0,.09.35c3.39,2.08,10,3.79,10.26,3.86Z" transform="translate(-112.45 -223.56)"/><path d="M897.73,840l.1,0c8.81-4,11.64-10.57,11.66-10.64l.07-.15-.12-.12c-.17-.19-17.13-18.41-23.37-24.3a.25.25,0,0,0-.35.37c5.95,5.62,21.71,22.52,23.23,24.15-.47,1-3.45,6.65-11.33,10.22a.26.26,0,0,0-.13.34A.28.28,0,0,0,897.73,840Z" transform="translate(-112.45 -223.56)"/><path d="M906.68,833.38a.26.26,0,0,0,.18-.07.25.25,0,0,0,0-.36l-15.71-16a.26.26,0,0,0-.37.36l15.71,16A.26.26,0,0,0,906.68,833.38Z" transform="translate(-112.45 -223.56)"/><circle class="cls-68" cx="649.22" cy="624.69" r="5.75"/><path class="cls-92" d="M758.6,848.25a3.08,3.08,0,1,0,3.07-3.08A3.06,3.06,0,0,0,758.6,848.25Z" transform="translate(-112.45 -223.56)"/><path class="cls-64" d="M768.93,839.38a4.81,4.81,0,0,1-2.84,4.42c-3.06,1.56-3.06,3.06-3.06,3.06s.3,2.33-1.38,2.38-1.78-2.13-1.63-3.91a10,10,0,0,1,1.75-4.05,4.79,4.79,0,0,0,.1-1.9Z" transform="translate(-112.45 -223.56)"/><rect class="cls-68" x="761.28" y="838.02" width="8.79" height="2.02" transform="translate(1418.89 1454.51) rotate(180)"/><rect class="cls-64" x="765.12" y="833.43" width="1.36" height="4.6" transform="translate(1419.16 1447.89) rotate(180)"/><path class="cls-68" d="M685.07,848.25a5.75,5.75,0,1,0,5.75-5.76A5.75,5.75,0,0,0,685.07,848.25Z" transform="translate(-112.45 -223.56)"/><path class="cls-92" d="M687.75,848.25a3.07,3.07,0,1,0,3.07-3.08A3.06,3.06,0,0,0,687.75,848.25Z" transform="translate(-112.45 -223.56)"/><path class="cls-64" d="M698.08,839.38a4.81,4.81,0,0,1-2.84,4.42c-3.06,1.56-3.06,3.06-3.06,3.06s.29,2.33-1.38,2.38-1.78-2.13-1.63-3.91a9.83,9.83,0,0,1,1.75-4.05,4.79,4.79,0,0,0,.1-1.9Z" transform="translate(-112.45 -223.56)"/><rect class="cls-68" x="690.42" y="838.02" width="8.79" height="2.02" transform="translate(1277.19 1454.51) rotate(180)"/><rect class="cls-64" x="694.27" y="833.43" width="1.36" height="4.6" transform="translate(1277.46 1447.89) rotate(180)"/><path class="cls-64" d="M687.31,833.48c.82-.1,26.81-.11,77.24,0l12.79,0h0a2,2,0,0,0,1.67-.89,2,2,0,0,0,.18-1.9L772.11,814l-2-4.81.21-1.41,11.25-73.22.48-3.1,23-10.4,1.06,2.35-21.71,9.82L772.74,808.9l8.82,20.76a4.59,4.59,0,0,1-4.22,6.38h0l-12.78,0c-47.69-.07-75.73-.06-77,0h0Z" transform="translate(-112.45 -223.56)"/><path class="cls-93" d="M792.5,725.92l12.64-5.22A2.19,2.19,0,0,1,808,722l.08.21a2.19,2.19,0,0,1-1.22,2.77l-12.62,5.21a2.18,2.18,0,0,1-2.8-1.08l-.1-.19A2.18,2.18,0,0,1,792.5,725.92Z" transform="translate(-112.45 -223.56)"/><path d="M772.92,808a.26.26,0,0,0,.25-.21l11.46-74.52a.27.27,0,0,0-.22-.3.26.26,0,0,0-.29.22l-11.46,74.52a.26.26,0,0,0,.22.29Z" transform="translate(-112.45 -223.56)"/><path d="M687.31,833.74h0l90,0a.26.26,0,0,0,0-.51h-90a.26.26,0,0,0,0,.52Z" transform="translate(-112.45 -223.56)"/><path d="M777.92,758.47a.26.26,0,0,0,.26-.22l4.09-26.62,5.8-2.62a.26.26,0,1,0-.21-.47l-6.06,2.74,0,.14-4.11,26.75a.27.27,0,0,0,.21.3Z" transform="translate(-112.45 -223.56)"/><path class="cls-5" d="M883.78,851.71h-10l-4-4.41-7.4,4.41h-1.6a1.15,1.15,0,0,0-1.15.91,1.13,1.13,0,0,0,1.11,1.36h23.22a.3.3,0,0,0,.3-.31v-1.51A.45.45,0,0,0,883.78,851.71Z" transform="translate(-112.45 -223.56)"/><path class="cls-5" d="M883.69,851.72v-4.1a3.54,3.54,0,0,0-4.24-1.1s-3.87,2.74-7.28-.58l-8.48,3.76s-2.32.78-3,2Z" transform="translate(-112.45 -223.56)"/><rect x="771.16" y="624.06" width="0.17" height="4.08"/><path d="M876,847.67a3.87,3.87,0,0,1-.52,0l0-.17a6,6,0,0,0,3.93-1l.09.14A6.33,6.33,0,0,1,876,847.67Z" transform="translate(-112.45 -223.56)"/><rect x="881.47" y="850.44" width="1.31" height="0.17" transform="translate(-436.95 413.45) rotate(-33.92)"/><rect x="880.7" y="850.23" width="1.31" height="0.17" transform="translate(-437.32 414.99) rotate(-34.02)"/><path d="M859.92,853.78a1.22,1.22,0,0,1,.79-2.15h22.95a.66.66,0,0,1,.66.66v1.13h-.17v-1.13a.49.49,0,0,0-.49-.49H860.71a1,1,0,0,0-1.05,1.05,1.1,1.1,0,0,0,.37.81Z" transform="translate(-112.45 -223.56)"/><path d="M860.79,851.75l-.16-.07a4.25,4.25,0,0,1,2.22-1.73c1.71-.73,9.21-4.06,9.28-4.09l.07.16c-.07,0-7.57,3.36-9.28,4.08A4.13,4.13,0,0,0,860.79,851.75Z" transform="translate(-112.45 -223.56)"/><path class="cls-5" d="M915.72,835.77l-7.12,7-6-.31-2.19,8.34-1.14,1.12a1.16,1.16,0,0,0-.18,1.46,1.14,1.14,0,0,0,1.75.19l16.55-16.28a.3.3,0,0,0,0-.43l-1.06-1.08A.46.46,0,0,0,915.72,835.77Z" transform="translate(-112.45 -223.56)"/><path class="cls-5" d="M915.66,835.84l-2.87-2.92a3.56,3.56,0,0,0-3.8,2.18s-.84,4.68-5.6,4.7L900,848.42s-1.11,2.19-.69,3.52Z" transform="translate(-112.45 -223.56)"/><rect x="914.13" y="832.34" width="0.17" height="4.08" transform="translate(-435.1 657.07) rotate(-44.53)"/><path d="M907.32,838.36c-.23.23-.39.34-.39.35l-.1-.14a6.07,6.07,0,0,0,2.08-3.48l.16,0A6.26,6.26,0,0,1,907.32,838.36Z" transform="translate(-112.45 -223.56)"/><polygon points="801.21 613.18 801.04 613.15 801.3 611.87 801.47 611.9 801.21 613.18"/><rect x="912.35" y="836.4" width="1.31" height="0.17" transform="translate(-201.02 1341.02) rotate(-78.51)"/><path d="M900.16,854a1.29,1.29,0,0,1-1-.36,1.23,1.23,0,0,1,0-1.73l16.37-16.09a.65.65,0,0,1,.92,0l.8.81-.12.12-.8-.81a.48.48,0,0,0-.68,0L899.33,852a1.06,1.06,0,0,0,0,1.49,1,1,0,0,0,.82.31Z" transform="translate(-112.45 -223.56)"/><path d="M899.35,851.92l-.16.06a4.16,4.16,0,0,1,.37-2.79c.7-1.72,3.72-9.35,3.75-9.42l.16.06c0,.08-3.05,7.71-3.76,9.42A4.15,4.15,0,0,0,899.35,851.92Z" transform="translate(-112.45 -223.56)"/><path class="cls-57" d="M897.33,760.89c-2,2.41-2.42,0-2.42,0-1.19,1.19-1.78.94-2.06.53a1.14,1.14,0,0,1-.12-1c.38-1.09,1.55-4.42,2.41-6.45-.15-1.42-2.54-.89-3.74-.21-.63.35-1.67.41-.67-1.17a19,19,0,0,1,3.59-3.29l-1.52-9.69,11.47,2.58s.18,9.07.22,10.43-1.36,6-2.52,7.42c-2.09,2.59-2.26,1-2.26,1C897.28,763.47,897.33,760.89,897.33,760.89Z" transform="translate(-112.45 -223.56)"/><path class="cls-63" d="M896.62,757.93a.17.17,0,0,0-.11-.16.16.16,0,0,0-.21.1,19.38,19.38,0,0,1-1.53,2.9.18.18,0,0,0,.05.23.16.16,0,0,0,.23,0,19.73,19.73,0,0,0,1.56-3A.09.09,0,0,0,896.62,757.93Z" transform="translate(-112.45 -223.56)"/><path class="cls-63" d="M898.7,758a.15.15,0,0,0-.13-.16.15.15,0,0,0-.19.12,10,10,0,0,1-1.19,2.82.16.16,0,1,0,.27.18,10.4,10.4,0,0,0,1.24-2.93Z" transform="translate(-112.45 -223.56)"/><path class="cls-63" d="M901.06,758.49a.17.17,0,0,0-.13-.16.16.16,0,0,0-.2.11,8.7,8.7,0,0,1-1.15,2.46.16.16,0,0,0,0,.23.17.17,0,0,0,.23,0,9,9,0,0,0,1.2-2.56S901.06,758.5,901.06,758.49Z" transform="translate(-112.45 -223.56)"/><polygon class="cls-3" points="777.23 527.81 782.3 529.67 776.85 533.25 777.23 527.81"/></g></g></svg>