<svg id="Layer_1" data-name="Layer 1" xmlns="http://www.w3.org/2000/svg" xmlns:xlink="http://www.w3.org/1999/xlink" viewBox="0 0 667.06 650.66"><defs><style>.cls-1,.cls-5{opacity:0.21;}.cls-2,.cls-3{fill:url(#linear-gradient);}.cls-3{opacity:0.7;}.cls-10,.cls-25,.cls-26,.cls-29,.cls-4{fill:none;}.cls-25,.cls-28,.cls-4{stroke:#1a2e35;}.cls-25,.cls-26,.cls-28,.cls-29,.cls-4,.cls-6{stroke-linecap:round;stroke-linejoin:round;stroke-width:1.1px;}.cls-4{stroke-dasharray:4.41;}.cls-5{fill:url(#linear-gradient-3);}.cls-14,.cls-21,.cls-24,.cls-28,.cls-50,.cls-6,.cls-8{fill:#fff;}.cls-6{stroke:#2d353a;}.cls-7{fill:#2d353a;}.cls-13,.cls-26,.cls-8{opacity:0.2;}.cls-9{fill:url(#linear-gradient-4);}.cls-10,.cls-14{stroke:#1d2328;stroke-miterlimit:10;}.cls-11{fill:#1d2328;}.cls-12{fill:url(#linear-gradient-5);}.cls-15{fill:url(#linear-gradient-6);}.cls-16{fill:url(#linear-gradient-7);}.cls-17{fill:url(#linear-gradient-8);}.cls-18{fill:url(#linear-gradient-9);}.cls-19{fill:url(#linear-gradient-10);}.cls-20{fill:url(#linear-gradient-11);}.cls-22{fill:url(#linear-gradient-12);}.cls-23{fill:url(#linear-gradient-13);}.cls-24{opacity:0.5;}.cls-26,.cls-29{stroke:#fff;}.cls-27{fill:#1a2e35;}.cls-30{fill:url(#linear-gradient-14);}.cls-31{opacity:0.69;}.cls-32{fill:url(#linear-gradient-15);}.cls-33{fill:url(#linear-gradient-16);}.cls-34{fill:url(#linear-gradient-17);}.cls-35{fill:url(#linear-gradient-18);}.cls-36{opacity:0.05;isolation:isolate;}.cls-37{fill:url(#linear-gradient-19);}.cls-38{fill:url(#linear-gradient-20);}.cls-39,.cls-42{opacity:0.53;}.cls-39{fill:url(#linear-gradient-21);}.cls-40{fill:#ebebeb;}.cls-41{fill:url(#linear-gradient-22);}.cls-42{fill:url(#linear-gradient-23);}.cls-43{fill:url(#linear-gradient-24);}.cls-44{fill:url(#linear-gradient-25);}.cls-45{fill:url(#linear-gradient-26);}.cls-46{fill:url(#linear-gradient-27);}.cls-47{fill:url(#linear-gradient-28);}.cls-48{fill:url(#linear-gradient-29);}.cls-49{fill:url(#linear-gradient-30);}.cls-50{fill-rule:evenodd;}</style><linearGradient id="linear-gradient" x1="206.47" y1="492.4" x2="857.1" y2="492.4" gradientUnits="userSpaceOnUse"><stop offset="0" stop-color="#23baf5"/><stop offset="1" stop-color="#1c62d1"/></linearGradient><linearGradient id="linear-gradient-3" x1="41.51" y1="611" x2="609.11" y2="611" xlink:href="#linear-gradient"/><linearGradient id="linear-gradient-4" x1="264.36" y1="345.92" x2="799.21" y2="345.92" xlink:href="#linear-gradient"/><linearGradient id="linear-gradient-5" x1="81.39" y1="355.95" x2="275.21" y2="355.95" xlink:href="#linear-gradient"/><linearGradient id="linear-gradient-6" x1="305.91" y1="478.52" x2="499.72" y2="478.52" xlink:href="#linear-gradient"/><linearGradient id="linear-gradient-7" x1="117.66" y1="296.61" x2="165.35" y2="296.61" xlink:href="#linear-gradient"/><linearGradient id="linear-gradient-8" x1="117.66" y1="368.31" x2="165.35" y2="368.31" xlink:href="#linear-gradient"/><linearGradient id="linear-gradient-9" x1="117.66" y1="433.34" x2="165.35" y2="433.34" xlink:href="#linear-gradient"/><linearGradient id="linear-gradient-10" x1="472.09" y1="303.69" x2="718.15" y2="303.69" xlink:href="#linear-gradient"/><linearGradient id="linear-gradient-11" x1="499.72" y1="820.14" x2="601.23" y2="820.14" xlink:href="#linear-gradient"/><linearGradient id="linear-gradient-12" x1="642.53" y1="827.55" x2="732.18" y2="827.55" xlink:href="#linear-gradient"/><linearGradient id="linear-gradient-13" x1="517.73" y1="657.37" x2="723.81" y2="657.37" xlink:href="#linear-gradient"/><linearGradient id="linear-gradient-14" x1="332.91" y1="303.87" x2="356.87" y2="303.87" xlink:href="#linear-gradient"/><linearGradient id="linear-gradient-15" x1="846.47" y1="275.94" x2="866.63" y2="275.94" xlink:href="#linear-gradient"/><linearGradient id="linear-gradient-16" x1="26.13" y1="1125.5" x2="26.13" y2="1125.07" gradientTransform="matrix(23.01, 0, 0, -19.07, 250.53, 21866.95)" gradientUnits="userSpaceOnUse"><stop offset="0.39" stop-color="#d1d3d4" stop-opacity="0"/><stop offset="1" stop-color="#d1d3d4"/></linearGradient><linearGradient id="linear-gradient-17" x1="23.87" y1="1123.05" x2="23.87" y2="1122.62" gradientTransform="matrix(24.64, 0, 0, -19.82, 273.53, 22668.84)" xlink:href="#linear-gradient-16"/><linearGradient id="linear-gradient-18" x1="10.7" y1="1107.14" x2="11.13" y2="1107.14" gradientTransform="matrix(45.8, 0, 0, -35.99, 250.56, 40146.85)" gradientUnits="userSpaceOnUse"><stop offset="0" stop-color="#e8e7e5"/><stop offset="1" stop-color="#fff"/></linearGradient><linearGradient id="linear-gradient-19" x1="9.88" y1="1180.1" x2="10.31" y2="1180.1" gradientTransform="matrix(49.72, 0, 0, -9.7, 248.46, 11738.16)" xlink:href="#linear-gradient-18"/><linearGradient id="linear-gradient-20" x1="813.58" y1="353.88" x2="847.3" y2="353.88" xlink:href="#linear-gradient"/><linearGradient id="linear-gradient-21" x1="830.44" y1="353.83" x2="844.24" y2="353.83" xlink:href="#linear-gradient"/><linearGradient id="linear-gradient-22" x1="788.06" y1="301.24" x2="821.84" y2="301.24" xlink:href="#linear-gradient"/><linearGradient id="linear-gradient-23" x1="804.95" y1="301.18" x2="818.76" y2="301.18" xlink:href="#linear-gradient"/><linearGradient id="linear-gradient-24" x1="479.81" y1="236.93" x2="501.9" y2="236.93" xlink:href="#linear-gradient"/><linearGradient id="linear-gradient-25" x1="513.16" y1="224.42" x2="533.03" y2="224.42" xlink:href="#linear-gradient"/><linearGradient id="linear-gradient-26" x1="0.55" y1="1091.45" x2="0.7" y2="1091.3" gradientTransform="matrix(82.82, 0, 0, -83.01, 262.86, 90900.16)" xlink:href="#linear-gradient"/><linearGradient id="linear-gradient-27" x1="367.18" y1="303.69" x2="391.51" y2="303.69" xlink:href="#linear-gradient"/><linearGradient id="linear-gradient-28" x1="756.28" y1="731.99" x2="779.77" y2="731.99" xlink:href="#linear-gradient"/><linearGradient id="linear-gradient-29" x1="746.52" y1="731.17" x2="791.53" y2="731.17" xlink:href="#linear-gradient"/><linearGradient id="linear-gradient-30" x1="754.64" y1="743.76" x2="791.56" y2="743.76" xlink:href="#linear-gradient"/></defs><title>website development service _vector_img</title><g class="cls-1"><path class="cls-2" d="M837.85,475.53C765.62,351.84,569.72,395.89,529.7,335.72c-20.49-30.81-43.41-66.52-76.65-85.09-31.7-17.7-68.45-24-100.49-21.67-114.4,8.37-162.92,110.74-140.93,223.15C241,602.05,373.88,755.23,531.8,756.3c82.59.56,161.44-29,223.29-70.7l1.38-.94C818.27,642.6,893,570,837.85,475.53Z" transform="translate(-206.47 -214.67)"/><path class="cls-3" d="M837.85,475.53C765.62,351.84,569.72,395.89,529.7,335.72c-20.49-30.81-43.41-66.52-76.65-85.09-31.7-17.7-68.45-24-100.49-21.67-114.4,8.37-162.92,110.74-140.93,223.15C241,602.05,373.88,755.23,531.8,756.3c82.59.56,161.44-29,223.29-70.7l1.38-.94C818.27,642.6,893,570,837.85,475.53Z" transform="translate(-206.47 -214.67)"/></g><path class="cls-4" d="M277.19,484.53h-8a32.5,32.5,0,0,0-32.5,32.5V695.35a32.5,32.5,0,0,0,32.5,32.5H379.35a32.5,32.5,0,0,0,32.5-32.5h0" transform="translate(-206.47 -214.67)"/><path class="cls-4" d="M402.81,316.27V281a19.9,19.9,0,0,1,19.91-19.9H566a19.9,19.9,0,0,1,19.9,19.9h0" transform="translate(-206.47 -214.67)"/><ellipse class="cls-5" cx="325.31" cy="611" rx="283.8" ry="39.66"/><path class="cls-6" d="M799.31,363.53V630.35a32.9,32.9,0,0,1-32.89,32.89H297.15a32.9,32.9,0,0,1-32.89-32.89V363.53c0-.78,0-1.55.1-2.32a32.87,32.87,0,0,1,32.79-30.58H766.42a32.87,32.87,0,0,1,32.79,30.58C799.28,362,799.31,362.75,799.31,363.53Z" transform="translate(-206.47 -214.67)"/><path class="cls-7" d="M73.79,158.87H578.51a0,0,0,0,1,0,0V415.36a20.8,20.8,0,0,1-20.8,20.8H94.59a20.8,20.8,0,0,1-20.8-20.8V158.87a0,0,0,0,1,0,0Z"/><path class="cls-8" d="M785,373.54V620a30.65,30.65,0,0,1-30.48,30.81H310.74A30.66,30.66,0,0,1,280.26,620V373.54Z" transform="translate(-206.47 -214.67)"/><path class="cls-9" d="M799.21,361.21H264.36a32.87,32.87,0,0,1,32.79-30.58H766.42A32.87,32.87,0,0,1,799.21,361.21Z" transform="translate(-206.47 -214.67)"/><path class="cls-7" d="M330.08,345.92a5.83,5.83,0,1,1-5.82-5.83A5.82,5.82,0,0,1,330.08,345.92Z" transform="translate(-206.47 -214.67)"/><path class="cls-7" d="M354.71,345.92a5.83,5.83,0,1,1-5.82-5.83A5.81,5.81,0,0,1,354.71,345.92Z" transform="translate(-206.47 -214.67)"/><circle class="cls-7" cx="167.05" cy="131.25" r="5.83"/><path class="cls-10" d="M785,373.55V620a30.82,30.82,0,0,1-30.82,30.83H311.08A30.82,30.82,0,0,1,280.86,626h0v-.07a31.06,31.06,0,0,1-.57-5.9V373.55Z" transform="translate(-206.47 -214.67)"/><path class="cls-11" d="M784.51,411.67a31.51,31.51,0,0,0-6.85-2.83l-2.77-12.37H763.12l-2.74,12.37a30.32,30.32,0,0,0-6.87,2.83l-10.62-6.8-8.32,8.32,6.68,10.62a30.4,30.4,0,0,0-2.82,6.87l-12.38,2.74v11.77L738.43,448a30,30,0,0,0,2.82,6.92l-6.8,10.69,8.32,8.32,10.69-6.8a30.35,30.35,0,0,0,6.87,2.84l2.75,12.36h11.76l2.77-12.36a31.54,31.54,0,0,0,6.85-2.84l.54.34V411.36ZM769,454.58a15.21,15.21,0,1,1,15.2-15.21A15.2,15.2,0,0,1,769,454.58Z" transform="translate(-206.47 -214.67)"/><path class="cls-11" d="M572.46,423.59V398.77L546.37,393a67.3,67.3,0,0,0-6-14.49l3.15-5H420.43l3,4.83a64.1,64.1,0,0,0-6,14.47l-26.09,5.8v24.82l26.09,5.82a65.13,65.13,0,0,0,6,14.58L409.13,466.4l17.56,17.54,22.52-14.34a66,66,0,0,0,14.49,6l5.78,26.06H494.3l5.83-26.06a66.54,66.54,0,0,0,14.43-6l22.55,14.34,17.53-17.54-14.23-22.54a68.22,68.22,0,0,0,6-14.45Zm-90.39,19.64a32.05,32.05,0,1,1,32.05-32.05A32.06,32.06,0,0,1,482.07,443.23Z" transform="translate(-206.47 -214.67)"/><path class="cls-11" d="M407.88,594l1.05-19.68-20.4-5.75a55.44,55.44,0,0,0-4.19-11.71l12.33-17.31-13.21-14.66L365,535.31a54.1,54.1,0,0,0-11.25-5.38L350.21,509l-19.68-1-5.69,20.46a51.47,51.47,0,0,0-11.7,4.16l-17.29-12.33-14.68,13.21L291.63,552a50.84,50.84,0,0,0-5.39,11.22l-6,1v26.66L284.6,592a51.52,51.52,0,0,0,4.19,11.74l-8.52,11.91.57,10.22V626h0l8.78,9.74,18.5-10.44a51.22,51.22,0,0,0,11.28,5.44l3.37,20.09v0l.16.83,19.68,1.05.52-1.88v0l5.17-18.57a52.47,52.47,0,0,0,11.77-4.15l17.26,12.31L392,627.22,381.6,608.71a51.22,51.22,0,0,0,5.33-11.21Zm-52.27-30.75a25.49,25.49,0,1,0-1.9,36A25.49,25.49,0,0,0,355.61,563.22Z" transform="translate(-206.47 -214.67)"/><path class="cls-11" d="M565.27,564.56a39.56,39.56,0,0,0,1.2-9.32l14.15-7.44-3.91-14.35-16,.74a39.8,39.8,0,0,0-5.74-7.41l4.73-15.28-12.89-7.39-10.79,11.78a41.56,41.56,0,0,0-9.29-1.19l-7.47-14.16L505,504.44l.76,16a40.6,40.6,0,0,0-7.43,5.74L483,521.45l-7.39,12.88,11.83,10.76a39.34,39.34,0,0,0-1.17,9.29l-14.17,7.47L476,576.2l16-.76a37.91,37.91,0,0,0,5.72,7.43L493,598.07l12.9,7.39,10.73-11.68a39,39,0,0,0,9.31,1.18l7.45,14.17,14.34-3.9-.63-13.66-.11-2.34a39.16,39.16,0,0,0,7.5-5.74l15.28,4.74,6.31-11,1.08-1.86Zm-33.89,8.72a19.2,19.2,0,1,1,13.48-23.57A19.2,19.2,0,0,1,531.38,573.28Z" transform="translate(-206.47 -214.67)"/><path class="cls-11" d="M729.33,589.81l3.27-19.7-19.94-8a53.11,53.11,0,0,0-2.86-12.3l14.35-16-11.62-16.25L692.74,526a52.64,52.64,0,0,0-10.7-6.63l-1.16-21.48-19.71-3.26-8.07,19.86a55.28,55.28,0,0,0-12.25,2.88l-16-14.35L608.59,514.6,617,534.38a53.55,53.55,0,0,0-6,9.32c-.23.45-.46.91-.67,1.37l-21.47,1.19-3.27,19.68,3.24,1.31L605.55,574a51.37,51.37,0,0,0,2.86,12.24l-14.36,16,11.63,16.24,19.79-8.44a51.05,51.05,0,0,0,10.68,6.69l1.11,21.38L657,641.38,665,621.67a51.76,51.76,0,0,0,12.28-2.88l16,14.37,16.25-11.64-8.42-19.79A51.88,51.88,0,0,0,707.87,591Zm-55.26-.88a25.8,25.8,0,1,1,5.95-36A25.81,25.81,0,0,1,674.07,588.93Z" transform="translate(-206.47 -214.67)"/><rect class="cls-12" x="81.39" y="229.24" width="193.82" height="253.41" rx="13.11"/><rect class="cls-13" x="81.39" y="229.24" width="193.82" height="253.41" rx="13.11"/><path class="cls-14" d="M499.72,482.48V697a19.42,19.42,0,0,1-19.43,19.43h-155A19.42,19.42,0,0,1,305.91,697V482.48a19.42,19.42,0,0,1,19.42-19.42h155A19.43,19.43,0,0,1,499.72,482.48Z" transform="translate(-206.47 -214.67)"/><path class="cls-15" d="M499.72,482.48V494H305.91V482.48a19.42,19.42,0,0,1,19.42-19.42h155A19.43,19.43,0,0,1,499.72,482.48Z" transform="translate(-206.47 -214.67)"/><rect class="cls-16" x="117.66" y="292.61" width="47.68" height="8"/><rect class="cls-17" x="117.66" y="364.32" width="47.68" height="8"/><rect class="cls-18" x="117.66" y="429.34" width="47.68" height="8"/><rect class="cls-11" x="117.66" y="312.41" width="135.43" height="5.87"/><rect class="cls-11" x="117.66" y="323.64" width="111.01" height="5.72"/><rect class="cls-11" x="117.66" y="334.68" width="125.54" height="5.72"/><rect class="cls-11" x="117.66" y="345.71" width="125.54" height="5.72"/><rect class="cls-11" x="117.66" y="377.43" width="135.43" height="5.87"/><rect class="cls-11" x="117.66" y="388.66" width="111.01" height="5.72"/><rect class="cls-11" x="117.66" y="399.7" width="125.54" height="5.72"/><rect class="cls-11" x="117.66" y="448.84" width="135.43" height="5.87"/><rect class="cls-11" x="117.66" y="460.07" width="111.01" height="5.72"/><rect class="cls-11" x="117.66" y="471.1" width="125.54" height="5.72"/><path class="cls-14" d="M718.15,314.29V401A23.16,23.16,0,0,1,695,424.17H495.25A23.16,23.16,0,0,1,472.09,401V314.29a23.18,23.18,0,0,1,23.16-23.18H695A23.17,23.17,0,0,1,718.15,314.29Z" transform="translate(-206.47 -214.67)"/><path class="cls-19" d="M718.15,314.29v2H472.09v-2a23.18,23.18,0,0,1,23.16-23.18H695A23.17,23.17,0,0,1,718.15,314.29Z" transform="translate(-206.47 -214.67)"/><path class="cls-11" d="M508.24,307.83a3.55,3.55,0,1,1,0-5A3.54,3.54,0,0,1,508.24,307.83Z" transform="translate(-206.47 -214.67)"/><path class="cls-11" d="M524.71,307.83a3.54,3.54,0,1,1,0-5A3.53,3.53,0,0,1,524.71,307.83Z" transform="translate(-206.47 -214.67)"/><path class="cls-11" d="M541.19,307.83a3.54,3.54,0,1,1,0-5A3.53,3.53,0,0,1,541.19,307.83Z" transform="translate(-206.47 -214.67)"/><rect class="cls-10" x="281.31" y="117.55" width="80.43" height="69.52"/><rect class="cls-11" x="374.15" y="117.55" width="92.56" height="4.88"/><rect class="cls-11" x="374.15" y="127.67" width="71" height="4.88"/><rect class="cls-11" x="374.15" y="137.74" width="105.73" height="4.94"/><rect class="cls-11" x="374.15" y="147.57" width="90.03" height="4.94"/><path class="cls-20" d="M601.23,818.36s-43,12.33-49,14.45c-5.45,1.93-20.25,7.11-31.35,5.51a23.16,23.16,0,0,1-3.17-.69c-11.24-3.35-16.29-6.47-17.77-13.55s4.12-12.27,9.52-15.61,34.65-6.81,34.65-6.81l7.06,2.07h0Z" transform="translate(-206.47 -214.67)"/><path class="cls-21" d="M520.9,838.32a23.16,23.16,0,0,1-3.17-.69c-11.24-3.35-16.29-6.47-17.77-13.55s4.12-12.27,9.52-15.61,34.65-6.81,34.65-6.81l7.06,2.07c-6.39,2.94-30.22,4.58-35.42,7.57s-7.71,8.63-4.64,16.25C512.76,831.6,517.14,835.52,520.9,838.32Z" transform="translate(-206.47 -214.67)"/><path class="cls-10" d="M594.76,820.11s-32.27,8.37-45.07,13.72-37.21,7.69-45.91-3.35-1-20.53,7.69-22.64,26.29-5.45,35.89-4.12" transform="translate(-206.47 -214.67)"/><path class="cls-10" d="M521.55,837.73s-16.42-9-11-21.62c4-9.31,25.93-7.3,36.78-12.39" transform="translate(-206.47 -214.67)"/><path class="cls-22" d="M732.11,840.31c-.44,4.4-2,8.62-6.44,11.23-3,1.75-7.18,2.8-13.21,2.73-15.07-.19-43.4-11-43.4-11l-26.53-14.67,13.8-21.84,3.78-6,9.75,2.19s8.08,4.58,16.2,8.22,27.84,4.42,34.79,10S732.86,833,732.11,840.31Z" transform="translate(-206.47 -214.67)"/><path class="cls-21" d="M732.11,840.31c-.44,4.4-2,8.62-6.44,11.23a19.9,19.9,0,0,0-.75-13.24c-2.95-6.65-12.61-12.52-25.29-13.5s-22.39-6.91-27.48-9.56c-4-2.06-12.34-6.56-15.82-8.44l3.78-6,9.75,2.19s8.08,4.58,16.2,8.22,27.84,4.42,34.79,10S732.86,833,732.11,840.31Z" transform="translate(-206.47 -214.67)"/><path class="cls-10" d="M648.41,832.75c18.89,10.82,40.49,18.61,62.1,21.22,4.82.58,10.44.66,13.67-3a10.13,10.13,0,0,0,2.23-7.58c-.59-6.81-6.31-12.21-12.59-14.91s-13.22-3.34-19.89-4.84a78.86,78.86,0,0,1-19.12-7c-4.79-2.51-9.44-5.54-14.73-6.66s-11.59.23-14.41,4.85" transform="translate(-206.47 -214.67)"/><path class="cls-10" d="M722.41,852.85c4.88-2.51,8.89-7.11,9.7-12.54,1-6.42-2.69-12.87-7.84-16.82s-11.59-5.8-17.94-7.12-12.86-2.21-18.91-4.57c-9.29-3.63-18.46-10.81-28.11-8.25" transform="translate(-206.47 -214.67)"/><path class="cls-23" d="M678.35,603.2l-44.89-17.08-.55-.21s.16-1.2.29-2.93c.28-3.58.42-9.42-1.26-11.39-2.5-2.93-9.59-.48-16.51-3.65s-19.71,2.5-19.71,2.5-9.24-1.7-13.31,5c-2.07,5.38-1.35,13.39-1.35,13.39l-.85.31c-5.35,2-34.44,12.95-40.61,17.34-6.8,4.82-14.32,54.27-16.74,68.79s-6.71,27.6-4.52,32.61,33.44,29.06,51.42,35.27,81.78,4.4,81.78,4.4,1.05-.28,2.89-.87c10.79-3.46,49.07-17.73,69.38-51.39C723.81,695.26,704.14,630.76,678.35,603.2ZM557.08,686.37c-3.31,2.34-1.54,11.41-1.54,11.41l-5.62-5L564,658.14l6,26.63S560.38,684.05,557.08,686.37Zm112.85,22c-1.55.8,4.46-15.87,1.6-19.65s-11.42-3.41-11.42-3.41l.73-4.56,5.08-26.07,1.69-2s17.46,29.92,20.58,40.47C688.19,693.17,669.16,708.4,669.93,708.4Z" transform="translate(-206.47 -214.67)"/><path class="cls-21" d="M593.6,495l-23.17,24.6s-3.19,2.82-1.92,10,4.22,13.26,6.46,13.74a32.35,32.35,0,0,0,5.36.48s5,10.76,8.48,15c0,0,1.23,16.6.57,21.21,0,0,8.33,7.27,16.17,8.2s20-11.09,20-11.09l3-14.7s7.11-10.79,7.59-13.66,3.74-2.14,5.33-3.56,5.3-7.75,5.91-13.74S648,518.58,641,520.6c-6-1.62-2.25-14.36-2.25-14.36l-10.59-9.34Z" transform="translate(-206.47 -214.67)"/><path class="cls-24" d="M633.46,586.12a24.35,24.35,0,0,1-1.19,2.68c-3.83,7.21-20.48,20.94-20.48,20.94l-5-15.48L604,609.74c-5.56-2.42-22.51-17.12-22.51-17.12s-.57-1.37-1.27-3.51l.85-.31s-.72-8,1.35-13.39c4.07-6.67,13.31-5,13.31-5s12.8-5.67,19.71-2.5,14,.72,16.51,3.65,1,14.32,1,14.32Z" transform="translate(-206.47 -214.67)"/><path class="cls-13" d="M678.35,603.2l-44.89-17.08-.55-.21s.16-1.2.29-2.93l-.93,5.82-6.64,9A181.21,181.21,0,0,1,646.34,607a18.18,18.18,0,0,1,9.52,18.14l-8.28,70.76L644.2,736l10.23,10.62c10.79-3.46,49.07-17.73,69.38-51.39C723.81,695.26,704.14,630.76,678.35,603.2Zm-8.42,105.2c-1.55.8,4.46-15.87,1.6-19.65s-11.42-3.41-11.42-3.41l.73-4.56,5.08-26.07,1.69-2s17.46,29.92,20.58,40.47C688.19,693.17,669.16,708.4,669.93,708.4Z" transform="translate(-206.47 -214.67)"/><path class="cls-13" d="M573.08,688.75l-7-23.32s-12.51-42.68-21.1-53.21l2.26,30s-7.36,35.86-14.18,46.51-8.29,13.31,0,13.31,28.44,16.07,28.44,16.07L560,704.72Zm-17.54,9-5.62-5L564,658.14l6,26.63s-9.66-.72-13,1.6S555.54,697.78,555.54,697.78Z" transform="translate(-206.47 -214.67)"/><path class="cls-10" d="M588.81,558.78s1.29,12.57,0,18.32" transform="translate(-206.47 -214.67)"/><path class="cls-10" d="M626.78,575.41a54.09,54.09,0,0,1,1.4-12" transform="translate(-206.47 -214.67)"/><path class="cls-10" d="M630.15,504.39s7.61,9.56,7.22,16.78-1,15.81-.78,24.2-13.46,26-20.49,27.51-13.07,2-17.56-2.54-9-10.73-14.83-18.73-4.49-25.56-4.49-25.56" transform="translate(-206.47 -214.67)"/><path class="cls-10" d="M611.83,532.74a40,40,0,0,0-.59,8c.06,2.23.39,4.64,2,6.23.84.86,2.07,1.55,2.23,2.74a2.91,2.91,0,0,1-1.57,2.59,20.84,20.84,0,0,0-2.74,1.63" transform="translate(-206.47 -214.67)"/><path class="cls-25" d="M599.75,554.8s.88,5.67,8.49,6.86" transform="translate(-206.47 -214.67)"/><path class="cls-11" d="M600.54,537.06c0,1.64-.71,3-1.58,3s-1.58-1.33-1.58-3,.7-3,1.58-3S600.54,535.43,600.54,537.06Z" transform="translate(-206.47 -214.67)"/><path class="cls-11" d="M623.23,537.78c0,1.64-.71,3-1.59,3s-1.58-1.32-1.58-3,.71-3,1.58-3S623.23,536.14,623.23,537.78Z" transform="translate(-206.47 -214.67)"/><path class="cls-11" d="M618.65,530.59s7.38-7.37,13.62.85" transform="translate(-206.47 -214.67)"/><path class="cls-11" d="M603.05,530.73s-4.68-5.24-12.06,0" transform="translate(-206.47 -214.67)"/><path class="cls-11" d="M589.38,565.69s4.52,12.45,14.61,16,23.49-14.8,23.49-14.8l-.7-2.38S618,575.9,608.24,574s-19.43-15.17-19.43-15.17Z" transform="translate(-206.47 -214.67)"/><path class="cls-10" d="M580.33,543.31s-6,2.12-7.61-2.57-7.08-17-2.29-21.13,8.66,5.43,8.66,5.43" transform="translate(-206.47 -214.67)"/><path class="cls-10" d="M636.58,545.86s5.59,1.13,7.19-3.56,7.08-17,2.28-21.14-8.65,5.43-8.65,5.43" transform="translate(-206.47 -214.67)"/><path class="cls-11" d="M579.09,537.06a8.32,8.32,0,0,0,5.27-3.11,13.23,13.23,0,0,0,1.54-4.73,57.52,57.52,0,0,0,.83-9.54,13.13,13.13,0,0,1,.34-3.71,9.56,9.56,0,0,1,2-3.31c2.1-2.46,4.63-4.54,6.62-7.08s3.47-5.77,2.93-9c0,0,13.64,12.47,33.3,8.61,10.58-2.07,20.74-11.36,19.51-23a9.47,9.47,0,0,0-7.46-8.13c-5.23-1.3-9.94,1.49-14.68,3.28-8.64,3.26-17.1-2.34-25.83-3.28-7.47-.8-16.63.13-20.52,7.55,0,0-13.42,1.58-19.29,12.59S569,520.47,569,520.47s4.5-5.44,10.27,5.58Z" transform="translate(-206.47 -214.67)"/><path class="cls-11" d="M631,501.57s-3.47,18.08,5.58,26.83c0,0,2-5.43,4-6.76A21,21,0,0,0,639,501.57C632.36,491.05,631,501.57,631,501.57Z" transform="translate(-206.47 -214.67)"/><path class="cls-26" d="M647.58,481c-1.34,5-5.56,8.84-10.33,10.78-12.57,5.12-24.77-.55-37.35-1.67-10.29-.91-21.62,8.36-22.34,18.91" transform="translate(-206.47 -214.67)"/><path class="cls-26" d="M569.76,506.24a22,22,0,0,1,13.38-19.38" transform="translate(-206.47 -214.67)"/><path class="cls-10" d="M585.91,575.41s8.28,9.13,19.57,13.39c0,0,15-4.36,22.7-14.85" transform="translate(-206.47 -214.67)"/><circle class="cls-10" cx="595.72" cy="537.06" r="13.31" transform="translate(-376.12 82.55) rotate(-24.64)"/><circle class="cls-10" cx="625.46" cy="537.06" r="13.31" transform="translate(-267.28 -134.41) rotate(-7)"/><path class="cls-10" d="M588.81,570.45a10.45,10.45,0,0,0-6.4,5c-2.36,4.15-.93,17.21-.93,17.21s12.16,12,22.51,17.11l3.06-17.18,4.74,17.18s16-11.34,20.48-20.93c0,0,1.45-11.18,0-14.85a5.13,5.13,0,0,0-4.79-3.5" transform="translate(-206.47 -214.67)"/><path class="cls-10" d="M569.76,685.34s-4.75-31.85-11.08-44.85" transform="translate(-206.47 -214.67)"/><path class="cls-10" d="M545,612.22a128.88,128.88,0,0,1,9.84,16.46" transform="translate(-206.47 -214.67)"/><path class="cls-10" d="M669.93,636a91.61,91.61,0,0,1,5.23-15.55" transform="translate(-206.47 -214.67)"/><path class="cls-10" d="M660.1,685.34s3.43-21.83,7.52-39.83" transform="translate(-206.47 -214.67)"/><path class="cls-10" d="M665.92,654.7a25.12,25.12,0,0,1,13.25-9.06" transform="translate(-206.47 -214.67)"/><path class="cls-10" d="M632.91,585.9s27.62,11,45.45,17.3c0,0,21.93,20.63,45.44,92.06,0,0-21.55,36.25-62.53,47.87" transform="translate(-206.47 -214.67)"/><path class="cls-10" d="M668.38,709.7l19.8-16.53s10.48-8,21.37-2.52" transform="translate(-206.47 -214.67)"/><path class="cls-10" d="M667.62,652.7s16.37,24.13,20.56,40.47" transform="translate(-206.47 -214.67)"/><path class="cls-10" d="M555.72,698.69l-5.8-5.52s-8.6-1.51-18.34,5" transform="translate(-206.47 -214.67)"/><path class="cls-10" d="M549.92,693.17s7.2-23.64,14.3-35.85" transform="translate(-206.47 -214.67)"/><path class="cls-10" d="M581.05,588.8s-39.73,14.91-43.62,19.25-18.7,87.72-19.09,97.26c-.35,8.53,30.59,27.69,45.88,35.77" transform="translate(-206.47 -214.67)"/><rect class="cls-14" x="463.46" y="314.83" width="64.63" height="45.92" rx="6.53"/><polyline class="cls-10" points="484.31 328.64 471.88 336.44 483.42 346.67"/><polyline class="cls-10" points="506.96 347.41 518.13 337.89 505.24 329.44"/><line class="cls-10" x1="490.35" y1="353.27" x2="499.53" y2="324.5"/><path class="cls-27" d="M610.76,617a2.62,2.62,0,1,1-2.61-2.61A2.61,2.61,0,0,1,610.76,617Z" transform="translate(-206.47 -214.67)"/><path class="cls-27" d="M656.73,756.59H566.31a2.12,2.12,0,0,1-2.12-2.12h0a2.12,2.12,0,0,1,2.12-2.12h90.42a2.12,2.12,0,0,1,2.12,2.12h0A2.12,2.12,0,0,1,656.73,756.59Z" transform="translate(-206.47 -214.67)"/><path class="cls-28" d="M659.9,749.56,672,692.66a6.06,6.06,0,0,0-5.92-7.32H560.45a6.05,6.05,0,0,0-5.94,7.23l10.86,55a6.07,6.07,0,0,0,5.8,4.88l82.66,1.89A6.07,6.07,0,0,0,659.9,749.56Z" transform="translate(-206.47 -214.67)"/><path class="cls-27" d="M621.34,718.13a8.43,8.43,0,1,1-8.43-8.43A8.43,8.43,0,0,1,621.34,718.13Z" transform="translate(-206.47 -214.67)"/><line class="cls-25" x1="431.45" y1="476.07" x2="444" y2="476.07"/><line class="cls-25" x1="371.51" y1="476.07" x2="419.15" y2="476.07"/><path class="cls-11" d="M660.1,809.92l-9.63,25.28s-24.56-6.19-56-12.64c-32.9-6.74-67.27-15.47-85.09-46.74-2.18-3.81-3.62-8.32-2.61-12.59,2.58-10.8,16.63-13.73,25.89-14.81a171,171,0,0,1,17.53-1c3,0,12.82-1.6,15.2.15a69.79,69.79,0,0,0,11.44,6.77c5.26,2.24,82-2,82-2a27.57,27.57,0,0,0,2.42-9.22c12.06-6.14,40-11.33,51.82-9,18.57,3.61,29.41,14.45,27.34,25.79S697.39,801.67,660.1,809.92Z" transform="translate(-206.47 -214.67)"/><path class="cls-29" d="M660.1,809.92s-23.35-6.19-42.44-19.08-34-27.86-60.59-24.76" transform="translate(-206.47 -214.67)"/><path class="cls-29" d="M613.27,787.79c12.06-3.47,20.9-11.26,30.58-18.75,10.25-7.94,21.08-15.62,32.74-21.51" transform="translate(-206.47 -214.67)"/><line class="cls-25" x1="402.56" y1="324.5" x2="406.1" y2="324.5"/><path class="cls-30" d="M332.91,291.89h24v24h-24Z" transform="translate(-206.47 -214.67)"/><path class="cls-11" d="M354.91,310.14c-.18-1.09-.89-2-3-2.87-.74-.34-1.55-.58-1.8-1.13a1.24,1.24,0,0,1,0-.7,1.16,1.16,0,0,1,1.52-.66,1.68,1.68,0,0,1,1,.91l1.75-1.13a4.19,4.19,0,0,0-.57-.77,3.4,3.4,0,0,0-2.83-1l-.7.1a3.17,3.17,0,0,0-1.7,1,3.12,3.12,0,0,0,.57,4.46c1.36,1,3.35,1.26,3.61,2.21.25,1.17-.86,1.55-2,1.41a2.58,2.58,0,0,1-1.75-1.33l-1.82,1.05a3.94,3.94,0,0,0,.82,1.11c1.73,1.76,6.08,1.68,6.85-1A3.12,3.12,0,0,0,354.91,310.14Zm-9-7.23h-2.24v5.79a9.61,9.61,0,0,1-.13,2.71c-.33.68-1.18.59-1.57.46a2,2,0,0,1-.83-.86l-.12-.2-1.82,1.11a3.49,3.49,0,0,0,1.32,1.52,4.33,4.33,0,0,0,3.2.39,2.86,2.86,0,0,0,1.81-1.42,6.86,6.86,0,0,0,.39-3.33C345.94,307,345.93,305,345.93,302.91Z" transform="translate(-206.47 -214.67)"/><path class="cls-11" d="M870.35,316.63l-13.8,3.71-13.8-3.71-3.18-34.49h34Z" transform="translate(-206.47 -214.67)"/><path class="cls-31" d="M856.55,284.93v32.45h0l11.17-3,2.57-29.45Z" transform="translate(-206.47 -214.67)"/><path class="cls-32" d="M848.72,277.07V275h3v-2.24h-5.24v6.35h5.24v-2.05ZM857.1,275h2.1v-2.24H854V275c.71.71,1.07,1,2.08,2.06H854v2.05h5.25v-2.05Zm7.43,0h2.1v-2.24h-5.25V275c.7.71,1.07,1,2.08,2.06h-2.08v2.05h5.25v-2.05Z" transform="translate(-206.47 -214.67)"/><path class="cls-21" d="M856.54,293.55l-9.88,4.12.33,4.07,9.55-4.08,10.15-4.35.42-4.16-10.57,4.41Z" transform="translate(-206.47 -214.67)"/><path class="cls-33" d="M846.66,297.67l.33,4.07,9.55-4.08v-4.11Z" transform="translate(-206.47 -214.67)"/><path class="cls-34" d="M867.11,289.15l-10.57,4.4v4.11l10.15-4.35Z" transform="translate(-206.47 -214.67)"/><path class="cls-35" d="M846.68,297.67l.32,4.07,14.65,0-.32,5.43-4.82,1.36-4.64-1.17-.28-3.37h-4.3l.56,6.51,8.7,2.57,8.66-2.53,1.12-12.91Z" transform="translate(-206.47 -214.67)"/><path class="cls-36" d="M856.54,297.67h-9.88l.33,4.07,9.55,0Zm0,10.89h0l-4.63-1.17-.28-3.37h-4.31l.56,6.51,8.71,2.57Z" transform="translate(-206.47 -214.67)"/><path class="cls-37" d="M845.77,289.15h21.34l-.42,4.16h-20.4Z" transform="translate(-206.47 -214.67)"/><path class="cls-36" d="M856.54,289.15H845.77l.52,4.16h10.25Z" transform="translate(-206.47 -214.67)"/><path class="cls-38" d="M847.3,334.8H813.58l3.17,34.28L830.44,373l13.7-3.88Z" transform="translate(-206.47 -214.67)"/><path class="cls-39" d="M830.44,337.59v32.47l11.1-3.15,2.7-29.32Z" transform="translate(-206.47 -214.67)"/><path class="cls-21" d="M839.27,341.8H822.21L821,354.63l0-.08h14.5l-.47,5.43-4.63,1.33L825.75,360l-.28-3.29h-4.26l.61,6.57,8.62,2.45,8.63-2.45,1.19-12.89H824.88l.2-4.3h10.67l.16,2.47h4.3Z" transform="translate(-206.47 -214.67)"/><path class="cls-40" d="M830.45,341.8h-8.24L821,354.63l0-.08h9.41v-4.19h-5l.2-4.29h4.77Zm-5,14.87h-4.27l.61,6.57,8.62,2.44v-4.36L825.75,360Z" transform="translate(-206.47 -214.67)"/><path class="cls-11" d="M827.16,329.74h-3v2.16h5.15v-6.4h-2.14Zm9.57-4.21h-5.24v2.24c.7.7,1.07,1,2.09,2.05h-2.09v2h5.23v-2l-2.09-2h2.1Z" transform="translate(-206.47 -214.67)"/><path class="cls-41" d="M821.84,282.08l-3.08,34.48-13.83,3.84-13.8-3.83-3.07-34.49Z" transform="translate(-206.47 -214.67)"/><path class="cls-42" d="M805,317.47l11.18-3.1,2.63-29.47H805Z" transform="translate(-206.47 -214.67)"/><path class="cls-40" d="M799,293.36h6v-4.23H794.34l.1,1.14,1,11.65H805v-4.23h-5.6Zm.95,10.68h-4.25l.6,6.64,8.66,2.4h0v-4.4h0l-4.71-1.27-.3-3.37Z" transform="translate(-206.47 -214.67)"/><path class="cls-11" d="M791.2,272.71h2.15v2.12h2v-2.12h2.14v6.43h-2.14V277h-2v2.15H791.2Zm9.09,2.13H798.4v-2.13h5.93v2.13h-1.89v4.3h-2.15v-4.3Zm5-2.13h2.24L808.9,275l1.37-2.26h2.25v6.43h-2.15V276l-1.47,2.29h0L807.38,276v3.19h-2.1Zm8.3,0h2.15V277h3v2.12h-5.18Z" transform="translate(-206.47 -214.67)"/><path class="cls-21" d="M804.93,301.92h5.21l-.49,5.49-4.72,1.27v4.4l8.67-2.4.07-.72,1-11.13.1-1.14h-9.83Zm0-8.57h10.22l.09-.95.19-2.15.1-1.13h-10.6v4.22Z" transform="translate(-206.47 -214.67)"/><path class="cls-43" d="M479.81,239.85h1.76v-7L484.3,239a1.51,1.51,0,0,0,1.63,1,1.47,1.47,0,0,0,1.61-1l2.73-6.07v7H492v-7a1.07,1.07,0,0,0-.84-1.17c-1.34-.42-2.23-.06-2.64.85l-2.68,6-2.59-6c-.39-.91-1.31-1.27-2.65-.85a1.06,1.06,0,0,0-.83,1.17v7Zm13.69-5.67h1.76V238c0,.21.07.7,1,.72.49,0,3.8,0,3.83,0v-4.57h1.77s0,6.23,0,6.25c0,1.54-1.91,1.87-2.79,1.9h-5.57v-1.19h5.58c1.13-.12,1-.68,1-.87v-.46h-3.75c-1.74,0-2.85-.78-2.87-1.65C493.5,238.05,493.54,234.22,493.5,234.18Z" transform="translate(-206.47 -214.67)"/><path class="cls-11" d="M503.26,239.85h5.07a4,4,0,0,0,1.63-.34,1.6,1.6,0,0,0,1.13-1.45v-1.29c0-.51-.42-1-1.25-1.3a4.35,4.35,0,0,0-1.51-.26h-2.14c-.71,0-1.05-.21-1.13-.69a.41.41,0,0,1,0-.16v-.8a.36.36,0,0,1,0-.14c.08-.37.27-.47.89-.52l.17,0h5v-1.17h-5a4.53,4.53,0,0,0-1.43.15c-1,.32-1.51.84-1.51,1.75v1c0,.79.9,1.47,2.41,1.62l.51,0h2c.56,0,.8.14,1,.35a.41.41,0,0,1,.13.31v1a.56.56,0,0,1-.25.42,1.23,1.23,0,0,1-.75.25h-5.05Zm18.83-2c0,1.21.9,1.89,2.71,2a4.36,4.36,0,0,0,.51,0h4.6v-1.18h-4.63c-1,0-1.42-.26-1.42-.88v-6.08h-1.77v6.09Zm-9.87.06v-4.19c0-1.06.74-1.71,2.22-1.91a2.67,2.67,0,0,1,.48,0h3.35a2.7,2.7,0,0,1,.49,0c1.48.2,2.22.85,2.22,1.91v4.19a1.52,1.52,0,0,1-1,1.63l1.73,1.57h-2l-1.4-1.27-1.42.09h-1.88a4.08,4.08,0,0,1-1-.15C512.76,239.43,512.22,238.84,512.22,237.86Zm1.9-.1a1.35,1.35,0,0,0,0,.18c.11.49.56.76,1.26.76H517l-1.47-1.33h2.05l1.28,1.16a.86.86,0,0,0,.45-.57.47.47,0,0,0,0-.17v-4a.5.5,0,0,0,0-.16c-.1-.45-.56-.71-1.24-.71h-2.67c-.78,0-1.29.34-1.29.87v4Z" transform="translate(-206.47 -214.67)"/><path class="cls-44" d="M531.46,229.76a6.19,6.19,0,0,0-2.62.37c-.2.08-.52.08-.55.34s.12.29.21.43a3.55,3.55,0,0,0,.71.83c.28.21.56.43.86.62.53.32,1.13.5,1.64.83.3.19.6.43.89.65s.24.27.43.33v0c-.1-.12-.12-.3-.21-.43l-.4-.4A6.49,6.49,0,0,0,531,232c-.42-.31-1.37-.72-1.54-1.21l0,0a7.21,7.21,0,0,0,.92-.21c.46-.13.88-.1,1.36-.22l.64-.18V230c-.24-.25-.41-.57-.67-.8a20,20,0,0,0-2.22-1.66c-.43-.27-1-.45-1.42-.68-.15-.08-.42-.12-.53-.25a5.8,5.8,0,0,1-.55-1.05c-.39-.74-.77-1.55-1.11-2.34a12.59,12.59,0,0,0-.68-1.54,13.53,13.53,0,0,0-5.24-5.05,6.21,6.21,0,0,0-1.72-.56l-1-.06a6.62,6.62,0,0,1-.62-.46c-.77-.49-2.75-1.55-3.33-.16-.36.89.54,1.75.87,2.19a7.46,7.46,0,0,1,.67,1,7.36,7.36,0,0,1,.22.71,16,16,0,0,0,.71,1.82,7.54,7.54,0,0,0,.49.83c.12.15.31.22.34.46a3.92,3.92,0,0,0-.31,1,5.91,5.91,0,0,0,.4,4.53c.22.34.73,1.08,1.42.8s.48-1,.65-1.7c0-.15,0-.26.09-.36v0l.56,1.11a7.52,7.52,0,0,0,1.75,1.81c.32.25.58.66,1,.81v0h0c-.08-.12-.21-.17-.31-.27a7.66,7.66,0,0,1-.71-.8,19.16,19.16,0,0,1-1.51-2.47c-.21-.41-.4-.87-.58-1.29-.07-.17-.07-.41-.22-.5a6.4,6.4,0,0,0-.65.93,8.07,8.07,0,0,0-.37,2l-.06,0c-.43-.1-.58-.54-.74-.92a5.83,5.83,0,0,1-.12-3.61c.09-.28.51-1.18.34-1.45s-.35-.41-.5-.61a5.27,5.27,0,0,1-.49-.87c-.33-.74-.48-1.58-.83-2.34a7.25,7.25,0,0,0-.68-1,6.34,6.34,0,0,1-.74-1.05c-.07-.15-.16-.39-.06-.55a.25.25,0,0,1,.18-.19c.18-.13.68.05.87.13a7.14,7.14,0,0,1,1.32.68c.2.13.41.39.65.46h.28c.43.1.92,0,1.32.15a8.16,8.16,0,0,1,1.95.93,12.13,12.13,0,0,1,4.22,4.62c.16.31.23.6.37.92.28.66.64,1.34.92,2a9.26,9.26,0,0,0,1,1.82c.21.28,1,.43,1.38.58a8.18,8.18,0,0,1,.93.37c.47.28.92.62,1.36.93C530.75,229.14,531.43,229.48,531.46,229.76ZM517.68,218a2.23,2.23,0,0,0-.55.07v0h0a4.75,4.75,0,0,0,.43.55l.31.65,0,0a.77.77,0,0,0,.28-.68c-.08-.08-.09-.18-.16-.28S517.79,218.12,517.68,218Z" transform="translate(-206.47 -214.67)"/><path class="cls-11" d="M310.69,291.89c-6.12,0-5.74,2.65-5.74,2.65v2.75h5.84v.83h-8.16s-3.91-.45-3.91,5.72,3.42,6,3.42,6h2v-2.86a3.24,3.24,0,0,1,3.36-3.42h5.79s3.25.06,3.25-3.14v-5.28S317.08,291.89,310.69,291.89Zm-3.22,1.85a1,1,0,1,1-1.05,1.05,1.06,1.06,0,0,1,1.05-1.05Z" transform="translate(-206.47 -214.67)"/><path class="cls-45" d="M310.86,315.85c6.11,0,5.73-2.65,5.73-2.65v-2.75h-5.84v-.82h8.15s3.92.44,3.92-5.73S319.4,298,319.4,298h-2v2.87a3.24,3.24,0,0,1-3.36,3.41h-5.78s-3.26-.05-3.26,3.14v5.29S304.47,315.85,310.86,315.85Zm3.22-1.84a1,1,0,1,1,1.05-1.05,1.06,1.06,0,0,1-1.05,1.05Z" transform="translate(-206.47 -214.67)"/><path class="cls-46" d="M367.18,312.72a3.14,3.14,0,0,0,3.14,3.13h18.05a3.14,3.14,0,0,0,3.14-3.13h0V294.66a3.14,3.14,0,0,0-3.14-3.13H370.32a3.14,3.14,0,0,0-3.14,3.13h0v18.06Z" transform="translate(-206.47 -214.67)"/><path class="cls-21" d="M377.27,302.29v-3.45h3a4.78,4.78,0,0,1,.84.08,2,2,0,0,1,.71.25,1.36,1.36,0,0,1,.49.52,1.65,1.65,0,0,1,.19.84,1.59,1.59,0,0,1-.56,1.35,2.36,2.36,0,0,1-1.42.41Zm-3.24-6v14.73h7.14a7.86,7.86,0,0,0,1.93-.25,5.07,5.07,0,0,0,1.67-.77,3.63,3.63,0,0,0,1.16-1.33,4.47,4.47,0,0,0-.23-4.29,3.6,3.6,0,0,0-2-1.37,3.62,3.62,0,0,0,1.5-1.21,3.24,3.24,0,0,0,.5-1.86,3.8,3.8,0,0,0-.34-1.73,2.75,2.75,0,0,0-.95-1.13,4.31,4.31,0,0,0-1.49-.61,8.8,8.8,0,0,0-1.92-.18Zm3.24,12.21v-4h3.53a2.76,2.76,0,0,1,1.69.48,1.92,1.92,0,0,1,.64,1.62,2.08,2.08,0,0,1-.2.95,1.56,1.56,0,0,1-.52.59,2.44,2.44,0,0,1-.77.31,4.6,4.6,0,0,1-.91.09Z" transform="translate(-206.47 -214.67)"/><path class="cls-47" d="M761,732.81s-2.33,1.36,1.66,1.82a35,35,0,0,0,12.64-.54,22.35,22.35,0,0,0,3.36,1.64C766.74,740.85,751.64,735.43,761,732.81Zm-1.46-6.68s-2.62,1.93,1.38,2.35a49.41,49.41,0,0,0,16.31-.79,7.38,7.38,0,0,0,2.51,1.54C765.32,733.45,749.23,729.56,759.57,726.13Z" transform="translate(-206.47 -214.67)"/><path class="cls-11" d="M771.88,714.78c3,3.4-.77,6.45-.77,6.45s7.48-3.86,4-8.7c-3.21-4.51-5.67-6.75,7.65-14.47C782.8,698.06,761.9,703.28,771.88,714.78Z" transform="translate(-206.47 -214.67)"/><path class="cls-48" d="M787.69,737.76s1.73,1.42-1.9,2.52c-6.9,2.09-28.72,2.72-34.78.08-2.18-.94,1.91-2.26,3.19-2.54a8.1,8.1,0,0,1,2.11-.23c-2.42-1.71-15.66,3.35-6.73,4.8C774,746.34,794,740.61,787.69,737.76ZM762.15,719.2s-11.1,2.63-3.93,3.59a82.07,82.07,0,0,0,14.68-.16c4.6-.38,9.2-1.21,9.2-1.21a20.38,20.38,0,0,0-2.79,1.5c-11.27,3-33,1.58-26.77-1.45A21,21,0,0,1,762.15,719.2Zm19.91,11.13c11.46-6,6.16-11.68,2.46-10.91a8.29,8.29,0,0,0-1.31.36,2.12,2.12,0,0,1,1-.76c7.31-2.57,12.94,7.59-2.36,11.61A1,1,0,0,0,782.06,730.33Z" transform="translate(-206.47 -214.67)"/><path class="cls-11" d="M775.15,685.59s6.35,6.34-6,16.1c-9.91,7.83-2.26,12.3,0,17.4-5.79-5.22-10-9.82-7.18-14.1C766.13,698.71,777.71,695.67,775.15,685.59Z" transform="translate(-206.47 -214.67)"/><path class="cls-49" d="M763.28,746.46c11,.7,27.88-.39,28.28-5.59,0,0-.77,2-9.09,3.53a90.38,90.38,0,0,1-27.83.43S756.05,746,763.28,746.46Z" transform="translate(-206.47 -214.67)"/><ellipse class="cls-11" cx="423.87" cy="47.48" rx="30.55" ry="15.91"/><path class="cls-50" d="M608.37,271.57l3.35-17h7.74c3.35.21,5,1.89,5,4.82a7.4,7.4,0,0,1-7.53,7.74h-3.77l-.84,4.4ZM614,264l1.05-6.28h2.72c1.46,0,2.51.63,2.51,1.89-.21,3.55-1.89,4.18-3.77,4.39Zm9.68,3.14,3.35-17h4l-.84,4.39H634c3.35.21,4.6,1.89,4.18,4l-1.46,8.58h-4.19l1.47-7.74c.21-1.05.21-1.68-1.26-1.68h-3.14l-1.88,9.42Zm12.71,4.4,3.35-17h7.74c3.35.21,5,1.89,5,4.82a7.41,7.41,0,0,1-7.54,7.74h-3.77l-.83,4.4Zm5.65-7.54,1.05-6.28h2.72c1.47,0,2.51.63,2.51,1.89-.21,3.55-1.88,4.18-3.77,4.39Z" transform="translate(-206.47 -214.67)"/></svg>